<svg xmlns="http://www.w3.org/2000/svg" width="45.675" height="50.087" viewBox="0 0 45.675 50.087">
  <g id="android" transform="translate(-474.946 -2472.56)">
    <path id="Path_1193" data-name="Path 1193" d="M116.024,3.339A2.318,2.318,0,0,0,111.862,1.3l-2.339,4.766a14.13,14.13,0,0,0-13.257,0L93.928,1.3a2.318,2.318,0,0,0-4.163,2.042L92.518,8.95a14.1,14.1,0,0,0-3.78,9.618.74.74,0,0,0,.74.74h26.833a.74.74,0,0,0,.74-.74,14.1,14.1,0,0,0-3.78-9.618Zm-2.834-1.391a.838.838,0,1,1,1.505.739l-2.542,5.181a14.2,14.2,0,0,0-1.357-1.04ZM91.477,1.565a.839.839,0,0,1,1.122.383l2.394,4.879a14.255,14.255,0,0,0-1.358,1.041L91.094,2.688a.839.839,0,0,1,.383-1.122ZM90.24,17.828a12.677,12.677,0,0,1,25.31,0Zm0,0" transform="translate(394.888 2472.56)" fill="#080927"/>
    <path id="Path_1194" data-name="Path 1194" d="M398.8,214.516a3.506,3.506,0,0,0-3.5,3.5v11.838a3.5,3.5,0,1,0,7,0V218.018A3.506,3.506,0,0,0,398.8,214.516Zm2.023,15.34a2.022,2.022,0,1,1-4.045,0V218.018a2.022,2.022,0,1,1,4.045,0Zm0,0" transform="translate(118.315 2279.029)" fill="#2d43ba"/>
    <path id="Path_1195" data-name="Path 1195" d="M116.315,214.516h-3.847a.74.74,0,1,0,0,1.48h3.108v17.461h-3.206a.74.74,0,0,0-.74.74v5.919a2.022,2.022,0,0,1-4.045,0V234.2a.74.74,0,0,0-.74-.74H98.953a.74.74,0,0,0-.74.74v5.919a2.022,2.022,0,0,1-4.045,0V234.2a.74.74,0,0,0-.74-.74H90.222V216h18.645a.74.74,0,1,0,0-1.48H89.483a.74.74,0,0,0-.74.74V234.2a.739.739,0,0,0,.74.74h3.206v5.179a3.5,3.5,0,0,0,7,0v-5.179h6.412v5.179a3.5,3.5,0,0,0,7,0v-5.179h3.206a.739.739,0,0,0,.74-.74V215.256a.74.74,0,0,0-.74-.74Zm0,0" transform="translate(394.884 2279.029)" fill="#080927"/>
    <path id="Path_1196" data-name="Path 1196" d="M3.5,214.516a3.506,3.506,0,0,0-3.5,3.5v11.838a3.5,3.5,0,1,0,7,0V218.018A3.506,3.506,0,0,0,3.5,214.516Zm2.022,15.34a2.022,2.022,0,1,1-4.045,0V218.018a2.022,2.022,0,1,1,4.045,0Zm0,0" transform="translate(474.946 2279.029)" fill="#2d43ba"/>
    <path id="Path_1197" data-name="Path 1197" d="M147.529,117.707a2.318,2.318,0,1,0,2.318,2.318A2.321,2.321,0,0,0,147.529,117.707Zm0,3.157a.838.838,0,1,1,.838-.838A.839.839,0,0,1,147.529,120.864Zm0,0" transform="translate(343.94 2366.367)" fill="#2d43ba"/>
    <path id="Path_1198" data-name="Path 1198" d="M276.607,117.707a2.318,2.318,0,1,0,2.318,2.318A2.321,2.321,0,0,0,276.607,117.707Zm0,3.157a.838.838,0,1,1,.838-.838A.839.839,0,0,1,276.607,120.864Zm0,0" transform="translate(227.489 2366.367)" fill="#2d43ba"/>
  </g>
</svg>
