<svg xmlns="http://www.w3.org/2000/svg" width="52.229" height="52.225" viewBox="0 0 52.229 52.225">
  <g id="arvr" transform="translate(0 -0.005)">
    <g id="_006---AR-Phone-Projection" data-name="006---AR-Phone-Projection" transform="translate(0 0.005)">
      <path id="Shape" d="M45.432,37.561a4.6,4.6,0,0,0-3.849-2.024H38.672l9.933-15.193a.87.87,0,1,0-1.457-.952L32.607,41.631H19.622L5.081,19.393a.87.87,0,1,0-1.457.952l9.933,15.193H10.646a4.6,4.6,0,0,0-3.851,2.027L.435,47.184A2.474,2.474,0,0,0,0,48.595v3.482a2.611,2.611,0,0,0,2.611,2.611H49.617a2.611,2.611,0,0,0,2.611-2.611V48.595a2.461,2.461,0,0,0-.435-1.4Zm-31.806-.283H14.7l3.727,5.7a.87.87,0,0,0,.729.394H33.078a.87.87,0,0,0,.729-.394l3.727-5.7h1.939l.827,1.893-.266.133a2.629,2.629,0,0,0-1.306,3.167l.931,2.791a2.6,2.6,0,0,0,2.05,1.754l2.181.366.915,2.083H8.295ZM1.884,48.152l6.361-9.624a2.862,2.862,0,0,1,2.4-1.249h1.08L6.395,49.465H2.716a.927.927,0,0,1-.975-.87.77.77,0,0,1,.143-.443Zm48.6,3.925a.87.87,0,0,1-.87.87H2.611a.87.87,0,0,1-.87-.87V51.025a2.785,2.785,0,0,0,.975.181h46.8a2.785,2.785,0,0,0,.975-.181Zm-.975-2.611H46.7l-1.417-3.23a.87.87,0,0,0-.8-.522l-2.5-.415a.87.87,0,0,1-.682-.582l-.932-2.8a.87.87,0,0,1,.435-1.059l.757-.379a.87.87,0,0,0,.669-1.209l-.87-1.993h.211a2.862,2.862,0,0,1,2.4,1.246l6.37,9.635a.761.761,0,0,1,.137.435.927.927,0,0,1-.975.87Z" transform="translate(0 -2.463)" fill="#080927"/>
      <path id="Shape-2" data-name="Shape" d="M28.482,17.2a.87.87,0,0,0,1.741,0V15.114l3.024-1.625a.871.871,0,0,0-.825-1.534L29.352,13.6,26.283,11.95a.871.871,0,1,0-.825,1.534l3.024,1.63Z" transform="translate(-3.238 -1.538)" fill="#080927"/>
      <path id="Shape-3" data-name="Shape" d="M16.458,19.917l11.316,6.093a.87.87,0,0,0,.825,0l11.316-6.093a.87.87,0,0,0,.458-.766V6.964a.87.87,0,0,0-.424-.747c-.011-.007-.024-.01-.037-.016L28.6.109a.87.87,0,0,0-.825,0L16.455,6.2c-.012.006-.025.009-.037.016A.87.87,0,0,0,16,6.964V19.151a.87.87,0,0,0,.458.766Zm1.283-11.5L19.94,9.6a.871.871,0,1,0,.825-1.534l-2.057-1.1,9.479-5.1,9.479,5.1L35.608,8.07A.871.871,0,0,0,36.434,9.6l2.2-1.183V18.629l-9.575,5.158v-2.9a.87.87,0,0,0-1.741,0v2.9l-9.575-5.158Z" transform="translate(-2.072 -0.005)" fill="#2d43ba"/>
    </g>
  </g>
</svg>
