<svg id="client6" xmlns="http://www.w3.org/2000/svg" width="56.234" height="56.234" viewBox="0 0 56.234 56.234">
  <path id="path0" d="M64.111,99.977c-3.983,5.31-5.925,7.926-5.907,7.956.028.046,2.155,2.922,3.6,4.868.456.614,1.111,1.5,1.457,1.966s.638.849.65.849.354-.452.76-1,1.047-1.421,1.425-1.932c.938-1.267,2.163-2.923,3.539-4.788,1.2-1.631,2.224-3.011,3.757-5.082.5-.676,1.4-1.9,2.007-2.717s1.447-1.959,1.874-2.535c.872-1.176,3.514-4.754,3.8-5.15.1-.142.2-.277.221-.3s-1.1-.043-5.609-.043H70.045l-5.934,7.912M50.885,96.691l-1.611,2.189-1.906,2.592c-.409.557-.909,1.237-1.111,1.511l-.368.5.336.022c.185.012.545.023.8.025l.464,0,.086-.118c.987-1.361,3.6-4.852,3.622-4.845s1.463,1.915,3.211,4.244,3.192,4.239,3.21,4.244,6.76-8.939,8.164-10.841l.1-.132H51.333l-.448.609" transform="translate(-39.439 -79.122)" fill="#fff" fill-rule="evenodd"/>
  <path id="path1" d="M0,28.117V56.234H56.234V0H0V28.117M41.859,12.986c-.018.024-.118.159-.221.3-.289.4-2.931,3.974-3.8,5.15-.427.576-1.27,1.716-1.874,2.535s-1.507,2.041-2.007,2.717C32.421,25.759,31.4,27.139,30.2,28.77c-1.376,1.864-2.6,3.521-3.539,4.788-.378.511-1.019,1.38-1.425,1.932s-.747,1-.76,1-.3-.382-.65-.849-1-1.352-1.457-1.966c-1.445-1.946-3.572-4.822-3.6-4.868-.018-.03,1.923-2.646,5.907-7.956l5.934-7.912h5.643c4.51,0,5.636.008,5.609.043m1.559.654c.268.381.738,1.049,1.045,1.483l1.674,2.369c.614.869,1.4,1.979,1.746,2.468s.626.892.62.9-.365.019-.8.031l-.79.022-2.056-2.747c-1.131-1.511-2.065-2.746-2.077-2.745s-.357.461-.768,1.021c-.926,1.264-2.7,3.684-3.983,5.429l-3.819,5.2L32.134,29.9,30.366,32.3l-1.914,2.608c-.562.765-1.335,1.82-1.717,2.343s-.711.952-.73.953a4.6,4.6,0,0,1-.488-.453l-.453-.455,1.108-1.511c.609-.831,1.662-2.268,2.339-3.193l1.861-2.541,1.647-2.249,1.935-2.643,2.124-2.9,1.773-2.42c.82-1.118,3.029-4.138,4.113-5.62.513-.7.941-1.277.951-1.277s.236.312.5.694M26.344,17.092c-1.4,1.9-8.14,10.848-8.164,10.841s-1.463-1.915-3.21-4.244-3.192-4.239-3.211-4.244-2.634,3.484-3.622,4.845l-.086.118-.464,0c-.255,0-.615-.013-.8-.025l-.336-.022.368-.5c.2-.274.7-.953,1.111-1.511l1.906-2.592,1.611-2.189.448-.609H26.441l-.1.132M42.6,18.951V19.5h-1.1V18.4h1.1v.549m1.579,0v.55l-.558-.009-.558-.009-.01-.5c-.013-.648-.074-.585.575-.585h.55v.55M42.6,20.35l.009.558h-1.1v-.544a3.691,3.691,0,0,1,.024-.567,3.3,3.3,0,0,1,.541-.014l.517.009.01.558m1.579,0,.009.559-.559-.009-.559-.009-.01-.51c-.012-.655-.057-.61.59-.6l.519.009.009.559M11.535,22.59v.549H10.4v-.526a3.614,3.614,0,0,1,.023-.549,3.833,3.833,0,0,1,.567-.023h.544v.549m1.579,0v.549H11.982v-.526A3.583,3.583,0,0,1,12,22.063a3.829,3.829,0,0,1,.566-.023h.544v.549M11.535,24v.549H10.4v-1.1h1.133V24m1.579,0v.549H11.982V24.02A3.578,3.578,0,0,1,12,23.471a3.8,3.8,0,0,1,.566-.023h.544V24M38.554,39.778a1.881,1.881,0,0,1,1.011,2.346,1.535,1.535,0,0,1-3,.049c-.4-1.575.595-2.774,1.992-2.394m6.351.026c.248.07.257.077.25.172-.011.157-.05.167-.305.082a1.359,1.359,0,0,0-1.244.122.6.6,0,0,0,.069.921,2.96,2.96,0,0,0,.75.335c.892.345,1.147,1.011.6,1.567-.428.436-1.9.492-1.934.073-.012-.148,0-.152.251-.075.65.2,1.385.047,1.581-.332.217-.42-.059-.806-.74-1.031-.757-.251-1.043-.527-1.043-1.008,0-.742.779-1.107,1.764-.827M24.5,39.836a.955.955,0,0,1,.111,1.772l-.195.093.447.751c.551.924.52.846.321.833l-.161-.011-.394-.669c-.217-.368-.417-.7-.445-.747-.048-.073-.073-.077-.461-.077h-.411l-.009.747-.009.747h-.275l-.009-1.717c0-.944,0-1.738.009-1.763a5.135,5.135,0,0,1,1.479.041m3.372.048-.011.129-.824.007-.824.007-.009.637-.009.637h1.581v.275H26.193l.009.723.009.723.824.007.824.007.011.129.011.129H25.92V39.755h1.961l-.011.129m1.993.223c.076.194.38.962.676,1.708.659,1.658.607,1.476.421,1.476h-.152l-.239-.609-.239-.609-.7-.009-.7-.009-.242.61-.242.61-.145.011c-.187.014-.33.424,1.085-3.126.222-.556.282-.562.482-.052m1.988,1.287.009,1.622h1.647v.275H31.585v-3.54l.129.011.129.011.009,1.622m4.312-1.5v.12l-.555.009-.555.01-.009,1.621-.009,1.621H34.76l-.009-1.621-.009-1.621-.558-.01-.558-.009-.011-.129-.011-.129,1.279.009,1.279.009v.12m5.771-.041a.965.965,0,0,1,.053,1.773c-.085.037-.16.07-.166.075s.2.358.455.785c.542.9.508.813.305.8l-.162-.011-.443-.747-.443-.747h-.851v1.511h-.275V39.748l.661.015a2.451,2.451,0,0,1,.865.089M10.07,39.838c.039.1.6,2.485.627,2.647l.025.172.06-.309c.049-.257.533-2.065.654-2.446l.036-.112h.268c.174,0,.279.015.3.043.042.056.623,2.124.7,2.48l.057.275.044-.206c.024-.113.156-.669.294-1.236s.261-1.084.275-1.15c.039-.19.067-.206.364-.206.255,0,.27,0,.27.075,0,.1-.861,3.4-.9,3.453A.944.944,0,0,1,12.5,43.3c-.04-.076-.641-2.189-.7-2.462l-.044-.2-.106.428c-.164.66-.6,2.208-.641,2.256-.065.085-.6.057-.643-.034-.047-.109-.892-3.36-.892-3.433s.564-.092.595-.012m5.966.021c.092.168,1.293,3.454,1.27,3.477a1.013,1.013,0,0,1-.313.018l-.285-.01-.178-.481-.178-.481-.653-.009-.653-.009-.181.5-.181.5H14.4a.84.84,0,0,1-.305-.032c-.011-.018.16-.508.379-1.09.313-.83.758-2.032.891-2.407a1.134,1.134,0,0,1,.673.027m3.4.014a1.8,1.8,0,0,1,.16,3.343,4.747,4.747,0,0,1-1.81.1,33.365,33.365,0,0,1,0-3.492,6.723,6.723,0,0,1,1.648.045m2.514,1.7v1.768h-.584l-.009-1.734c0-.954,0-1.754.008-1.778s.093-.042.3-.034l.284.01v1.768M37.833,40c-1.255.165-1.492,2.463-.307,2.981,1.051.46,1.956-.429,1.786-1.755-.117-.911-.632-1.339-1.479-1.227m-14.522.748v.761h.472c.749,0,1.073-.221,1.073-.728,0-.553-.255-.731-1.1-.772l-.443-.021v.761m17.372,0v.764l.524-.012c.794-.018,1.031-.186,1.036-.732s-.223-.719-1.088-.76l-.472-.023v.764m-11.089-.429c0,.027-.124.363-.275.747s-.275.709-.275.723a6.641,6.641,0,0,0,1.168,0c0-.014-.127-.362-.283-.772-.258-.677-.335-.839-.335-.7M18.367,41.575v1.28l.369-.019a1.166,1.166,0,0,0,1.254-1.5c-.09-.712-.4-.974-1.213-1.018l-.41-.022v1.28m-2.894-.453c-.127.372-.231.688-.231.7a2.119,2.119,0,0,0,.464.026,2,2,0,0,0,.463-.027c0-.015-.1-.331-.233-.7l-.233-.675-.231.676" fill="#2d43ba" fill-rule="evenodd"/>
  <path id="path2" d="M99.43,131.43v.549h1.1v-1.1h-1.1v.549m1.579,0v.55h1.1l-.009-.541-.009-.541-.541-.009-.541-.009v.55m-1.571,1.4.009.541h1.064l.01-.541.009-.541h-1.1l.009.541m1.579,0,.009.541h1.064l.009-.541.009-.541h-1.1l.009.541m-32.633,1.713a3.48,3.48,0,0,0-.024.55v.526h1.1l-.01-.541-.009-.541-.517-.01a3.314,3.314,0,0,0-.541.014m1.579,0a3.483,3.483,0,0,0-.024.55v.526h1.1l-.009-.541-.01-.541-.517-.01a3.316,3.316,0,0,0-.541.014m-1.6,1.935v.551l.541-.01.541-.009v-1.064l-.541-.009-.541-.01v.551m1.579,0v.551l.541-.01.541-.009v-1.064l-.541-.009-.541-.01v.551m25.647,15.759c-1.412.3-1.623,2.815-.288,3.44a1.713,1.713,0,0,0,1.664-.183,2.182,2.182,0,0,0-.043-3,1.817,1.817,0,0,0-1.332-.253m6.226,0a.893.893,0,0,0-.654,1.245c.129.264.307.382.9.6.784.285,1.021.6.809,1.064-.175.386-1.036.564-1.645.34-.2-.073-.21-.071-.21.044,0,.132.053.169.331.228,1.174.249,2.006-.251,1.832-1.1-.074-.363-.286-.522-1.117-.836-.555-.21-.717-.375-.715-.727,0-.568.675-.82,1.469-.552l.195.066.05-.1c.068-.132.077-.123-.182-.2a2.816,2.816,0,0,0-1.059-.065M80.96,154v1.77l.112-.011.112-.011.009-.765.009-.765.431.01.431.01.418.707c.5.841.481.82.628.82.164,0,.164,0-.33-.828-.526-.881-.493-.753-.227-.884a.845.845,0,0,0,.5-.846c0-.726-.437-.976-1.708-.978H80.96V154m2.9-1.727c-.009.024-.012.815-.007,1.759l.009,1.717.953.009.953.009v-.241H84.118V154.02H85.7v-.206H84.118v-1.339h1.648v-.24h-.945a3.343,3.343,0,0,0-.962.043m3.592.034c-.016.043-.324.811-.684,1.708s-.665,1.659-.678,1.693c-.021.055-.007.061.122.051l.146-.011.239-.609.239-.609h1.427l.239.609.239.609h.135c.088,0,.133-.015.127-.042-.011-.058-1.3-3.326-1.348-3.409a.108.108,0,0,0-.2.009m2.072-.034c-.009.024-.012.815-.007,1.759l.009,1.717h1.888l.011-.111.011-.111-.835-.009-.835-.009-.009-1.639-.009-1.639h-.1c-.057,0-.111.019-.12.043m2.033-.02a.236.236,0,0,0-.023.119v.1l.575.009.575.009.009,1.641.009,1.641.111-.011.111-.011.017-1.631.017-1.631.558-.009.558-.009v-.239H92.827c-.686,0-1.258.01-1.27.023m6.792.015c-.01.026-.014.821-.01,1.765l.009,1.717h.24l.009-.764.009-.764h.842l.457.773.457.773h.134c.178,0,.192.036-.295-.782-.534-.9-.5-.81-.3-.9a.94.94,0,0,0-.136-1.773,5.1,5.1,0,0,0-1.415-.044m-30.95.044c0,.007.122.482.272,1.056s.353,1.356.451,1.738l.179.7h.64l.039-.146c.022-.08.16-.579.307-1.107s.287-1.054.311-1.167c.067-.318.086-.324.148-.047.031.139.2.752.369,1.36l.313,1.107h.642l.034-.129c.16-.607.861-3.338.861-3.353a1.1,1.1,0,0,0-.292-.02.932.932,0,0,0-.292.023c0,.013-.137.588-.306,1.279s-.317,1.317-.33,1.393c-.024.133-.026.127-.088-.172-.035-.17-.2-.807-.378-1.416l-.315-1.107H69.68c-.242,0-.288.009-.3.06-.156.517-.6,2.139-.653,2.411l-.076.36-.042-.223c-.036-.188-.485-2.074-.591-2.48l-.034-.129h-.29a1.7,1.7,0,0,0-.291.013m5.856.133-.652,1.742-.6,1.6.293.01c.352.012.294.069.491-.48l.163-.457.666-.009.666-.009.171.473.171.473.3.01c.3.01.3.009.284-.069-.011-.043-.3-.832-.648-1.752l-.627-1.674h-.63l-.054.146m2.452,1.6v1.751h.661c1.569,0,2.158-.477,2.168-1.75s-.562-1.749-2.151-1.75h-.678v1.751m3.6,0v1.751H79.9v-3.5h-.584v1.751m17.183-1.524c1.015.356,1.047,2.483.044,2.936a1.786,1.786,0,0,1-1.115,0,1.843,1.843,0,0,1-.141-2.841,1.558,1.558,0,0,1,1.213-.1m-14.073.067a.6.6,0,0,1,.357.63c0,.58-.333.8-1.154.785l-.408-.01-.009-.768-.009-.768.513.014c.486.014.523.02.71.116m17.3-.054a.763.763,0,0,1,.163,1.307,1.506,1.506,0,0,1-.885.169h-.393v-1.552l.489.017a3.894,3.894,0,0,1,.626.059m-11.856.953.294.781-.3.01c-.167.005-.44.005-.608,0l-.3-.01.286-.738c.157-.406.286-.757.287-.781,0-.135.085.038.349.738m-10.483-.571c.406.207.539.489.539,1.146,0,.854-.355,1.215-1.227,1.247l-.4.015v-2.558l.431.017a1.149,1.149,0,0,1,.661.134m-3.5.709.237.7h-.5c-.384,0-.494-.01-.481-.043s.112-.329.229-.678c.265-.795.246-.744.262-.7.008.019.12.347.251.729" transform="translate(-57.924 -112.479)" fill="#fff" fill-rule="evenodd"/>
  <path id="path3" d="M101.333,92.363a1.163,1.163,0,0,0-.137.231c0,.058-.088.193-.324.5-.124.164-.3.406-.4.537a1.23,1.23,0,0,1-.184.227c-.007-.007.177-.272.408-.589.529-.725.507-.694.44-.628a7.753,7.753,0,0,0-.881,1.278c.035.025.032.028-.011.015s-.119.066-.283.289c-.227.309-.26.365-.187.32.025-.015.03-.009.015.016s-.037.033-.051.024-.175.162-.175.211c0,.015.04-.019.089-.076l.088-.1-.074.112c-.041.062-.087.1-.1.095a1.65,1.65,0,0,0-.3.351c-.6.834-.643.889-.511.746s.128-.108-.011.077c-.046.061-.1.1-.11.095s-.048.01-.073.043c-.042.054-.041.055.013.013.084-.066.075-.015-.017.1a3.124,3.124,0,0,0-.232.327c-.037.057-.068.089-.068.073a1.257,1.257,0,0,1,.137-.232c.209-.306.138-.241-.117.108-.24.329-.274.394-.149.288l.077-.065-.065.076c-.036.042-.076.07-.089.061s-.173.167-.171.213c0,.015.041-.019.089-.076s.073-.074.052-.031c-.039.078-.142.176-.142.134,0-.014-.023-.006-.051.017-.06.049-.07.119-.013.083s.032-.005-.12.218a.774.774,0,0,1-.114.145c-.02,0,.018-.065.118-.2.046-.063.077-.121.068-.13-.025-.025-.27.329-.25.361.009.015-.006.057-.035.093-.049.061-.05.059-.014-.021s.018-.062-.066.034c-.122.141-.14.211-.029.117l.077-.065-.065.076c-.036.042-.076.07-.089.061a1.282,1.282,0,0,0-.328.466.337.337,0,0,1-.1.163c-.054.051-.078.065-.053.032s.036-.06.026-.06a.41.41,0,0,0-.1.111c-.044.063-.056.1-.026.077s.012,0-.036.043-.084.1-.079.12a.292.292,0,0,1-.08.146l-.088.1L96.51,99l.075-.12-.105.12c-.107.122-.14.2-.068.151.025-.015.03-.009.015.016a.043.043,0,0,1-.054.022,1.363,1.363,0,0,0-.361.5,2.211,2.211,0,0,1-.309.473c-.179.236-.331.444-.338.464s-.022.027-.033.017a3.134,3.134,0,0,1,.325-.474,3.684,3.684,0,0,0,.329-.472,13.014,13.014,0,0,0-.9,1.245.109.109,0,0,1-.031.069c-.018.016-.02.01-.006-.015s.017-.043.008-.043a1.134,1.134,0,0,0-.245.374.4.4,0,0,1-.082.162c-.043.054-.192.257-.332.451a1.765,1.765,0,0,1-.286.343c-.017,0-.086.064-.154.152-.127.165-.154.222-.084.179.025-.016.03-.009.014.017s-.034.033-.045.023-.111.047-.111.092c0,.019.027.013.06-.013.054-.042.056-.041.014.012-.025.032-.062.056-.082.052s-.043.014-.053.04,0,.039.03.019.04-.02,0,.03c-.055.068-.089.078-.051.015.018-.029.007-.028-.032,0-.067.054-.079.124-.015.086.029-.017.028-.007,0,.032-.051.063-.09.08-.056.024.012-.019.014-.034.006-.034a2.472,2.472,0,0,0-.353.51c.009.014,0,.048-.02.075s-.03.035-.013-.019c.027-.084.01-.065-.206.221-.092.121-.149.21-.127.2a1.056,1.056,0,0,0,.15-.178c.06-.084.117-.147.124-.139a1.175,1.175,0,0,1-.3.38c-.015-.009-.048.01-.073.043-.042.054-.041.055.013.013.033-.026.06-.032.06-.013,0,.039-.109.138-.123.111-.005-.009-.022,0-.038.014s-.009.02.019,0,.042-.013.03.02-.033.044-.053.04a1.747,1.747,0,0,0-.377.491c.009.009.058-.046.108-.122a.571.571,0,0,1,.11-.138c.01,0-.03.07-.088.155s-.12.147-.135.138-.069.035-.118.1c-.1.126-.114.176-.05.136.049-.03.018.027-.1.186-.046.063-.093.105-.1.095s-.111.047-.111.092c0,.019.027.013.06-.013.054-.043.056-.041.013.013-.026.033-.059.052-.074.043-.044-.027-.275.319-.252.377.011.029,0,.052-.02.052s-.031-.015-.019-.034c.053-.085-.021-.023-.091.077-.052.074-.058.1-.02.064s.059-.032.059-.013c0,.044-.086.117-.11.093s-.039.01-.066.043c-.043.055-.042.057.012.014.1-.076.069.01-.033.1-.051.046-.073.056-.047.023s.038-.06.029-.06a.6.6,0,0,0-.113.129c-.086.115-.088.121-.015.06l.081-.069-.077.112c-.072.1-.142.162-.087.072.015-.024.01-.03-.014-.016a.058.058,0,0,0-.021.068.1.1,0,0,1-.044.093c-.058.045-.058.044-.01-.02s.047-.065-.008-.022c-.033.026-.051.06-.041.077a2.337,2.337,0,0,1-.339.528c-.057.059.012-.055.172-.283.294-.418.113-.207-.263.306-.287.392-.371.529-.337.552s.03.027-.012.014-.121.065-.468.561l-.084.12.107-.119c.059-.065.107-.1.107-.081a.151.151,0,0,1-.057.084,1.347,1.347,0,0,0-.169.219,2.8,2.8,0,0,1-.221.292l-.109.12.1-.137c.166-.229.263-.381.208-.326a15.513,15.513,0,0,0-.907,1.26c.026.026-.087.216-.129.216-.018,0-.009-.027.019-.06.064-.075.105-.146.084-.146a5.723,5.723,0,0,0-.468.644c0,.014.031-.013.068-.061s.067-.069.068-.048c0,.042-.1.146-.147.147s-.167.173-.145.208c.011.018-.015.069-.058.114s-.061.057-.04.028c.083-.117.082-.15,0-.053-.049.057-.081.122-.073.145a.057.057,0,0,1-.022.065c-.025.015-.029.006-.013-.025s-.022.006-.08.072-.1.138-.091.16c.017.047-.064.166-.113.166a1.019,1.019,0,0,0-.21.232c-.205.271-.209.312,0,.056.077-.1.14-.165.14-.152a2.657,2.657,0,0,1-.33.431c-.009,0-.006-.018.007-.04s.009-.03-.016-.015a.044.044,0,0,0-.02.058c.026.043-.082.21-.12.186-.016-.01-.05.009-.076.042-.042.054-.041.055.013.013.087-.068.074.007-.014.085-.041.036-.063.046-.049.022s.018-.043.009-.043a1.369,1.369,0,0,0-.25.367c.009.009.057-.046.106-.124.107-.17.148-.189.051-.023-.07.119-.169.221-.169.174,0-.014-.023-.006-.051.017-.073.06-.065.122.009.064.054-.043.056-.041.013.013-.026.033-.059.052-.075.042s-.171.16-.17.212c0,.016.04-.017.089-.074l.089-.1-.074.112c-.041.062-.087.1-.1.094a1.571,1.571,0,0,0-.389.541c.012.02.007.027-.011.016a3.083,3.083,0,0,0-.513.674c-.011.11-.017.125-.053.125s-.025-.016,0-.051.035-.052.025-.052a.607.607,0,0,0-.114.129c-.088.118-.089.123-.013.06s.082-.068-.006.051c-.049.066-.162.224-.251.352a1.769,1.769,0,0,1-.178.232c-.024,0,.038-.1.211-.335a1.228,1.228,0,0,0,.141-.215c-.009,0-.329.429-.711.953s-.708.969-.723.989a2.159,2.159,0,0,0,.439.5,5.863,5.863,0,0,0,.443.419c-.013-.024-.007-.043.013-.043a.039.039,0,0,1,.036.041c0,.022.022.011.048-.025s.041-.078.032-.093a2.281,2.281,0,0,1,.36-.535c.163-.187,0,.048-.313.466-.018.024-.025.043-.015.043a7.33,7.33,0,0,0,.574-.776c0-.017-.04.016-.089.072l-.089.1.074-.112c.041-.062.087-.1.1-.095.04.025.21-.209.19-.263-.009-.025.039-.107.106-.183l.123-.137-.11.147c-.061.081-.1.155-.094.163a1.657,1.657,0,0,0,.247-.3,2.09,2.09,0,0,0,.217-.327c-.007-.007-.063.056-.124.141-.1.138-.141.18-.141.142a1.315,1.315,0,0,1,.272-.314,3.033,3.033,0,0,0,.349-.429c.173-.236.33-.448.349-.472s.026-.043.016-.043a5.664,5.664,0,0,0-.349.446c-.182.245-.337.446-.346.446a2.535,2.535,0,0,1,.2-.294c.118-.162.26-.362.317-.445a.568.568,0,0,1,.162-.172,5.126,5.126,0,0,0,.7-.951c-.006-.024,0-.032,0-.017.018.032.111-.039.111-.085,0-.018-.018-.021-.04-.008-.049.03-.018-.026.1-.186.046-.063.093-.105.1-.095s.111-.047.111-.092c0-.019-.027-.013-.06.013-.054.043-.056.041-.013-.013.026-.033.059-.052.073-.043.039.024.113-.077.087-.119s.151-.308.2-.31c.016,0-.021.062-.081.138s-.1.147-.093.156c.024.024.271-.327.252-.358-.009-.014,0-.048.019-.076s.031-.036.014.015-.013.058.032.021a.106.106,0,0,0,.037-.1c-.016-.054.086-.21.138-.21.014,0-.01.039-.054.086s-.072.094-.062.1.149-.162.137-.2.1-.2.129-.178c.016.01.05-.009.076-.042.042-.054.041-.055-.013-.013-.037.029-.06.033-.06.01s.061-.086.135-.145.128-.127.119-.15.031-.1.088-.173a.628.628,0,0,0,.1-.161.034.034,0,0,1,.037-.03c.02,0,0,.046-.037.1s-.066.1-.057.1a3.529,3.529,0,0,0,.366-.5c0-.014-.048.028-.105.094l-.105.119.092-.128c.051-.071.1-.121.119-.112a1.108,1.108,0,0,0,.3-.383c-.009-.009-.045.024-.08.074s-.1.132-.143.183l-.08.092.079-.12c.113-.172.207-.275.234-.258a5.82,5.82,0,0,0,.695-.962.072.072,0,0,1,.031-.07c.028-.017.031-.01.012.023s-.02.041.029,0,.08-.09.024-.056-.032-.025.113-.217c.081-.107.221-.3.311-.427a1.614,1.614,0,0,1,.181-.232,6.629,6.629,0,0,1-.545.781c-.018.024-.025.043-.015.043a6.357,6.357,0,0,0,.657-.931c-.025-.041.085-.173.125-.149s.179-.182.153-.225c-.012-.019.009-.074.046-.121s.074-.069.081-.047.093-.071.192-.206c.189-.259.239-.365.09-.192l-.088.1.073-.111c.04-.061.087-.107.1-.1a4.615,4.615,0,0,0,.449-.559c.23-.312.434-.586.453-.609s.025-.043.014-.043a5.328,5.328,0,0,0-.35.446c-.182.245-.339.446-.349.446s.019-.05.065-.111c.1-.132.381-.515.523-.71.055-.076.108-.131.117-.122.026.026.11-.057.089-.089s.051-.182.078-.155c.011.011.005.04-.011.064s.011,0,.063-.059a.42.42,0,0,0,.094-.139c0-.019-.016-.011-.036.017-.032.046-.035.046-.021,0,.008-.028.032-.048.051-.044a.907.907,0,0,0,.269-.357c-.009-.009-.059.046-.11.124-.085.129-.155.2-.1.1.071-.126.194-.265.22-.249a2.927,2.927,0,0,0,.4-.489l.457-.627c.05-.068.063-.1.029-.073s-.06.032-.06.013c0-.044.086-.117.11-.093s.039-.01.066-.043c.043-.055.042-.057-.012-.014-.033.026-.06.032-.06.013,0-.044.086-.117.11-.093s.039-.01.066-.043c.043-.055.042-.057-.012-.014-.133.1-.048-.034.136-.224.108-.111.167-.178.13-.15s.016-.068.117-.215a2.372,2.372,0,0,1,.2-.266c.019,0-.012.05-.154.249a.558.558,0,0,0-.1.163c.017,0,1.449-1.935,1.561-2.109.025-.039-.012-.009-.082.067-.123.132-.124.133-.043.017a8.084,8.084,0,0,1,.5-.652c.009,0-.02.05-.066.112l-.18.24c-.053.071-.088.129-.078.129a4,4,0,0,0,.554-.8.062.062,0,0,1,.017-.073c.022-.014.028,0,.016.031s-.013.053,0,.053a1.632,1.632,0,0,0,.288-.4c-.01-.01-.06.046-.111.124s-.1.134-.11.125c-.027-.027.2-.293.243-.285.023,0,.037-.025.032-.069s.008-.077.028-.077.026.019.014.043.025-.011.083-.077a.522.522,0,0,0,.106-.155c0-.019-.039.012-.087.069s-.077.08-.063.052c.043-.089.126-.171.155-.153s.105-.105.073-.137c-.014-.014,0-.019.027-.013s.05-.012.046-.051,0-.054.014-.043.111-.046.111-.089c0-.018-.015-.023-.034-.011-.056.035-.039,0,.024-.056s.054-.04.029,0c-.047.084.025,0,.194-.223a.913.913,0,0,0,.154-.261.8.8,0,0,1,.228-.339c.016,0-.016.057-.072.128-.118.151-.157.215-.132.215a1.2,1.2,0,0,0,.234-.356c-.014-.046.1-.2.128-.178.016.01.05-.009.076-.042.042-.054.041-.055-.013-.013-.083.065-.076,0,.008-.081a.352.352,0,0,0,.088-.125c.011-.035.036-.064.055-.064s0,.05-.04.111l-.074.112.085-.1a.208.208,0,0,0,.066-.155c-.011-.03-.007-.043.008-.029.031.028.12-.033.12-.083,0-.018-.019-.021-.043-.007s-.031.012-.014-.007a.1.1,0,0,1,.052-.032c.044,0,.109-.055.109-.092s-.024-.017-.06.011c-.054.043-.056.041-.013-.013.026-.033.059-.052.074-.043.039.024.28-.323.254-.365s.085-.174.124-.15.281-.321.258-.358c-.009-.015.006-.057.035-.093.05-.062.05-.061.015.012-.083.172.06,0,.438-.541l.085-.12-.111.12c-.107.116-.108.117-.039.013a.687.687,0,0,1,.159-.164c.048-.032.079-.072.067-.091a.9.9,0,0,1,.171-.295,1.277,1.277,0,0,1,.191-.235.611.611,0,0,1-.092.15c-.051.068-.13.178-.175.244l-.083.12.085-.1c.047-.054.269-.351.493-.659.471-.647.418-.612.579-.392.069.094.138.164.154.155s.025.01.023.043.012.057.032.053a.033.033,0,0,1,.037.037,1.234,1.234,0,0,0,.32.416c.015-.009.048.01.073.043.042.054.041.055-.013.013-.033-.026-.06-.032-.06-.013,0,.044.086.116.111.092s.074.058.143.151q.187.254.09.194c-.056-.035-.039,0,.024.056s.054.04.029,0-.016-.04.013-.022a.061.061,0,0,1,.024.071.087.087,0,0,0,.032.087c.027.023.049.03.049.015s.023-.006.051.017c.073.06.065.122-.009.064-.054-.043-.056-.041-.013.013.026.033.059.052.073.043s.111.085.295.352l.089.129-.115-.135c-.275-.323-.248-.277.179.3a4.609,4.609,0,0,0,.48.592c.024-.015.183.163.253.284.059.1-.019.03-.12-.112-.061-.085-.118-.148-.125-.14a1.911,1.911,0,0,0,.29.4c.008,0,.005-.015-.006-.034s0-.034.019-.034.031.024.02.053a2.308,2.308,0,0,0,.493.686,3.673,3.673,0,0,1,.413.507c.213.287.427.565.475.616s.078.1.068.113a4.98,4.98,0,0,1-.454-.565c-.239-.321-.452-.594-.471-.606s.2.3.491.684l.527.706.36-.006.36-.006-.348-.011c-.3-.01-.356-.02-.412-.084l-.064-.073.094.061c.087.056.153.058.8.031s.819-.018.692.033c-.024.01-.008.019.034.02.1,0,.1,0-.048-.206-.079-.11-.134-.159-.15-.135s-.031.022-.046-.016-.008-.048.017-.032.032,0,.021-.024a.055.055,0,0,0-.058-.038c-.023.005-.032-.006-.02-.024a1.038,1.038,0,0,0-.246-.38c-.01,0,0,.023.025.052s.035.061.024.072c-.026.026-.1-.118-.08-.152.009-.015-.022-.072-.07-.128l-.087-.1.074.12.074.12-.089-.1c-.049-.057-.083-.118-.076-.137a2.262,2.262,0,0,0-.351-.532c-.048-.046-.048-.045,0,.017s.045.065-.011.021a.117.117,0,0,1-.051-.092,5.938,5.938,0,0,0-.7-.994c-.014.009-.047-.011-.073-.043-.042-.054-.041-.055.013-.013.081.063.076.02-.011-.1-.039-.055-.084-.092-.1-.083s-.049-.01-.075-.042c-.042-.054-.041-.055.013-.013.033.026.06.036.06.023,0-.049-.217-.325-.243-.309s-.038,0-.052-.023-.01-.031.015-.016c.062.038.047-.034-.018-.087-.049-.04-.054-.04-.029,0s.016.04-.009.025a.058.058,0,0,1-.023-.065c.008-.023-.017-.08-.057-.128l-.072-.086.057.1c.056.1.054.1-.048-.016s-.141-.21-.045-.134c.054.043.056.041.013-.013-.026-.033-.06-.052-.075-.042s-.093-.079-.171-.2l-.142-.216.125.137c.068.075,0-.04-.155-.257a2.226,2.226,0,0,0-.309-.387c-.016,0-.077-.061-.136-.146s-.1-.154-.088-.154a.575.575,0,0,1,.11.138c.05.076.1.131.106.123s-.2-.314-.233-.3c-.016,0-.077-.061-.136-.146s-.1-.154-.088-.154a.582.582,0,0,1,.11.138c.05.076.1.132.105.124a2.5,2.5,0,0,0-.32-.468c-.009,0-.007.015,0,.034s.005.034-.015.034-.032-.035-.028-.077-.009-.074-.033-.069c-.055.011-.228-.218-.2-.264a.077.077,0,0,0,0-.074c-.017-.027-.031-.026-.049,0s-.031.025-.047-.015-.007-.048.012-.035c.066.04.032-.018-.175-.308-.181-.253-.295-.385-.216-.25.014.023-.008.013-.049-.022-.088-.077-.1-.154-.015-.085.062.05-.171-.293-.26-.382-.028-.028.005.03.074.129.171.245.133.228-.06-.026-.165-.217-.2-.279-.1-.2.032.026-.023-.069-.124-.21s-.231-.331-.29-.42c-.133-.2-.115-.2-.279.034m.284.026c.06.085.094.155.075.155a.032.032,0,0,1-.035-.026.506.506,0,0,0-.086-.129l-.084-.1-.139.155-.139.155.125-.18c.151-.218.147-.218.283-.026m.282.395c.04.057.066.1.056.1a.392.392,0,0,1-.09-.1c-.04-.057-.066-.1-.056-.1a.394.394,0,0,1,.091.1m.735,1.044a1.119,1.119,0,0,1,.123.215c0,.016-.046-.041-.1-.126s-.129-.192-.162-.239-.043-.074-.021-.06a1.209,1.209,0,0,1,.163.21m-2.483.255a.44.44,0,0,1-.093.111c-.037.03-.029.006.022-.063.09-.123.124-.146.072-.049m2.78.16a.414.414,0,0,0,.084.137c.046.057.084.088.084.069a.411.411,0,0,0-.084-.137c-.046-.057-.084-.088-.084-.069m-1.336.575c.056.079.061.1.018.063-.061-.049-.142-.174-.112-.174a.462.462,0,0,1,.094.112m-.417-.009c-.02.038-.054.069-.075.069s-.011-.031.024-.069a.317.317,0,0,1,.075-.069c.007,0,0,.031-.024.069m-1.679.163c-.039.052-.173.237-.3.411a3.423,3.423,0,0,1-.283.36c-.048.038-.051.037-.019-.007.386-.525.64-.858.654-.858s-.015.043-.054.094m1.348.283c-.033.057-.073.1-.089.1s.006-.046.048-.1a.509.509,0,0,1,.089-.1c.007,0-.015.046-.048.1m1.155.1c.04.057.066.1.056.1a.394.394,0,0,1-.091-.1c-.04-.057-.066-.1-.056-.1a.393.393,0,0,1,.09.1m1.953.341c.179.255.164.277-.019.028-.168-.229-.2-.281-.16-.256a1.742,1.742,0,0,1,.178.228m-1.78-.015a.513.513,0,0,0,.1.154c.057.066.088.089.069.051-.053-.1-.173-.245-.173-.206m-2.2.772c-.042.056-.082.1-.09.088s.105-.188.139-.19c.015,0-.007.045-.049.1m3.475.833a1.551,1.551,0,0,1,.155.232,4.405,4.405,0,0,1-.277-.352c-.144-.194-.214-.3-.155-.232s.184.225.277.352m-3.872-.315a.689.689,0,0,1-.111.146c-.027.022-.005-.025.048-.106.111-.169.155-.2.063-.04m-.217.289c-.024.029-.036.061-.027.07s.037-.007.061-.036.036-.061.027-.07-.037.007-.061.036m-.191.275a.546.546,0,0,1-.109.12c-.017,0,.025-.061.124-.18s.079-.063-.015.06m6.168.126c.052.1.018.075-.072-.049-.051-.069-.059-.093-.022-.063a.443.443,0,0,1,.094.111m-3.7.509c0,.293.005.412.012.266s.006-.386,0-.532-.012-.027-.012.266m3.919-.2c.089.118.177.234.2.258s.02.043,0,.043-.056-.043-.088-.094-.114-.168-.184-.257a.622.622,0,0,1-.108-.163,1.478,1.478,0,0,1,.18.215m-8.386.18a.732.732,0,0,1-.161.189c-.016,0-.015-.019,0-.043.274-.365.376-.46.159-.146m7,.112c.152.2.238.332.173.266a4.021,4.021,0,0,1-.341-.464,1.331,1.331,0,0,1,.168.2m1.987.549c.061.09.086.143.055.118-.056-.046-.208-.281-.181-.281a.961.961,0,0,1,.126.163m-5.8.206c.146.006.386.006.532,0s.027-.012-.266-.012-.412.005-.266.012m1.579,0c.146.006.386.006.532,0s.027-.012-.266-.012-.412.005-.266.012m-3.974.161c-.126.166-.148.156-.027-.012.053-.074.1-.129.109-.122a.388.388,0,0,1-.081.134m3.663.386a2.981,2.981,0,0,0,.019.538,1.126,1.126,0,0,0,.017-.35c-.016-.651-.03-.721-.036-.188m-5.362-.178a.772.772,0,0,1-.123.155.52.52,0,0,1,.089-.155.767.767,0,0,1,.123-.154.521.521,0,0,1-.089.154m-1.029,1.389a.629.629,0,0,1-.111.126c-.022.013,0-.033.057-.1.115-.151.158-.17.054-.024m-.283.387-.087.126c0,.008-.016.007-.024,0a.65.65,0,0,1,.173-.236c.009,0-.02.05-.063.112m-25.966.139a5.074,5.074,0,0,0-.007.558l.01.513.017-.558c.017-.548.015-.6-.019-.513m1.579,0a5.017,5.017,0,0,0-.007.558l.01.513.017-.558c.017-.548.015-.6-.019-.513m23.865.471a5.743,5.743,0,0,0-.329.472c0,.033.1-.089.332-.421.107-.151.232-.325.278-.386s.076-.112.066-.112-.166.2-.347.447m1.628,0a.394.394,0,0,1-.091.1c-.009,0,.016-.046.056-.1a.394.394,0,0,1,.091-.1c.009,0-.016.046-.056.1m-.177.24c-.042.056-.083.1-.093.086s.128-.188.156-.188a.338.338,0,0,1-.064.1m-.172.241c-.042.057-.091.1-.109.1-.045,0,.129-.2.176-.205a.467.467,0,0,1-.066.1m-.2.272c-.043.058-.091.106-.107.106s.013-.053.065-.119c.116-.145.151-.134.042.013m-26.521.689c0,.312.005.439.012.283s.006-.411,0-.567-.012-.028-.012.283m1.579.017c0,.3.005.421.012.264s.006-.4,0-.549-.012-.017-.012.285m24.709-.4a.582.582,0,0,1-.111.129c-.058.05-.052.034.023-.06.11-.14.138-.163.088-.068m-1.786.346a.438.438,0,0,1-.094.111c-.043.035-.038.016.018-.063.085-.121.131-.15.077-.049m1.061.658c-.04.057-.066.1-.056.1a.392.392,0,0,0,.091-.1c.04-.057.066-.1.056-.1a.391.391,0,0,0-.091.1m-1.963.58c-.025.04-.057.072-.072.072s0-.039.03-.087c.068-.1.107-.089.042.015m1.487.063c-.038.052-.117.148-.177.215s-.058.054.032-.065a1.088,1.088,0,0,0,.14-.215.034.034,0,0,1,.037-.03c.02,0,.006.042-.032.094m-.3.4a6.146,6.146,0,0,1-.411.54,3.177,3.177,0,0,1,.326-.472c.08-.108.14-.156.085-.068m-1.83.3c-.042.059-.068.115-.059.124s.051-.031.093-.09.068-.115.059-.124-.051.031-.093.09m-.24.445a.631.631,0,0,1-.111.126c-.021.013,0-.033.057-.1.115-.15.158-.17.054-.024m.254,1.735a.545.545,0,0,1-.109.12c-.017,0,.025-.061.124-.18s.079-.063-.015.06m-.358.5a.4.4,0,0,1-.09.1c-.022,0,.018-.07.084-.146.082-.1.087-.069.007.043m-1.652.166c-.045.055-.1.129-.125.164-.037.054-.037.051,0-.021.056-.118.176-.277.194-.259s-.021.06-.066.115m1.446.092c-.024.029-.036.061-.027.07s.037-.007.061-.036.036-.061.027-.07-.037.007-.061.036m-.275.378c-.024.029-.036.061-.027.07s.037-.007.061-.036.036-.061.027-.07-.037.007-.061.036m-1.947.577a3.969,3.969,0,0,1-.345.436c-.009,0,.02-.05.066-.112l.18-.24c.092-.123.156-.178.1-.084m-.43.588c-.042.065-.083.112-.09.105a.62.62,0,0,1,.152-.223c.008,0-.02.053-.062.118m1.45.123c-.094.132-.117.132-.041,0,.032-.057.071-.1.086-.1s0,.046-.045.1m-.177.24c-.042.057-.092.1-.111.1s.01-.046.064-.1a.749.749,0,0,1,.11-.1.358.358,0,0,1-.064.1m-1.631.137c-.033.057-.073.1-.089.1s.006-.046.048-.1a.506.506,0,0,1,.089-.1c.007,0-.015.046-.048.1m1.294.307a.286.286,0,0,1-.075.091c-.026.016-.03.008-.012-.024.074-.128.151-.188.087-.067m-3.609,2.86c-.135.176-.19.235-.15.163a1.661,1.661,0,0,1,.245-.309.509.509,0,0,1-.095.146m1.48.026c-.042.059-.068.115-.059.124s.051-.031.093-.09.068-.115.059-.124-.051.031-.093.09m-.314.446c-.077.1-.122.139-.077.06a.6.6,0,0,1,.141-.163c.007,0-.021.046-.063.1m-1.657.188c-.17.208-.19.2-.031-.015.07-.094.134-.164.143-.155a.508.508,0,0,1-.112.171m1.535-.008-.2.266c-.192.258-.264.338-.169.187a2.643,2.643,0,0,1,.371-.495c.017,0,.015.018,0,.042m-2.57,1.431c-.051.078-.1.135-.108.127a.836.836,0,0,1,.19-.278.519.519,0,0,1-.082.151m-.386.517a1.648,1.648,0,0,0-.154.216c-.008.023-.023.034-.034.024a.749.749,0,0,1,.139-.231.829.829,0,0,1,.173-.2.643.643,0,0,1-.124.19m-.281.378a.394.394,0,0,1-.091.1c-.009,0,.016-.046.056-.1a.392.392,0,0,1,.091-.1c.009,0-.016.046-.056.1m-.122.174c-.013.02.014.077.058.127l.081.09-.107-.084c-.077-.06-.1-.1-.073-.127.042-.052.073-.057.041-.006m.772.865a2.682,2.682,0,0,1-.323-.316L83.9,116.7l.323.316a2.585,2.585,0,0,1,.307.328M82.563,119a.377.377,0,0,0,.137,0c.033-.009,0-.015-.078-.015s-.1.007-.06.016m3.858.087-.005.128-.8.01-.8.01.8.008c.87.009.852.013.822-.187-.012-.082-.015-.077-.02.031M99.968,119a.377.377,0,0,0,.137,0c.033-.009,0-.015-.078-.015s-.1.007-.06.016m-31.773.035a2.246,2.246,0,0,0,.309,0c.08-.007.006-.013-.164-.013s-.235.006-.145.013m1.973,0a1.982,1.982,0,0,0,.292,0c.08-.007.015-.013-.146-.013s-.226.006-.146.013m2.025,0a1.984,1.984,0,0,0,.292,0c.08-.007.015-.013-.146-.013s-.226.006-.146.013m1.748,0a.1.1,0,0,0-.022.06c0,.023.011.022.027,0a.725.725,0,0,1,.334-.053l.308-.012-.312-.007a1.372,1.372,0,0,0-.335.016m2.734,0c.166.006.429.006.584,0s.019-.012-.3-.012-.448.005-.281.012m3.267.017c-.009.024-.013.823-.008,1.777l.009,1.734.275,0,.275,0-.266-.012-.266-.012v-3.5l.283-.012.283-.012-.284-.007c-.2,0-.289.005-.3.036m1.648,1.691c0,.963,0,1.362.01.886s.005-1.263,0-1.751-.01-.1-.01.864m8.824-.12v1.631H92.1l-.832-.01-.832-.01-.009-1.622L90.414,119v1.631m-14.076.172c0,.954,0,1.344.01.867s.005-1.257,0-1.734-.01-.087-.01.867m17.836-1.58-.567.018-.017,1.636c-.009.9-.005,1.629.009,1.62s.026-.741.026-1.628v-1.612h.547a2.275,2.275,0,0,0,.569-.034c.012-.019.016-.031.011-.027s-.265.016-.577.026m-12.309.774v.755l.438,0,.438,0-.429-.011-.429-.011-.01-.746-.01-.746v.755m.679-.749a.284.284,0,0,0,.12,0c.033-.009.006-.016-.06-.016s-.093.007-.06.016m10.213,0,.558.011.009,1.6.009,1.6v-3.227H92.2l.558.011m7.176,0a.377.377,0,0,0,.137,0c.033-.009,0-.015-.078-.015s-.1.007-.06.016m1.768.611c0,.075.007.1.016.06a.373.373,0,0,0,0-.137c-.009-.033-.015,0-.015.078m-17.99.1c0,.075.007.1.016.06a.374.374,0,0,0,0-.137c-.009-.033-.015,0-.015.078m1.442.592c.222.006.585.006.807,0s.04-.011-.4-.011-.625,0-.4.011m14.318.206c.128.007.329.007.446,0s.012-.012-.233-.012-.341.005-.213.012m-14.281.035c.223.006.578.006.79,0s.029-.011-.405-.011-.607,0-.384.011m-3.348.95a5.371,5.371,0,0,0,.016.753,5.785,5.785,0,0,0,.026-.754V121l.426.011a1.575,1.575,0,0,0,.41-.015,2.051,2.051,0,0,0-.442-.026h-.426l-.01.769M99.472,121c.128.007.329.007.446,0s.012-.012-.233-.012-.341.006-.213.012m4.085.61c0,.094.007.129.015.077a.614.614,0,0,0,0-.172c-.008-.042-.015,0-.014.095m-17.924.661.779.01.014.12.014.12,0-.129,0-.129H84.854l.779.01m-9.757.246c0,.031-.08.04-.306.031a.771.771,0,0,0-.29.015,1.55,1.55,0,0,0,.614-.011.05.05,0,0,0,0-.057c-.011-.011-.021,0-.021.022m-6.754.063a2.241,2.241,0,0,0,.309,0c.08-.007.006-.013-.164-.013s-.235.006-.145.013m2.128,0a2.241,2.241,0,0,0,.309,0c.08-.007.006-.013-.164-.013s-.235.006-.145.013m1.579,0a2.239,2.239,0,0,0,.309,0c.08-.007.006-.013-.164-.013s-.235.006-.145.013m3.844,0c.165.006.436.006.6,0s.03-.012-.3-.012-.466.005-.3.012m19.843,0a.757.757,0,0,0,.189,0c.052-.008.01-.014-.094-.014s-.146.006-.094.014m5.956,0a1.279,1.279,0,0,0,.24,0c.071-.007.021-.014-.111-.014s-.19.006-.129.013" transform="translate(-58.573 -79.223)" fill="#fff" fill-rule="evenodd"/>
  <path id="path4" d="M196.335,92.881c-.655.888-1.012,1.387-1,1.4a1.233,1.233,0,0,0,.184-.227c.094-.132.273-.373.4-.537s.253-.345.289-.4a1.958,1.958,0,0,1,.331-.395.4.4,0,0,1,.1.12.382.382,0,0,0,.107.12c.014,0-.024-.069-.084-.154-.137-.194-.123-.2-.326.077m.573.318a.391.391,0,0,0,.09.1c.009,0-.016-.046-.056-.1a.393.393,0,0,0-.091-.1c-.009,0,.016.046.056.1m.1.154a3.556,3.556,0,0,0,.327.43,1.512,1.512,0,0,0-.142-.223c-.143-.2-.185-.252-.185-.206m.343.491a.228.228,0,0,0,.074.1c.073.065.073.065.034-.01s-.108-.135-.108-.086m.181.249c.033.046.106.154.162.239s.1.142.1.126a1.886,1.886,0,0,0-.286-.425c-.022-.013-.012.014.021.06m-2.412.453c-.05.069-.059.093-.022.063.056-.046.141-.174.115-.174a.608.608,0,0,0-.094.112m2.815.117a.516.516,0,0,0,.107.151c.111.123.1.088-.032-.083-.041-.054-.075-.085-.075-.067m-3.262.493c-.04.057-.066.1-.056.1a.4.4,0,0,0,.091-.1c.04-.057.065-.1.056-.1a.394.394,0,0,0-.091.1m1.885.029a.434.434,0,0,0,.094.111c.043.035.038.016-.018-.063-.085-.121-.131-.15-.077-.049m-.392.04c-.034.038-.045.069-.024.069s.055-.031.075-.069.031-.069.024-.069a.316.316,0,0,0-.075.069m2.249.12a.771.771,0,0,0,.123.155.517.517,0,0,0-.089-.155.759.759,0,0,0-.124-.154.523.523,0,0,0,.089.154m-4.139.352-.337.455c-.032.044-.03.045.019.007a3.421,3.421,0,0,0,.283-.36c.125-.174.259-.359.3-.411s.064-.094.054-.094a4.946,4.946,0,0,0-.317.4m4.38-.009a.773.773,0,0,0,.123.155.519.519,0,0,0-.089-.155.767.767,0,0,0-.123-.154.523.523,0,0,0,.089.154m-2.81-.017c-.042.057-.064.1-.048.1s.055-.046.089-.1.055-.1.048-.1a.509.509,0,0,0-.089.1m1.162.1a.394.394,0,0,0,.091.1c.009,0-.016-.046-.056-.1a.392.392,0,0,0-.09-.1c-.01,0,.016.046.056.1m-1.459.319c-.094.133-.193.263-.219.289s-.039.055-.03.064a1.422,1.422,0,0,0,.231-.279,2.091,2.091,0,0,0,.2-.306,1.348,1.348,0,0,0-.184.231m3.266-.177a3.579,3.579,0,0,0,.31.408,2.572,2.572,0,0,0-.308-.436c-.02-.012-.021,0,0,.028m-1.442.365a11.638,11.638,0,0,0,.723.936c.011,0,0-.019-.014-.043l-.251-.335c-.12-.16-.227-.3-.239-.309s-.094-.121-.184-.249a1.67,1.67,0,0,0-.181-.232,1.3,1.3,0,0,0,.144.232m-3.719.258a2.317,2.317,0,0,0-.352.531c0,.015.031-.019.068-.076.106-.161.142-.211.353-.488.109-.142.2-.265.2-.272,0-.042-.054.02-.265.3m5.694.13c.208.3.39.51.252.29a6.148,6.148,0,0,0-.45-.6,2.463,2.463,0,0,0,.2.31m-4.129-.113c-.1.119-.141.18-.124.18a.549.549,0,0,0,.109-.12c.093-.123.1-.169.015-.06m-.248.3c-.035.048-.057.093-.049.1s.048-.032.09-.088.064-.1.049-.1-.055.04-.09.088m3.394.726a4.4,4.4,0,0,0,.277.352,4.851,4.851,0,0,0-.432-.584c-.059-.066.011.038.155.232m-3.813-.154c-.053.08-.074.128-.048.106.052-.043.183-.252.158-.252a.754.754,0,0,0-.111.146m-1.561.034c-.051.069-.059.093-.022.063.056-.046.141-.174.115-.174a.6.6,0,0,0-.094.112m-.229.309c-.125.176-.158.232-.138.232a2.554,2.554,0,0,0,.24-.334c.066-.1-.008-.03-.1.1m1.46.12c-.1.119-.141.18-.124.18a.546.546,0,0,0,.109-.12c.094-.123.1-.169.015-.06m6.081.137a.61.61,0,0,0,.094.112c.026,0-.059-.129-.115-.174-.037-.03-.029-.006.022.063m-1.54.089a1.221,1.221,0,0,0,.143.184c.052.032-.037-.105-.149-.23l-.108-.12.113.166m1.762.22c.069.09.152.206.184.257s.071.094.088.094.015-.019,0-.043-.107-.139-.2-.258a1.48,1.48,0,0,0-.18-.215.621.621,0,0,0,.108.163m-8.431.326c-.27.359-.307.416-.171.266a2.836,2.836,0,0,0,.294-.372c.206-.286.11-.2-.123.106m1.719-.21c-.054.078-.3.4-.419.558-.092.118-.224.336-.157.26.135-.155.653-.862.641-.874s-.037.018-.064.057m5.378.244c.177.234.247.315.2.232a3.538,3.538,0,0,0-.346-.446,1.155,1.155,0,0,0,.145.215m1.627.044a.478.478,0,0,0,.091.112l.091.093-.076-.112c-.072-.105-.106-.135-.106-.093m-1.35.338.505.671a5.57,5.57,0,0,0,.459.571c.01-.01-.027-.069-.082-.132s-.277-.356-.494-.652a5.66,5.66,0,0,0-.423-.539c-.016,0,0,.035.034.08m1.65.081c.033.052.124.179.2.283a2.947,2.947,0,0,1,.183.269c.023.044.05.072.06.063a5.165,5.165,0,0,0-.491-.709c-.008,0,.012.043.046.094m-9.534.2c-.1.148-.076.131.089-.07.029-.035.045-.071.036-.08s-.065.058-.125.149m1.4.22a.459.459,0,0,0-.081.134.9.9,0,0,0,.19-.257c-.007-.007-.056.049-.109.122m-1.706.22a.519.519,0,0,0-.089.154.773.773,0,0,0,.123-.154.521.521,0,0,0,.089-.155.767.767,0,0,0-.123.155m-.573.768a3.733,3.733,0,0,0-.333.483c.009.009.03-.006.047-.034s.172-.24.347-.472a3.912,3.912,0,0,0,.3-.433,4.8,4.8,0,0,0-.363.455m1.8-.348c-.066.076-.105.146-.084.146a.4.4,0,0,0,.09-.1c.08-.112.076-.139-.007-.043m7.985.209a3.879,3.879,0,0,0,1.551.01,5.919,5.919,0,0,0-.721.008c-.649.027-.715.025-.8-.031l-.094-.061.065.074m-8.323.247c-.06.076-.1.146-.095.154s.064-.054.124-.139c.135-.192.118-.2-.029-.015m-1.941.536c-.053.069-.079.115-.057.1.044-.027.192-.228.169-.228a.646.646,0,0,0-.112.126m1.3.346-.283.378c-.046.061-.076.112-.065.112a3.273,3.273,0,0,0,.267-.335c.137-.184.263-.354.282-.378s.025-.043.016-.043a2.274,2.274,0,0,0-.216.266m-1.674.155c-.1.137-.271.372-.378.524s-.227.317-.266.369-.063.094-.052.094.375-.479.61-.818c.043-.062.094-.132.113-.155a1.083,1.083,0,0,0,.173-.263,1.894,1.894,0,0,0-.2.249m1.213.472c-.04.057-.066.1-.056.1a.4.4,0,0,0,.091-.1c.04-.057.066-.1.056-.1a.394.394,0,0,0-.091.1m-.172.223c-.044.047-.073.093-.064.1s.051-.029.093-.086c.092-.125.08-.132-.029-.017m-.12.181c-.07.051-.164.18-.132.18s.067-.046.109-.1c.078-.106.083-.121.023-.077m-.269.336c-.052.065-.081.119-.065.119.034,0,.192-.205.173-.224s-.055.04-.107.106m-.278.385c-.074.095-.08.111-.023.06s.16-.189.133-.189a1.006,1.006,0,0,0-.111.129m-1.775.326c-.056.079-.061.1-.018.063.061-.049.142-.174.112-.174a.466.466,0,0,0-.094.112m1.415.18a1.615,1.615,0,0,0-.161.258,1.456,1.456,0,0,0,.166-.215c.182-.261.207-.3.188-.3a2.255,2.255,0,0,0-.193.257m-1.964.559c-.312.415-.383.522-.345.522a.065.065,0,0,0,.05-.043c.009-.024.135-.2.281-.4a2.889,2.889,0,0,0,.252-.367,2,2,0,0,0-.237.287m1.53.026a1.582,1.582,0,0,0-.213.31c.019.019.021.016.28-.337s.218-.339-.067.027m-.324.423a1.09,1.09,0,0,1-.14.215c-.09.119-.1.142-.032.065.163-.181.25-.309.209-.309a.034.034,0,0,0-.037.03m-1.717.262a.522.522,0,0,0-.089.154.767.767,0,0,0,.123-.154.52.52,0,0,0,.089-.154.77.77,0,0,0-.123.154m1.333.266a3.178,3.178,0,0,0-.326.472,6.148,6.148,0,0,0,.411-.54c.055-.088,0-.041-.085.068m-1.709.258c-.063.09-.085.137-.049.105.062-.056.2-.268.176-.268a1.127,1.127,0,0,0-.127.163m1.258.36c-.093.126-.156.234-.1.18a1.468,1.468,0,0,0,.2-.292.462.462,0,0,0-.1.112m-1.588.083c-.053.069-.079.115-.057.1.044-.027.193-.228.169-.228a.652.652,0,0,0-.112.126m-.279.362c-.147.192-.222.3-.206.3a1.143,1.143,0,0,0,.256-.328c-.009-.009-.032,0-.051.027m1.5.067a.479.479,0,0,1-.063.1,2.156,2.156,0,0,0-.133.172c-.167.23-.454.62-.55.747-.046.061-.076.111-.066.111a13.92,13.92,0,0,0,.873-1.189c-.01-.01-.037.018-.061.062m-1.878.449c-.186.254-.438.617-.471.678-.055.1.016.012.242-.308.127-.179.269-.376.316-.438s.076-.112.066-.112a.947.947,0,0,0-.152.18m.983.773c-.1.119-.141.18-.124.18a.545.545,0,0,0,.109-.12c.094-.123.1-.169.015-.06m-.236.318c-.04.057-.065.1-.056.1a.392.392,0,0,0,.091-.1c.04-.057.066-.1.056-.1a.394.394,0,0,0-.091.1m-.144.2c-.065.076-.105.146-.084.146a.4.4,0,0,0,.09-.1c.08-.112.076-.139-.007-.043m-1.664.172a1.322,1.322,0,0,0-.11.18c-.034.072-.034.075,0,.021.024-.036.08-.11.125-.164s.075-.107.066-.115-.046.027-.084.079m1.456.1c-.086.115-.075.147.013.036.04-.051.067-.1.06-.1s-.04.024-.073.068m-1.744.3c-.229.307-.433.612-.339.506a2.4,2.4,0,0,0,.194-.257,1.886,1.886,0,0,1,.174-.231c.048-.052.08-.1.071-.111s-.054.033-.1.094m1.183.48c-.26.363-.58.8-.6.815a.7.7,0,0,0-.123.206c.014,0,.79-1.05.856-1.159s-.021-.022-.135.137m-1.75.292-.18.24c-.046.061-.076.112-.066.112a3.964,3.964,0,0,0,.345-.436c.058-.094-.006-.039-.1.084m-.359.491c-.041.058-.069.111-.062.118s.047-.04.09-.105c.1-.146.074-.156-.028-.013m-.2.273c-.042.057-.064.1-.048.1s.055-.046.089-.1.055-.1.048-.1a.508.508,0,0,0-.089.1m1.454.1c-.054.057-.083.1-.064.1s.069-.046.11-.1a.358.358,0,0,0,.064-.1.75.75,0,0,0-.111.1m-1.625.137c-.042.057-.064.1-.048.1s.055-.046.089-.1.055-.1.048-.1a.505.505,0,0,0-.089.1m-.194.265-.06.1.08-.076c.044-.042.071-.085.06-.1s-.046.024-.079.076m1.5.018c-.067.087-.09.14-.049.115s.122-.158.1-.158c-.008,0-.029.019-.047.043m-.167.24a2.408,2.408,0,0,0-.146.2l-.079.12.08-.094a1.641,1.641,0,0,0,.226-.3.351.351,0,0,0-.081.077m-1.628.137c-.05.069-.059.093-.022.063.056-.046.141-.174.115-.174a.611.611,0,0,0-.094.111m1.285.324c-.053.069-.079.115-.057.1.044-.027.193-.228.169-.228a.646.646,0,0,0-.112.126M184,111.8a1.793,1.793,0,0,1-.24.338c-.042.05-.046.09-.007.066a1.521,1.521,0,0,0,.283-.433.034.034,0,0,0-.037.03m-1.632.158c-.018.026-.142.191-.276.367s-.256.344-.273.372c-.065.111.078-.036.176-.181.054-.08.174-.242.266-.361a1,1,0,0,0,.153-.23c-.008-.008-.029.007-.047.033m1.186.473-.215.279c-.136.177-.108.181.038.006a2.389,2.389,0,0,0,.335-.465,1.084,1.084,0,0,0-.157.18m-1.889.5c-.06.089-.085.142-.056.117.054-.045.2-.279.178-.279a.992.992,0,0,0-.123.162m1.294.287c-.134.189-.1.2.039.011.062-.083.1-.15.086-.15a.491.491,0,0,0-.125.139m-1.6.135c-.04.057-.066.1-.056.1a.391.391,0,0,0,.091-.1c.04-.057.066-.1.056-.1a.392.392,0,0,0-.091.1m-.266.369c-.106.136-.182.258-.123.2a1.981,1.981,0,0,0,.24-.326.632.632,0,0,0-.117.129m1.491.017c-.093.126-.156.234-.1.18a1.456,1.456,0,0,0,.2-.292.469.469,0,0,0-.1.112m-.305.429c-.06.07-.106.146-.088.146a.5.5,0,0,0,.089-.1c.083-.112.082-.14,0-.043m-1.687.216a.78.78,0,0,0-.112.171,1.3,1.3,0,0,0,.255-.326c-.008-.008-.073.061-.143.155m1.4.162c-.3.431-.328.508-.034.112l.2-.266c.018-.024.019-.042,0-.042a.812.812,0,0,0-.167.2m-1.629.145c-.041.058-.058.105-.038.105a.035.035,0,0,0,.037-.032.188.188,0,0,1,.056-.087c.031-.031.048-.063.038-.073s-.051.03-.092.087m-.183.251c-.3.412-.415.575-.389.575a1.7,1.7,0,0,0,.179-.232c.089-.127.2-.282.247-.343s.076-.112.066-.112a.43.43,0,0,0-.1.112m1.488.069a9.4,9.4,0,0,0-.61.85c.072-.07.681-.893.661-.893s-.031.019-.051.043m-2.107.788a.4.4,0,0,0-.082.151c.008.008.056-.049.108-.127.121-.183.1-.2-.025-.025m1.327.259c-.124.156-.172.232-.128.206a1.74,1.74,0,0,0,.244-.334.786.786,0,0,0-.116.129m-1.737.293a.75.75,0,0,0-.139.231c.01.01.025,0,.034-.024a1.647,1.647,0,0,1,.154-.216.643.643,0,0,0,.124-.19.83.83,0,0,0-.173.2m1.448.1a.488.488,0,0,0-.1.151c.007.006.064-.056.125-.139.142-.189.12-.2-.028-.012m-1.715.273c-.04.057-.065.1-.056.1a.393.393,0,0,0,.091-.1c.04-.057.066-.1.056-.1a.392.392,0,0,0-.091.1m-.129.18c-.025.031,0,.066.073.127l.107.084-.081-.09c-.045-.049-.071-.106-.058-.127.031-.051,0-.046-.041.006m1.468.06c-.04.057-.066.1-.056.1a.394.394,0,0,0,.09-.1c.04-.057.066-.1.056-.1a.394.394,0,0,0-.091.1m-.155.215c-.207.291-.383.53-.416.565s-.116-.035-.375-.292l-.335-.333.34.363.34.363.242-.329c.133-.181.254-.348.268-.372.046-.075-.006-.047-.064.034" transform="translate(-153.617 -79.638)" fill="#6a6a6a" fill-rule="evenodd"/>
</svg>
