<svg xmlns="http://www.w3.org/2000/svg" width="56.234" height="56.401" viewBox="0 0 56.234 56.401">
  <g id="client8" transform="translate(-22.879 -9.914)">
    <path id="path0" d="M47.723,10.179c-.018.047-.148.074-.368.074a.764.764,0,0,0-.376.059.347.347,0,0,1-.232.059c-.108,0-.2.026-.2.059s-.1.059-.225.059a.415.415,0,0,0-.26.059.231.231,0,0,1-.173.059.874.874,0,0,0-.341.118.877.877,0,0,1-.344.118c-.078,0-.141.027-.141.059s-.036.059-.081.059a2.21,2.21,0,0,0-.471.216c-.214.118-.554.3-.754.41a3.273,3.273,0,0,0-.461.285.327.327,0,0,1-.164.091c-.037,0-.067.022-.067.049s-.071.087-.157.133a11.9,11.9,0,0,0-2.39,2.321,3.089,3.089,0,0,1-.319.373.081.081,0,0,0-.044.068,2.691,2.691,0,0,1-.23.422c-.126.206-.28.483-.342.617a1.218,1.218,0,0,1-.2.316.278.278,0,0,0-.086.184c0,.061-.026.111-.057.111s-.058.06-.058.133a.575.575,0,0,1-.113.28.577.577,0,0,0-.113.28c0,.073-.027.133-.058.133s-.057.078-.057.173a.31.31,0,0,1-.057.21.25.25,0,0,0-.057.18c0,.079-.026.144-.057.144s-.057.093-.057.206-.026.206-.057.206-.057.12-.057.267c0,.164-.028.278-.074.3s-.066.1-.051.233,0,.214-.054.234-.073.149-.059.522,0,.511-.071.584a3.609,3.609,0,0,0,0,1.674,2.082,2.082,0,0,1,.013,1.047c-.016.065-.018.083,0,.041.052-.158.158-.023.158.2a.424.424,0,0,0,.071.278.44.44,0,0,1,.071.285c0,.319-.082.28-.4-.189a10.324,10.324,0,0,0-1.383-1.527.75.75,0,0,1-.231-.173,1.787,1.787,0,0,0-.325-.249,2.051,2.051,0,0,1-.3-.2,3.622,3.622,0,0,0-.525-.311,1.991,1.991,0,0,1-.408-.242.092.092,0,0,0-.11-.026.18.18,0,0,1-.165-.061.369.369,0,0,0-.232-.092.241.241,0,0,1-.179-.059.227.227,0,0,0-.171-.059.227.227,0,0,1-.171-.059.349.349,0,0,0-.232-.059c-.108,0-.2-.027-.2-.059s-.161-.059-.368-.059c-.232,0-.385-.027-.414-.074s-.3-.074-.987-.074-.954.02-.987.074-.176.074-.385.074c-.188,0-.34.026-.34.059s-.09.059-.2.059a.838.838,0,0,0-.314.059l-.227.118a.585.585,0,0,1-.214.061.42.42,0,0,0-.206.084.225.225,0,0,1-.185.051c-.044-.017-.08,0-.08.033a.072.072,0,0,1-.078.065.853.853,0,0,0-.288.147.95.95,0,0,1-.268.147,9.1,9.1,0,0,0-2.018,1.637l-.274.316a.894.894,0,0,0-.157.218,1.076,1.076,0,0,1-.168.24,2.867,2.867,0,0,0-.294.456c-.07.14-.148.254-.175.254s-.048.053-.048.118-.026.118-.057.118-.057.034-.057.077c0,.108-.134.394-.186.394-.023,0-.043.052-.043.115a.2.2,0,0,1-.057.151.309.309,0,0,0-.057.21c0,.1-.026.173-.057.173s-.057.066-.057.147-.026.147-.057.147-.057.1-.057.231-.031.241-.068.254-.063.129-.053.321a.621.621,0,0,1-.06.379,8.47,8.47,0,0,0,0,2.384c.057.046.071.15.051.365s-.007.309.049.331.077.118.077.238.026.208.057.208.057.065.057.144a.251.251,0,0,0,.057.18.2.2,0,0,1,.057.152.558.558,0,0,0,.053.217c.029.056.087.188.128.294s.094.191.118.191.043.036.043.079a1.141,1.141,0,0,0,.226.479,1.2,1.2,0,0,1,.17.273,8.613,8.613,0,0,0,2.558,2.585.352.352,0,0,1,.156.118.344.344,0,0,0,.209.118c.058,0,.105.026.105.059a.068.068,0,0,0,.074.059c.125,0,.382.143.382.213,0,.037.059.054.137.039a.183.183,0,0,1,.175.038.218.218,0,0,0,.168.064.3.3,0,0,1,.169.04,1.553,1.553,0,0,0,.589.194.339.339,0,0,1,.21.089.264.264,0,0,0,.259.052c.266-.055.594.024.554.134-.028.074,0,.081.152.041a6.365,6.365,0,0,1,1.48-.009c.165.031.2.023.181-.041-.055-.147.438-.189.73-.062.069.03.092.012.086-.066s.035-.108.216-.111c.124,0,.235-.035.247-.074s.083-.07.157-.07a.226.226,0,0,0,.17-.059A.188.188,0,0,1,34.4,36.4a.515.515,0,0,0,.211-.055c.055-.03.183-.09.285-.132s.185-.1.185-.122.036-.045.08-.045a2.05,2.05,0,0,0,.687-.368.376.376,0,0,1,.177-.1.337.337,0,0,0,.169-.118.356.356,0,0,1,.153-.118,7.341,7.341,0,0,0,1.471-1.414,1.787,1.787,0,0,1,.243-.284.105.105,0,0,0,.045-.092.394.394,0,0,1,.1-.187,4.155,4.155,0,0,0,.471-.788.238.238,0,0,1,.086-.121.277.277,0,0,0,.086-.184c0-.061.023-.11.05-.11.053,0,.126-.186.15-.38a.175.175,0,0,1,.078-.137c.035-.012.064-.086.064-.165a.706.706,0,0,1,.057-.26l.114-.234a1.024,1.024,0,0,0,.057-.353c0-.13.026-.236.057-.236s.057-.187.057-.444c0-.3.023-.453.071-.472s.071-.224.071-.734-.02-.713-.071-.734-.071-.163-.071-.431a1.051,1.051,0,0,0-.069-.473c-.053-.055-.044-.07.043-.069s.206.157.423.515c.172.283.333.541.358.573s.142.191.259.352a14.841,14.841,0,0,0,1.687,1.779,4.017,4.017,0,0,1,.4.327.618.618,0,0,0,.231.162c.035,0,.1.053.147.118a.273.273,0,0,0,.184.118c.056,0,.1.027.1.059a.069.069,0,0,0,.075.059.412.412,0,0,1,.2.118.41.41,0,0,0,.211.118c.048,0,.088.027.088.059s.051.059.114.059.114.022.114.049c0,.048.109.11.4.229.078.032.254.115.391.185a1.161,1.161,0,0,0,.358.126.156.156,0,0,1,.141.082.112.112,0,0,0,.141.052.244.244,0,0,1,.2.045.552.552,0,0,0,.264.089.331.331,0,0,1,.217.081.107.107,0,0,0,.128.032.175.175,0,0,1,.17.05.582.582,0,0,0,.33.088.453.453,0,0,1,.29.074c.026.044.114.058.234.037.23-.04.652.032.639.11a5.638,5.638,0,0,0,1.184.055,3.744,3.744,0,0,0,1.194-.066c0-.08.419-.145.64-.1a.324.324,0,0,0,.243-.039.568.568,0,0,1,.3-.071.54.54,0,0,0,.31-.086.24.24,0,0,1,.171-.071.394.394,0,0,0,.21-.06.31.31,0,0,1,.218-.042.185.185,0,0,0,.175-.059.224.224,0,0,1,.193-.065.178.178,0,0,0,.17-.054.248.248,0,0,1,.17-.082.177.177,0,0,0,.139-.059.187.187,0,0,1,.146-.059c.061,0,.111-.026.111-.059s.036-.059.079-.059a6.7,6.7,0,0,0,1.164-.6,1.666,1.666,0,0,1,.268-.169,1.726,1.726,0,0,0,.257-.157c.047-.039.266-.206.486-.371a20.062,20.062,0,0,0,1.912-1.883c0-.018.192-.3.428-.621a3.652,3.652,0,0,0,.428-.678.276.276,0,0,1,.114-.175.285.285,0,0,0,.114-.19c0-.058.026-.1.057-.1s.057-.061.057-.136a.467.467,0,0,1,.114-.263.432.432,0,0,0,.114-.214.16.16,0,0,1,.057-.124.251.251,0,0,0,.057-.18c0-.079.026-.144.057-.144s.057-.04.057-.089c0-.086.024-.149.162-.425A.749.749,0,0,0,59.62,25c0-.082.035-.164.077-.18s.067-.087.051-.174,0-.156.063-.179.081-.083.058-.2a.543.543,0,0,1,.041-.3.892.892,0,0,0,.059-.382.445.445,0,0,1,.079-.339.217.217,0,0,0,.056-.217c-.057-.185.026-.587.121-.587.061,0,.071-.041.041-.162a7.686,7.686,0,0,1,0-1.594q.044-.255-.015-.217c-.092.059-.185-.27-.147-.518.025-.164.009-.249-.059-.32s-.085-.165-.064-.361,0-.29-.056-.352a.324.324,0,0,1-.061-.256.285.285,0,0,0-.052-.233.257.257,0,0,1-.076-.172.188.188,0,0,0-.057-.143.3.3,0,0,1-.057-.206.3.3,0,0,0-.057-.206.2.2,0,0,1-.057-.149.927.927,0,0,0-.114-.322.952.952,0,0,1-.114-.295,1.86,1.86,0,0,0-.291-.586.276.276,0,0,1-.052-.162c0-.058-.026-.106-.057-.106s-.057-.05-.057-.111a.278.278,0,0,0-.087-.185,1.03,1.03,0,0,1-.182-.287,2.361,2.361,0,0,0-.23-.389c-.074-.1-.247-.336-.383-.53A13.355,13.355,0,0,0,55.275,12c-.354-.2-.564-.353-.564-.407,0-.033-.038-.044-.084-.026a.1.1,0,0,1-.12-.028,2.4,2.4,0,0,0-.473-.276A2.445,2.445,0,0,1,53.58,11c-.01-.025-.081-.045-.157-.045s-.138-.027-.138-.059-.077-.059-.171-.059-.171-.026-.171-.059-.05-.059-.111-.059a.187.187,0,0,1-.146-.059.281.281,0,0,0-.2-.059.281.281,0,0,1-.2-.059.415.415,0,0,0-.26-.059c-.124,0-.225-.026-.225-.059s-.075-.059-.168-.059a.287.287,0,0,1-.2-.059.764.764,0,0,0-.376-.059c-.22,0-.351-.026-.368-.074S50.315,10.1,49.2,10.1s-1.461.017-1.481.074m2.542,3.975a.458.458,0,0,0,.321.053.543.543,0,0,1,.318.044.369.369,0,0,0,.224.065.712.712,0,0,1,.274.059l.227.118a.542.542,0,0,0,.2.059.136.136,0,0,1,.119.082.107.107,0,0,0,.129.055.353.353,0,0,1,.25.118c.083.08.163.133.177.118a1.943,1.943,0,0,1,.648.368.9.9,0,0,0,.221.141,8.173,8.173,0,0,1,1,.9c.078.093.251.293.384.444a1.324,1.324,0,0,1,.242.339.365.365,0,0,0,.116.171.35.35,0,0,1,.114.175.4.4,0,0,0,.1.182,2.166,2.166,0,0,1,.357.709c0,.046.026.083.057.083s.057.051.057.114a.2.2,0,0,0,.057.151.244.244,0,0,1,.057.177.243.243,0,0,0,.063.18c.034.022.052.13.04.239-.016.143,0,.2.058.2s.073.051.056.174,0,.185.057.207.077.125.059.444,0,.411.051.411.073.177.073.736-.018.736-.071.736-.066.111-.052.412c.012.268,0,.412-.043.412s-.062.093-.062.206-.026.206-.057.206-.057.091-.057.2a.377.377,0,0,1-.057.239.19.19,0,0,0-.057.145,1.673,1.673,0,0,1-.171.444,1.842,1.842,0,0,0-.171.418c0,.045-.023.082-.05.082s-.065.046-.082.1a2.179,2.179,0,0,1-.271.486c-.018.016-.111.149-.208.295a7.846,7.846,0,0,1-1.491,1.531.326.326,0,0,0-.145.109,1.613,1.613,0,0,1-.366.25,2.648,2.648,0,0,0-.3.17.825.825,0,0,1-.37.177c-.048,0-.086.026-.086.059s-.038.059-.084.059a.887.887,0,0,0-.287.118.865.865,0,0,1-.318.118.557.557,0,0,0-.252.093A.322.322,0,0,1,51,28.6a.2.2,0,0,0-.211.058.228.228,0,0,1-.23.061.226.226,0,0,0-.219.049,7.11,7.11,0,0,1-2.3,0,.328.328,0,0,0-.245-.049c-.122.04-.3-.07-.249-.153.016-.027-.048-.022-.144.013a.284.284,0,0,1-.314-.032.563.563,0,0,0-.254-.094.865.865,0,0,1-.318-.118.887.887,0,0,0-.287-.118c-.046,0-.084-.026-.084-.059s-.041-.059-.091-.059a.574.574,0,0,1-.243-.107,2.976,2.976,0,0,0-.366-.209,1.461,1.461,0,0,1-.354-.246.558.558,0,0,0-.185-.145,7.233,7.233,0,0,1-1.76-1.952c-.018-.06-.054-.109-.079-.109a4.418,4.418,0,0,1-.518-1.079c0-.054-.026-.1-.057-.1s-.057-.065-.057-.144a.25.25,0,0,0-.057-.18.25.25,0,0,1-.057-.18c0-.079-.026-.144-.057-.144s-.057-.118-.057-.261a.507.507,0,0,0-.064-.3c-.042-.027-.055-.189-.037-.472.02-.327.008-.438-.05-.461a2.013,2.013,0,0,1,0-1.127c.054-.021.068-.135.05-.415a.877.877,0,0,1,.04-.452.545.545,0,0,0,.064-.29.975.975,0,0,1,.057-.342l.114-.234a.635.635,0,0,0,.057-.232.2.2,0,0,1,.057-.152.241.241,0,0,0,.057-.175c0-.076.019-.148.043-.159a1.822,1.822,0,0,0,.3-.614c0-.046.021-.083.047-.083s.084-.073.128-.162a5.51,5.51,0,0,1,.739-1,1.163,1.163,0,0,0,.224-.28c.044-.084.107-.153.142-.153s.126-.08.2-.177.171-.177.207-.177a.121.121,0,0,0,.1-.081,3.238,3.238,0,0,1,.957-.652c.028.018.052.007.052-.025s.071-.095.157-.14.208-.11.271-.145.191-.1.285-.135.216-.1.27-.125a.548.548,0,0,1,.214-.052c.063,0,.115-.027.115-.059s.088-.059.2-.059a.339.339,0,0,0,.236-.066c.024-.04.155-.056.343-.039.219.019.312,0,.333-.052a7.077,7.077,0,0,1,2.149,0m-1.375,2.01c0,.09-.538.186-.7.123a.106.106,0,0,0-.126.021,1.11,1.11,0,0,1-.363.157,4.941,4.941,0,0,0-1.528.754c-.04.039-.193.174-.34.3a5.966,5.966,0,0,0-1.019,1.286c-.086.154-.183.28-.215.28s-.044.024-.026.054a.433.433,0,0,1-.063.25c-.177.364-.19.4-.19.52,0,.065-.024.119-.053.119s-.052.111-.05.246a.471.471,0,0,1-.075.309,5.618,5.618,0,0,0,.009,1.767.649.649,0,0,1,.055.31c0,.139.022.253.048.253s.083.113.125.25a1.9,1.9,0,0,0,.152.366.486.486,0,0,1,.075.214.263.263,0,0,0,.087.172,1.032,1.032,0,0,1,.182.287,2.27,2.27,0,0,0,.232.389,4.281,4.281,0,0,0,.651.736,1.281,1.281,0,0,1,.289.236,1.058,1.058,0,0,0,.307.236.226.226,0,0,1,.135.087,1.037,1.037,0,0,0,.495.266.07.07,0,0,1,.077.059c0,.032.051.059.114.059s.114.027.114.059.077.059.171.059.171.031.171.075.069.068.222.053c.122-.012.239.007.26.043a.463.463,0,0,0,.288.064.538.538,0,0,1,.335.088c.1.107.814.126.848.022.012-.036.156-.08.32-.1a.75.75,0,0,0,.329-.081.43.43,0,0,1,.252-.051.407.407,0,0,0,.257-.059.185.185,0,0,1,.144-.059.865.865,0,0,0,.312-.118.886.886,0,0,1,.287-.118c.046,0,.084-.026.084-.059s.046-.059.1-.059a.273.273,0,0,0,.184-.118.264.264,0,0,1,.155-.118.832.832,0,0,0,.287-.21,2.714,2.714,0,0,1,.36-.3,1.119,1.119,0,0,0,.271-.276c.069-.1.2-.276.3-.385a.928.928,0,0,0,.171-.246.265.265,0,0,1,.072-.124,3.271,3.271,0,0,0,.263-.49c.105-.227.214-.458.242-.514a.674.674,0,0,0,.051-.25c0-.081.026-.148.057-.148s.057-.091.057-.2a.365.365,0,0,1,.071-.25c.052-.034.071-.294.071-.96s-.019-.926-.071-.96a.3.3,0,0,1-.071-.217.3.3,0,0,0-.057-.207.3.3,0,0,1-.057-.206.3.3,0,0,0-.057-.206.251.251,0,0,1-.057-.18c0-.079-.026-.144-.057-.144a.058.058,0,0,1-.057-.058,4.972,4.972,0,0,0-.635-1.049A.885.885,0,0,1,53,17.992a4.662,4.662,0,0,0-1.132-.968c-.036,0-.066-.022-.066-.049a.8.8,0,0,0-.3-.183c-.165-.074-.344-.158-.4-.187a.538.538,0,0,0-.211-.052.189.189,0,0,1-.147-.059.236.236,0,0,0-.176-.059.192.192,0,0,1-.175-.091c-.026-.069-.09-.083-.269-.059-.283.038-.641-.039-.621-.135q.014-.069-.3-.069c-.229,0-.314.022-.314.082M32.729,23.81a.39.39,0,0,0,.262.055c.106-.009.21.011.23.046a.189.189,0,0,0,.148.063c.061,0,.111.026.111.059s.05.059.111.059a.187.187,0,0,1,.146.059.172.172,0,0,0,.135.059.414.414,0,0,1,.223.118.411.411,0,0,0,.21.118c.048,0,.088.025.088.055s.053.072.119.094a6.488,6.488,0,0,1,1.348,1.435c.056.133.121.242.145.242s.044.053.044.118.026.118.057.118.057.053.057.118.026.118.057.118.057.065.057.144a.249.249,0,0,0,.063.184c.034.022.052.115.039.207s.005.179.052.2.075.109.075.2a.314.314,0,0,0,.057.211,3.227,3.227,0,0,1,.057.857,2.545,2.545,0,0,1-.057.821c-.031,0-.057.106-.057.236s-.026.236-.057.236-.057.078-.057.173a.309.309,0,0,1-.057.21.176.176,0,0,0-.057.135,3.764,3.764,0,0,1-.488,1.015.234.234,0,0,0-.083.141,6.728,6.728,0,0,1-1.068,1.093.347.347,0,0,0-.159.118.344.344,0,0,1-.208.118c-.058,0-.105.027-.105.059a.059.059,0,0,1-.058.059,1.039,1.039,0,0,0-.279.144c-.121.079-.234.13-.251.113s-.093.012-.169.063a.305.305,0,0,1-.224.061.153.153,0,0,0-.157.057.192.192,0,0,1-.2.058.192.192,0,0,0-.2.059,4.007,4.007,0,0,1-1.8,0,.2.2,0,0,0-.2-.057.2.2,0,0,1-.2-.059c-.05-.052-.12-.076-.154-.054-.067.043-.118.023-.637-.239a1,1,0,0,1-.328-.215c0-.027-.051-.049-.114-.049s-.114-.022-.114-.049-.07-.086-.156-.133a2.258,2.258,0,0,1-.385-.309,3.929,3.929,0,0,0-.358-.316c-.071-.05-.128-.116-.128-.148a.593.593,0,0,0-.157-.215,1.813,1.813,0,0,1-.4-.611c-.018-.057-.054-.1-.082-.1s-.05-.04-.05-.089a.584.584,0,0,0-.057-.206l-.114-.234a.723.723,0,0,1-.057-.265c0-.082-.026-.148-.057-.148s-.057-.061-.057-.135a.342.342,0,0,0-.068-.206,2.333,2.333,0,0,1-.016-.958,2.317,2.317,0,0,0-.028-.534c-.048-.4-.044-.514.026-.659a.889.889,0,0,0,.085-.311.233.233,0,0,1,.057-.171.229.229,0,0,0,.057-.168.355.355,0,0,1,.047-.188,1.375,1.375,0,0,0,.123-.306c.042-.138.1-.25.124-.25s.048-.04.048-.088.026-.088.057-.088.057-.034.057-.076a.784.784,0,0,1,.169-.28,1.15,1.15,0,0,0,.171-.244,3.476,3.476,0,0,1,.621-.637.714.714,0,0,0,.209-.177.673.673,0,0,1,.214-.177,1.229,1.229,0,0,0,.289-.164,3.2,3.2,0,0,1,.7-.366c.079-.032.2-.089.281-.125a.628.628,0,0,1,.312-.04c.111.017.184,0,.2-.052a6.019,6.019,0,0,1,1.963-.006m-1.816,1.812c0,.032-.045.06-.1.061a.418.418,0,0,0-.205.084.225.225,0,0,1-.185.051c-.044-.017-.08,0-.08.034s-.05.065-.111.065a.2.2,0,0,0-.157.077,1.173,1.173,0,0,1-.245.218,1.149,1.149,0,0,0-.248.223,1.2,1.2,0,0,1-.186.205.4.4,0,0,0-.137.2c0,.043-.026.078-.057.078s-.057.035-.057.077a.432.432,0,0,1-.114.2.431.431,0,0,0-.114.214.161.161,0,0,1-.057.124.284.284,0,0,0-.057.2.389.389,0,0,1-.062.225,4.523,4.523,0,0,0-.009,1.577c.039.015.071.107.071.2a.313.313,0,0,0,.057.211.183.183,0,0,1,.057.14.437.437,0,0,0,.114.23.458.458,0,0,1,.114.181,4.567,4.567,0,0,0,.925.952.335.335,0,0,1,.188.118.364.364,0,0,0,.234.118.219.219,0,0,1,.166.059.261.261,0,0,0,.189.06c.2,0,.323.084.268.175-.033.055-.015.056.075.007a2.4,2.4,0,0,1,1.066-.006c.108.042.139.04.11-.006-.049-.082.077-.168.247-.169a.635.635,0,0,0,.243-.06,3.017,3.017,0,0,0,1.063-.735,3.793,3.793,0,0,0,.454-.6,1.412,1.412,0,0,1,.206-.306c.025-.011.045-.069.045-.129a.191.191,0,0,1,.057-.146.443.443,0,0,0,.057-.266.421.421,0,0,1,.071-.276c.048-.032.071-.212.071-.548s-.023-.516-.071-.548a.358.358,0,0,1-.071-.247.369.369,0,0,0-.057-.236.241.241,0,0,1-.057-.175c0-.076-.02-.148-.045-.159a1.259,1.259,0,0,1-.195-.286,3.467,3.467,0,0,0-1.45-1.294c-.044,0-.08-.026-.08-.059s-.063-.059-.139-.059a.234.234,0,0,1-.175-.059,2.941,2.941,0,0,0-.831-.059,2.323,2.323,0,0,0-.8.059M66.546,38.307c-2.2,2.277-4.044,4.157-4.1,4.177a21.747,21.747,0,0,1-2.485-2.435l-2.393-2.472-5.326.015-5.326.015-.015,7.052-.015,7.052h6.849V46.621c0-3.851-.016-5.095-.067-5.112-.356-.122.153-.163,2.03-.163h2.013l2.344,2.419,2.344,2.419,2.341-2.419,2.341-2.419h2.019a10.584,10.584,0,0,1,2.088.071c.053.054.068,1.848.068,7.715v7.644h6.62V34.161l-3.667,0-3.667,0-4,4.14m-33.294-.642c0,.065-.065.089-.249.089a2.922,2.922,0,0,0-1.23.563,2.861,2.861,0,0,0-.843,1.042c-.018.057-.054.1-.082.1s-.05.052-.05.115a.294.294,0,0,1-.073.186.375.375,0,0,0-.05.271c.018.163,0,.206-.093.232s-.108.055-.062.192c.033.1.048,1.792.038,4.286a30.56,30.56,0,0,0,.061,4.2.36.36,0,0,1,.054.271c-.014.125,0,.208.052.226a.187.187,0,0,1,.075.164.58.58,0,0,0,.113.282.562.562,0,0,1,.113.221.069.069,0,0,0,.058.074.067.067,0,0,1,.057.074,2.412,2.412,0,0,0,.661.724c.123.095.237.186.253.2a.9.9,0,0,0,.171.095c.079.036.254.122.391.191a1.175,1.175,0,0,0,.419.126c.12,0,.18.033.2.112.024.1.055.1.208.059.1-.03,2.652-.053,5.873-.053H45.01V43.349l-4.066-.015-4.066-.015-.016-.986-.016-.986h8.166L45,39.476l-.015-1.87-5.864-.015c-5.189-.013-5.864,0-5.864.074m-9.36,5.454c0,1.876,0,1.891.117,1.86a.638.638,0,0,1,.285.018c.125.037.169.03.169-.027,0-.1.314-.151.621-.109a.421.421,0,0,0,.329-.049.921.921,0,0,1,.471-.083,1.428,1.428,0,0,0,.509-.078.55.55,0,0,1,.357-.037c.14.024.224.016.224-.021,0-.094.49-.147.743-.081.177.046.227.043.227-.016,0-.1.131-.147.433-.147h.252V43.172c0-1.019-.012-1.178-.087-1.178a.134.134,0,0,1-.117-.079c-.022-.06-.13-.073-.446-.052s-.435.007-.494-.058-.158-.078-.35-.059-.281.006-.305-.061-.112-.082-.418-.059-.405.008-.475-.063-.162-.084-.405-.058c-.364.039-.617-.01-.6-.115.008-.04-.024-.061-.072-.046a1.288,1.288,0,0,1-.815-.021.343.343,0,0,0-.123-.093c-.018,0-.033.851-.033,1.891m1.971,9.4a.146.146,0,0,1-.132.074c-.31,0-1.383.756-1.383.975a.351.351,0,0,1-.114.174.361.361,0,0,0-.114.215c0,.06-.024.109-.054.109s-.062.1-.071.216c-.019.233-.131.328-.182.155-.017-.058-.014-.027.006.07s.039.972.041,1.943a7.4,7.4,0,0,0,.075,1.814.3.3,0,0,1,.071.215c0,.326.716,1.357.943,1.357a.336.336,0,0,1,.17.118.344.344,0,0,0,.209.118c.058,0,.105.027.105.059s.09.059.2.059.2.026.2.059a1.624,1.624,0,0,0,.653.059,2.155,2.155,0,0,0,.688-.059.224.224,0,0,1,.169-.059c.148,0,.6-.23.6-.305,0-.026.033-.048.073-.048a2.674,2.674,0,0,0,.954-1.285.493.493,0,0,1,.083-.224c.193-.284.066-.382-.475-.363l-.492.017.018.175a.3.3,0,0,1-.058.236.706.706,0,0,0-.145.223c-.038.089-.1.162-.128.162s-.058.039-.058.086a.206.206,0,0,1-.11.147,1.029,1.029,0,0,0-.185.135.668.668,0,0,1-.618.192c-.177-.031-.255-.021-.291.038s-.049.061-.05.006-.081-.064-.315-.036c-.218.026-.314.018-.314-.029s-.04-.067-.089-.067a1.99,1.99,0,0,1-.71-.763.2.2,0,0,0-.065-.154c-.043-.028-.054-.182-.033-.47.025-.338.014-.436-.049-.461a5.716,5.716,0,0,1,0-2.015c.064-.025.074-.124.049-.469-.023-.308-.013-.437.033-.437s.065-.065.065-.143a1.556,1.556,0,0,1,.774-.8c.076,0,.139-.022.139-.048a1.574,1.574,0,0,1,.542-.048,1.575,1.575,0,0,1,.542.048c0,.027.058.048.129.048.165,0,.669.448.669.6,0,.061.025.111.056.111.085,0,.238.343.219.489-.017.124,0,.13.475.146.555.019.658-.075.483-.439-.044-.092-.121-.259-.171-.373a2.3,2.3,0,0,0-.948-1.162,2.841,2.841,0,0,1-.344-.2.811.811,0,0,0-.314-.122c-.093-.011-.165-.046-.16-.079a2.926,2.926,0,0,0-1.263.015m4.592,3.931v3.916h.856V52.535h-.856v3.916m2.568,0v3.916h1.027V57.511c0-1.571.019-2.855.043-2.854a8.206,8.206,0,0,1,.792,1.17c.217.343.3.47.521.8a1.565,1.565,0,0,1,.185.323.241.241,0,0,0,.087.123.988.988,0,0,1,.178.272c.05.109.114.2.142.2s.05.047.05.1a.285.285,0,0,0,.114.19.281.281,0,0,1,.114.185c0,.055.021.109.046.12a2.579,2.579,0,0,1,.41.621c0,.027.051.088.114.135a.271.271,0,0,1,.114.161.642.642,0,0,0,.152.251,3.534,3.534,0,0,1,.3.426c.412.7.333.633.762.633h.385V52.535H37.7V55.3a23.54,23.54,0,0,1-.061,2.8c-.069.044-.338-.193-.338-.3a.35.35,0,0,0-.114-.175.348.348,0,0,1-.114-.186c0-.044-.023-.079-.051-.079s-.093-.092-.144-.2a1.341,1.341,0,0,0-.166-.28,18.688,18.688,0,0,1-1.049-1.637.368.368,0,0,0-.075-.118,7.283,7.283,0,0,1-.627-1,.056.056,0,0,0-.047-.061c-.026,0-.084-.073-.128-.162a1.092,1.092,0,0,0-.113-.191,3.515,3.515,0,0,1-.4-.635.365.365,0,0,0-.114-.16.359.359,0,0,1-.114-.164c0-.138-.216-.215-.614-.216l-.414,0v3.916m7.226-3.823c-.045.121-.044,7.433,0,7.607l.034.133H45.01v-1l-1.859-.016-1.859-.015L41.3,58.1c0-.679.021-1.248.038-1.266s.691-.027,1.5-.021c1.7.013,1.617.038,1.595-.459l-.017-.377-1.541-.029-1.541-.03-.015-1.251L41.3,53.418H45.01v-.883H42.647c-2.1,0-2.366.01-2.4.093m6.681-.054c-.048.049-.051,7.572,0,7.7.029.079.162.093.885.093h.85V58.453c0-2.026.011-2.095.254-1.6.085.17.266.495.4.721s.3.525.364.663l.114.25h.6c.564,0,.6-.008.6-.118,0-.065.026-.118.057-.118s.057-.042.057-.092a1.03,1.03,0,0,1,.159-.339,5.916,5.916,0,0,0,.294-.526.749.749,0,0,1,.183-.28c.026,0,.048-.041.048-.09,0-.128.174-.386.235-.347s.065.32-.006.32a10.021,10.021,0,0,0-.056,1.693,7.52,7.52,0,0,0,.057,1.6c.047-.074.062-.066.091.044.035.13.051.133.913.133h.878l0-.427c0-.794.007-7.139,0-7.273s-.012-.133-.859-.133c-.915,0-1.017.033-1.118.364-.018.059-.058.107-.09.107s-.042.024-.025.054c.036.06-.144.417-.211.417-.023,0-.043.053-.043.118s-.026.118-.057.118-.057.034-.057.077c0,.108-.134.394-.186.394-.023,0-.043.053-.043.118s-.026.118-.057.118-.057.034-.057.077c0,.108-.134.394-.186.394-.023,0-.043.054-.043.118s-.026.118-.057.118-.057.053-.057.118-.02.118-.044.118-.086.1-.138.221c-.189.442-.246.478-.36.231-.055-.119-.122-.217-.15-.217s-.051-.046-.052-.1a1.718,1.718,0,0,0-.162-.427l-.291-.589c-.072-.146-.158-.318-.192-.383s-.192-.383-.352-.707c-.467-.948-.329-.854-1.26-.854a4.959,4.959,0,0,0-.842.039m10.52.069c0,.133-.163.48-.225.48-.025,0-.033.066-.018.146.018.1,0,.158-.059.181s-.074.079-.055.157a.193.193,0,0,1-.049.188.225.225,0,0,0-.084.124,1.969,1.969,0,0,1-.143.514.483.483,0,0,0-.054.18,1.394,1.394,0,0,1-.124.339,1.59,1.59,0,0,0-.134.376.166.166,0,0,1-.076.137c-.036.012-.066.1-.066.191a.3.3,0,0,1-.057.2.244.244,0,0,0-.057.177.244.244,0,0,1-.057.177.2.2,0,0,0-.057.151c0,.063-.026.114-.057.114s-.057.08-.057.177-.026.177-.057.177-.057.08-.057.177-.026.177-.057.177-.057.051-.057.114a.2.2,0,0,1-.057.151.244.244,0,0,0-.057.177.244.244,0,0,1-.057.177.244.244,0,0,0-.057.177.243.243,0,0,1-.057.177.2.2,0,0,0-.057.151c0,.063-.026.114-.057.114s-.057.08-.057.177c0,.113-.029.177-.08.177s-.07.041-.051.117a.817.817,0,0,1-.091.382,1.421,1.421,0,0,0-.121.35.158.158,0,0,1-.057.122.3.3,0,0,0-.057.206.3.3,0,0,1-.057.206c-.245.156-.039.206.856.206H56.6v-.144a.251.251,0,0,1,.057-.18.251.251,0,0,0,.057-.181.648.648,0,0,1,.052-.247c.029-.056.094-.2.145-.323L57,59.072h1.16c1.208,0,1.355.03,1.27.259a.092.092,0,0,0,.051.117.2.2,0,0,1,.082.178.253.253,0,0,0,.057.182.31.31,0,0,1,.057.21c0,.1.026.173.057.173s.057.04.057.088c0,.075.133.088.856.088H61.5v-.2a.375.375,0,0,0-.057-.239.2.2,0,0,1-.057-.149.93.93,0,0,0-.114-.322.926.926,0,0,1-.114-.322.2.2,0,0,0-.057-.149.2.2,0,0,1-.057-.152c0-.111-.021-.168-.162-.451a.745.745,0,0,1-.066-.28c0-.081-.026-.148-.057-.148s-.057-.08-.057-.177-.026-.177-.057-.177-.057-.051-.057-.114a.2.2,0,0,0-.057-.151.237.237,0,0,1-.057-.173.318.318,0,0,0-.09-.214.237.237,0,0,1-.066-.21c.015-.081-.008-.146-.059-.166s-.074-.085-.057-.177,0-.156-.056-.176A.092.092,0,0,1,60.1,56.1a.091.091,0,0,0-.051-.116c-.046-.018-.082-.11-.082-.207a.313.313,0,0,0-.057-.212.2.2,0,0,1-.057-.149.927.927,0,0,0-.114-.322.929.929,0,0,1-.114-.322.2.2,0,0,0-.057-.149.2.2,0,0,1-.057-.149.927.927,0,0,0-.114-.322.944.944,0,0,1-.114-.352.247.247,0,0,0-.057-.178.25.25,0,0,1-.057-.18c0-.079-.026-.144-.057-.144s-.057-.065-.057-.144a.25.25,0,0,0-.057-.18.214.214,0,0,1-.057-.159c0-.226-.157-.279-.842-.281-.587,0-.642.007-.642.107m5.06-.069c-.021.022-.038,1.784-.038,3.916v3.877h1.712V58.4c0-1.08.016-1.98.036-2,.056-.058.249.071.249.167,0,.047.019.086.043.086s.075.074.114.166a1.264,1.264,0,0,0,.185.292.432.432,0,0,1,.114.217c0,.05.023.091.05.091s.082.08.121.177.087.177.107.177.068.074.107.166a1.273,1.273,0,0,0,.171.28,1.578,1.578,0,0,1,.185.291,1.581,1.581,0,0,0,.185.291.4.4,0,0,1,.1.192c0,.042.019.078.043.079a1.342,1.342,0,0,1,.314.536.038.038,0,0,0,.037.052,1.31,1.31,0,0,1,.271.353l.22.353h1.453l-.013-3.9-.013-3.9-.842-.016-.842-.016v1.935c0,1.064-.016,1.951-.035,1.971-.059.061-.251-.1-.251-.207,0-.057-.021-.1-.047-.1s-.084-.073-.128-.162a1.579,1.579,0,0,0-.181-.276.4.4,0,0,1-.1-.184.247.247,0,0,0-.088-.146,1.172,1.172,0,0,1-.2-.321,1.175,1.175,0,0,0-.2-.322.247.247,0,0,1-.088-.126,6.712,6.712,0,0,0-.428-.7c-.235-.356-.428-.664-.428-.683a3.21,3.21,0,0,0-.424-.63,6.782,6.782,0,0,0-1.478-.006M58.3,55.55a.335.335,0,0,1,.069.2.229.229,0,0,0,.057.168.3.3,0,0,1,.057.206.3.3,0,0,0,.057.206.376.376,0,0,1,.057.239c0,.112.026.2.057.2s.057.078.057.173a.309.309,0,0,0,.057.21.243.243,0,0,1,.057.177c0,.138-.009.14-.635.158-.676.019-.771-.019-.629-.254a.509.509,0,0,0,.066-.221.269.269,0,0,1,.08-.18.19.19,0,0,0,.053-.175.236.236,0,0,1,.06-.2c.048-.049.072-.106.054-.125s.008-.1.06-.182a.661.661,0,0,0,.093-.3c0-.082.028-.149.063-.149s.049-.037.032-.083c-.055-.147.063-.2.178-.082M23.893,61.6V61.9l22.187-.015,22.187-.015.017-.28.017-.28H23.893V61.6m33.253,1.246a1.214,1.214,0,0,1-.469.038c-.268-.018-.371,0-.393.055a.094.094,0,0,1-.1.061c-.08-.019-.311.2-.426.412-.214.384.143,1.252.507,1.234.217-.011.335.023.335.1s.063.074.256.051a.427.427,0,0,1,.367.726,1.485,1.485,0,0,1-1.09.04c-.118-.1-.273-.059-.447.133-.093.1-.109.147-.052.147a.524.524,0,0,1,.224.117.6.6,0,0,0,.314.117c.208,0,.342.082.289.171-.027.045.047.064.235.061.151,0,.242-.018.2-.034-.135-.056-.071-.132.143-.172a.946.946,0,0,0,.549-.268.407.407,0,0,1,.164-.11c.027,0,.034-.027.014-.059-.055-.092.027-.294.118-.294.053,0,.082-.063.082-.177s-.029-.177-.086-.177a.078.078,0,0,1-.086-.065.754.754,0,0,0-.667-.642.183.183,0,0,1-.166-.081c-.022-.058-.1-.072-.281-.052A.435.435,0,0,1,56.4,63.4c.152-.1.684-.126.739-.033.067.112.361.065.455-.074s-.038-.339-.229-.339a.106.106,0,0,1-.094-.085c-.014-.065-.043-.07-.124-.023m-33.181.033a5.616,5.616,0,0,0-.071,1.611V66.08h.4l.007-.339c.006-.309.022-.589.042-.756.005-.042.161-.055.464-.037.395.023.457.014.457-.069,0-.065.05-.1.153-.1.732,0,.839-1.521.126-1.778-.091-.033-.165-.078-.165-.1a7.57,7.57,0,0,0-1.412-.023m3.481,0-.3.018V66.08H27.6v-.555c0-.724.008-.741.338-.741h.268l.185.4c.1.219.224.464.271.545a1.51,1.51,0,0,1,.118.25c.026.084.1.1.382.1.192,0,.321-.02.286-.044a6.365,6.365,0,0,1-.674-1.316.116.116,0,0,1,.089-.052.219.219,0,0,0,.125-.076c.34-.386.342-.391.348-.733a1.192,1.192,0,0,0-.038-.4c-.3-.4-.366-.478-.421-.459a.168.168,0,0,1-.142-.056,3.352,3.352,0,0,0-1.291-.057m3.662.023a1.916,1.916,0,0,0-.537.557.127.127,0,0,1-.071.112,5,5,0,0,0,.074,1.975.647.647,0,0,1,.111.226.062.062,0,0,0,.059.065.426.426,0,0,1,.182.118.431.431,0,0,0,.24.119c.161,0,.283.09.236.169-.027.044.025.061.158.051.109-.008.184-.038.167-.066-.04-.066.1-.153.241-.155.221,0,.656-.5.656-.744a.077.077,0,0,1,.071-.082c.053,0,.071-.193.071-.766s-.018-.766-.071-.766a.082.082,0,0,1-.071-.089.922.922,0,0,0-.511-.648,1.9,1.9,0,0,0-1.006-.077m3.158-.026-.5.02V66.08h.857c.979,0,1.138-.057,1.337-.48a.664.664,0,0,1,.141-.227,7.383,7.383,0,0,0-.038-1.784.167.167,0,0,1-.071-.121c0-.1-.342-.428-.5-.477-.071-.022-.128-.065-.128-.095s-.135-.05-.3-.043l-.8.032m3.162,0-.134.021.02,1.318.02,1.318.254.267c.168.177.3.268.4.268.215,0,.343.1.231.175-.064.044-.033.058.127.059s.2-.019.181-.084.029-.1.187-.125c.262-.048.7-.367.7-.512,0-.057.028-.1.059-.1a5.991,5.991,0,0,0,.057-1.3V62.9h-.638l.017,1.266c.02,1.49.031,1.461-.523,1.476-.587.016-.625-.079-.625-1.549,0-1.287.007-1.26-.334-1.206m3.986.023c0,.022-.058.059-.128.082-.159.052-.443.323-.443.422a.067.067,0,0,1-.057.074,8.153,8.153,0,0,0,.014,2.076,1.118,1.118,0,0,0,.61.516c.185,0,.315.084.264.169-.025.042.021.065.134.065.128,0,.164-.022.141-.086s.019-.1.13-.123a.764.764,0,0,0,.516-.252c.408-.41.43-.776.046-.776-.228,0-.257.015-.259.133,0,.261-.2.417-.543.429-.359.013-.539-.1-.539-.343,0-.083-.032-.161-.071-.175a2.139,2.139,0,0,1,.008-1.159c.049-.031.068-.109.05-.207-.038-.2.249-.445.527-.445.208,0,.571.245.571.386,0,.062.071.085.257.085.28,0,.312-.054.184-.307a1.268,1.268,0,0,0-.5-.49c-.059-.019-.108-.053-.108-.076a2.008,2.008,0,0,0-.8,0m2.811-.023-.471.017v.407h.8V66.08h.569l.015-1.369.015-1.369.385-.017.385-.017v-.2c0-.189-.013-.2-.185-.209-.644-.02-1.1-.022-1.512-.007m5.222.011a1.716,1.716,0,0,1-.251.189.9.9,0,0,0-.419.676.2.2,0,0,1-.086.174c-.067.027-.086.147-.086.56s.018.533.086.559.086.11.086.234.026.2.057.2.057.039.057.088c0,.137.411.5.571.5.183,0,.311.087.261.171-.025.042.02.065.129.065s.176-.034.2-.118a.153.153,0,0,1,.15-.118c.217,0,.451-.175.662-.5a5.088,5.088,0,0,0,.063-2.056,1.5,1.5,0,0,0-.519-.552,2.14,2.14,0,0,0-.958-.076m4.735-.01-.159.019.007.972a9.12,9.12,0,0,1-.022,1,1.9,1.9,0,0,1-.424-.565.728.728,0,0,0-.122-.182,3.245,3.245,0,0,1-.261-.384c-.094-.158-.23-.381-.3-.5s-.145-.242-.163-.283-.139-.074-.284-.074H52.2v3.18h.571l.008-.78c0-.429,0-.88,0-1-.017-.292,0-.282.262.132a1.511,1.511,0,0,0,.263.353c.023,0,.043.054.043.118s.026.118.057.118.057.035.057.077a.432.432,0,0,0,.114.2.544.544,0,0,1,.118.173.839.839,0,0,0,.671.594l.3.018V62.913l-.157-.021a1.5,1.5,0,0,0-.316,0m8.7,0c-.034.011-.061.11-.061.221v.2h.369c.5,0,.487-.028.487,1.5v1.27h.576l-.009-1.369-.009-1.369.392-.03.392-.029.018-.191c.014-.149,0-.194-.086-.2-.184-.02-2.006-.019-2.069,0m3.72-.005-.528.019V66.08h.8c.675,0,.818-.016.923-.1.245-.2.39-.387.39-.495,0-.06.032-.109.071-.109a5.815,5.815,0,0,0-.017-1.734.248.248,0,0,1-.054-.15c0-.132-.339-.455-.528-.5-.086-.022-.157-.063-.157-.092s-.083-.047-.185-.04-.423.021-.713.032M47.064,64.49v1.59h.514V62.9h-.514v1.59m12.955,0v1.59H61.96v-.409l-.728-.017-.728-.017-.015-1.369L60.474,62.9H60.02v1.59M25.253,63.4c.626.322.276,1.027-.511,1.027-.4,0-.45-.064-.45-.581s.42-.724.96-.446m3.177-.033a.154.154,0,0,0,.122.059c.153,0,.231.142.235.429.005.363-.094.421-.7.411l-.457-.008-.017-.356c-.025-.518.032-.594.444-.594a.749.749,0,0,1,.372.059m3.544.141.194.2v.8a2.437,2.437,0,0,1-.057.8c-.031,0-.057.037-.057.081,0,.278-.706.349-.942.095-.141-.152-.147-.181-.1-.537a2.6,2.6,0,0,0,0-.918c-.037-.317-.029-.38.065-.471.327-.322.624-.339.9-.053m3.133-.141a.159.159,0,0,0,.125.059c.265,0,.335.227.333,1.087l0,.815L35.4,65.5c-.154.161-.186.17-.571.153l-.408-.017-.016-1.088c-.009-.6,0-1.122.012-1.163.034-.091.635-.105.688-.017m14.981,0a.07.07,0,0,0,.077.059.335.335,0,0,1,.248.359.241.241,0,0,0,.05.212,1.123,1.123,0,0,1,0,.864c-.062.064-.077.154-.051.318.032.2.019.239-.126.337-.329.223-.934.112-.934-.171,0-.051-.026-.094-.057-.094a2.084,2.084,0,0,1-.057-.736c0-.608.015-.736.084-.736.052,0,.071-.034.05-.09-.054-.147.258-.381.508-.381.118,0,.214.026.214.059m17.157.026a.089.089,0,0,0,.117.051c.194-.077.366.243.329.614-.025.249-.018.317.027.252s.061-.039.062.136c0,.154-.02.211-.064.183s-.055.053-.027.312c.064.586-.468.928-1.073.688a7.283,7.283,0,0,1-.022-2.249c.1-.1.612-.092.652.014" fill="#2d43ba" fill-rule="evenodd"/>
    <path id="path2" d="M48.127,10.037a.636.636,0,0,0,.234,0c.056-.015,0-.026-.132-.026s-.174.013-.1.027m1.578,0a.829.829,0,0,0,.263,0c.072-.014.013-.025-.132-.025s-.2.011-.132.025M54.24,20.888c0,.162.012.221.025.131a1.054,1.054,0,0,0,0-.294c-.014-.072-.025,0-.024.162m2.093.749c0,.089-.031.162-.063.162a.059.059,0,0,0,0,.117c.07,0,.141-.26.1-.365-.017-.042-.032,0-.035.086m-2.093.191c0,.162.012.221.025.131a1.054,1.054,0,0,0,0-.294c-.014-.072-.025,0-.024.162m-16.624.57c0,.069.02.1.044.072a.682.682,0,0,1,.093-.09c.027-.02.007-.053-.044-.072-.067-.026-.093,0-.093.09m4.166.047c0,.113.012.159.027.1a.483.483,0,0,0,0-.205c-.015-.057-.027-.01-.027.1M30.526,23.661a.636.636,0,0,0,.234,0c.056-.015,0-.026-.132-.025s-.174.013-.1.027m1.053,0a.635.635,0,0,0,.234,0c.056-.015,0-.026-.132-.025s-.174.013-.1.027m-.629,1.667c0,.029.077.053.172.053a.306.306,0,0,0,.2-.053c.018-.029-.06-.053-.172-.053s-.2.024-.2.053m-8.056,3.283c0,.21.012.335.027.279s.051-.1.081-.1.054-.079.054-.176-.024-.176-.054-.176-.066-.046-.081-.1-.027.069-.027.279m16.378,0c0,.178.011.25.024.162a1.293,1.293,0,0,0,0-.323c-.013-.089-.024-.016-.024.161m-5.142,1.2a.258.258,0,0,0,0,.161c.017.041.032.018.035-.052a.185.185,0,0,1,.078-.157c.057-.023.057-.031,0-.034a.123.123,0,0,0-.108.082m36.921,4.069c.035.09,7.384.109,7.384.019,0-.03.044-.063.1-.073s-1.613-.019-3.706-.019a25.825,25.825,0,0,0-3.776.073m-48.17,9.086c0,1.618.011,1.844.088,1.814s.088-.29.088-1.848-.012-1.814-.088-1.814-.088.245-.088,1.848M46.5,52.311c0,.051.031.083.069.07.108-.036.127-.163.023-.163a.093.093,0,0,0-.093.093m-16.755,3.9a17.739,17.739,0,1,0,.016,1.894c.009-1.042.009-2.746,0-3.788a17.735,17.735,0,1,0-.016,1.894M22.9,56.182a2.4,2.4,0,0,0,.024.646A.539.539,0,0,1,23,56.6a1.505,1.505,0,0,0,0-.8c-.03,0-.065-.1-.078-.22s-.023.15-.024.6m1.17,0c0,.226.011.311.024.19a2.2,2.2,0,0,0,0-.411c-.013-.1-.023,0-.023.222M48.5,58.193q.019,2.715.06-.617a8.152,8.152,0,0,0-.029-1.189c-.024,0-.038.813-.031,1.806m-6.486-1.527c.38.01.985.01,1.345,0s.049-.019-.69-.019-1.034.008-.655.019m22.444.672c.013,1.223.091,1.548.1.418a4.323,4.323,0,0,0-.05-1.046c-.038-.024-.056.2-.052.628M41.928,59.133c.523.01,1.378.01,1.9,0s.1-.018-.95-.018-1.473.008-.95.018m22.551.6c.013.256.095.293.095.043,0-.118-.023-.215-.052-.215s-.048.077-.043.172m-41.6,1.619c0,.2.023.264.088.264s.088-.069.088-.264-.023-.264-.088-.264-.088.069-.088.264m0,2.907c0,1.37.012,1.585.088,1.585s.088-.215.088-1.585-.012-1.586-.088-1.586-.088.215-.088,1.586m3.534,0c0,.888.008,1.252.018.807s.01-1.171,0-1.615-.018-.081-.018.807m34.208-.587c0,.565.009.8.019.514s.011-.745,0-1.028-.019-.051-.019.514m-21.471-.558c0,.129.013.175.027.1a.643.643,0,0,0,0-.235c-.015-.056-.026,0-.025.133m.006.763c0,.291.01.417.022.281a3.819,3.819,0,0,0,0-.529c-.012-.154-.022-.043-.022.248m1.032.382c0,.2.026.352.059.352s.058-.157.058-.352-.026-.352-.058-.352-.059.157-.059.352m-7.995.029c0,.162.012.221.025.131a1.06,1.06,0,0,0,0-.294c-.014-.072-.025,0-.025.162m6.957.352c0,.129.013.175.027.1a.643.643,0,0,0,0-.235c-.015-.056-.026,0-.025.133M60.6,65a.74.74,0,0,0,.038.333c.025.015.037-.082.026-.217-.03-.4-.057-.443-.064-.116m-13.471.884c-.35.028-.366.133-.021.133.175,0,.268-.028.291-.088s.028-.083.021-.077a2.455,2.455,0,0,1-.29.033m5.3,0c-.166.012-.314.053-.329.092s.059.065.283.051c.2-.013.321-.05.342-.1s.026-.078.019-.072a2.731,2.731,0,0,1-.315.032m-29.288.074c-.021.035.048.059.172.059s.208-.026.208-.059-.077-.059-.172-.059a.3.3,0,0,0-.208.059m3.362,0c0,.032.079.059.175.059s.175-.026.175-.059-.079-.059-.175-.059-.175.026-.175.059m1.784,0c-.022.036.068.059.23.059.147,0,.267-.026.267-.059s-.1-.059-.23-.059a.434.434,0,0,0-.267.059m4.941.006a2.011,2.011,0,0,0,.643.053c.4,0,.643-.023.643-.06s-.239-.057-.643-.053a2.016,2.016,0,0,0-.643.06m11.1.009c-.021.054.047.068.257.053.157-.011.285-.044.285-.073,0-.083-.51-.064-.542.02m9.84-.015c0,.032.067.059.15.059s.134-.025.113-.059a.2.2,0,0,0-.15-.059c-.062,0-.113.026-.113.059m6.023,0a7.966,7.966,0,0,0,1.93,0,7.962,7.962,0,0,0-1.93,0m3.668.016c-.021.054.033.068.2.053.125-.012.227-.045.227-.074,0-.082-.393-.062-.425.022m2.53-.016c0,.035.225.059.559.059.358,0,.546-.021.523-.059a1.551,1.551,0,0,0-.559-.059c-.31,0-.523.024-.523.059" transform="translate(0 0)" fill="#2d43ba" fill-rule="evenodd"/>
    <path id="path4" d="M48.2,9.969c0,.03-.072.067-.159.082-.123.021-.114.025.039.019.173-.007.348-.156.183-.156a.06.06,0,0,0-.063.055m1.261-.012a5.184,5.184,0,0,0,.609,0c.167-.012.03-.022-.3-.022s-.472.01-.3.022m1.826.03a.154.154,0,0,0,.135.08c.092,0,.094,0,.009-.019-.056-.014-.087-.049-.069-.08s0-.055-.033-.055-.055.033-.042.074m-3.812.1c.02.033-.011.061-.069.064s-.077.017-.042.031a.4.4,0,0,0,.232-.063l.169-.09H47.6c-.094,0-.148.025-.127.059m4.406-.017a.449.449,0,0,1,.171.082c.095.092.161.058.069-.035a.33.33,0,0,0-.222-.082c-.118.006-.121.01-.019.035m-4.887.167c-.062.071-.059.086.014.086.049,0,.089-.025.089-.055s.046-.067.1-.082c.085-.022.082-.028-.015-.032a.272.272,0,0,0-.191.082m5.4,0a.287.287,0,0,0,.153.089c.04,0,.032-.034-.021-.089a.288.288,0,0,0-.153-.089c-.04,0-.032.035.021.089m-5.847.089c.02.033,0,.059-.035.059s-.055.016-.036.035.095-.007.168-.059l.133-.095h-.132c-.073,0-.116.026-.1.059m6.323.028c.148.114.232.115.121,0a.289.289,0,0,0-.16-.089c-.041,0-.024.038.039.087m-8.122.678c.018.03-.059.1-.171.154s-.2.12-.2.147.117-.019.261-.1c.293-.166.3-.171.171-.22-.05-.019-.075-.011-.057.02m10.645.4c0,.062.3.285.518.381.048.021.317.215.6.43s.466.33.405.245-.137-.147-.177-.148a.069.069,0,0,1-.072-.061.067.067,0,0,0-.073-.059.635.635,0,0,1-.246-.162A1.867,1.867,0,0,0,56,11.8a1.547,1.547,0,0,1-.286-.192.381.381,0,0,0-.184-.1.12.12,0,0,1-.1-.074q-.029-.073-.034-.006m-12.006.493c0,.033-.035.059-.078.059a.34.34,0,0,0-.183.118.355.355,0,0,1-.16.118,2.183,2.183,0,0,0-.411.35c-.2.192-.43.408-.519.479s-.149.143-.133.159a3.636,3.636,0,0,0,.755-.663,3.813,3.813,0,0,1,.657-.5c.106,0,.271-.175.17-.175-.054,0-.1.026-.1.059m13.914.962a1.715,1.715,0,0,0,.261.3c.254.258.359.3.158.062-.145-.171-.419-.411-.419-.366m-15.613.533-.461.494a1.994,1.994,0,0,0-.333.418.109.109,0,0,1-.073.088c-.04.014-.057.044-.038.065s.131-.088.249-.243.36-.434.538-.621a1.57,1.57,0,0,0,.284-.34.526.526,0,0,0-.167.138m16.258.133c.044.068.246.307.45.531s.316.329.249.231c-.144-.21-.815-.942-.7-.763m-9.257.442a.088.088,0,0,0,0,.1c.019.02.035,0,.035-.033a7.243,7.243,0,0,1,2.1,0c.014.041.048.052.076.026.12-.115-.189-.157-1.147-.158a3.881,3.881,0,0,0-1.064.062m-.7.11a.59.59,0,0,1-.258.079c-.173.021-.162.026.073.034.151.005.275-.015.275-.046s.111-.066.246-.078l.246-.022-.264-.01a.641.641,0,0,0-.319.044m3.235-.011c.151.012.275.047.275.078s.1.056.232.056.232.027.232.059.065.059.145.059.145.026.145.059.063.059.14.059a.192.192,0,0,1,.169.074c.023.058.03.057.034,0,0-.042-.041-.09-.1-.109a4.124,4.124,0,0,1-.492-.206.719.719,0,0,0-.272-.052.3.3,0,0,1-.207-.059.521.521,0,0,0-.308-.048l-.272.011.275.022m-4.015.248c-.048.027-.165.081-.261.122s-.226.1-.29.136-.188.1-.276.145-.159.113-.158.152.014.05.043.006a.71.71,0,0,1,.231-.147c.1-.046.188-.1.188-.128s.065-.045.145-.045.145-.026.145-.059.065-.059.145-.059.145-.025.145-.055.072-.066.159-.08c.15-.023.151-.025.014-.03a.532.532,0,0,0-.232.043m5.526.222c.058.015.094.059.08.1s.031.069.111.069h.137l-.13-.1a.422.422,0,0,0-.217-.1c-.057,0-.051.015.019.033m-12.115.09a2.164,2.164,0,0,0-.134.238c-.044.089-.1.162-.128.162s-.048.046-.048.1.051.026.145-.115a1.017,1.017,0,0,0,.145-.275.106.106,0,0,1,.073-.084c.04-.015.057-.044.037-.065s-.06-.005-.089.036m18.276.119c.075.135.275.34.332.34.031,0-.015-.056-.1-.125s-.143-.162-.126-.207a.055.055,0,0,0-.058-.081c-.054,0-.073.029-.048.074m-5.683.072a.433.433,0,0,0,.174.089.421.421,0,0,1,.177.105,1.612,1.612,0,0,0,.257.18c.125.067.121.059-.023-.066a2.671,2.671,0,0,0-.663-.394c-.019,0,.016.039.078.087m-7.337.188c-.264.19-.358.293-.174.19s.489-.348.425-.341a1.172,1.172,0,0,0-.251.151m-5.682.346c0,.049-.026.089-.058.089a.061.061,0,0,0-.058.063c0,.087.1.013.176-.125.041-.079.042-.115,0-.115s-.06.04-.06.089m5.12.059c-.1.088-.122.133-.061.112s.1-.063.1-.1.039-.044.087-.025.087,0,.087-.053c0-.118-.025-.11-.214.061m8.711-.1.229.192.174.146-.17-.192a.667.667,0,0,0-.229-.192c-.036,0-.038.017,0,.045m-9.134.486c-.079.1-.172.177-.207.177s-.1.069-.144.153a1.162,1.162,0,0,1-.23.281,4.542,4.542,0,0,0-.811,1.141c0,.015.039-.013.087-.061a.313.313,0,0,0,.087-.181c0-.051.02-.093.045-.093s.088-.073.14-.162a4.968,4.968,0,0,1,.814-.945,2.364,2.364,0,0,0,.417-.487c-.03,0-.12.08-.2.177m9.566-.153a2.652,2.652,0,0,0,.377.42c.371.367.529.449.216.112-.276-.3-.593-.582-.593-.532m-5.239.359c-.024.064.006.089.11.089s.143-.034.143-.089a.1.1,0,0,0-.11-.089.161.161,0,0,0-.143.089m.873-.051c-.06.061.016.139.135.139.075,0,.1-.029.077-.089a.129.129,0,0,0-.213-.051m.886.184a.222.222,0,0,0,.2.133.235.235,0,0,1,.175.059.193.193,0,0,0,.149.059.56.56,0,0,1,.214.051c.422.215.9.394.636.238-.057-.033-.09-.081-.075-.106s-.03-.043-.1-.041-.123-.024-.117-.059-.058-.053-.159-.038-.17,0-.17-.04-.078-.066-.174-.066c-.117,0-.174-.029-.174-.09s-.038-.08-.148-.052A.2.2,0,0,1,51,16.136c-.082-.1-.083-.1-.024.022m8.7-.054a.191.191,0,0,0,.052.1,1.855,1.855,0,0,1,.3.588.948.948,0,0,0,.116.3.921.921,0,0,1,.116.323.2.2,0,0,0,.058.149.282.282,0,0,1,.058.2.4.4,0,0,0,.052.218.464.464,0,0,1,.08.174c.021.089.029.078.035-.044,0-.089-.019-.162-.051-.162s-.058-.093-.058-.207-.026-.207-.058-.207-.058-.08-.058-.177-.026-.177-.058-.177-.058-.053-.058-.118-.026-.118-.058-.118-.058-.08-.058-.177-.02-.177-.043-.178c-.05,0-.188-.285-.188-.389a.133.133,0,0,0-.087-.1c-.048-.019-.087-.013-.087.011m-10.827.051a.467.467,0,0,0,.2,0c.056-.015.01-.027-.1-.027s-.157.012-.1.027m1.623,0a.467.467,0,0,0,.2,0c.056-.015.01-.027-.1-.027s-.157.012-.1.027m-2.276.107c0,.045.054.062.145.044a.4.4,0,0,0,.145-.044.4.4,0,0,0-.145-.044c-.091-.018-.145,0-.145.044m-.406.148c0,.033-.051.059-.113.059a.192.192,0,0,0-.148.059.191.191,0,0,1-.148.059c-.062,0-.113.026-.113.059s-.039.059-.087.059-.087.027-.087.059-.041.059-.091.059a.3.3,0,0,0-.178.089c-.12.122-.063.111.195-.039a4.587,4.587,0,0,1,1.031-.483c.07-.015.041-.028-.072-.033s-.189.02-.189.052m7.659.339c.044.073.1.133.123.133s.044.036.044.079a.348.348,0,0,0,.116.186.356.356,0,0,1,.116.21.151.151,0,0,0,.08.134c.1.04-.033-.26-.169-.374a.237.237,0,0,1-.086-.144.49.49,0,0,0-.152-.214c-.147-.138-.15-.138-.073-.01m-2.876.167a1.81,1.81,0,0,1,.29.194c.267.236.324.268.285.164-.02-.053-.066-.1-.1-.1A.71.71,0,0,1,52.8,17a.626.626,0,0,0-.29-.177c-.071,0-.05.03.069.093m-6.3.483a5.089,5.089,0,0,0-.41.41,1.2,1.2,0,0,1-.13.158.293.293,0,0,0-.086.138c0,.028-.052.088-.116.135a.273.273,0,0,0-.116.169c0,.046.153-.113.34-.353a4.214,4.214,0,0,1,.876-.9c.079-.056.113-.1.076-.1a1.969,1.969,0,0,0-.433.34m6.968.007a.5.5,0,0,0,.145.174c.08.071.145.112.145.091a.6.6,0,0,0-.145-.174c-.08-.075-.145-.116-.145-.091m-9.848.253a1.918,1.918,0,0,1-.312.63c-.024.011-.043.082-.043.159a.239.239,0,0,1-.058.176.228.228,0,0,0-.058.169.34.34,0,0,1-.073.207c-.058.06-.052.067.029.035.064-.025.1-.1.1-.21s.026-.171.058-.171.058-.048.058-.106c0-.132.13-.424.188-.425.024,0,.043-.051.043-.114s.029-.123.064-.135.052-.087.037-.167-.03-.1-.035-.048m12.672.05c.017.065.053.118.081.118s.051.042.051.093a.337.337,0,0,0,.1.191c.053.054.085.072.071.04-.235-.536-.379-.748-.3-.442m-17.014.151c-.107.118-.089.228.019.118.05-.051.083-.117.073-.146s-.052-.017-.092.028m14.6,0a1.045,1.045,0,0,0,.175.222c.166.179.171.181.1.032s-.277-.336-.277-.254m-14.711.414a.593.593,0,0,0-.072.314c0,.133-.031.245-.073.26s-.055.046-.033.07c.085.093.163-.046.163-.292,0-.142.03-.268.067-.28a.069.069,0,0,0,.043-.088c-.016-.044-.047-.039-.1.015m15.152.174a.57.57,0,0,0,.116.148c.012,0-.009-.066-.045-.148s-.089-.148-.116-.148-.007.066.045.148m-8.789.177c0,.049-.026.089-.058.089s-.058.038-.058.084a.136.136,0,0,1-.059.114c-.038.019-.036.026,0,.019.087-.016.314-.393.236-.393-.035,0-.064.04-.064.089m-6.543.541c0,.1-.04.2-.08.217-.057.023-.056.031,0,.035.1.006.145-.127.112-.3-.02-.107-.027-.1-.034.05M45,19.131c-.053.057-.082.119-.063.138s.071-.021.117-.087c.106-.155.073-.186-.054-.05M60.73,19.2a.46.46,0,0,0,.083.31c.114.116.141.116.141,0,0-.049-.032-.082-.072-.074s-.086-.08-.108-.221l-.036-.236-.008.217m-17.966.047c-.1.162-.091.206.019.094.05-.051.083-.12.072-.152s-.052-.006-.092.059m-4.131.645c0,.307-.021.415-.087.441s-.085.107-.082.228.02.154.038.106a.6.6,0,0,1,.111-.166,2.467,2.467,0,0,0,.049-1.016,1.461,1.461,0,0,0-.029.407M42.7,19.7a.241.241,0,0,1-.066.166A.166.166,0,0,0,42.58,20c0,.082.011.084.038.011a.3.3,0,0,1,.087-.125c.03-.02.043-.1.028-.177-.024-.132-.027-.133-.034-.011m18.152.254c0,.114.012.16.026.1a.493.493,0,0,0,0-.207c-.015-.057-.026-.01-.026.1m.059.31a.076.076,0,0,0,.145,0c.01-.03-.023-.054-.073-.054s-.082.024-.073.054m-16.3.084c-.043.048-.062.1-.043.123.049.049.168-.078.142-.151-.012-.032-.056-.02-.1.028m-13.742.175c-.069.08-.066.09.024.072a.179.179,0,0,0,.128-.094c.033-.1-.056-.089-.153.023m2.153-.023a.169.169,0,0,0,.121.093c.067.013.086-.009.061-.074-.041-.109-.218-.128-.182-.019m-2.818.133c-.018.049-.019.089,0,.089a.33.33,0,0,0,.118-.089c.075-.077.076-.089,0-.089a.14.14,0,0,0-.118.089m3.578,0a.331.331,0,0,0,.118.089c.017,0,.016-.04,0-.089a.14.14,0,0,0-.118-.089c-.074,0-.073.012,0,.089m23.112.063c0,.051.024.077.054.058s.066.013.08.07.029.043.033-.058-.022-.162-.08-.162a.09.09,0,0,0-.087.092m-14.4.065a3.149,3.149,0,0,0,.023,1.115.083.083,0,0,0,.1,0c.022-.024.007-.055-.033-.07a1.564,1.564,0,0,1-.014-.9c.032,0,.058-.04.058-.089,0-.092-.069-.117-.135-.049m18.475.581c0,.227.011.313.023.191a2.246,2.246,0,0,0,0-.413c-.013-.1-.023,0-.023.223m-25.691-.269c.027.093.51.39.51.314,0-.026-.085-.083-.188-.128a.862.862,0,0,1-.268-.177c-.06-.073-.073-.075-.054-.01m19.657.269c0,.13.013.176.026.1a.66.66,0,0,0,0-.236c-.014-.056-.026,0-.025.134m-26.626.025c0,.03-.059.066-.13.081-.125.024-.125.026-.007.034a.26.26,0,0,0,.2-.081c.05-.061.052-.089.007-.089a.061.061,0,0,0-.065.055M36,21.522a1.82,1.82,0,0,1,.29.194,1.524,1.524,0,0,0,.264.177,1.766,1.766,0,0,1,.33.248.762.762,0,0,0,.234.173,10.4,10.4,0,0,1,1.4,1.531c.326.478.418.519.393.178-.01-.145-.05-.259-.092-.267s-.047,0-.014.015.059.124.059.239c0,.179-.012.2-.087.136a.246.246,0,0,1-.087-.155c0-.045-.022-.081-.048-.081s-.085-.073-.13-.162a10.644,10.644,0,0,0-1.532-1.595,2.571,2.571,0,0,1-.367-.319c-.011-.027-.067-.05-.126-.05s-.115-.021-.126-.046a1.125,1.125,0,0,0-.463-.308c-.043,0,0,.042.1.092m-8.146.074c0,.027-.071.087-.159.133a2.367,2.367,0,0,0-.56.43l-.18.169.174-.127c.1-.07.343-.245.55-.39s.331-.264.275-.264-.1.022-.1.049m29.118.276c-.1.113-.091.207.015.207.054,0,.087-.056.087-.148,0-.17,0-.172-.1-.059m-18.5.189a.28.28,0,0,0,.077.237c.056.032.091.176.1.431l.021.383.011-.424c.008-.3-.013-.449-.069-.506a.508.508,0,0,1-.109-.2c-.018-.072-.031-.045-.035.075m6.081.085a.213.213,0,0,0,.087.19c.107.042.107.033,0-.177l-.087-.169v.156m10.3.149a.2.2,0,0,0-.039.122c0,.069.015.068.087-.006a.329.329,0,0,0,.087-.122c0-.046-.088-.043-.135.006M60.9,22.4c0,.053.034.074.087.053s.087-.058.087-.087-.039-.053-.087-.053a.087.087,0,0,0-.087.087M26.559,22.6c-.088.055-.159.117-.159.136a1.594,1.594,0,0,1-.232.284,1.034,1.034,0,0,0-.232.32c0,.039.046,0,.1-.081a3.745,3.745,0,0,1,.435-.458c.341-.312.371-.382.086-.2m28.256.024a.15.15,0,0,1-.079.125c-.04.015-.059.042-.042.061.062.069.183-.065.156-.173-.023-.089-.029-.092-.035-.013m6.036.108c0,.114.012.16.026.1a.493.493,0,0,0,0-.207c-.015-.057-.026-.01-.026.1m-18.276-.07a.834.834,0,0,0,.087.226c.082.159.087.161.087.032a.367.367,0,0,0-.087-.226c-.048-.049-.087-.063-.087-.032m14.277.172a.127.127,0,0,0-.073.114c0,.075.014.074.094-.008.1-.1.093-.148-.021-.106m-2.218.282c-.041.05-.061.1-.045.121s.062-.012.1-.062.061-.1.045-.121-.062.012-.1.062m6.179,0a.478.478,0,0,0-.081.34l.01.247.022-.251c.015-.169.05-.251.106-.251a.086.086,0,0,0,.084-.089c0-.112-.027-.111-.141,0m-22.18.139a.06.06,0,0,0,.054.064c.03,0,.066.086.08.192.021.16.024.153.018-.04s-.152-.4-.152-.216m4.058.03c0,.051.026.093.058.093s.058.065.058.144a.249.249,0,0,0,.058.181.249.249,0,0,1,.058.181c0,.079.026.144.058.144s.058.044.058.1a3.2,3.2,0,0,0,.514,1.019.078.078,0,0,0-.041-.1.147.147,0,0,1-.067-.136c0-.062-.026-.113-.058-.113s-.058-.035-.058-.077c0-.109-.136-.395-.188-.4-.024,0-.043-.08-.043-.178s-.026-.177-.058-.177-.058-.065-.058-.144a.25.25,0,0,0-.058-.181.205.205,0,0,1-.058-.155.342.342,0,0,0-.087-.207c-.077-.079-.087-.078-.087,0m2.263.074a.135.135,0,0,0,.056.107.182.182,0,0,1,.058.14.437.437,0,0,0,.116.23.432.432,0,0,1,.116.218c0,.05.026.091.058.091s.058.036.058.079a.347.347,0,0,0,.116.186.367.367,0,0,1,.116.161,1.716,1.716,0,0,0,.3.36c.238.245.267.262.141.088a1.411,1.411,0,0,0-.2-.236,2.907,2.907,0,0,1-.49-.7,1.043,1.043,0,0,0-.185-.288.265.265,0,0,1-.088-.174c0-.113-.169-.367-.172-.259m-19.3.263c-.041.067-.062.134-.046.15s.059-.029.1-.1c.088-.167.047-.208-.05-.051m5.41.055c-.05.083.026.159.078.077a.305.305,0,0,1,.127-.1c.059-.023.046-.035-.04-.038a.2.2,0,0,0-.165.058m.83-.02a1.516,1.516,0,0,0,.348,0c.087-.013,0-.024-.189-.024s-.263.011-.158.024m.956,0c.056.015.1.052.1.082s.042.055.094.055c.077,0,.081-.016.022-.089a.263.263,0,0,0-.2-.082c-.1.005-.1.012-.022.034m-2.334.133c-.048.027-.165.082-.261.122a3.174,3.174,0,0,0-.706.366,1.254,1.254,0,0,1-.294.164.682.682,0,0,0-.218.177.629.629,0,0,1-.228.177c-.034,0-.139.1-.233.218l-.171.218.155-.115c.085-.063.156-.148.156-.189a.078.078,0,0,1,.078-.074.585.585,0,0,0,.243-.177.682.682,0,0,1,.218-.177,1.326,1.326,0,0,0,.3-.177,1.035,1.035,0,0,1,.344-.177c.05,0,.091-.026.091-.059s.065-.059.145-.059.145-.027.145-.059.065-.059.145-.059.145-.025.145-.055.1-.066.217-.079l.217-.023-.2-.006a.721.721,0,0,0-.29.042m2.826-.013c.1.013.189.049.189.079s.072.052.159.048c.121-.005.131-.014.043-.035a.448.448,0,0,1-.171-.082.4.4,0,0,0-.232-.044l-.177.009.188.024m27.324.07a.466.466,0,0,0-.043.259c.021.111.026.106.033-.028,0-.087.046-.167.093-.177s.069-.046.035-.1-.064-.055-.118.047m-35.358.247c-.11.179-.044.2.071.026.053-.082.076-.149.051-.149s-.08.056-.121.124m8.614-.082c.072.014.13.05.13.081s.06.055.133.055a.325.325,0,0,1,.2.07c.038.039.082.056.1.039s-.042-.065-.129-.106-.2-.1-.26-.128a.45.45,0,0,0-.2-.044c-.069.005-.06.016.028.034m26.589.4a.263.263,0,0,0,0,.162c.016.042.032.018.035-.052a.187.187,0,0,1,.077-.158c.057-.023.056-.031,0-.035a.122.122,0,0,0-.107.082m-4.239.123a.343.343,0,0,0-.066.216c.006.121.01.122.035.017a.593.593,0,0,1,.088-.193c.083-.1.032-.138-.058-.039m-2.616.253c-.247.317-.228.358.03.067.116-.131.2-.252.181-.269s-.111.074-.211.2m6.757-.07a.334.334,0,0,0-.039.178.644.644,0,0,1-.051.241c-.152.3-.191.424-.163.5.017.045.033.022.036-.053s.031-.133.062-.133.058-.066.058-.148.026-.148.058-.148.058-.1.058-.213c0-.165.02-.205.087-.179.048.019.087.008.087-.023,0-.065-.135-.077-.193-.018m-4.387.256c-.046.029-.064.072-.041.1s.073.013.111-.025c.088-.089.039-.139-.07-.071m-31.233.133c-.1.137-.139.221-.092.221.026,0,.077-.067.114-.148.073-.161.065-.188-.022-.073m28.39.167-.2.182.187-.125c.165-.111.291-.238.235-.238a1.685,1.685,0,0,0-.221.182m2.742-.084a.121.121,0,0,0-.073.1.8.8,0,0,1-.172.276.855.855,0,0,0-.174.273.549.549,0,0,1-.176.218.64.64,0,0,0-.174.193c0,.079.3-.237.481-.508.1-.146.193-.279.211-.3a1.129,1.129,0,0,0,.164-.291l-.087.034M28.27,25.3a.278.278,0,0,0-.072.123.629.629,0,0,1-.13.193c-.077.089-.088.116-.026.068.121-.095.353-.414.322-.444-.011-.011-.054.016-.093.06m7.473-.005a4.641,4.641,0,0,0,.312.407,1.625,1.625,0,0,1,.158.274c.054.114.1.178.1.142a1.5,1.5,0,0,0-.409-.674c-.132-.146-.2-.213-.161-.149m7.877-.054a1.906,1.906,0,0,0,.374.587c.133.154.143.158.077.03a1.076,1.076,0,0,0-.177-.243.341.341,0,0,1-.1-.148c0-.072-.172-.295-.172-.226m2.85.143a2.813,2.813,0,0,0,.788.588.072.072,0,0,1,.073.063c0,.033.038.059.085.059a.907.907,0,0,1,.292.118.883.883,0,0,0,.316.118.155.155,0,0,1,.139.074c.017.044.031.032.034-.03s-.041-.1-.169-.1c-.1,0-.174-.027-.174-.059s-.052-.059-.116-.059-.116-.027-.116-.059a.071.071,0,0,0-.078-.059,1.058,1.058,0,0,1-.5-.267.231.231,0,0,0-.137-.088.78.78,0,0,1-.262-.188c-.108-.1-.185-.152-.171-.108m-14.6.044a1.262,1.262,0,0,0,.319,0c.088-.013.016-.025-.159-.025s-.247.011-.159.025m1.586.243c-.023.037.053.113.18.18a2.154,2.154,0,0,1,.449.357,1.1,1.1,0,0,0,.282.241c.029,0-.1-.146-.287-.325a1.723,1.723,0,0,0-.41-.325.177.177,0,0,1-.123-.1c-.035-.063-.066-.074-.092-.032m26.585.139a.3.3,0,0,1-.067.2.209.209,0,0,0-.051.166c.006.12.009.121.036.011a.3.3,0,0,1,.085-.154c.031-.02.045-.113.031-.207l-.025-.171-.009.159m-35.591.081a.346.346,0,0,0-.072.2c0,.066-.026.12-.058.12s-.058.106-.058.236-.026.236-.058.236a.058.058,0,0,0-.058.057c0,.031.039.042.087.023s.087-.114.087-.264c0-.126.026-.23.058-.23s.058-.064.058-.143.03-.153.067-.165a.069.069,0,0,0,.043-.088c-.016-.044-.047-.039-.1.015m3.445-.053c-.07.072-.04.135.048.1.048-.019.087-.058.087-.087,0-.062-.08-.07-.135-.013m2.061.288c-.1.111-.017.108.129,0,.079-.061.088-.086.029-.084a.263.263,0,0,0-.158.089m21.874.027a.769.769,0,0,1-.3.114.224.224,0,0,0-.163.063.417.417,0,0,1-.261.059.417.417,0,0,0-.261.059.327.327,0,0,1-.221.06c-.24,0-.446.058-.446.124,0,.029.039.052.087.052s.087-.027.087-.059.13-.059.29-.059.29-.026.29-.059.1-.059.232-.059.232-.027.232-.059.078-.059.174-.059.174-.027.174-.059.052-.059.116-.059.116-.025.116-.055.059-.066.13-.081c.11-.021.112-.026.014-.029a.666.666,0,0,0-.29.106m-22.162.3c-.1.1-.169.175-.145.173a.691.691,0,0,0,.3-.249c.116-.15.062-.124-.153.076m14.846,0c.145.2.614.622.64.578a3.467,3.467,0,0,0-.391-.4c-.28-.266-.356-.319-.249-.173m10.157.3c-.346.355-.363.381-.116.178.34-.281.653-.607.576-.6a3.135,3.135,0,0,0-.46.422m-6.247-.325c.1.013.189.049.189.079s.141.055.314.055c.2,0,.324.027.34.074s.048.052.076.026c.081-.077-.1-.157-.364-.158a.467.467,0,0,1-.279-.06c-.02-.033-.132-.055-.25-.05l-.214.009.188.024m11.3,0c-.07.072-.04.135.048.1.048-.019.087-.058.087-.087,0-.062-.08-.07-.135-.013m-25.161.283c.088.112.17.193.183.18.031-.032-.238-.377-.3-.381-.025,0,.026.088.114.2m2.055.077c0,.106.019.192.051.192s.058.044.058.1.017.081.039.059.01-.1-.026-.172a1.331,1.331,0,0,1-.09-.251c-.015-.071-.028-.042-.032.074m-12.472.335c0,.155-.029.271-.073.287s-.052.049-.026.077c.076.083.154-.105.155-.374a.57.57,0,0,0-.028-.251.616.616,0,0,0-.029.261m5.16-.2c-.046.029-.064.072-.041.1s.073.013.11-.025c.088-.089.039-.139-.069-.071m10.581.059a.152.152,0,0,0,.119.059c.046,0,.083.026.083.059a.059.059,0,0,0,.059.059c.035,0,.029-.048-.014-.118a.247.247,0,0,0-.178-.118c-.058,0-.089.027-.069.059m5.4.2a.428.428,0,0,0,.2.088c.048,0,.012-.038-.079-.087-.211-.112-.265-.113-.12,0m-16.143.076c0,.073-.033.133-.065.133s-.058.093-.058.207-.026.207-.058.207-.058.133-.058.3c0,.223-.021.3-.087.3-.115,0-.119.389,0,.455a.44.44,0,0,1,.1.283c.011.13.023-.091.026-.491A2.464,2.464,0,0,1,29,27.85a.371.371,0,0,0,.065-.22.369.369,0,0,1,.063-.218.2.2,0,0,0,.036-.174c-.023-.09-.029-.086-.034.023M40.2,27.29c0,.057.026.1.058.1s.058.04.058.089.026.089.058.089.058.04.058.089.026.088.058.088a.061.061,0,0,1,.058.063,2.174,2.174,0,0,0,.42.577.113.113,0,0,1,.043.1.146.146,0,0,0,.1.115c.1.04.116.063-.181-.326-.128-.168-.155-.208-.5-.732-.127-.195-.23-.308-.23-.251m13.736.089-.141.162.145-.125a1.056,1.056,0,0,1,.232-.158c.074-.028.074-.033,0-.037a.427.427,0,0,0-.232.158m-18.94.144c.029.088.161.137.161.059,0-.032-.041-.074-.092-.094s-.083-.009-.069.034m4.991.191c.011.177.155.3.155.128,0-.051-.024-.094-.054-.094s-.067-.046-.083-.1-.024-.026-.019.069m-15.938.92c0,.568.009.8.019.517s.011-.749,0-1.033-.019-.052-.019.517m12.789-.9c0,.071.024.129.054.129s.066.046.08.1c.022.087.027.084.031-.015a.434.434,0,0,0-.08-.233c-.083-.112-.085-.112-.085.015m22.139.055c-.187.23-.236.31-.187.309.028,0,.11-.093.182-.207.14-.221.143-.271.006-.1m-23.865.2c.029.088.161.137.161.059,0-.032-.041-.074-.092-.094s-.083-.009-.069.034m12.487.333c-.046.075.172.208.272.167.039-.016.026-.031-.029-.033a.208.208,0,0,1-.151-.1c-.034-.062-.066-.074-.091-.032m.525.108c-.057.058.077.2.185.194.062,0,.049-.022-.04-.059s-.118-.082-.1-.114c.041-.067.011-.08-.048-.021m.425.136c0,.121.25.184.653.164l.419-.02-.451-.012c-.34-.009-.459-.034-.485-.1-.037-.1-.137-.121-.137-.032m2.319.032c0,.07-.094.091-.449.1l-.449.011.375.021c.447.025.64-.015.64-.134,0-.048-.026-.087-.058-.087s-.058.04-.058.089m6.87.691a4.548,4.548,0,0,0-.523.576A11.469,11.469,0,0,0,58.4,28.633c-.014,0-.312.3-.662.661m-16.228-.238a9.4,9.4,0,0,0,.712.71c.052.04-.089-.129-.312-.376a3.473,3.473,0,0,0-.458-.456c-.029,0,0,.05.058.121m-6.373.147c-.07.072-.04.135.048.1.048-.019.087-.058.087-.087,0-.062-.08-.07-.135-.013m1.823.094c0,.057-.033.1-.065.1s-.055.073-.051.162c.005.125.014.135.036.044a.3.3,0,0,1,.086-.155.148.148,0,0,0,.029-.148c-.024-.1-.029-.1-.035-.008m3.047.084a.352.352,0,0,0-.032.192c0,.1.016.117.033.049s.051-.1.08-.1.054-.04.054-.089c0-.092-.069-.117-.135-.049m-11.056.059c.033.017.059.121.059.232s.026.2.058.2.058.063.058.141a.2.2,0,0,0,.086.175c.066.026.074.009.036-.068a1.766,1.766,0,0,1-.192-.539c-.009-.079-.05-.15-.091-.158s-.047,0-.014.015m-1.781.271a.076.076,0,0,0,.145,0c.01-.029-.023-.054-.073-.054s-.082.024-.073.054m-3.105.145a.608.608,0,0,1,.093.315l.025.265-.006-.291c0-.2-.032-.3-.093-.315s-.066-.009-.018.026m12.73,0a.127.127,0,0,0-.073.114c0,.075.014.073.094-.008.1-.1.093-.148-.021-.107m5.783.236c0,.051.232.214.261.183.01-.01-.045-.067-.122-.125s-.139-.085-.139-.058m-2.6.091c0,.057-.033.1-.065.1s-.058.042-.058.093c0,.084.008.084.091,0a.236.236,0,0,0,.065-.2c-.025-.1-.027-.1-.033,0m-3.3.077a.326.326,0,0,0-.073.189c0,.134-.129.426-.188.427-.024,0-.043.054-.043.119s-.026.118-.058.118-.058.053-.058.118-.026.118-.058.118a.06.06,0,0,0-.058.063c0,.136.116-.024.314-.433a2.578,2.578,0,0,0,.208-.519.267.267,0,0,1,.069-.161c.038-.038.057-.081.043-.094s-.058.011-.1.056m-7.313.115a.355.355,0,0,0,.155.232l.158.113-.123-.143a1.012,1.012,0,0,1-.155-.232c-.023-.063-.033-.054-.035.03m-1.964.041c.029.088.161.137.161.059,0-.032-.041-.074-.092-.094s-.083-.009-.069.034m-3.2.146c.033.017.059.119.059.228a.362.362,0,0,0,.058.235.2.2,0,0,1,.058.155.343.343,0,0,0,.087.207c.048.049.087.062.087.029a.13.13,0,0,0-.058-.1.249.249,0,0,1-.058-.181c0-.079-.024-.144-.054-.144s-.063-.1-.073-.217-.051-.223-.092-.232-.047,0-.015.015m5.514.3a2.234,2.234,0,0,0,.57.5,1.481,1.481,0,0,1,.263.182.428.428,0,0,0,.246.1c.074,0,.134.027.134.059s.094.059.209.059c.158,0,.2.021.177.085s.005.082.081.076c.136-.01.136-.011.021-.127a.412.412,0,0,0-.257-.093.286.286,0,0,1-.2-.059.227.227,0,0,0-.17-.059.3.3,0,0,1-.207-.09.969.969,0,0,0-.267-.183,1.609,1.609,0,0,1-.4-.324c-.205-.232-.343-.319-.2-.127m4.364.239a.95.95,0,0,1-.288.223c-.467.254-.518.281-.616.33a.634.634,0,0,1-.232.051c-.173,0-.3.088-.251.17.059.1.151.079.112-.023-.026-.069.014-.089.176-.089.115,0,.209-.027.209-.059s.065-.059.145-.059.145-.026.145-.059.039-.059.087-.059.087-.027.087-.059.041-.059.09-.059c.1,0,.474-.331.427-.378-.016-.016-.057.016-.091.071m21.433-.02a7.691,7.691,0,0,1-1.219.638c-.048.013-.005.037.1.052.134.02.175.007.153-.05s.021-.077.122-.077c.083,0,.151-.026.151-.059s.039-.059.087-.059.087-.02.087-.045.1-.089.217-.142c.23-.1.537-.345.436-.345a.225.225,0,0,0-.13.086m-11.2.243a.333.333,0,0,0,.23.066c.074-.02.066-.028-.03-.034-.072,0-.13-.033-.13-.066s-.045-.059-.1-.059c-.082,0-.076.017.03.093M27.93,31.5c.036.078.082.143.1.143.066,0-.017-.226-.094-.256-.058-.022-.059,0-.009.114m16.754.055a.343.343,0,0,0,.213.089c.08,0,.116.028.1.077s.017.071.139.052c.1-.015.168,0,.168.041s.052.066.116.066.116.026.116.059.076.059.169.059.182.027.2.061.023.027.015-.015a.153.153,0,0,0-.126-.093,2.072,2.072,0,0,1-.372-.14c-.143-.067-.326-.149-.406-.181s-.19-.082-.246-.111c-.149-.077-.18-.063-.082.036m-8.655.023a.387.387,0,0,1-.13.192c-.069.061-.112.124-.1.14.052.053.293-.256.262-.335-.024-.062-.032-.062-.035,0m-4.251.286a3.23,3.23,0,0,0,.493,0c.135-.012.025-.022-.246-.022s-.382.01-.246.022m22.19.016a.181.181,0,0,1-.141.059.266.266,0,0,0-.182.1c-.065.088-.065.092,0,.03A.369.369,0,0,1,53.863,32c.073,0,.133-.025.133-.055s.059-.066.13-.081c.13-.026.13-.026,0-.034a.2.2,0,0,0-.163.051M24.7,32.052c.049.1.12.181.158.178s.047-.013,0-.034a.125.125,0,0,1-.073-.106.24.24,0,0,0-.085-.149c-.072-.061-.072-.044,0,.111m3.624-.112c0,.049.12.191.271.317l.274.228-.24-.239a1.82,1.82,0,0,1-.271-.317c-.022-.057-.031-.054-.033.011m7.015.416c-.2.193-.347.351-.319.35a2.338,2.338,0,0,0,.4-.354c.448-.453.4-.45-.08,0M46.081,32.1a.4.4,0,0,1,.187.126c.04.053.073.068.074.034,0-.1-.129-.2-.256-.2s-.115.008,0,.036m.886.3c.056.058.111.082.123.052s-.014-.077-.058-.1c-.135-.087-.172-.058-.065.053m5.526-.022c-.052.064-.052.094,0,.127s.055.019.028-.025.012-.09.092-.123.1-.056.04-.059a.23.23,0,0,0-.162.08m-4.932.182c0,.05.052.089.12.089.107,0,.11-.01.033-.089a.323.323,0,0,0-.12-.089c-.018,0-.033.04-.033.089m4.29,0c-.059.072-.056.089.016.089a.143.143,0,0,0,.121-.089c.018-.049.011-.089-.016-.089a.233.233,0,0,0-.121.089m-3.442.116c.02.052.061.087.091.077.087-.03.062-.132-.037-.153-.062-.013-.079.011-.054.076m2.573,0a.09.09,0,0,0,.09.089c.05,0,.076-.024.058-.054s0-.068.04-.084.014-.032-.058-.035-.13.03-.13.084M38.9,32.824c-.057.1-.076.179-.043.179s.061-.038.061-.084a.116.116,0,0,1,.067-.106.075.075,0,0,0,.043-.1c-.014-.041-.069.005-.128.106m-.329.5c-.043.081-.06.165-.039.187s.039-.008.039-.065.031-.093.08-.073.072,0,.051-.082c-.037-.144-.038-.143-.132.034M30.2,33.3c-.111.044-.111.046.011.05a.223.223,0,0,1,.163.063.16.16,0,0,0,.134.054c.079,0,.081-.011.011-.036a.388.388,0,0,1-.145-.1A.145.145,0,0,0,30.2,33.3m3.1.143a.08.08,0,0,1-.068.089c-.037,0-.051.017-.03.038.043.044.214-.086.214-.163a.055.055,0,0,0-.058-.052c-.032,0-.058.04-.058.089m-7.711.072A7.3,7.3,0,0,0,27.3,35.233c.016-.017-.052-.083-.152-.148a10.953,10.953,0,0,1-1.4-1.4c-.091-.127-.165-.2-.165-.171m5.508.04c0,.207,1.7.239,1.884.036.094-.106.1-.118.009-.118a.093.093,0,0,0-.1.089c0,.075-.132.089-.841.089s-.841-.014-.841-.089c0-.049-.026-.089-.058-.089s-.058.037-.058.082m7.274.062c-.031.044-.116.162-.19.263s-.124.183-.111.183a2.03,2.03,0,0,0,.38-.5c-.012-.013-.048.013-.078.057m35.063.254c1.012.009,2.669.009,3.682,0a16.593,16.593,0,1,0-1.841-.016,16.6,16.6,0,1,0-1.841.016m-2.048.236c-.065.088-.065.092,0,.03a29.664,29.664,0,0,1,3.809-.074h3.728V45.4c0,10.039.01,11.338.087,11.338.137,0,.132-22.646,0-22.7-.259-.1-7.546-.037-7.624.068m-1.02,1.013a13.713,13.713,0,0,0-1.274,1.364c.017,0,.5-.478,1.07-1.063s1.018-1.063.993-1.063a9.8,9.8,0,0,0-.789.762m-33.036-.349c-.058.065-.086.118-.063.118.061,0,.226-.178.195-.21-.015-.015-.074.026-.132.091m-9.932.531a.57.57,0,0,0,.225.2c.2.117.2.1-.085-.143-.1-.089-.157-.112-.14-.059m.684.5a1.731,1.731,0,0,0,.39.206c.013,0-.01-.035-.052-.078-.071-.072-.338-.173-.338-.128m7.634.068c-.055.056-.048.138.013.138.028,0,.067-.04.085-.089.034-.09-.028-.121-.1-.049m-7.132.169c.029.078.252.163.252.1,0-.021-.063-.068-.14-.1-.109-.052-.133-.05-.111.009M35.444,36c0,.024-.085.079-.188.122s-.234.1-.289.133a.51.51,0,0,1-.206.055.263.263,0,0,0-.16.054.473.473,0,0,1-.2.081c-.121.022-.114.028.043.035.1,0,.189-.018.189-.051s.078-.059.174-.059.174-.027.174-.059.065-.059.145-.059.145-.027.145-.059a.069.069,0,0,1,.073-.061c.124,0,.32-.175.2-.175-.054,0-.1.02-.1.045m-6.45.233c.072.014.13.05.13.081s.078.055.174.055.174.026.174.059.065.059.145.059.145.027.145.059.1.059.232.059c.18,0,.232.023.232.1s.015.085.072.027c.086-.087-.026-.184-.217-.186a1.636,1.636,0,0,1-.588-.2.307.307,0,0,0-.172-.041.222.222,0,0,1-.168-.059.2.2,0,0,0-.163-.051c-.127.008-.127.008,0,.034m4.794.377a.118.118,0,0,0,.029.133c.052.052.059.045.031-.031s0-.1.156-.123l.193-.024-.185-.009a.3.3,0,0,0-.224.055m-3.041.107c.175.024.256.061.245.115-.019.091.115.063.146-.031.026-.079-.182-.138-.448-.127-.184.007-.178.011.058.043m2.479-.011a.81.81,0,0,0,.261,0c.072-.014.013-.026-.13-.026s-.2.011-.13.026m34.947.647a8.036,8.036,0,0,0-.669.736c0,.026.158-.118.352-.319s.52-.533.725-.736.348-.369.317-.369a6.772,6.772,0,0,0-.724.688m-35.209-.559a.166.166,0,0,0,.092.094c.042.014.055-.013.034-.07-.04-.107-.16-.13-.125-.023m-1.216.032a4.135,4.135,0,0,0,.551,0c.151-.012.028-.022-.276-.022s-.427.01-.275.022m1.679.756c-.063.072-.056.086.043.086.066,0,.118-.039.118-.089,0-.111-.064-.11-.162,0m12.092,1.8.016,1.886-4.161.016-4.161.016h8.349l.015-1.856c.009-1.021,0-1.877-.029-1.9s-.037.8-.028,1.841m1.752,5.2v7.071l.189.034c.1.019,1.715.026,3.58.017l3.392-.017-3.493-.014-3.494-.014.015-7.081c.014-6.713.01-7.081-.087-7.073s-.1.387-.1,7.079m11.166-6.968c.318.368,4.735,4.836,4.758,4.813a10.608,10.608,0,0,0-1.134-1.161.556.556,0,0,1-.151-.177c-.064-.1-.136-.177-.159-.177a2.57,2.57,0,0,1-.507-.5,19.576,19.576,0,0,0-1.458-1.448.055.055,0,0,1-.05-.059.408.408,0,0,0-.116-.177.4.4,0,0,0-.174-.118.057.057,0,0,1-.058-.056,3.075,3.075,0,0,0-.435-.492,2.636,2.636,0,0,1-.435-.5c0-.038-.043-.069-.1-.069-.085,0-.083.015.014.128m-26.377.556c-.091.082-.155.16-.142.173s.114-.055.224-.151.174-.174.142-.173a.675.675,0,0,0-.224.151m-.46.426a.972.972,0,0,0-.215.284.414.414,0,0,1-.1.178.934.934,0,0,0-.246.465.1.1,0,0,1-.1.089c-.078,0-.084.015-.027.073.083.085.181-.026.182-.206,0-.057.024-.1.052-.1s.066-.047.083-.1a2,2,0,0,1,.431-.648c.17-.178.22-.252.171-.252a2.274,2.274,0,0,0-.232.224M65.914,39.65a6.73,6.73,0,0,0-.67.74c0,.032.16-.109.356-.313s.52-.537.721-.74.343-.369.314-.369a7.248,7.248,0,0,0-.721.682m-34.984.313c-.006.15-.029.19-.095.164-.048-.019-.087-.008-.087.023,0,.09.174.067.209-.027a.506.506,0,0,0,.006-.221c-.019-.1-.028-.085-.034.061m-.1,4.555c0,2.257.007,3.181.016,2.052s.009-2.976,0-4.1-.016-.205-.016,2.052m34.069-3.8c-.072.084-.119.165-.1.181s.084-.054.153-.153c.154-.221.128-.235-.049-.027m-40.726.467c.044.116.229.16.547.132.234-.021.228-.024-.077-.033-.253-.008-.333-.032-.333-.1a.087.087,0,0,0-.085-.089c-.052,0-.072.035-.052.089m-.127,1.86c0,1.056.008,1.487.017.96s.01-1.391,0-1.919-.017-.1-.017.96m1.1-1.741c0,.114.18.16.507.131.236-.021.23-.024-.075-.033-.268-.008-.325-.027-.3-.1.02-.053,0-.089-.05-.089a.087.087,0,0,0-.083.09m29.169.032a.088.088,0,0,0,0,.1c.019.02.035,0,.035-.033a31.866,31.866,0,0,1,4.145-.01.133.133,0,0,0,.1.059c.036,0,.015-.039-.047-.087a27.626,27.626,0,0,0-4.231-.028m9.517.444a3.734,3.734,0,0,0-.5.568c0,.034.111-.06.246-.209s.385-.4.554-.568.283-.3.253-.3a4.021,4.021,0,0,0-.554.507m3.843-.226c-.355.38-.431.487-.348.487.037,0,.084-.046.106-.1a1.76,1.76,0,0,1,.282-.355l.244-.252,2.078.016,2.078.015.029,7.706.029,7.706.014-7.68c.011-5.91,0-7.7-.055-7.751A11,11,0,0,0,70,41.27H67.935l-.262.28M26.11,41.417c0,.112.2.163.527.133.234-.021.228-.024-.077-.033-.253-.008-.333-.032-.333-.1,0-.049-.026-.089-.058-.089s-.058.039-.058.087m.942.164c.014.043.132.077.28.081.226.006.231,0,.039-.018-.12-.014-.217-.05-.217-.081a.06.06,0,0,0-.063-.055c-.035,0-.052.033-.039.074m.624.1c0,.086.232.129.555.1.272-.021.268-.023-.076-.033-.2-.006-.362-.037-.362-.07a.058.058,0,1,0-.116,0m.986.125c0,.036.052.079.116.1.111.03.116.081.116,1.2v1.174h-.256a1.369,1.369,0,0,0-.348.036c-.1.039-.127.2-.034.2.032,0,.058-.038.058-.085s.085-.09.3-.1l.3-.018.016-1.176c.015-1.107.009-1.182-.1-1.284-.131-.125-.178-.136-.178-.044M65.2,44.086l-1.99,2.029-.286-.29c-.157-.159-.286-.271-.286-.249a1.811,1.811,0,0,0,.278.319l.278.279.229-.208c.362-.329,1.38-1.365,1.474-1.5a.273.273,0,0,1,.161-.123.151.151,0,0,0,.115-.1,2.564,2.564,0,0,1,.39-.447A18.968,18.968,0,0,0,67.1,42.217c0-.028.033-.063.073-.077s.059-.039.043-.055-.924.885-2.019,2m-23.781-.822,4.116.016v8.384l-5.841.015-5.841.015H45.561V43.249H37.3l4.116.016m18.958.011a1.947,1.947,0,0,0,.481.472,1.021,1.021,0,0,0-.231-.268c-.138-.133-.251-.225-.251-.2M27.545,44.442a.819.819,0,0,0,.261,0c.072-.014.013-.026-.13-.026s-.2.012-.13.026m-.354.106c-.022.059,0,.089.071.089a.1.1,0,0,0,.1-.089.081.081,0,0,0-.071-.089.132.132,0,0,0-.1.089m-.625.087c-.108.091-.116.117-.042.118a.141.141,0,0,0,.127-.082.266.266,0,0,1,.195-.109l.163-.025-.153-.009a.484.484,0,0,0-.29.107m-.586.044a.621.621,0,0,0,.232,0c.055-.015,0-.026-.131-.026s-.173.013-.1.027m-.418.108c-.109.084-.107.087.034.087.091,0,.146-.033.146-.089,0-.109-.036-.109-.18,0m-.9.116c0,.049.023.089.052.089s.067-.04.085-.089,0-.089-.052-.089a.087.087,0,0,0-.085.089m6.087,3.918c0,.07.032.12.071.112s.087.076.108.192l.038.207.008-.183a.5.5,0,0,0-.108-.319l-.116-.136v.127m.23.579c.033.017.059.107.059.2s.023.172.051.172.092.086.144.192.094.156.094.113a.585.585,0,0,0-.109-.237.856.856,0,0,1-.13-.3c-.011-.078-.054-.149-.094-.157s-.047,0-.015.015m.414.817a.354.354,0,0,0,.155.232l.158.113-.123-.143a1.012,1.012,0,0,1-.155-.232c-.023-.063-.033-.054-.035.03m.647.708c.12.119.239.208.265.2s-.073-.108-.218-.216l-.265-.2.218.216m.4.307c.056.015.1.052.1.082s.065.055.145.055.145.026.145.059.052.059.116.059.116.027.116.059.1.059.228.059c.167,0,.236.028.258.1s.027.077.018-.015-.061-.123-.185-.135a2.82,2.82,0,0,1-.8-.314.392.392,0,0,0-.174-.046c-.04,0-.028.019.028.034M30.7,56.373l.014,4,.015-3.942.015-3.942h.868l.015,3.942.015,3.942.014-4,.014-4H30.69l.014,4m2.609,0,.014,4,.015-3.942.015-3.942h.431a1.113,1.113,0,0,1,.467.059.124.124,0,0,0,.09.059c.03,0,.009-.053-.045-.118-.083-.1-.171-.118-.55-.118H33.3l.014,4m4.741-1.185c0,1.549-.016,2.829-.031,2.844-.051.052-.26-.185-.26-.3,0-.06-.022-.109-.048-.109a1.04,1.04,0,0,1-.238-.3c-.1-.164-.2-.286-.217-.271-.035.036.112.275.169.275.024,0,.044.036.044.079a.348.348,0,0,0,.116.186.35.35,0,0,1,.116.176c0,.106.273.343.344.3a23.3,23.3,0,0,0,.062-2.811V52.49h.869L39,56.432l.015,3.942.014-4,.014-4h-.981l0,2.816M40.667,52.5c0,.073.018.1.034.059a11.838,11.838,0,0,1,2.43-.074,19.1,19.1,0,0,0,2.4-.059,19.659,19.659,0,0,0-2.435-.059H40.662l0,.133m6.706-.01c-.095.105-.1.38-.1,3.981,0,3.644.006,3.868.1,3.868s.1-.226.1-3.912V52.52l.83-.016c.737-.015.841,0,.928.09.054.059.078.081.054.049a.322.322,0,0,1-.043-.164,3.537,3.537,0,0,0-1.87.017m5.314.025c-.02.081-.06.148-.088.148s-.052.046-.052.1c0,.079.022.069.1-.044.154-.229.172-.233,1.072-.234.837,0,.852,0,.876.132.018.1.027.08.033-.059l.008-.192H52.723l-.036.148m5.426.059c0,.114-.026.207-.058.207S58,52.836,58,52.9a.161.161,0,0,1-.073.143c-.051.021-.052.031,0,.035.08.005.251-.319.251-.477,0-.1.056-.109.652-.107.693,0,.855.055.855.278a.286.286,0,0,0,.087.193c.06.051.087.053.087.007a.063.063,0,0,0-.058-.066c-.032,0-.058-.08-.058-.177q0-.177-.087-.177a.088.088,0,0,1-.087-.089c0-.074-.119-.089-.725-.089h-.725v.207m5.139-.074c-.019.073-.029,1.873-.022,4l.013,3.868.029-3.927.03-3.927.725-.015a3.952,3.952,0,0,1,.786.029,3.988,3.988,0,0,1,.481.728,2.174,2.174,0,0,0,.214.325l.139.172-.071-.162c-.039-.089-.091-.162-.114-.162s-.043-.04-.043-.089-.026-.089-.058-.089S65.3,53.2,65.3,53.14s-.026-.118-.058-.118a.062.062,0,0,1-.058-.065.676.676,0,0,0-.145-.241.633.633,0,0,1-.145-.259c0-.166-1.6-.118-1.645.049m4.173-.039c-.019.051-.035.958-.035,2.015,0,1.7-.01,1.913-.087,1.848a.241.241,0,0,1-.087-.148.256.256,0,0,0-.093-.153.61.61,0,0,1-.144-.214c-.028-.074-.084-.135-.124-.134s-.052.018-.016.044a.776.776,0,0,1,.14.206c.045.089.1.162.13.162s.048.047.048.1c0,.11.195.269.255.208.019-.02.035-.91.035-1.978V52.484l.87.018c.666.014.87,0,.87-.056a4.249,4.249,0,0,0-1.762.02m-21.881.482-.011.427-1.9.016-1.9.016,1.9.014c2.151.016,1.972.064,1.94-.524l-.021-.378-.011.427m-16.926.224a1.822,1.822,0,0,1,.275.343,1.134,1.134,0,0,0,.145.263c.094.141.145.181.145.115s-.026-.1-.058-.1-.058-.04-.058-.089-.026-.089-.058-.089a.069.069,0,0,1-.058-.076,1.305,1.305,0,0,0-.3-.369l-.3-.293.275.3m29.268.067a.187.187,0,0,1-.077.158c-.057.023-.056.031,0,.035.088.005.152-.137.11-.244-.016-.042-.032-.018-.035.052m1.909-.038a.058.058,0,0,0,.058.057c.032,0,.058.065.058.144a.249.249,0,0,0,.058.181.246.246,0,0,1,.058.179.938.938,0,0,0,.116.353.921.921,0,0,1,.116.323.2.2,0,0,0,.058.149.189.189,0,0,1,.058.144.743.743,0,0,0,.08.264l.08.157.027-.144c.019-.1.005-.136-.051-.114s-.078-.024-.078-.153c0-.1-.026-.183-.058-.183s-.058-.08-.058-.177-.026-.177-.058-.177-.058-.066-.058-.148-.026-.148-.058-.148-.058-.08-.058-.177-.026-.177-.058-.177-.058-.077-.058-.171-.037-.185-.087-.2-.087-.008-.087.023m-24.961.19c.056.089.127.146.158.127s.047-.039.037-.044-.081-.062-.158-.127l-.139-.118.1.162m-10.367.13a1.621,1.621,0,0,0-.327.739c0,.094-.027.184-.059.2s-.026.023.014.015.082-.112.092-.232.042-.217.072-.217.054-.049.054-.109a.348.348,0,0,1,.11-.21.541.541,0,0,0,.14-.216c.039-.151.015-.144-.1.03m1.7-.085c0,.032-.059.06-.13.061a.482.482,0,0,0-.243.089c-.11.085-.11.087.015.087.07,0,.127-.027.127-.059s.047-.059.1-.059A.262.262,0,0,0,26.2,53.5a.475.475,0,0,1,.2-.081c.121-.022.114-.028-.043-.035-.1,0-.188.019-.188.051m.826-.018a.468.468,0,0,0,.2,0c.056-.015.01-.027-.1-.027s-.157.012-.1.027m.362.12a.446.446,0,0,1,.171.082.234.234,0,0,0,.142.053c.065,0,.058-.022-.026-.087a.466.466,0,0,0-.258-.082c-.118,0-.123.01-.029.033m30.415.061c0,.076-.044.133-.094.133-.1,0-.109.054-.024.177.055.079.059.079.037,0a.158.158,0,0,1,.06-.151.183.183,0,0,0,.055-.177c-.025-.1-.029-.1-.035.019M54.6,55.059c0,.844.008,1.182.018.749s.01-1.123,0-1.535-.018-.059-.018.786M27.89,53.876c.057.08.128.147.158.148s-.008-.065-.083-.146c-.174-.188-.209-.189-.075,0m37.816.028a.481.481,0,0,0,.133.159c.051.031.049.015-.005-.053a.166.166,0,0,1-.04-.159c.021-.034,0-.062-.055-.062-.073,0-.08.023-.032.115m-13.722.018c-.1.137-.139.221-.092.221.026,0,.077-.067.114-.148.073-.161.065-.188-.022-.073m-22.757.251c.015.081.038.148.05.148s.022-.066.022-.148-.023-.148-.05-.148-.037.066-.022.148m28.306.03c0,.108-.03.177-.077.177s-.069.056-.051.177,0,.177-.066.177-.079.033-.058.089a.205.205,0,0,1-.039.179c-.04.049-.058.1-.04.123.043.044.273-.441.273-.576a.179.179,0,0,1,.051-.136c.068-.043.116-.388.055-.388-.026,0-.048.08-.048.177m8.4.056c.091.174.175.2.1.033-.037-.081-.088-.147-.113-.148s-.018.051.015.114m-37.813-.017a.161.161,0,0,1,.073.143c0,.062.026.113.058.113s.061.06.065.133c0,.094.014.1.033.034.033-.127-.136-.463-.229-.457-.054,0-.054.012,0,.034m21.929-.009a1.6,1.6,0,0,0,.116.234l.228.41a3.454,3.454,0,0,1,.2.458c.073.214.089.23.091.1a.271.271,0,0,0-.055-.2.2.2,0,0,1-.058-.151c0-.063-.026-.115-.058-.115s-.058-.041-.058-.091a.431.431,0,0,0-.116-.218.46.46,0,0,1-.116-.257.183.183,0,0,0-.087-.164c-.048-.019-.087-.022-.087-.008m-14.371.454c.14.217.265.365.277.328a.07.07,0,0,0-.043-.09.116.116,0,0,1-.067-.106c0-.046-.026-.084-.058-.084s-.058-.035-.058-.078a.482.482,0,0,0-.153-.221c-.116-.109-.092-.048.1.251m15.953-.055c-.1.137-.139.221-.092.221.026,0,.077-.067.114-.148.073-.161.065-.188-.022-.073M34.4,54.649a1.059,1.059,0,0,0,.179.221l.179.189-.136-.221c-.121-.2-.223-.283-.223-.19M24.049,56.388c0,.958.008,1.35.018.871s.01-1.263,0-1.742-.018-.087-.018.871m27.361-1.37c-.081.054-.142.307-.075.307.029,0,.053-.051.053-.113a.153.153,0,0,1,.072-.14c.04-.015.059-.042.042-.061s-.058-.016-.092.007m-16.66.106a.341.341,0,0,0,.115.172.349.349,0,0,1,.116.186c0,.044.027.079.06.079s.041-.033,0-.1c-.107-.189-.291-.4-.292-.334m1.282.024a.485.485,0,0,0,.108.236.66.66,0,0,1,.115.191,2.408,2.408,0,0,0,.407.546,1.991,1.991,0,0,0-.292-.442.981.981,0,0,1-.118-.221c-.045-.106-.1-.192-.121-.192s-.052-.047-.066-.1c-.019-.073-.028-.077-.032-.015m30.429-.013a.389.389,0,0,0,.124.166c.123.112.124.112.058-.017s-.182-.232-.182-.149m-9.349.2c-.077.083-.082.108-.021.108a.146.146,0,0,0,.117-.1c.051-.135.022-.138-.1-.011m3.5-.007a.338.338,0,0,0,.046.207.5.5,0,0,1,.073.229c.01.095.052.179.093.188s.047,0,.015-.015-.059-.1-.059-.19a.393.393,0,0,0-.053-.217.492.492,0,0,1-.079-.2l-.026-.148-.008.151m-35.567.036a.918.918,0,0,0-.029.34c.008.258.013.269.033.077.013-.123.047-.207.077-.188s.054-.034.054-.117c0-.147-.056-.193-.135-.112m33.785.147c-.026.044-.016.052.029.024s.1,0,.152.065.082.081.083.047c0-.151-.194-.252-.265-.136m-8.082.066a1.565,1.565,0,0,0,.1.219l.1.194.106-.141a.6.6,0,0,0,.108-.19c0-.066-.146.089-.188.2-.026.067-.035.062-.038-.02s-.178-.342-.178-.26m8,.161c0,.033.039.059.087.059s.087-.026.087-.059-.039-.059-.087-.059-.087.026-.087.059m-16.9.057c-.227.1.051.119,1.58.134,1.417.014,1.522.008,1.522-.088a14.215,14.215,0,0,0-3.1-.046m-6.638.05a.239.239,0,0,0,.088.131.991.991,0,0,1,.18.273c.051.109.116.2.144.2s.051.04.051.089.027.089.06.089c.075,0-.015-.184-.144-.293a.245.245,0,0,1-.09-.134.7.7,0,0,0-.145-.234c-.08-.1-.145-.15-.145-.119m1.605.6c.09.127.172.223.182.212a1.137,1.137,0,0,0-.3-.443c-.026,0,.026.1.116.231m24.154-.059a.19.19,0,0,0,.1.167c.057.016.065.007.021-.025a.357.357,0,0,1-.1-.167c-.025-.093-.03-.088-.021.025m4.067.017c-.016.042-.022.954-.013,2.025l.016,1.948.014-1.963c.014-2.042.041-2.236.243-1.772a1.332,1.332,0,0,0,.188.306.4.4,0,0,1,.1.172c0,.032.016.042.035.022s-.02-.115-.087-.211a.712.712,0,0,1-.122-.24.062.062,0,0,0-.058-.065c-.032,0-.058-.039-.058-.087,0-.122-.224-.239-.263-.137m-12.515.251a.711.711,0,0,0-.093.181c0,.053.149-.108.194-.21.021-.048.029-.014.017.075s0,.162.029.162c.066,0,.064-.279,0-.321-.028-.018-.094.033-.145.112m8.552.064c-.007.127.091.263.19.263.031,0,.016-.033-.036-.074a.4.4,0,0,1-.12-.192c-.027-.116-.027-.116-.034,0m-25.284.019a.063.063,0,0,0,.058.066c.032,0,.058.047.058.1a.251.251,0,0,0,.116.178.261.261,0,0,1,.116.191c0,.065.023.118.051.118s.092.086.144.192c.08.165.093.173.094.059,0-.073-.022-.133-.05-.133s-.093-.089-.144-.2a.99.99,0,0,0-.18-.273.244.244,0,0,1-.088-.149.242.242,0,0,0-.087-.148c-.06-.051-.087-.053-.087-.007m-10.761.3c.006.3.151.538.151.246,0-.068-.024-.123-.054-.123s-.066-.1-.079-.221c-.015-.139-.022-.1-.018.1m17.037-.248a1.264,1.264,0,0,0,.319,0c.088-.014.016-.025-.159-.025s-.247.011-.159.025m16.345.029a.333.333,0,0,0-.069.2.227.227,0,0,1-.058.169.228.228,0,0,0-.008.29c.027.017.038-.031.024-.108a.194.194,0,0,1,.037-.179.24.24,0,0,0,.063-.179c0-.077.033-.151.073-.166s.058-.043.04-.063-.064-.005-.1.033M54.6,57.893c0,.585.009.816.019.514s.01-.78,0-1.063-.019-.035-.019.549m-2.206-.929a1.138,1.138,0,0,0-.194.277c-.089.162-.1.209-.036.155a.252.252,0,0,0,.093-.141.484.484,0,0,1,.126-.2c.127-.138.131-.171.011-.092m13.429.5a.273.273,0,0,0,.1.172c.088.074.09.068.021-.067-.1-.2-.118-.213-.118-.106m-15.977.061c.019.041.05.12.069.177s.06.1.089.1.012-.08-.037-.177c-.085-.168-.192-.26-.121-.1m6.426.2a.284.284,0,0,0-.073.155c0,.041.042.014.093-.06.1-.152.09-.217-.02-.094m-4.449.187-.1.164.134-.131c.074-.072.12-.146.1-.164s-.078.041-.134.131m-23.568,0a1.707,1.707,0,0,0,.545.024c.491-.018.548-.009.573.089s.029.084.034-.024c.007-.129-.009-.133-.573-.133a1.949,1.949,0,0,0-.58.044m21.8.008a.063.063,0,0,0,.058.066c.032,0,.058.053.058.118s.024.118.053.118c.073,0,.01-.218-.088-.3-.059-.05-.081-.05-.081,0m6.1.158a.3.3,0,0,0-.073.171c0,.05-.026.091-.058.091s-.058.077-.058.172-.033.186-.073.2-.032.032.029.034.1-.041.1-.173c0-.1.026-.177.058-.177s.058-.048.058-.106a.289.289,0,0,1,.069-.176c.038-.038.057-.081.043-.094s-.058.011-.1.055M28.318,58.2a.187.187,0,0,1-.077.158c-.057.023-.056.031,0,.034.088.006.152-.137.11-.244-.016-.042-.032-.018-.035.052m37.912-.06a.355.355,0,0,0,.116.168c.064.059.116.088.116.066a.5.5,0,0,0-.116-.168c-.064-.07-.116-.1-.116-.066m-42.207.133a.061.061,0,0,0,.058.064c.032,0,.058.093.058.207s.021.207.047.207.082.092.126.2a1.838,1.838,0,0,0,.373.487l.294.283-.232-.264c-.127-.145-.245-.278-.262-.3a2.416,2.416,0,0,1-.3-.735c-.015-.159-.162-.3-.162-.157m5.279.058a.6.6,0,0,0-.061.234.2.2,0,0,1-.058.155.176.176,0,0,0-.058.136c0,.063.032.038.087-.069a.791.791,0,0,0,.087-.278.207.207,0,0,1,.094-.162c.061-.035.072-.068.032-.093s-.09.013-.123.077m7.516,0a.231.231,0,0,0,.111.146c.064.025.061,0-.012-.114-.113-.176-.137-.183-.1-.032m13.478.034c.019.11.067.118.686.121l.666,0-.609-.019c-.493-.016-.624-.039-.686-.122s-.076-.093-.057.016m-24.6.664a.707.707,0,0,0,.293.192c.05,0,.014-.042-.082-.092a2.062,2.062,0,0,1-.293-.192c-.066-.055-.029-.013.082.092m2.035-.042a.928.928,0,0,1-.248.175.3.3,0,0,0-.135.089c-.152.154.084.058.323-.132.05-.04.144-.111.207-.158s.1-.1.085-.117-.121.047-.232.143m28.127-.047c0,.089-.033.162-.065.162s-.058.053-.058.118-.026.118-.058.118-.058.083-.058.184c0,.135-.022.175-.083.151s-.076.011-.05.171.012.2-.054.2-.078.044-.058.15l.028.15.08-.157a.788.788,0,0,0,.08-.294.236.236,0,0,1,.058-.174.158.158,0,0,0,.058-.122,1.387,1.387,0,0,1,.121-.348.81.81,0,0,0,.094-.368c-.018-.07-.029-.05-.034.056m-26.845.093a2.772,2.772,0,0,1-.738.778.071.071,0,0,0-.078.061c0,.1.183-.032.543-.405.2-.2.327-.386.309-.433-.025-.064-.032-.065-.036,0m28.6.232c-.052.122-.118.268-.148.324-.082.159-.063.241.034.142a.394.394,0,0,0,.087-.24c0-.083.026-.152.058-.152s.058-.053.058-.118a5.083,5.083,0,0,1,2.433.015c.032.081.054.1.056.041.009-.212-.11-.233-1.31-.233H57.712l-.095.221m9.307-.047c0,.076.166.266.2.231.012-.012-.029-.085-.09-.161s-.111-.108-.111-.07M37.549,59.4a1.225,1.225,0,0,1,.137.251c.019.057.057.1.086.1.073,0-.094-.315-.221-.418-.1-.081-.1-.079,0,.063m8,.354c0,.243.01.343.023.221a2.625,2.625,0,0,0,0-.443c-.013-.122-.023-.022-.023.221M60.2,59.438c.033.016.059.107.059.2s.026.172.058.172.058.082.058.181a.446.446,0,0,0,.087.27c.077.079.087.078.087,0,0-.051-.026-.093-.058-.093s-.058-.074-.058-.165a.4.4,0,0,0-.053-.221.443.443,0,0,1-.073-.2c-.011-.079-.053-.15-.093-.158s-.047,0-.015.015m1.859,0c0,.083.172.283.172.2a.3.3,0,0,0-.087-.163c-.048-.049-.086-.067-.085-.04M54.6,59.9c0,.26.01.359.023.22a3.021,3.021,0,0,0,0-.472c-.012-.121-.022-.007-.022.253m12.675-.137a.441.441,0,0,1,.118.207c0,.043.026.077.058.077a.061.061,0,0,1,.058.063.294.294,0,0,0,.087.152c.048.049.087.073.087.054a2.827,2.827,0,0,0-.474-.682c-.029,0,0,.058.066.129m-5.1.029c0,.083.172.283.172.2a.3.3,0,0,0-.087-.163c-.048-.049-.086-.067-.085-.04m-37.049.042a.629.629,0,0,0,.159.127l.159.1-.11-.127c-.1-.113-.208-.168-.208-.1m32.245.158c-.087.143-.071.189.04.119a.149.149,0,0,0,.056-.146c-.017-.083-.032-.079-.1.028m-19.36.081a.32.32,0,0,1,.043.164c0,.059.026.106.058.106.088,0,.069-.092-.043-.216-.056-.061-.082-.085-.058-.054m14.634.117c-.033.087.005.153.087.153.065,0,.062-.162,0-.2-.029-.018-.066,0-.083.05m-26.671.065a.163.163,0,0,0,.158.082c.1-.005.1-.013.023-.034-.056-.015-.1-.052-.1-.082A.056.056,0,0,0,26,60.167c-.031,0-.041.04-.023.089m1.387,0c-.09.069-.094.087-.022.087a.249.249,0,0,0,.163-.089c.092-.113.006-.112-.142,0m-3.326,1.312.011.34.021-.31.021-.31,22.564-.015,22.564-.015-22.6-.015-22.6-.015.011.34m1.532,1.28a.36.36,0,0,0,.195.142c.365.13.726,1.115.468,1.277-.1.065-.3.386-.237.386.035,0,.088-.067.119-.149a.347.347,0,0,1,.144-.184c.1-.04.131-.848.03-.848a.068.068,0,0,1-.059-.074c0-.115-.322-.458-.429-.458a.148.148,0,0,1-.129-.089c-.018-.049-.056-.089-.083-.089s-.036.038-.018.084m10.147,0a.266.266,0,0,0,.158.125,1.088,1.088,0,0,1,.506.483c.028.073.084.131.125.128.058,0,.058-.011,0-.035a.122.122,0,0,1-.073-.1,1.1,1.1,0,0,0-.488-.508.148.148,0,0,1-.129-.089c-.018-.049-.056-.089-.083-.089s-.035.039-.017.086m14.267-.009a.147.147,0,0,1-.112.1.877.877,0,0,0-.393.317c0,.021.106-.04.236-.136a2.187,2.187,0,0,1,.3-.2.08.08,0,0,0,.036-.1c-.021-.064-.035-.06-.065.018m6.974.007a.131.131,0,0,1-.073.113c-.055.022-.055.031,0,.035s.1-.048.132-.114c.042-.08.043-.118,0-.118s-.06.038-.06.084m11.4,0c.018.049.057.089.085.089s.052-.04.052-.089a.087.087,0,0,0-.085-.089c-.052,0-.072.035-.052.089M24.023,64.478v1.653h.522l-.011-.369-.011-.369-.021.34-.021.339h-.4V64.483a5.647,5.647,0,0,1,.073-1.619c.043-.018.032-.032-.029-.034-.094,0-.1.112-.1,1.649m3.493-1.611a1.262,1.262,0,0,0,.319,0c.088-.013.016-.025-.159-.025s-.247.011-.159.025m.87,0a.467.467,0,0,0,.2,0c.056-.015.01-.027-.1-.027s-.157.012-.1.027m3.363,0a1.018,1.018,0,0,0,.29,0c.071-.014,0-.025-.16-.025s-.218.012-.13.026m2.61,0a3.711,3.711,0,0,0,.522,0c.135-.012.01-.022-.277-.022s-.4.01-.245.023m3.245,0a7.863,7.863,0,0,0,.014,2.344c.05.02.087.108.087.209a1.068,1.068,0,0,0,.707.715c.166,0,.221.084.09.138-.04.016-.046.031-.014.034a.3.3,0,0,0,.145-.055c.114-.076-.016-.174-.234-.175-.1,0-.235-.092-.406-.269l-.258-.268-.02-1.321-.02-1.321.136-.026c.133-.026.133-.026-.009-.03a.7.7,0,0,0-.217.026m.46,0a.24.24,0,0,1,.121.189c.021.143.023.142.018-.018,0-.131-.035-.18-.121-.189s-.089,0-.018.018m1.425.006a1.515,1.515,0,0,0,.348,0c.087-.013,0-.024-.19-.024s-.263.011-.158.024m2.3.016a.158.158,0,0,1-.124.059.864.864,0,0,0-.427.409.061.061,0,0,1-.058.064,4.064,4.064,0,0,0-.058,1.063,5.593,5.593,0,0,0,.051,1.063c.028,0,.065.053.081.118s.065.118.108.117.055-.018.02-.044c-.17-.127-.2-.334-.2-1.283a3.451,3.451,0,0,1,.058-.975A.068.068,0,0,0,41.3,63.4c0-.1.288-.371.45-.423.071-.023.13-.067.13-.1,0-.072-.042-.07-.087,0m.333-.017a1.263,1.263,0,0,0,.319,0c.088-.013.016-.025-.159-.025s-.247.011-.159.025m2.348,0a3.272,3.272,0,0,0,.493,0c.135-.012.025-.023-.246-.023s-.382.01-.246.023m.987,0a1.515,1.515,0,0,0,.348,0c.087-.013,0-.024-.189-.024s-.263.011-.158.024m.811,0c.171.022.188.042.188.224v.2l-.391.017-.391.018-.016,1.37-.016,1.37-.289.023-.289.023.3-.005.3-.005.029-1.358.029-1.358.377-.029.377-.03.018-.251.018-.251-.221.009c-.214.009-.215.01-.032.033m1.29,1.611v1.66l.3-.018.3-.018V62.854l-.3-.018-.3-.018v1.66m2.8-1.611a1.017,1.017,0,0,0,.29,0c.071-.014,0-.025-.16-.025s-.218.012-.13.026m2.42,1.614v1.656l.333-.018.333-.018,0-.8,0-.8-.019.783-.019.782h-.576V62.883h.246a.562.562,0,0,1,.507.448.877.877,0,0,0,.145.212c.08.1.145.156.145.131a.375.375,0,0,0-.092-.147,2.522,2.522,0,0,1-.351-.6c-.027-.081-.1-.1-.346-.1h-.312v1.656m4.508-1.614a1.822,1.822,0,0,0,.377,0c.1-.013.019-.024-.188-.024s-.292.011-.188.024m3.461.032c-.016.041-.021.778-.013,1.639l.016,1.564H62.78v-.472l-.763-.029a2.964,2.964,0,0,0-.736.015,3.435,3.435,0,0,0,.748.044h.721v.413H60.78V62.89l.246-.023.246-.023-.248-.01c-.155-.007-.259.018-.276.064m2.771-.036c-.058.024-.111.421-.058.438a4.553,4.553,0,0,0,.933.04,1.054,1.054,0,0,0-.4-.045H63.62v-.2c0-.111.033-.215.073-.232s.044-.03-.014-.03a.506.506,0,0,0-.159.03m.58,0a6.386,6.386,0,0,0,.667,0c.183-.012.033-.021-.333-.021s-.517.01-.333.021m2.754,0c-.094.025-.1.152-.1,1.614v1.588l.189.035a7.948,7.948,0,0,0,.942.015l.754-.02-.855-.013-.855-.013V62.888l.536-.02.536-.02-.522-.005a4.638,4.638,0,0,0-.623.022M48.141,64.478v1.594h-.522V62.883h.522v1.594m-18.9-1.509a.783.783,0,0,0,.145.22c.08.1.145.153.145.127a.729.729,0,0,0-.145-.22c-.08-.094-.145-.151-.145-.127m1.78.173a.7.7,0,0,0-.214.29.137.137,0,0,1-.073.12c-.057.024-.057.031,0,.035.041,0,.1-.057.125-.132a1.136,1.136,0,0,1,.262-.325c.116-.1.189-.188.162-.188a1.016,1.016,0,0,0-.263.2m11.866-.132a1.1,1.1,0,0,1,.5.678c0,.058-.077.082-.261.082s-.261-.024-.261-.086c0-.332-.676-.49-.962-.224-.1.089-.132.129-.08.089a.345.345,0,0,1,.163-.074.064.064,0,0,0,.068-.059c0-.033.091-.059.2-.059s.2.026.2.059.041.059.091.059a.344.344,0,0,1,.274.254c.072.194.586.116.61-.092.01-.089-.01-.162-.043-.162a.065.065,0,0,1-.062-.068,1.025,1.025,0,0,0-.464-.461c-.065,0-.059.017.021.065m15.4.036c.116.1.118.112.032.236s-.394.186-.462.074c-.1-.165-.9,0-.9.186,0,.03.057,0,.127-.066.136-.129.743-.179.743-.061,0,.033.093.059.207.059.2,0,.373-.106.373-.232a.07.07,0,0,1,.073-.065c.04,0,.007-.053-.073-.117-.18-.143-.291-.157-.121-.015m7.169.247c-.257.022-.407.061-.416.109s0,.048.015.015a.8.8,0,0,1,.4-.061.864.864,0,0,0,.4-.059c.02-.032.028-.054.018-.049s-.2.026-.419.044m-40.873.1a1.4,1.4,0,0,0-.031.915c.156.3,1.227.037,1.211-.294,0-.079-.01-.08-.038-.007a.347.347,0,0,1-.272.237c-.05,0-.091.027-.091.059,0,.084-.658.074-.742-.012a1.372,1.372,0,0,1,0-.862c.081-.083.742-.1.742-.016,0,.03.058.063.129.074a.321.321,0,0,1,.2.166c.045.092.073.112.074.053,0-.316-.937-.566-1.183-.315m3.329.027c-.078.148-.052.867.03.825a1.07,1.07,0,0,0,.058-.458v-.428h.333c.184,0,.333.027.333.059s.072.056.159.052c.12-.005.131-.014.043-.035a.446.446,0,0,1-.171-.082.892.892,0,0,0-.786.066m3.653-.026c-.1.059-.117.082-.047.083a.169.169,0,0,0,.134-.058c.062-.1.38-.064.571.067l.183.126-.157-.156a.555.555,0,0,0-.684-.062m1.275-.049a.137.137,0,0,0,.058.1.2.2,0,0,1,.058.151c0,.072.038.113.1.11s.072-.017.029-.035a.123.123,0,0,1-.074-.1c0-.09-.172-.318-.172-.231m1.952,0a.165.165,0,0,0-.039.1c0,.037.028.033.07-.01.084-.085.626-.1.626-.012,0,.033.056.059.124.059a.3.3,0,0,1,.206.1c.074.093.076.09.019-.03a.229.229,0,0,0-.174-.133.189.189,0,0,1-.146-.059,1.246,1.246,0,0,0-.686-.02m3.4.929c-.014,1.1.076,1.4.41,1.386.113-.006.115-.01.016-.036-.132-.034-.265-.159-.265-.248a.06.06,0,0,0-.057-.063,4.124,4.124,0,0,1-.074-1.019L38.2,63.267l-.013,1m6.263-.926a2.486,2.486,0,0,0,.435,0c.12-.013.022-.023-.217-.023s-.337.01-.217.023m5.7.048c-.1.076-.1.087-.014.087.054,0,.1-.025.1-.056s.111-.066.246-.078l.246-.023-.232-.009a.639.639,0,0,0-.344.078m17.317-.022a7.1,7.1,0,0,0,.02,2.258,1.27,1.27,0,0,0,.9-.089l.137-.125-.162.1a.9.9,0,0,1-.522.08l-.36-.018-.016-1.026a3.856,3.856,0,0,1,.051-1.107c.077-.095.55-.112.594-.021.016.033.023.027.015-.015-.02-.1-.563-.133-.658-.037m-16.656.125a.408.408,0,0,1,.183.221c.035.128.041.131.046.023a.355.355,0,0,0-.289-.318c-.045,0-.018.034.06.074m13.64,1.3-.013,1.343.333-.011.333-.011-.3-.022-.3-.022-.017-1.311-.017-1.311-.013,1.343m-33.1-1.216c-.04.016-.069.114-.065.217.007.162.012.167.035.039a.6.6,0,0,1,.086-.221c.063-.078.058-.082-.056-.035M29.6,63.8c0,.13.013.176.026.1a.656.656,0,0,0,0-.236c-.014-.056-.026,0-.025.134m1.087.753c-.022.72-.012.93.044.93a.082.082,0,0,1,.073.088c0,.049.026.089.058.089a.069.069,0,0,1,.058.075c0,.136.385.4.585.4.085,0,.113.027.09.089-.038.1.053.121.112.023.048-.08-.077-.168-.24-.17a.441.441,0,0,1-.244-.119.434.434,0,0,0-.185-.118.063.063,0,0,1-.06-.065.655.655,0,0,0-.114-.228c-.1-.142-.117-.279-.131-1.043l-.016-.879-.029.93m5.234-.664c0,.146.011.206.025.133a.856.856,0,0,0,0-.266c-.014-.073-.025-.013-.025.133m.587.59c0,.438.009.618.02.4s.011-.578,0-.8-.02-.04-.02.4m12.732-.65c-.046.029-.064.072-.041.1s.073.013.11-.025c.088-.089.039-.139-.07-.071m-20.234.177c0,.065-.036.118-.081.118a.138.138,0,0,0-.114.089c-.029.076-.012.075.11-.007s.206-.318.114-.318c-.016,0-.029.053-.029.118m4.072.059c0,.114.012.16.026.1a.494.494,0,0,0,0-.207c-.015-.057-.026-.01-.026.1m8.632-.123a.112.112,0,0,0-.058.114c.013.039.053.044.1.014a.112.112,0,0,0,.058-.114c-.013-.039-.053-.044-.1-.014m-.74.566c0,.325.01.45.022.279a4.931,4.931,0,0,0,0-.59c-.012-.153-.022-.013-.021.312m10.009-.089c0,.441.057.6.139.379.088-.234.025-.851-.087-.851a1.13,1.13,0,0,0-.052.472m6.05-.325a.289.289,0,0,0,.16.089c.041,0,.024-.038-.039-.087-.148-.114-.232-.115-.121,0m-3.615.022a.237.237,0,0,0,.087.125.244.244,0,0,1,.087.15.11.11,0,0,0,.046.1.994.994,0,0,1,.18.215c.074.107.148.182.164.165s-.008-.069-.055-.116a3.39,3.39,0,0,1-.274-.387c-.188-.3-.235-.348-.235-.249m2.9-.035a1.519,1.519,0,0,0,.543.573c.035,0-.009-.06-.1-.133a2.509,2.509,0,0,1-.3-.31c-.078-.1-.142-.156-.143-.13m-26.837.23c-.18.226-.138.255.061.041.086-.092.138-.178.116-.19s-.1.055-.177.149m12.121.2c-.013.425.031.62.14.62s.1-.1,0-.138c-.059-.023-.09-.152-.1-.435l-.02-.4-.011.354m26.969-.114a.262.262,0,0,0,.028.219c.049.049.065.01.065-.152,0-.254-.04-.283-.093-.066m-16.937.114c0,.13.013.176.026.1a.655.655,0,0,0,0-.236c-.014-.057-.026,0-.025.133m6.653-.131c0,.172.22.45.246.311.015-.081.007-.134-.018-.118s-.087-.031-.137-.1-.091-.113-.091-.089m-3.832.262a1.14,1.14,0,0,0,.182.225c.107.068.053-.026-.127-.219l-.182-.2.127.19m-25.412.067a1.211,1.211,0,0,0,.169.428c.11.208.2.345.2.306a2.128,2.128,0,0,0-.3-.59.128.128,0,0,1-.019-.133c.021-.034.024-.062.008-.062s-.043.023-.06.05m28.121.038c.018.049.057.089.085.089s.052-.04.052-.089a.087.087,0,0,0-.085-.089c-.052,0-.072.035-.052.089m-31.692.118c0,.049.026.089.058.089s.058-.04.058-.089-.026-.089-.058-.089-.058.04-.058.089m2.416-.006a3.728,3.728,0,0,0-.039.66v.556l-.246.008c-.148,0-.191.019-.108.035a1.092,1.092,0,0,0,.333-.011l.2-.037,0-.544c0-.582-.059-.859-.131-.667m.525.031c-.017.067,0,.122.029.122.093,0,.214.191.217.339,0,.073.028.133.06.133s.058.053.058.118.023.118.051.118.095.093.148.207c.094.2.707.326.807.162.015-.024-.14-.035-.344-.025-.258.014-.372,0-.372-.05a.62.62,0,0,0-.106-.226,2.231,2.231,0,0,1-.186-.363c-.17-.437-.327-.669-.361-.535m4.667.063c0,.114.012.16.026.1a.494.494,0,0,0,0-.207c-.015-.057-.026-.01-.026.1m24.756-.059c.04.065.092.118.116.118.2,0-.051.547-.284.608-.093.024-.092.029.014.035.306.017.479-.479.26-.746-.135-.165-.2-.174-.106-.015m-21.928.177c0,.13-.026.236-.058.236s-.058.04-.058.089a.088.088,0,0,1-.087.089c-.048,0-.087.029-.087.064s-.149.057-.43.044c-.236-.011-.417,0-.4.025.088.143.825.042,1-.137.159-.162.271-.645.149-.645a.509.509,0,0,0-.029.236m22.611-.118c0,.033.039.059.087.059s.087-.027.087-.059-.039-.059-.087-.059-.087.027-.087.059m-27.24.2c-.01.193.238.509.394.5.076,0,.076-.01.006-.039a.675.675,0,0,1-.366-.459l-.024-.177-.009.174m17.906-.05c0,.05.024.075.053.057s.066,0,.082.041.031.039.034-.023a.142.142,0,0,0-.082-.131c-.054-.021-.087,0-.087.056m4.868.021c.091.174.175.2.1.033-.037-.081-.088-.147-.113-.148s-.018.051.015.114m-11.246.082a.582.582,0,0,1-.348.411c-.07.026-.068.033.012.037.136.006.394-.289.394-.452,0-.073-.013-.133-.029-.133s-.029.062-.029.137m7.015-.053c0,.051.026.093.058.093s.058.042.058.094a.465.465,0,0,0,.348.313c.07,0,.071-.009.006-.035-.137-.055-.3-.217-.3-.3a.3.3,0,0,0-.087-.168c-.077-.079-.087-.078-.087,0m1.166.093a.413.413,0,0,1-.2.28c-.1.073-.161.132-.129.131.149-.005.385-.28.36-.418L51,65.1l-.009.148m-7.595.1a.239.239,0,0,1-.065.166.176.176,0,0,0-.058.136c0,.062.034.034.089-.074a.5.5,0,0,0,.064-.266c-.015-.058-.027-.044-.031.037m-7.036.2a.789.789,0,0,0-.1.251c0,.038.043-.017.094-.123s.13-.192.176-.192.067-.026.047-.059c-.059-.1-.111-.068-.217.123m2.862-.072a.747.747,0,0,1-.188.143c-.061.025-.058.033.012.037a.414.414,0,0,0,.228-.143c.157-.17.112-.2-.051-.037m2.544-.084c0,.081.244.269.342.264.079,0,.079-.01.006-.037a.9.9,0,0,1-.217-.153c-.072-.066-.13-.1-.13-.073m16.732.066a.493.493,0,0,0-.032.162c0,.038.028.008.058-.068s.08-.12.112-.1.059.009.059-.026c0-.1-.158-.073-.2.031m-26.327.084c-.1.065-.144.118-.108.118.063,0,.37-.23.311-.234a.943.943,0,0,0-.2.116M51.52,65.5c-.126.166-.137.221-.045.221.052,0,.077-.028.056-.062a.147.147,0,0,1,.033-.148c.038-.047.057-.086.041-.086s-.054.033-.085.074m4.829.15-.111.16.169-.148c.093-.081.18-.154.193-.162s-.013-.014-.058-.013-.132.074-.193.162m.488-.076a.3.3,0,0,0,.225.08l.152-.009-.159-.025c-.088-.013-.159-.049-.159-.08a.061.061,0,0,0-.065-.055c-.045,0-.043.027.007.089m-2.421.09c.193.4.305.479.634.455l.308-.022-.3-.011c-.251-.009-.319-.036-.406-.161-.057-.083-.15-.209-.206-.28l-.1-.13.073.149m14.551.03a.833.833,0,0,1-.221.208c-.114.077-.138.114-.073.114s.105-.02.116-.045a.911.911,0,0,1,.181-.173c.089-.07.136-.143.1-.162s-.08.007-.108.058m-29.4.2a1.012,1.012,0,0,1-.425.206c-.233.038-.287.162-.088.2.067.013.086-.009.061-.074s0-.093.12-.093a.625.625,0,0,0,.369-.206c.256-.247.233-.269-.037-.034m10.118.034a.538.538,0,0,0,.377.207c.131,0,.166.022.141.089-.039.1.052.121.112.023s-.08-.168-.269-.17a.515.515,0,0,1-.315-.178.766.766,0,0,0-.208-.177c-.023,0,.05.093.161.207m1.572-.074a1.132,1.132,0,0,1-.482.234c-.15.024-.195.226-.048.219.061,0,.075-.017.033-.034-.135-.055-.074-.138.1-.138.1,0,.174-.027.174-.059a.071.071,0,0,1,.078-.059.34.34,0,0,0,.183-.118c.115-.129.084-.163-.039-.044m-15.243.1c-.131.1-.267.117-1.044.133l-.893.018.942.013a3.094,3.094,0,0,0,.942-.046c0-.032.036-.059.081-.059a.138.138,0,0,0,.114-.089c.041-.11.041-.11-.143.03m20.428-.015c.088.055.159.121.159.146s.1.045.232.045c.223,0,.311.076.159.138-.045.018-.035.032.026.034.132.006.2-.114.1-.178a.6.6,0,0,0-.254-.054.614.614,0,0,1-.319-.118.546.546,0,0,0-.2-.115c-.032,0,.014.046.1.1m-23.988.073a.223.223,0,0,1-.168.059.467.467,0,0,0-.258.111l-.125.111h.141c.1,0,.131-.026.11-.081s.017-.081.125-.081a.388.388,0,0,0,.242-.089c.048-.049.061-.089.028-.089a.127.127,0,0,0-.095.059m9.152.03a.428.428,0,0,0,.265.089c.179,0,.241.082.106.138-.045.018-.035.032.026.034.132.006.2-.114.1-.178a.537.537,0,0,0-.236-.052.267.267,0,0,1-.192-.06.127.127,0,0,0-.094-.059c-.032,0-.02.04.028.089m1.226-.03a1.848,1.848,0,0,1-.28.087c-.18.039-.184.171-.005.193.061.008.078,0,.039-.02-.134-.062-.074-.142.106-.142a.429.429,0,0,0,.265-.089c.1-.1.053-.108-.124-.03m15.219-.006a1.29,1.29,0,0,1-.3.089c-.228.042-.281.115-.126.176.131.051.14.046.1-.053-.025-.067.011-.089.151-.089a.44.44,0,0,0,.271-.089c.094-.1.044-.115-.1-.035m-33.9.284a1.024,1.024,0,0,0,.29,0c.071-.014,0-.025-.16-.025s-.218.012-.13.026m3.363,0a1.024,1.024,0,0,0,.29,0c.071-.014,0-.025-.16-.025s-.218.012-.13.026m1.711,0a1.525,1.525,0,0,0,.348,0c.087-.013,0-.024-.189-.024s-.263.011-.158.025m5.275,0c.2.011.525.011.725,0s.036-.021-.362-.021-.562.009-.362.021m10.755,0a1.024,1.024,0,0,0,.29,0c.071-.014,0-.025-.16-.025s-.218.012-.13.026m2.434,0a1.248,1.248,0,0,0,.319,0c.088-.013.016-.025-.159-.025s-.247.011-.159.025m5.276,0a1.248,1.248,0,0,0,.319,0c.088-.013.016-.025-.159-.025s-.247.011-.159.025m1.884,0a.81.81,0,0,0,.261,0c.072-.014.013-.026-.13-.026s-.2.011-.13.026m6.406,0c.279.011.736.011,1.015,0s.051-.02-.507-.02-.786.009-.507.02m3.334,0a.81.81,0,0,0,.261,0c.072-.014.013-.026-.13-.026s-.2.011-.13.026m2.669,0a6.948,6.948,0,0,0,.7,0c.182-.012.018-.021-.365-.021s-.532.01-.331.021" transform="translate(0)" fill="#2d43ba" fill-rule="evenodd"/>
  </g>
</svg>
