<svg xmlns="http://www.w3.org/2000/svg" width="92.993" height="30.167" viewBox="0 0 92.993 30.167">
  <g id="client1" transform="translate(-1169.672 -1059.061)">
    <path id="Path_586" data-name="Path 586" d="M3-699.917v15.083H95.993V-715H3ZM65.831-710.63c.244.563.537,1.253.659,1.527.215.495.727,1.674,1.034,2.4.088.2,1.864,4.312,3.952,9.134s3.8,8.8,3.815,8.829c.02.053-.351.068-1.756.068H71.759l-.883-2.148c-.483-1.179-1.005-2.459-1.161-2.843l-.283-.695H61.265l-.073.168c-.127.295-.585,1.379-1.2,2.859-.712,1.7-.678,1.621-.927,2.2l-.2.463H55.347l.034-.116c.015-.063.229-.569.468-1.116s.5-1.148.576-1.321.317-.732.537-1.237.464-1.063.537-1.237.537-1.242,1.025-2.369,1.42-3.285,2.074-4.791,1.288-2.975,1.415-3.264.356-.821.512-1.185.385-.9.512-1.185.371-.853.542-1.248.4-.932.512-1.185c.244-.563.825-1.9,1.054-2.432.093-.221.185-.369.2-.342S65.588-711.194,65.831-710.63Zm-45.56-.658a11.7,11.7,0,0,1,4.533,1.869l.41.284-.034.684c-.078,1.79-.137,2.853-.156,2.917-.01.042-.132-.037-.322-.205a9.8,9.8,0,0,0-3.825-2.053,9.358,9.358,0,0,0-4.093-.068,7.127,7.127,0,0,0-3.435,1.937,8.139,8.139,0,0,0-2.157,4.454,14.186,14.186,0,0,0-.049,3.211,8.2,8.2,0,0,0,2.039,4.528,6.631,6.631,0,0,0,3.479,2.116,6.168,6.168,0,0,0,1.708.121,6.872,6.872,0,0,0,1.737-.121,9.96,9.96,0,0,0,4.464-2.269,3.469,3.469,0,0,1,.4-.321c.015,0,.024.916.02,2.037l-.015,2.043-.371.263a10.579,10.579,0,0,1-6.826,1.769,10.57,10.57,0,0,1-4.513-1.269,9.336,9.336,0,0,1-2.557-1.974,10.306,10.306,0,0,1-2.005-2.948,12.232,12.232,0,0,1-1.156-5A12.284,12.284,0,0,1,9.328-706.3c.2-.332.4-.627.424-.658s.141-.179.249-.321a12.622,12.622,0,0,1,1.556-1.632,10.431,10.431,0,0,1,5.591-2.432A15.829,15.829,0,0,1,20.272-711.288Zm12.285,9.9.01,9.476,3.654-.016c2.664-.016,3.684,0,3.762.042.1.058.1.079.093,1.637l0,1.574H29.151v-11.072c0-6.091.015-11.093.034-11.109s.781-.032,1.693-.026l1.664.016Zm21.721-9.466c0,.242,0,2.906,0,2.975,0,.089-.234.095-4.079.095H46.13v5.528h8.148v3.211H46.13v7.155l4.059.005c2.23,0,4.064.011,4.074.021s.024,2.274.015,3.111c0,.068-.673.079-5.757.079H42.764v-22.217h5.757C51.687-710.894,54.278-710.878,54.278-710.857Zm29.176.016a8.85,8.85,0,0,1,2.02.342,5.131,5.131,0,0,1,3.415,3.975,8.3,8.3,0,0,1-.41,4.975,4.589,4.589,0,0,1-2.6,2.411,6.484,6.484,0,0,1-1.381.353c-.068,0-.122.016-.122.031s.776,1.142.981,1.416c.049.058.3.411.561.79s.678.969.922,1.316c.727,1.032,1.337,1.9,1.9,2.711.293.421.556.79.585.821s.434.611.9,1.285.878,1.253.9,1.285a3.084,3.084,0,0,1,.185.258l.137.195H89.543l-1.917-.005-1.366-1.979c-.751-1.09-2.181-3.154-3.171-4.591s-1.917-2.769-2.049-2.964c-.224-.332-.259-.358-.424-.358h-.185v9.9H77.258v-22.217H80C81.513-710.894,83.064-710.867,83.454-710.841Z" transform="translate(1166.672 1774.061)" fill="#2d43ba"/>
    <path id="Path_587" data-name="Path 587" d="M1227.105-521.613a4.364,4.364,0,0,0-.146.476c-.139.508-.531,1.662-.77,2.262-.166.411-.57,1.3-2.322,5.085-.3.645-.557,1.212-.577,1.252a23.176,23.176,0,0,0,3.821.085c2.123,0,3.854-.026,3.854-.052s-.239-.58-.537-1.226-.769-1.682-1.055-2.308-.7-1.538-.929-2.021a32.258,32.258,0,0,1-1.241-3.39C1227.172-521.574,1227.125-521.645,1227.105-521.613Z" transform="translate(5.02 1589.804)" fill="#2d43ba"/>
    <path id="Path_588" data-name="Path 588" d="M1594.046-577.758c-.029.029-.046,2.015-.046,4.414v4.364l1.177-.044c3.218-.116,4.313-.785,4.661-2.844a10.893,10.893,0,0,0-.006-2.713c-.313-1.9-1.241-2.756-3.31-3.069A13.393,13.393,0,0,0,1594.046-577.758Z" transform="translate(-346.955 1643.124)" fill="#2d43ba"/>
  </g>
</svg>
