<svg id="client4" xmlns="http://www.w3.org/2000/svg" width="109.998" height="36.306" viewBox="0 0 109.998 36.306">
  <path id="path0" d="M40.128,134.5c-.3.3-.707.7-.912.878s-.655.637-1,1.01a3.839,3.839,0,0,1-.73.679c-.056,0-.154.111-.219.246a13.255,13.255,0,0,1-1.16,1.383c-.573.625-1.1,1.238-1.173,1.363a6.02,6.02,0,0,1-.847.844A9.791,9.791,0,0,0,32,143.14c0,.331.883.228,1.227-.142a1.331,1.331,0,0,1,.383-.326,1.123,1.123,0,0,0,.606-.618c0-.093.132-.23.293-.3a2.438,2.438,0,0,0,.666-.634,2.8,2.8,0,0,1,.684-.666c.171-.092.312-.224.312-.294a6.131,6.131,0,0,1,1.271-1.426,1.509,1.509,0,0,0,.424-.56c0-.085.2-.294.455-.465s.456-.357.456-.414a19.629,19.629,0,0,1,2.463-2.438c.145,0,.414-.73.308-.836-.255-.254-.913-.03-1.42.484m1.71,10.618a2.087,2.087,0,0,0-.35.436,1.047,1.047,0,0,1-.616.42c-.672.134-.392,1.39.309,1.39a.345.345,0,0,1,.268.13c.148.239.461.134.586-.2s.56-.448.717-.2c.27.436,1.033-.234,1.155-1.014.149-.949-.35-1.366-1.048-.877-.245.171-.285.171-.351,0-.078-.2-.447-.255-.672-.094m.876,1.131c-.073.623-.156.588-.156-.065,0-.291.047-.5.105-.464s.08.274.051.529m-.938.138c0,.251-.052.456-.115.456-.13,0-.285-.662-.191-.814.15-.242.306-.059.306.358m2.532-.163a1.3,1.3,0,0,1-.313.489c-.563.5-.313,1.247.271.812a5.568,5.568,0,0,1,.67-.414.549.549,0,0,0,.026-1.029c-.463-.211-.55-.193-.655.142m-4.422,1.4c-.12.547.007.65.851.687.58.025.712-.009.75-.2.027-.134-.031-.228-.142-.228a.577.577,0,0,1-.368-.26c-.336-.489-.984-.489-1.091,0m5.157-.016a.657.657,0,0,1-.432.3c-.225.032-.3.14-.334.465l-.041.424h.795c.7,0,.807-.033.905-.293.263-.7-.557-1.522-.892-.9m9.938.379a.823.823,0,0,0-.44.232.509.509,0,0,1-.311.188c-.085,0-.3.19-.467.422-.659.891-.317,3.619.453,3.619a.291.291,0,0,1,.243.183.708.708,0,0,0,.461.269,1.159,1.159,0,0,1,.546.273.568.568,0,0,0,.38.187,1.047,1.047,0,0,1,.525.261,1.157,1.157,0,0,0,.408.261c.223,0,.634,1.05.634,1.619a1.79,1.79,0,0,1-1.122,1.589c-.472.119-.236.311.383.311,1.422,0,3.086-3.055,2.073-3.8a1.528,1.528,0,0,1-.385-.523,1.349,1.349,0,0,0-.536-.549,1.1,1.1,0,0,1-.458-.4.3.3,0,0,0-.231-.2,4.591,4.591,0,0,1-2.67-2.029,1.823,1.823,0,0,1,.9-1.667c.45-.183.2-.337-.392-.244m1.457.159a.317.317,0,0,0,.244.13,2.014,2.014,0,0,1,.864.834,1.379,1.379,0,0,0,.261.434,1.251,1.251,0,0,1,.261.632.512.512,0,0,0,.13.381c.084.052.13-.39.13-1.23,0-1.276-.056-1.463-.351-1.169-.1.1-.216.1-.409,0-.337-.18-1.24-.19-1.13-.012m7.179-.017a.854.854,0,0,1-.431.188,8.108,8.108,0,0,0-2.251,1.937,1.175,1.175,0,0,1-.245.443c-.505.643-.5,3.477,0,3.983a.825.825,0,0,1,.243.373c0,.51,2.208,2.2,3.015,2.312.671.091,1.1-.159.477-.276a1.625,1.625,0,0,1-.757-.409,1.025,1.025,0,0,0-.467-.324c-.089,0-.2-.176-.248-.39a.907.907,0,0,0-.248-.489c-.805-.489-1.038-3.656-.371-5.054.653-1.368.73-1.5.906-1.5.1,0,.231-.147.3-.326.1-.261.214-.326.575-.326a.82.82,0,0,0,.532-.13c.049-.079-.126-.13-.441-.13a1.05,1.05,0,0,0-.591.113m2.14.017a.96.96,0,0,0,.435.128,3.386,3.386,0,0,1,1.389,1.362.289.289,0,0,0,.179.245c.1.038.218.276.266.53a3.578,3.578,0,0,0,.276.825c.444.852.078,3.64-.546,4.158a.475.475,0,0,0-.174.293c0,.282-1.126,1.291-1.542,1.383-.228.05-.382.145-.341.211.117.19.923.139,1.1-.069a1.581,1.581,0,0,1,.591-.332.933.933,0,0,0,.507-.332.345.345,0,0,1,.3-.19c.128,0,.372-.206.542-.456s.39-.455.489-.455.179-.134.179-.308a1.379,1.379,0,0,1,.293-.681,5.681,5.681,0,0,0,.08-3.526,1.837,1.837,0,0,1-.312-.567,3.614,3.614,0,0,0-1.33-1.434.309.309,0,0,1-.251-.2,2.4,2.4,0,0,0-1.731-.71c-.432,0-.541.036-.4.128m6-.011a.191.191,0,0,0,.1.163c.594.264.684.783.684,3.914,0,3,0,3.042.333,3.687a2.6,2.6,0,0,0,2.242,1.5c.787,0,1.006-.2.356-.317-.263-.05-.455-.163-.455-.268a.385.385,0,0,0-.163-.287c-.963-.616-1.387-7.326-.479-7.563a.348.348,0,0,0,.251-.314.459.459,0,0,1,.326-.372c.579-.22.357-.261-1.434-.261a6.508,6.508,0,0,0-1.759.12m6.614.1c.161.113.293.279.293.371a.28.28,0,0,0,.177.234c.429.165.621,4.986.274,6.9-.072.4-.05.489.121.489a.2.2,0,0,0,.218-.163c0-.09.019-1.639.033-3.443.024-3.132.037-3.294.3-3.584a2.065,2.065,0,0,0,.355-.532.379.379,0,0,1,.338-.228.438.438,0,0,0,.331-.12c.043-.07-.512-.121-1.328-.124-1.311,0-1.383.009-1.109.2m3.649.058c-.445.332-.567,2-.14,1.917.12-.023.264-.21.319-.416a2.485,2.485,0,0,1,2.028-1.547c1.288-.117,1.214-.34,1.214,3.682,0,3.936-.138,4.734-.89,5.142-.318.173-.177.189,1.606.191,1.39,0,1.889-.037,1.727-.132a.452.452,0,0,1-.228-.325c0-.106-.147-.248-.326-.316L87,156.364V152.32c0-3.143.036-4.046.163-4.054a3.487,3.487,0,0,1,2.219.346,1.343,1.343,0,0,0,.559.316c.1,0,.266.191.367.424.4.921.593,1.02.6.3.006-.829-.229-1.47-.572-1.562a45.088,45.088,0,0,0-8.318.2m9.807-.145c0,.072.141.13.313.13.219,0,.357.108.46.358a6.767,6.767,0,0,0,.337.684,26.724,26.724,0,0,1,0,6.647,6.7,6.7,0,0,0-.329.661,1.01,1.01,0,0,1-.493.475c-.277.11.082.143,1.663.154,1.86.013,1.994,0,1.727-.189a.65.65,0,0,1-.29-.37c0-.092-.147-.234-.326-.316-.322-.147-.326-.167-.326-1.773,0-1.94-.262-1.741,2.349-1.783l2.148-.035.036,1.8c.034,1.682.02,1.8-.216,1.861a.5.5,0,0,0-.32.325.517.517,0,0,1-.338.329c-.66.173-.129.233,1.717.2,1.764-.036,1.96-.062,1.735-.228a.982.982,0,0,0-.358-.187c-.058,0-.106-.079-.106-.175a.765.765,0,0,0-.261-.411c-.248-.224-.261-.4-.261-3.616,0-3.183.015-3.4.261-3.712a1.2,1.2,0,0,0,.261-.509.211.211,0,0,1,.228-.18.937.937,0,0,0,.424-.128c.13-.084-.5-.124-1.89-.12-1.585.005-2.016.04-1.8.147a.772.772,0,0,1,.365.376.563.563,0,0,0,.332.317c.242.077.255.187.221,1.864l-.036,1.782-1.955.038c-2.782.053-2.541.223-2.541-1.8,0-1.534.023-1.7.252-1.822a.794.794,0,0,0,.335-.4c.046-.143.163-.261.262-.261a.334.334,0,0,0,.26-.13c.052-.085-.607-.13-1.882-.13a6.309,6.309,0,0,0-1.963.13m14.093.122a1.6,1.6,0,0,0-.56.442.41.41,0,0,1-.288.218,1.323,1.323,0,0,0-.733.753c0,.082-.112.21-.25.284a.911.911,0,0,0-.338.559c-.048.234-.17.676-.271.983a5.623,5.623,0,0,0-.009,2.771,3.482,3.482,0,0,1,.26.767,1.567,1.567,0,0,0,.394.72,2.036,2.036,0,0,1,.358.406,5.139,5.139,0,0,0,2.148,1.2c.724.082,1.2-.157.589-.292a3.733,3.733,0,0,1-1.964-2.5,3.377,3.377,0,0,0-.281-.9l-.277-.625.285-.988c.6-2.092.729-2.43.99-2.682a5.691,5.691,0,0,0,.564-.684.759.759,0,0,1,.67-.424.651.651,0,0,0,.455-.13c.136-.22-1.265-.122-1.742.122m2.915-.122a.678.678,0,0,0,.468.13c.223,0,.419.082.462.194a3.609,3.609,0,0,0,.52.68,2.9,2.9,0,0,1,.58.983c.17.631.326.537.426-.257.132-1.062-.043-1.541-.549-1.5a1.254,1.254,0,0,1-.7-.163c-.314-.22-1.331-.276-1.2-.067m14.537.122c-.171.319-.178,1.7-.008,1.7.07,0,.213-.161.317-.358a2.294,2.294,0,0,1,2.164-1.354l.976-.045V156.2l-.326.326c-.781.782-.849.742,1.266.741h1.928l-.406-.247c-.9-.547-.979-.988-.936-5.008a33.648,33.648,0,0,1,.148-3.694,3.142,3.142,0,0,1,2.155.218.6.6,0,0,0,.413.26c.254,0,.777.74.777,1.1,0,.141.083.206.228.179.326-.062.4-1.543.094-1.85-.354-.354-8.6-.315-8.789.042m10.1-.122a.312.312,0,0,0,.236.131c.628,0,.742.679.742,4.421v3.559l-.506.506-.506.506h3.695c3.387,0,3.7-.019,3.813-.228a3.859,3.859,0,0,0,.16-1.922c-.068-.328-.115-.407-.124-.213a1.663,1.663,0,0,1-.406.754,1.91,1.91,0,0,0-.391.569c0,.068-.148.161-.329.206a1.045,1.045,0,0,0-.519.355c-.368.525-2.41.439-2.41-.1a.335.335,0,0,0-.247-.261c-.505-.16-.983-3.377-.543-3.649.076-.047.075-.213,0-.438a12.045,12.045,0,0,1-.09-2.18l.036-1.817.587-.079c1-.136,2.24.016,2.31.283a.8.8,0,0,0,.44.388c.3.124.4.264.46.662.144.9.439.54.439-.539,0-1.059.063-1.041-3.666-1.041a14.149,14.149,0,0,0-3.176.13m-15.868.141a.6.6,0,0,0-.228.51.711.711,0,0,1-.24.547,1.3,1.3,0,0,0-.332.754,1.953,1.953,0,0,1-.288.8,1.46,1.46,0,0,0-.217.756c-.014.361-.073.52-.178.48-.173-.066-.309.195-.309.592a2.182,2.182,0,0,1-.253.739,8.871,8.871,0,0,0-.789,1.745,2.113,2.113,0,0,1-.67,1.219.989.989,0,0,0-.422.457l-.192.384h2.616l-.471-.485a1.351,1.351,0,0,1-.21-1.861.942.942,0,0,0,.263-.554.6.6,0,0,1,.422-.657c.179-.066.228-.237.228-.794,0-.422.061-.731.151-.76s.185-.307.228-.621c.123-.907,1.047-1.05,1.053-.162a1.963,1.963,0,0,0,.329.79,1.091,1.091,0,0,1,.25.88.568.568,0,0,0,.194.63.8.8,0,0,1,.271.455.541.541,0,0,0,.261.372.683.683,0,0,1,.274.585,3.8,3.8,0,0,0,.1.743c.11.4-.222,1.178-.5,1.181a.888.888,0,0,0-.4.128c-.131.084.5.127,1.909.128l2.105,0-.639-.652a3.1,3.1,0,0,1-.639-.8,12.35,12.35,0,0,0-.859-1.955,1.667,1.667,0,0,1-.183-.641.944.944,0,0,0-.221-.54,4.9,4.9,0,0,1-.714-1.664,2.779,2.779,0,0,0-.383-.767,1.266,1.266,0,0,1-.246-.661,1.165,1.165,0,0,0-.191-.6,1,1,0,0,1-.2-.467c-.006-.323-.34-.435-.688-.232m-74,1.676c-.17.1-.187.681-.13,4.394.085,5.554.08,5.567-1.988,6.024-.659.145-.749.2-.749.479,0,.327.041.347,1.108.518a1.8,1.8,0,0,1,.717.256,2.842,2.842,0,0,0,.977.3c.43.071,1.118.222,1.527.335,1.279.354,1.184.872,1.082-5.9-.1-6.513-.084-6.338-.5-6.449a5.578,5.578,0,0,0-2.049.041m94.36,1.614a1.276,1.276,0,0,1-.833.919c-.3.107-.2.225.351.4.342.11.425.212.458.561.022.234.1.392.163.351a6.477,6.477,0,0,0-.008-2.536c-.072,0-.13.137-.13.3m-28.318,2.281c-.209.085-.192.147.174.644l.4.55-.215.646c-.127.383-.312.677-.453.722a.5.5,0,0,0-.3.314c-.04.154-.238.272-.559.332-.366.069-.447.124-.31.211.4.254,1.154.118,2.18-.394l1.034-.516.086-.885c.047-.487.1-1.061.116-1.276l.03-.391-.977-.026a5.148,5.148,0,0,0-1.209.068m-56.7.863a5.912,5.912,0,0,0,.032,2.143c.076.12.229.152.456.095a.8.8,0,0,1,.72.195.908.908,0,0,0,.878.185l.5-.095-.5-.2a2.831,2.831,0,0,1-1.647-1.9c0-.35-.337-.679-.435-.424m25.524,1.816c-.138.1-.18.2-.1.252a.4.4,0,0,0,.366-.091c.138-.1.18-.2.1-.252a.4.4,0,0,0-.366.091m-1.433.594c-.242.1-.236.115.087.2.419.11.774.051.771-.127s-.524-.214-.858-.074m41.023,2.31c-.247.1.051.566.362.566.186,0,.256-.089.256-.326,0-.321-.212-.4-.618-.24m-6.157.449a1.4,1.4,0,0,1-.787,1.182c-.147.049-.136.153.062.571a5.224,5.224,0,0,1,.254,2.244c.014,1.985.026,2.007,1.055,1.954.724-.038.831-.258.174-.36-.915-.141-.9-3.96.013-4.067.423-.049.386-.286-.052-.341a.719.719,0,0,1-.547-.926.883.883,0,0,0-.05-.538c-.086-.136-.12-.056-.122.281m-51.288,1.29c-.044.072.04.13.188.13a.875.875,0,0,1,.508.228,3.13,3.13,0,0,0,.489.372.659.659,0,0,1,.29.414.788.788,0,0,0,.228.426,2.094,2.094,0,0,1,.009,1.717c-.551.551-.335,1.021.242.526.425-.366.605-2.743.218-2.872a1.188,1.188,0,0,1-.57-.57c-.028-.085-.236-.154-.462-.154s-.441-.078-.477-.174a.445.445,0,0,0-.661-.043m16.683,0c-.049.079.139.13.481.128.411,0,.509-.036.366-.128-.256-.165-.745-.165-.847,0m10.348.011c-.139.088-.116.116.1.118a.4.4,0,0,1,.355.2.769.769,0,0,0,.4.323c.754.287,1.189,2.452.609,3.032-.231.231-.177.381.121.335.561-.086.9-1.637.572-2.6-.285-.836-1.651-1.723-2.158-1.4m9.006.065a1.52,1.52,0,0,1-.593.183,2.021,2.021,0,0,0-.841.6l-.574.6-.006,1.02-.006,1.02.637.594a2.717,2.717,0,0,0,2.61.515c.521-.2.175-.376-.673-.342-1.108.044-1.678-.344-1.774-1.208a7.721,7.721,0,0,0-.145-.859,1.514,1.514,0,0,1,.788-1.422,2.607,2.607,0,0,0,.6-.439c.624-.675,1.8.54,1.315,1.36-.28.473-.1.681.232.27.475-.586.2-1.843-.4-1.843a.423.423,0,0,1-.326-.13c-.108-.175-.45-.144-.847.076m29.389-.075c-.1.163.26.313.515.215.112-.043.22.025.265.167a.523.523,0,0,0,.332.307c.381.1.355.9-.037,1.177-.291.2-.29.2.163.21a.791.791,0,0,0,.782-.845c0-.319-.421-.972-.629-.976a1,1,0,0,1-.471-.2c-.291-.22-.8-.253-.921-.06m8.537,0c.253.163.391.163.391,0,0-.072-.132-.129-.293-.128-.237,0-.256.026-.1.128m-76.348.156c-.211.211-.2.459.033.588a20.962,20.962,0,0,1,.09,5.544c-.269.269-.158.358.453.358.568,0,.6-.016.5-.293a21.821,21.821,0,0,1-.042-4.9c.111-.47.12-.723.029-.782a1.256,1.256,0,0,1-.288-.381.465.465,0,0,0-.771-.137m9.716,0c-.342.125-.508.5-.222.5.468,0,.728,2.782.331,3.542-.225.431-.164.5.458.5.6,0,.715-.152.431-.585a4.53,4.53,0,0,1,.117-2.85c.286-.437.279-.475-.094-.475-.231,0-.349-.1-.449-.391a1.128,1.128,0,0,0-.176-.381c-.022.006-.2.069-.4.141m1.89-.017c-.473.19-.37.517.163.517.4,0,.456-.04.456-.326,0-.343-.137-.385-.619-.192m15.159.155c-.191.272-.183.3.113.455l.316.165.014,2.476c.012,2.024-.022,2.531-.186,2.781-.256.39-.156.48.531.48.57,0,.856-.174.507-.308a20.393,20.393,0,0,1-.075-5.224c.2-.121-.25-.86-.6-.993-.417-.159-.388-.166-.622.168m18.657-.1c-.261.191-.289.416-.062.492.3.1.357,2.736.087,3.748-.041.152.077.2.534.2s.573-.041.521-.2a16.937,16.937,0,0,1,.029-3.226c.074-.332.052-.424-.1-.424-.107,0-.248-.138-.312-.308-.147-.387-.409-.493-.7-.282m1.8.1c-.2.284-.195.295.2.335.468.048.71-.124.6-.424s-.561-.249-.8.089m12.671-.116c-.42.157-.468.422-.1.54.4.128.4,3.3-.005,3.557s-.185.418.534.418c.7,0,.786-.118.383-.521-.237-.237-.261-.434-.261-2.143,0-2.018-.01-2.053-.554-1.851m-39.7.066c-.206.131.129.538.443.538a.169.169,0,0,1,.186.142,1.245,1.245,0,0,0,.261.474,1.79,1.79,0,0,1-.264,2.239l-.525.663h-.967c-.924,0-1.343.144-.905.312a5.56,5.56,0,0,0,1.119.079h.913l.621-.644a2.282,2.282,0,0,0-.208-3.573c-.461-.387-.44-.38-.675-.231m46.939-.023a.93.93,0,0,0-.492.373c-.115.175-.281.318-.37.318-.2,0-.614,1.128-.614,1.671a2.109,2.109,0,0,0,2.195,2.109c1.59,0,1.878-.335.355-.412-1.3-.066-1.617-.338-1.629-1.4,0-.4-.011-.94-.015-1.191-.008-.468.46-1.043.848-1.043a.292.292,0,0,0,.244-.183c.07-.182-.017-.355-.162-.321-.042.01-.2.043-.359.073m-65.86.235c0,.246.25.244.579,0,.239-.181.231-.191-.163-.191-.283,0-.416.063-.416.2m16.549.2a2.535,2.535,0,0,0-.539.782c-.074.213-.188.388-.253.388-.224,0-.117.9.166,1.394.406.711.636.952.91.952.323,0,.3-.108-.085-.468-.692-.641-.372-2.724.459-2.987.142-.045.257-.166.257-.268,0-.318-.492-.206-.916.208m10.691-.2c0,.108.051.2.114.2a.524.524,0,0,0,.277-.2c.136-.163.117-.2-.114-.2-.159,0-.277.083-.277.2m48.636.019a.388.388,0,0,0,.284.284c.172.033.225-.021.193-.193a.388.388,0,0,0-.284-.284c-.172-.033-.225.021-.193.193m-2.275.387c-.552.553.674,1.875,1.739,1.875.255,0,.419.079.472.228a1.708,1.708,0,0,0,.265.443c.124.145.139.243.045.3-.191.118-.175.332.024.327.665-.017.637-1.418-.033-1.659a1.88,1.88,0,0,1-.456-.295,1.894,1.894,0,0,0-.827-.3,1.2,1.2,0,0,1-1.067-.844c-.038-.1-.111-.132-.163-.08m-36.586,1.6c-.319.091-.316.094.1.179.466.1.854,0,.742-.181-.082-.133-.366-.132-.839,0m29.462,0c-.148.094-.113.138.163.208.41.1.8-.011.678-.2-.1-.163-.588-.168-.841-.008M60.412,165.6c-.831.09-.567.264.391.257.7-.005,1.043-.09,1.043-.256,0-.128-.263-.128-1.434,0m26.382,0c-.177.176.044.244.825.254.722.01,1.6-.191,1.14-.259a13.132,13.132,0,0,0-1.966,0m46.512.058a3.61,3.61,0,0,0,1.918.036,2.31,2.31,0,0,0-.984-.148c-.69-.025-.969.008-.934.112" transform="translate(-31.481 -131.735)" fill="#2d43ba" fill-rule="evenodd"/>
  <path id="path1" d="M87.278,128.325c-.9.094-2.744.239-4.105.322s-2.711.2-3,.264-2.1.152-4.04.2-4.575.14-5.865.2l-5.018.252c-2.881.144-5.91.357-6.652.469-.5.074-.735.577-.275.577.224,0,1.049.76,4.782,4.406,1.078,1.053,2.367,2.267,2.864,2.7a19.635,19.635,0,0,1,2.555,2.57.43.43,0,0,0,.282.236c.087,0,.3.206.484.454a1.716,1.716,0,0,0,.547.524.56.56,0,0,1,.3.328c.045.14.133.254.2.254a3.179,3.179,0,0,1,.72.586,2.78,2.78,0,0,0,.755.589,21.524,21.524,0,0,0,4.015-.488,4.791,4.791,0,0,1,1.629-.3,17.007,17.007,0,0,0,1.935-.249,5.591,5.591,0,0,1,1.12-.136,8.562,8.562,0,0,0,1.629-.273,16.867,16.867,0,0,1,2.269-.381c.681-.061,1.766-.207,2.411-.324,2.066-.374,3.365-.571,4.3-.653a14.522,14.522,0,0,0,1.912-.334,8.584,8.584,0,0,1,1.7-.254,1.834,1.834,0,0,0,.838-.137,5.709,5.709,0,0,1,1.557-.207,10.33,10.33,0,0,0,2.2-.317,10,10,0,0,1,1.739-.334c1.476-.135,1.39-.432-.515-1.784-.386-.274-1.113-.87-1.614-1.325-.8-.728-1.721-1.481-2.987-2.448-.209-.16-.512-.415-.673-.566s-.781-.638-1.379-1.08-1.263-.949-1.478-1.127l-1.108-.913c-.394-.325-.906-.767-1.137-.983-.529-.494-.873-.532-2.9-.319M57.041,145.719l-.456.077,0,5.452,0,5.452.329.331.329.331.04-.335c.036-.292.135-.355.782-.5,2.059-.455,2.064-.47,1.98-6.022-.053-3.46-.032-4.3.107-4.376s-.586-.219-2.387-.456a3.092,3.092,0,0,0-.717.043" transform="translate(-48.051 -127.886)" fill="#2d43ba" fill-rule="evenodd"/>
  <path id="path3" d="M39.624,133.233a1.972,1.972,0,0,0-.628.646c-.045.143-.152.261-.237.264-.2.006-.741.456-.741.611,0,.065-.179.25-.4.412a1.983,1.983,0,0,0-.542.611c-.08.174-.191.317-.248.317a8.46,8.46,0,0,0-1.419,1.381,2.406,2.406,0,0,1-.8.7c-.061,0-.111.09-.111.2a14.686,14.686,0,0,1-1.833,2.025,8.714,8.714,0,0,0-1.791,2.049c.06.315,1.633.4,1.75.1a.318.318,0,0,1,.263-.2.313.313,0,0,0,.262-.2,17.978,17.978,0,0,1,1.527-1.68,29.052,29.052,0,0,0,3.471-3.814c0-.092.179-.259.4-.371a1.344,1.344,0,0,0,.536-.51,1.058,1.058,0,0,1,.453-.448,1.1,1.1,0,0,0,.463-.471c.082-.18.193-.328.245-.328a1.21,1.21,0,0,0,.4-.312c.245-.255.36-.29.62-.191.278.106.3.1.153-.079-.21-.252-.461-.254-.753,0a35.831,35.831,0,0,0-2.64,2.634c0,.057-.206.243-.456.414s-.455.38-.455.465a1.508,1.508,0,0,1-.424.56,6.131,6.131,0,0,0-1.271,1.427c0,.07-.14.2-.312.294a2.8,2.8,0,0,0-.684.666,2.437,2.437,0,0,1-.666.634c-.161.074-.293.211-.293.3a1.123,1.123,0,0,1-.606.618,1.331,1.331,0,0,0-.383.326c-.343.37-1.227.473-1.227.142a9.792,9.792,0,0,1,2.085-2.237,6.023,6.023,0,0,0,.847-.844c.072-.124.6-.738,1.173-1.363a13.256,13.256,0,0,0,1.16-1.382c.065-.136.163-.246.219-.246a3.84,3.84,0,0,0,.73-.679c.345-.373.8-.828,1-1.01s.631-.586.947-.9c.526-.518.63-.566,1.224-.561.726.006.868-.165.242-.29-.6-.119-.649-.106-1.246.317m45.143,8.476c-.051.194,0,.249.248.249.378,0,.382-.014.065-.285-.232-.2-.253-.2-.313.036m-43.751,2.435a1.645,1.645,0,0,0-.463.343c-.147.15-.455.435-.684.633a1.046,1.046,0,0,0-.416.678.547.547,0,0,1-.222.442c-.164.092-.224.3-.228.81l-.006.685.912.226.912.226.456-.51c.632-.706,1.412-.606,1.617.208.081.325.1.329,1.4.329h1.317l-.065-.677c-.051-.528-.14-.736-.4-.948a1.34,1.34,0,0,1-.424-.724,1.214,1.214,0,0,0-.279-.609c-.107-.086-.393-.337-.636-.557a3.117,3.117,0,0,0-2.787-.555m.734.354c.066.171.106.171.351,0,.7-.488,1.2-.071,1.048.877-.122.78-.885,1.451-1.155,1.014-.156-.253-.591-.134-.717.2s-.439.434-.586.2a.345.345,0,0,0-.268-.13c-.7,0-.981-1.255-.309-1.39a1.047,1.047,0,0,0,.616-.42c.36-.567.87-.737,1.021-.342m.048.972a1.428,1.428,0,0,0,.051.529c.1,0,.155-.931.054-.993-.058-.036-.105.173-.105.464m-1.088-.154c-.094.152.062.814.191.814.063,0,.115-.205.115-.456,0-.417-.156-.6-.306-.358m3.493.053a.549.549,0,0,1-.026,1.029,5.571,5.571,0,0,0-.67.414c-.585.435-.835-.312-.271-.812a1.3,1.3,0,0,0,.313-.489c.106-.335.192-.353.655-.142m-3.986,1.543a.577.577,0,0,0,.368.26c.111,0,.17.094.142.228-.039.188-.17.223-.75.2-.844-.036-.971-.139-.851-.687.108-.488.755-.488,1.091,0m4.913.2c.288.72.062.977-.86.977h-.795l.041-.424c.031-.325.109-.433.334-.465a.657.657,0,0,0,.432-.3c.2-.376.657-.262.847.212m18.89-.27c-.072.025-.482.123-.912.217-1.554.341-3.578,2.127-3.588,3.167a1.3,1.3,0,0,1-.2.659,3.343,3.343,0,0,0,0,2.289.875.875,0,0,1,.2.585,4.969,4.969,0,0,0,2.227,2.612,1.031,1.031,0,0,1,.448.283c.48.657,4.431.158,5.368-.678s1.341-1.305,1.341-1.561a.676.676,0,0,1,.244-.349c.64-.548.5-3.569-.219-4.671a5.837,5.837,0,0,0-1.808-1.823.587.587,0,0,1-.326-.173,6.377,6.377,0,0,0-2.779-.555m41.967.193c-1.5.377-2.937,1.486-3.138,2.424a1.653,1.653,0,0,1-.3.633,7.723,7.723,0,0,0-.053,3.976,2.376,2.376,0,0,1,.338.686,5.073,5.073,0,0,0,1.736,1.82c.708.438,4.168.439,5.173,0a3.272,3.272,0,0,1,.943-.274c.369,0,.432-.2.48-1.489.031-.853.054-.914.424-1.118.422-.233.591-.747.3-.927a13.711,13.711,0,0,0-4.011.069c-.212.255.048.857.37.857,1.262,0,.605,2.211-.711,2.392-1.2.164-1.956-.34-2.643-1.759a8.7,8.7,0,0,1-.083-4.209.98.98,0,0,0,.191-.484.48.48,0,0,1,.25-.365.828.828,0,0,0,.331-.493c.222-.983,2.358-1.506,3.068-.75a1.02,1.02,0,0,0,.482.326c.1,0,.212.181.256.4a.711.711,0,0,0,.257.47.394.394,0,0,1,.177.355c0,.57.778,1.036,1.135.679.653-.653-.182-3.318-.933-2.976a.693.693,0,0,1-.708-.05,4.853,4.853,0,0,0-3.339-.2m-52.432.279a2.786,2.786,0,0,0-1.1,3.81c.491.755.712.929,1.985,1.556,1.92.947,2.5,2.311,1.346,3.155-.638.466-2.123.178-2.323-.451a1.59,1.59,0,0,0-.307-.467,2.046,2.046,0,0,1-.361-.772c-.089-.379-.195-.526-.4-.555-.452-.065-.6.387-.534,1.677.064,1.327.2,1.585.762,1.425.224-.064.413-.06.457.011a2.275,2.275,0,0,0,.953.121,2.747,2.747,0,0,1,1,.119c.338.324,2.449-.38,2.629-.876a2.771,2.771,0,0,1,.384-.589c.27-.328.3-.5.3-1.6v-1.231l-.736-.724a6.08,6.08,0,0,0-1.01-.847c-.151-.067-.508-.265-.8-.439s-.645-.373-.8-.443c-1.24-.572-1.1-2.376.2-2.469.66-.047,1.447.556,1.447,1.109,0,.165.054.3.12.3s.22.264.343.586c.413,1.08.71.595.71-1.157,0-.8-.054-1.272-.151-1.332a10.959,10.959,0,0,0-4.123.083m17.079-.159c-.451.064-.352.344.326.923l.619.529.04,3.446.04,3.446.318.209c.175.115.318.28.319.368,0,.253.982.746,1.483.746a.819.819,0,0,1,.54.137c.059.1.135.095.251,0s.213-.082.335.065.193.164.267.045a1.457,1.457,0,0,1,.793-.193c1.393-.069,1.71-.172,2.353-.761l.615-.564.044-3.176c.052-3.808.069-3.868,1.333-4.738.5-.346.058-.473-1.635-.467-1.474.005-2.25.169-1.72.363a3.948,3.948,0,0,1,.684.545l.52.485v2.988c0,3.122-.153,4.1-.642,4.1a.794.794,0,0,0-.414.208,3.446,3.446,0,0,1-2.731-.055c-1.152-1.237-.978-7.653.219-8.109.343-.13.407-.356.13-.462a37.924,37.924,0,0,0-4.089-.077m10.586.024c-.441.077-.539.393-.507,1.636.036,1.392.468,1.861.767.833a2.282,2.282,0,0,1,1.636-1.595c1.255-.455,1.17-.711,1.17,3.528V155.3l-.617.543c-.555.488-.6.566-.431.767a14.2,14.2,0,0,0,4.546.025c.192-.123-.443-.766-.981-.993-.411-.174-.446-.55-.4-4.368l.038-3.389.3-.043a2.99,2.99,0,0,1,2.6,1.246c.733,1.5,1.108,1.3,1.038-.549a3.8,3.8,0,0,0-.178-1.249c-.14-.14-8.241-.251-8.976-.123m9.612.082c-.231.176-.136.289.876,1.047.172.129.21.627.248,3.2.051,3.516-.014,3.926-.7,4.391-1,.674-.67.853,1.634.9,2.734.05,3.114-.08,2.183-.749-.9-.645-1.033-.935-1.033-2.217,0-1.536-.15-1.437,2.181-1.437h2.012v2.686l-.719.693c-1.024.986-.926,1.052,1.55,1.05,2.786,0,3.072-.134,1.988-.913-.842-.6-.863-.7-.863-3.908s.021-3.307.888-4.122c.756-.712.68-.742-1.9-.731-2.548.011-2.6.042-1.663.917l.72.67v1.226c0,1.555.08,1.5-2.131,1.444-2.179-.055-2.122-.018-2.086-1.365.032-1.2.366-1.9,1.088-2.275.41-.212.506-.428.229-.516a21.232,21.232,0,0,0-4.5.012m32.31-.083-.7.065-.251.641c-.3.771-.206,2.162.149,2.162.2,0,.786-.548.786-.739a1.306,1.306,0,0,1,.964-1.083,8.2,8.2,0,0,0,.948-.351c.937-.438.955-.37.955,3.629v3.533l-.564.535a7.982,7.982,0,0,1-.815.694c-.605.382.1.558,2.24.558,2.62,0,2.914-.136,1.882-.871-.869-.619-.933-.952-.908-4.72l.021-3.275.333-.084a1.416,1.416,0,0,1,.734.079c.22.089.649.23.952.313.624.171.857.439,1.07,1.23.156.581.38.691.676.334a5.477,5.477,0,0,0,0-2.558c-.124-.123-7.3-.2-8.471-.094m9.432-.022a.888.888,0,0,0-.367.147c-.129.122.6.87.955.984.378.12.408,7.186.031,7.325a2.967,2.967,0,0,0-.675.512l-.447.428.357.136a71.627,71.627,0,0,0,7.883.054l.407-.081v-1.467c0-1.911-.381-2.157-1.112-.716-.363.716-.742,1.173-.973,1.173a.96.96,0,0,0-.464.191c-1.175.889-2.43-.263-2.455-2.251l-.014-1.133.486.015c.613.019.882.239.882.722,0,.448.322.627.61.338.386-.386.336-3.174-.061-3.434s-.543-.093-.546.537c0,.434-1.034.856-1.291.528a8.47,8.47,0,0,1,.07-3.268c.669-.669,3.158.529,3.17,1.524q.008.695.6.309a2.821,2.821,0,0,0,.013-2.509c-.084-.084-6.619-.143-7.057-.063m-77.961.367a1.823,1.823,0,0,0-.9,1.667,4.591,4.591,0,0,0,2.67,2.029.3.3,0,0,1,.231.2,1.1,1.1,0,0,0,.458.4,1.349,1.349,0,0,1,.536.549,1.528,1.528,0,0,0,.385.523c1.013.75-.651,3.8-2.073,3.8-.618,0-.855-.192-.383-.311a1.79,1.79,0,0,0,1.122-1.589c0-.569-.412-1.619-.634-1.619a1.157,1.157,0,0,1-.408-.261,1.047,1.047,0,0,0-.525-.261.568.568,0,0,1-.38-.187,1.159,1.159,0,0,0-.546-.273.708.708,0,0,1-.461-.269.291.291,0,0,0-.243-.183c-.77,0-1.112-2.727-.453-3.619.171-.232.382-.422.467-.422a.509.509,0,0,0,.311-.188,1.05,1.05,0,0,1,.983-.217c.221.051.2.085-.152.228m61.87-.093a1.164,1.164,0,0,0-.135.44.518.518,0,0,1-.179.337,1.439,1.439,0,0,0-.267.694,2,2,0,0,1-.235.724,5.8,5.8,0,0,0-.752,2.051.632.632,0,0,1-.25.548,1.039,1.039,0,0,0-.343.583,2.643,2.643,0,0,1-.26.69,2.522,2.522,0,0,0-.254.685,1.034,1.034,0,0,1-.2.494,1.732,1.732,0,0,0-.322.505,1.343,1.343,0,0,1-.518.575c-.359.164-.8.769-.66.908a8.771,8.771,0,0,0,1.687.137c1.957.052,2.171-.067,1.465-.815-.52-.551-.681-1.021-.424-1.235a1.65,1.65,0,0,0,.262-.784c.1-.764.158-.793,1.574-.793,1.116,0,1.241.061,1.241.609a1.194,1.194,0,0,0,.261.528c.254.324.375,1.339.159,1.339a2.019,2.019,0,0,0-.534.4c-.737.673-.476.778,1.944.778,2.864,0,2.923-.042,1.689-1.207a3.328,3.328,0,0,1-.782-.927,5.643,5.643,0,0,0-.805-1.945.863.863,0,0,1-.237-.529,4.426,4.426,0,0,0-.448-1.185,6.6,6.6,0,0,1-.533-1.394c-.047-.277-.134-.5-.194-.5s-.18-.22-.267-.489c-.455-1.407-1.266-1.992-1.682-1.214m-59.674.021c.193.1.306.1.409,0,.295-.295.351-.107.351,1.169,0,.841-.047,1.282-.13,1.23a.512.512,0,0,1-.13-.381,1.252,1.252,0,0,0-.261-.632,1.379,1.379,0,0,1-.261-.434,2.014,2.014,0,0,0-.864-.834.317.317,0,0,1-.244-.13c-.11-.178.793-.168,1.13.012m7.081-.012a.82.82,0,0,1-.532.13c-.362,0-.476.065-.575.326-.068.179-.2.326-.3.326-.177,0-.254.128-.906,1.5-.666,1.4-.434,4.564.371,5.054a.907.907,0,0,1,.248.489c.047.215.159.39.248.39a1.025,1.025,0,0,1,.467.324,1.625,1.625,0,0,0,.757.409c.625.117.194.367-.477.276-.807-.109-3.015-1.8-3.015-2.312a.825.825,0,0,0-.243-.373c-.506-.506-.507-3.34,0-3.983a1.175,1.175,0,0,0,.245-.443,8.107,8.107,0,0,1,2.251-1.937.853.853,0,0,0,.431-.188,1.051,1.051,0,0,1,.591-.113c.314,0,.489.052.441.13m2.632.126a1.485,1.485,0,0,1,.607.456.309.309,0,0,0,.251.2,3.614,3.614,0,0,1,1.33,1.434,1.837,1.837,0,0,0,.312.567,5.681,5.681,0,0,1-.08,3.526,1.379,1.379,0,0,0-.293.681c0,.174-.078.308-.179.308s-.318.2-.489.455-.415.456-.543.456a.345.345,0,0,0-.3.19.933.933,0,0,1-.507.332,1.582,1.582,0,0,0-.591.332c-.173.208-.978.259-1.1.069-.041-.066.113-.161.341-.211.416-.091,1.542-1.1,1.542-1.382a.475.475,0,0,1,.174-.293c.624-.518.991-3.306.546-4.158a3.577,3.577,0,0,1-.276-.825c-.048-.254-.167-.492-.266-.53a.289.289,0,0,1-.179-.245,3.386,3.386,0,0,0-1.389-1.362.96.96,0,0,1-.435-.128c-.385-.249.981-.136,1.524.126m7.99-.188c0,.037-.147.124-.326.192a.458.458,0,0,0-.326.372.348.348,0,0,1-.251.314c-.909.238-.485,6.947.479,7.563a.385.385,0,0,1,.163.287c0,.106.192.219.455.268.65.122.431.317-.356.317a2.6,2.6,0,0,1-2.242-1.5c-.329-.645-.333-.69-.333-3.687,0-3.131-.091-3.65-.684-3.914-.415-.185.159-.282,1.662-.282a11.415,11.415,0,0,1,1.759.068m5.533.073a.438.438,0,0,1-.331.12.379.379,0,0,0-.338.228,2.065,2.065,0,0,1-.355.532c-.261.29-.275.453-.3,3.584-.014,1.8-.028,3.354-.033,3.443a.2.2,0,0,1-.218.163c-.171,0-.194-.09-.121-.489.347-1.914.155-6.736-.274-6.9a.28.28,0,0,1-.177-.234c0-.091-.132-.258-.293-.37-.274-.192-.2-.2,1.109-.2.817,0,1.371.054,1.328.124m9.531-.065c.343.092.578.733.572,1.562,0,.717-.2.619-.6-.3-.1-.233-.266-.424-.367-.424a1.343,1.343,0,0,1-.559-.316,3.487,3.487,0,0,0-2.219-.346c-.127.008-.163.911-.163,4.054v4.044l.326.124c.179.068.326.21.326.316a.452.452,0,0,0,.228.325c.162.094-.337.133-1.727.132-1.783,0-1.924-.018-1.606-.191.751-.408.89-1.207.89-5.142,0-4.021.074-3.8-1.214-3.682a2.485,2.485,0,0,0-2.028,1.547c-.208.778-.537.54-.537-.387,0-1.406-.083-1.38,4.562-1.383,2.115,0,3.966.03,4.115.07m5.334.054a.334.334,0,0,1-.26.13c-.1,0-.216.117-.262.261a.794.794,0,0,1-.335.4c-.229.123-.252.288-.252,1.822,0,2.018-.241,1.848,2.541,1.795L98.3,151.8l.036-1.782c.034-1.677.021-1.787-.221-1.864a.563.563,0,0,1-.332-.317.772.772,0,0,0-.365-.376c-.221-.107.21-.142,1.8-.147,1.392,0,2.02.035,1.89.12a.937.937,0,0,1-.424.128.21.21,0,0,0-.228.18,1.2,1.2,0,0,1-.261.509c-.245.312-.261.529-.261,3.712,0,3.215.013,3.392.261,3.616a.765.765,0,0,1,.261.411c0,.1.048.175.106.175a.982.982,0,0,1,.358.187c.224.166.029.192-1.735.228-1.846.038-2.377-.022-1.717-.2a.516.516,0,0,0,.338-.329.5.5,0,0,1,.32-.325c.237-.062.25-.179.216-1.86l-.036-1.795-2.148.035c-2.611.042-2.349-.157-2.349,1.783,0,1.606,0,1.626.326,1.773.179.081.326.224.326.316a.65.65,0,0,0,.29.37c.267.187.133.2-1.727.189-1.581-.011-1.94-.044-1.663-.154a1.009,1.009,0,0,0,.493-.475,6.7,6.7,0,0,1,.329-.661,26.722,26.722,0,0,0,0-6.647,6.771,6.771,0,0,1-.337-.684c-.1-.251-.241-.358-.46-.358-.172,0-.313-.059-.313-.13a6.31,6.31,0,0,1,1.963-.13c1.275,0,1.934.046,1.882.13m11.991,0a.651.651,0,0,1-.455.13.759.759,0,0,0-.67.424,5.685,5.685,0,0,1-.564.684c-.261.253-.385.59-.99,2.682l-.285.988.277.625a3.378,3.378,0,0,1,.281.9,3.733,3.733,0,0,0,1.964,2.5c.616.135.136.374-.589.292a5.138,5.138,0,0,1-2.148-1.2,2.039,2.039,0,0,0-.358-.406,1.566,1.566,0,0,1-.394-.72,3.482,3.482,0,0,0-.26-.767,5.623,5.623,0,0,1,.009-2.771c.1-.307.223-.749.271-.983a.911.911,0,0,1,.338-.558c.138-.074.25-.2.25-.284a1.323,1.323,0,0,1,.733-.753A.41.41,0,0,0,104.6,148a2.185,2.185,0,0,1,1.691-.681c.431-.009.661.035.611.116m2.374.067a1.253,1.253,0,0,0,.7.163c.506-.041.681.438.549,1.5-.1.794-.256.889-.426.257a2.9,2.9,0,0,0-.58-.983,3.61,3.61,0,0,1-.52-.68c-.043-.111-.239-.194-.462-.194a.678.678,0,0,1-.468-.13c-.13-.209.887-.153,1.2.067m22.125.013c.307.307.232,1.788-.094,1.85-.145.028-.228-.037-.228-.179,0-.36-.523-1.1-.777-1.1a.6.6,0,0,1-.413-.26,3.142,3.142,0,0,0-2.155-.218,33.659,33.659,0,0,0-.148,3.694c-.043,4.019.039,4.461.936,5.008l.406.247H127c-2.115,0-2.047.04-1.266-.741l.326-.326V147.5l-.976.045a2.294,2.294,0,0,0-2.164,1.355c-.294.553-.444.428-.444-.367,0-1.322-.338-1.23,4.492-1.23,3.714,0,4.247.025,4.432.21m7.944-.006a1.282,1.282,0,0,1,.2.836c0,1.079-.294,1.441-.439.539-.064-.4-.161-.538-.46-.662a.8.8,0,0,1-.44-.388c-.07-.268-1.306-.419-2.31-.283l-.587.079-.036,1.818a12.046,12.046,0,0,0,.09,2.18c.079.225.08.391,0,.438-.44.272.038,3.488.543,3.649a.335.335,0,0,1,.247.261c0,.541,2.042.627,2.41.1a1.045,1.045,0,0,1,.519-.354c.181-.045.329-.138.329-.206a1.909,1.909,0,0,1,.391-.569,1.663,1.663,0,0,0,.406-.754c.009-.194.056-.115.124.213a3.859,3.859,0,0,1-.16,1.922c-.109.209-.426.228-3.813.228h-3.695l.506-.506.506-.506v-3.559c0-3.742-.113-4.418-.742-4.421a.312.312,0,0,1-.236-.131c-.151-.243,6.393-.17,6.637.075m-22.027,0a.35.35,0,0,1,.21.293.994.994,0,0,0,.2.467,1.165,1.165,0,0,1,.191.6,1.266,1.266,0,0,0,.246.661,2.778,2.778,0,0,1,.383.767,4.9,4.9,0,0,0,.714,1.664.944.944,0,0,1,.221.54,1.668,1.668,0,0,0,.183.641,12.348,12.348,0,0,1,.859,1.955,3.1,3.1,0,0,0,.639.8l.639.652-2.105,0c-1.407,0-2.04-.044-1.909-.128a.888.888,0,0,1,.4-.128c.279,0,.611-.785.5-1.181a3.8,3.8,0,0,1-.1-.743.683.683,0,0,0-.274-.585.54.54,0,0,1-.261-.372.8.8,0,0,0-.271-.455.568.568,0,0,1-.194-.63,1.091,1.091,0,0,0-.25-.88,1.963,1.963,0,0,1-.329-.79c-.006-.887-.93-.745-1.053.162-.043.314-.145.593-.228.621s-.151.339-.151.76c0,.557-.049.728-.228.794a.6.6,0,0,0-.422.657.942.942,0,0,1-.263.554,1.351,1.351,0,0,0,.21,1.861l.471.485h-2.616l.192-.384a.99.99,0,0,1,.422-.457,2.113,2.113,0,0,0,.67-1.219,8.871,8.871,0,0,1,.789-1.745,2.182,2.182,0,0,0,.254-.739c0-.4.136-.658.309-.592.1.04.164-.119.178-.48a1.46,1.46,0,0,1,.217-.756,1.952,1.952,0,0,0,.288-.8,1.3,1.3,0,0,1,.332-.754.711.711,0,0,0,.24-.547.6.6,0,0,1,.228-.51c.279-.162.232-.156.478-.062m-51.336.818a3.287,3.287,0,0,1,1.114,2.251,3.117,3.117,0,0,0,.314,1.152c.262.289.248.481-.064.878a1.45,1.45,0,0,0-.261.775,3.286,3.286,0,0,1-.794,1.775c-.684.753-.855.871-1.372.949a2.715,2.715,0,0,1-3.06-2.227,2.252,2.252,0,0,0-.335-.863,2.771,2.771,0,0,1,.018-1.975A7.645,7.645,0,0,0,61.865,150c.132-.588.6-1.521.771-1.521a2.26,2.26,0,0,0,.531-.4,2.1,2.1,0,0,1,2.813.258m-22.845.42c-.626.232-.429.378.514.379,1.83,0,1.629-.751,1.738,6.528.1,6.772.2,6.255-1.082,5.9-.41-.114-1.1-.265-1.527-.335a2.8,2.8,0,0,1-.981-.306,1.9,1.9,0,0,0-.782-.256c-1-.137-1.12-.179-1.475-.534-.191-.191-.346-.274-.346-.187,0,.236.53.633.977.731a3.207,3.207,0,0,1,.782.317,3.742,3.742,0,0,0,1.173.324,3.551,3.551,0,0,1,.912.19,3.862,3.862,0,0,0,.782.268,3.089,3.089,0,0,1,.775.281,1.063,1.063,0,0,0,.537.111c.582,0,.584-.039.488-6.946l-.083-5.971-.467-.2a3.764,3.764,0,0,0-1.934-.3m94.328,3.042c0,1.178-.2,1.845-.285.955-.034-.349-.117-.451-.458-.561-.549-.178-.652-.3-.351-.4a1.276,1.276,0,0,0,.833-.919c0-.166.059-.3.13-.3s.13.5.13,1.23m-20.577-.508c.045.278.148.527.229.554.375.125.08.288-.521.288-.628,0-.662-.017-.588-.293a3.055,3.055,0,0,0,.08-.642c0-.222.085-.37.23-.408.392-.1.485-.019.57.5m-5.846,2.21c-.017.215-.068.79-.116,1.276l-.086.885-1.034.516c-1.026.512-1.778.648-2.18.394-.137-.087-.056-.143.31-.211.321-.06.519-.177.559-.332a.5.5,0,0,1,.3-.314c.141-.045.326-.34.453-.722l.215-.646-.4-.55c-.5-.679-.4-.75,1.035-.712l.977.026-.03.391m-58.424.938a2.831,2.831,0,0,0,1.647,1.9l.5.2-.5.095a.908.908,0,0,1-.878-.185.8.8,0,0,0-.72-.195c-.464.117-.569-.095-.572-1.144,0-1.111.1-1.42.345-1.079a.9.9,0,0,1,.175.41m25.35,1.554a.4.4,0,0,1-.366.091c-.077-.047-.034-.152.1-.252a.4.4,0,0,1,.366-.091c.077.047.034.152-.1.252m-.837.506c0,.179-.352.237-.771.127-.323-.085-.329-.1-.087-.2.334-.14.854-.1.858.074m40.1,1.849c-.57.149-.422,1.142.188,1.264a.65.65,0,0,0,.663-1.092c-.22-.257-.393-.292-.851-.172m-6.249.268a4.01,4.01,0,0,0-.444.862c-.18.46-.346.669-.606.762-.466.167-.466.165.2.894.194.214.228.519.228,2.05,0,2.117,0,2.112,1.166,2.109,1.2,0,1.674-.5.7-.729-.655-.157-.69-.247-.69-1.765v-1.421l.4-.08c.729-.146,1.033-1.081.354-1.091-.5-.007-.754-.3-.754-.879,0-.9-.181-1.139-.547-.713m6.933.358c0,.237-.07.326-.256.326-.311,0-.609-.466-.362-.566.406-.164.618-.081.618.24m-6.6.467a.719.719,0,0,0,.547.926c.439.055.475.292.052.341-.473.055-.645.635-.63,2.121.017,1.641.088,1.864.617,1.946.657.1.55.322-.174.36-1.029.053-1.041.032-1.055-1.954a5.224,5.224,0,0,0-.254-2.244c-.2-.417-.21-.521-.062-.571a1.4,1.4,0,0,0,.787-1.182c0-.337.036-.416.122-.281a.883.883,0,0,1,.05.538m6.321.614a2.2,2.2,0,0,1-.532.4c-.556.339-.6.524-.221.87.262.237.305,1.722.1,3.512l-.044.391.768.04c.946.049,1.071-.056.852-.712a8.517,8.517,0,0,1-.153-2.065c.012-1.451-.009-1.6-.3-2.053-.33-.507-.394-.559-.467-.385m-30.926.135a1.679,1.679,0,0,0-.648.229c-.34.238-.653.234-.857-.011a.954.954,0,0,0-1.221.075c-.441.347-.449.741-.018.849l.326.082v2.528c0,2.367-.017,2.543-.261,2.752-.349.3-.332.351.163.509,1.019.325,2.075.008,1.564-.471-.282-.263-.293-.361-.293-2.471v-2.2l.461-.4c1.131-.993,2.277-.383,2.276,1.211,0,1.382-.3,1.716-1.515,1.682-.865-.024-1.084.063-1.089.434,0,.221,1.258.6,1.532.46a3.171,3.171,0,0,1,.733-.194c.519-.08,1.122-.522,1.122-.823a.9.9,0,0,1,.293-.441c.248-.231.291-.4.276-1.088a2.521,2.521,0,0,0-2.844-2.712m-29.5.324c-.369.392-.358.582.042.765l.326.148v2.46c0,2.027-.036,2.516-.207,2.775-.265.4-.177.534.431.632.816.132,1.627-.262,1.121-.545-.156-.087-.222-.3-.228-.756l-.009-.633,1.163-.024c1.73-.036,2.3-.431,2.586-1.8.479-2.284-1.4-4.091-3.245-3.127-.476.248-.782.249-.877,0-.116-.3-.779-.239-1.1.106m9.785-.083c-.334.233-.394.794-.1.907.158.061.2.366.2,1.609,0,1.2-.042,1.569-.2,1.7-.5.419-.149.652.992.652.88,0,1.064-.183.717-.713-.509-.776-.114-3.2.521-3.2,1.03,0,1.421-.359.944-.867-.34-.361-1.208-.433-1.332-.11-.043.112-.238.2-.456.2s-.413-.083-.456-.2c-.1-.249-.456-.239-.832.023m8.6.027a1.1,1.1,0,0,0-.5.439c-.041.125-.124.228-.184.228-.471,0-.9,1.94-.6,2.673.436,1.043,2.086,2.015,2.786,1.641a1.546,1.546,0,0,1,.615-.143c1.489,0,2.613-3.043,1.462-3.96-.2-.157-.358-.351-.358-.432,0-.571-2.327-.893-3.224-.445m19.646-.039a1.472,1.472,0,0,1-.551.183c-.129,0-.26.137-.3.315a.541.541,0,0,1-.314.375c-.158.041-.266.24-.326.6a1.338,1.338,0,0,1-.21.61,1.516,1.516,0,0,0,0,1.157.884.884,0,0,1,.2.421c.342,1.363,2.95,1.831,4.075.731.819-.8.4-1.277-.553-.629-.987.67-2.606.113-1.961-.674.013-.016.458-.091.989-.166,1.039-.148,1.418-.383,1.7-1.053.24-.581.055-1.537-.327-1.682a.944.944,0,0,1-.39-.254,3.434,3.434,0,0,0-2.025.068m7.4.069c-.442.33-.447.459-.033.844a4.292,4.292,0,0,1,.065,3.312c-.436.5-.232.646.92.65.854,0,1.171-.252.774-.622-.675-.629-.2-3.279.586-3.288s1.032-.323.712-.92a.871.871,0,0,0-1.168-.057.671.671,0,0,1-.458.2.411.411,0,0,1-.371-.2c-.105-.275-.6-.236-1.028.08m21.6.08c-1.913,1.247-1.659,4.728.345,4.728a1.4,1.4,0,0,1,.625.156.524.524,0,0,0,.591,0,1.912,1.912,0,0,1,.657-.156c.431,0,1.237-.728,1.237-1.117s-.485-.695-.6-.382c-.22.573-1.568.881-2.269.518-.73-.378-.215-.974.842-.974.632,0,1.511-.422,1.511-.725a.468.468,0,0,1,.261-.318c.565-.3.161-1.47-.656-1.892a3.1,3.1,0,0,0-2.538.162m8.4-.026a1.464,1.464,0,0,0,.734,2.75c.7.089,1.087.422,1.092.929,0,.472-1.314.433-1.763-.052-.355-.384-.84-.174-.84.363,0,.449,1.609,1.144,2.084.9a3.321,3.321,0,0,1,.686-.189c.269-.049.489-.141.489-.206a1.383,1.383,0,0,1,.326-.469c.746-.8-.168-2.4-1.375-2.4a.968.968,0,0,1-.829-.351l-.325-.35.385-.234c.373-.227.406-.226,1.058.031.762.3,1.078.174.935-.373-.188-.72-1.855-.94-2.656-.349m-72.124-.025c.036.1.252.174.477.174s.434.069.462.154a1.188,1.188,0,0,0,.57.57c.388.129.208,2.506-.218,2.872-.576.5-.793.025-.242-.526a2.094,2.094,0,0,0-.009-1.717.788.788,0,0,1-.228-.426.658.658,0,0,0-.29-.414,3.133,3.133,0,0,1-.489-.372.875.875,0,0,0-.508-.228c-.148,0-.232-.059-.188-.13a.445.445,0,0,1,.661.043m16.868-.043c.143.093.045.127-.366.128-.341,0-.53-.049-.481-.128.1-.165.591-.165.847,0M88.447,161a2.674,2.674,0,0,1,.788,1.737c-.009.605-.493,1.7-.768,1.745-.3.046-.352-.1-.121-.335.58-.58.145-2.745-.609-3.032a.769.769,0,0,1-.4-.323.4.4,0,0,0-.355-.2c-.213,0-.236-.029-.1-.118.226-.143,1.027.124,1.567.524m8.286-.534a.423.423,0,0,0,.326.13c.6,0,.877,1.257.4,1.843-.333.411-.512.2-.232-.27.322-.545.273-.819-.2-1.142-.664-.45-.862-.488-1.112-.218a2.605,2.605,0,0,1-.6.439,1.514,1.514,0,0,0-.788,1.422,7.721,7.721,0,0,1,.145.859c.1.864.666,1.252,1.774,1.208.848-.034,1.194.142.673.342a2.717,2.717,0,0,1-2.61-.515l-.637-.594.006-1.02.006-1.02.574-.6a2.021,2.021,0,0,1,.841-.6,1.521,1.521,0,0,0,.593-.183c.4-.22.739-.251.847-.076m29.463.061a1,1,0,0,0,.471.2c.208,0,.629.657.629.976a.791.791,0,0,1-.782.845c-.453-.006-.454-.007-.163-.21.392-.274.418-1.077.037-1.177a.523.523,0,0,1-.332-.307c-.045-.142-.153-.21-.265-.167-.256.1-.616-.052-.515-.215.119-.193.63-.16.921.06m8.008-.061c0,.163-.138.163-.391,0-.158-.1-.139-.127.1-.128.161,0,.293.057.293.128m-75.969.293a1.256,1.256,0,0,0,.288.381c.091.059.081.312-.029.782a21.82,21.82,0,0,0,.042,4.9c.1.277.072.293-.5.293-.61,0-.722-.088-.453-.358a20.963,20.963,0,0,0-.09-5.544c-.23-.129-.244-.377-.033-.588a.465.465,0,0,1,.771.137m9.519.1c.1.288.219.391.449.391.372,0,.38.038.094.475a4.53,4.53,0,0,0-.117,2.85c.283.433.171.585-.431.585-.622,0-.684-.067-.458-.5.4-.76.137-3.542-.331-3.542s.008-.482.619-.641a1.13,1.13,0,0,1,.176.381m1.935-.065c0,.285-.056.326-.456.326-.533,0-.636-.327-.163-.517s.619-.152.619.192m15.162-.2c.348.133.794.872.6.992a20.393,20.393,0,0,0,.075,5.224c.349.134.063.308-.507.308-.688,0-.788-.09-.531-.48.164-.25.2-.757.186-2.781l-.014-2.476-.316-.165c-.3-.155-.3-.183-.113-.455.234-.334.2-.326.622-.168m18.732.352c.064.169.2.308.312.308.153,0,.175.092.1.424a16.935,16.935,0,0,0-.029,3.226c.051.154-.058.2-.521.2s-.575-.043-.534-.2c.27-1.012.209-3.649-.087-3.748-.227-.076-.2-.3.062-.492.288-.211.549-.1.7.282m1.9-.27c.115.3-.127.472-.6.424-.4-.041-.4-.051-.2-.335.239-.338.685-.388.8-.089m12.425,1.824c0,1.708.024,1.906.261,2.143.4.4.316.521-.383.521-.72,0-.934-.168-.534-.418s.409-3.429.005-3.557c-.37-.118-.323-.383.1-.54.543-.2.554-.168.554,1.851M78.338,160.94a2.282,2.282,0,0,1,.208,3.573l-.621.645h-.913a5.562,5.562,0,0,1-1.119-.079c-.438-.168-.019-.312.905-.312h.967l.525-.663a1.79,1.79,0,0,0,.264-2.239,1.245,1.245,0,0,1-.261-.474.169.169,0,0,0-.186-.142c-.314,0-.649-.408-.443-.538.235-.149.214-.156.675.231m46.777-.267c.124.124-.046.443-.237.443-.388,0-.855.575-.848,1.043,0,.251.011.787.015,1.191.011,1.058.329,1.33,1.629,1.4,1.523.077,1.235.411-.355.411a2.109,2.109,0,0,1-2.195-2.109c0-.543.415-1.671.614-1.671.089,0,.255-.143.37-.318a.93.93,0,0,1,.492-.373c.156-.03.318-.063.359-.073a.2.2,0,0,1,.154.06m-65.795.244c-.328.249-.579.25-.579,0,0-.133.133-.2.416-.2.394,0,.4.01.163.191m16.886,0c0,.1-.116.224-.257.268-.831.264-1.151,2.346-.459,2.987.388.36.408.468.085.468-.274,0-.5-.241-.91-.952-.282-.495-.389-1.394-.166-1.394.065,0,.178-.174.253-.388.267-.765,1.454-1.573,1.454-.99m10.166.009a.523.523,0,0,1-.277.2c-.063,0-.114-.088-.114-.2s.118-.2.277-.2c.231,0,.25.032.114.2m48.722.111c.033.172-.021.225-.193.193a.388.388,0,0,1-.284-.284c-.033-.172.021-.225.193-.193a.388.388,0,0,1,.284.284m-74.306.3c.66.177.692,2.7.038,3.048a3.826,3.826,0,0,1-1.158.13h-.915l-.084-.447a10.161,10.161,0,0,1,.1-2.352l.357-.241a2.488,2.488,0,0,1,1.659-.137m17.168.124a.726.726,0,0,1,.2.43.609.609,0,0,0,.15.375c.6.6-.481,2.249-1.479,2.249-1.136,0-2.041-2-1.167-2.582a.6.6,0,0,0,.282-.357c0-.351,1.679-.446,2.011-.115m19.028,0c.222.222.076.708-.213.708a.728.728,0,0,0-.362.194c-.4.364-1.826.275-1.46-.092a.62.62,0,0,0,.154-.381c0-.555,1.428-.881,1.88-.428m29.106-.123c.681.182-.008,1.221-.81,1.221a2.461,2.461,0,0,0-.613.064c-.413.152-.569-.151-.332-.647a1.367,1.367,0,0,1,1.755-.638m6.7.552a1.051,1.051,0,0,0,.782.371,1.893,1.893,0,0,1,.827.3,1.88,1.88,0,0,0,.456.295c.67.241.7,1.642.033,1.659-.2.005-.215-.209-.024-.327.094-.058.079-.156-.045-.3a1.706,1.706,0,0,1-.265-.443c-.052-.149-.217-.228-.472-.228-.85,0-1.833-.789-1.833-1.472,0-.368.159-.568.256-.322a3,3,0,0,0,.285.473m-36.2,1.047c.112.181-.276.276-.742.181-.413-.084-.415-.088-.1-.179.472-.134.757-.135.839,0m29.464.015c.117.189-.268.3-.678.2-.276-.069-.311-.114-.163-.208.253-.16.74-.155.841.008m-64.971,1.945c0,.166-.345.251-1.043.256-.958.007-1.222-.167-.391-.257,1.171-.127,1.434-.127,1.434,0M88,164.881c.464.068-.418.269-1.14.259-.782-.01-1-.079-.825-.254a13.135,13.135,0,0,1,1.966,0m46.464.1a3.61,3.61,0,0,1-1.918-.036c-.035-.1.245-.137.934-.112a2.31,2.31,0,0,1,.984.148" transform="translate(-30.723 -131.021)" fill="#2d43ba" fill-rule="evenodd"/>
  <path id="path4" d="M67.811,127.427c-.968.094-3.608.233-5.866.307s-4.4.194-4.757.264-2.439.189-4.626.264-4.708.193-5.6.263-2.873.167-4.393.215l-2.764.087-.559.519-.559.519.635-.426c.626-.42.645-.424,1.343-.267a8.647,8.647,0,0,0,2.558.014c1.018-.079,3.023-.2,4.457-.275l4.953-.249c1.29-.065,3.93-.157,5.865-.2s3.754-.137,4.04-.2,1.577-.176,2.867-.255,3.237-.229,4.327-.331c2.146-.2,2.258-.188,2.841.351.215.2.714.626,1.108.951l1.108.913c.215.178.88.685,1.478,1.127s1.218.928,1.379,1.08.463.407.673.566c1.257.961,2.183,1.719,2.987,2.445a21.872,21.872,0,0,0,2.411,1.918,10.012,10.012,0,0,1,.822.663l.5.443-1.279.079a9.55,9.55,0,0,0-2,.326,9.189,9.189,0,0,1-2.2.324,6.091,6.091,0,0,0-1.623.215,1.823,1.823,0,0,1-.84.138,8.584,8.584,0,0,0-1.7.254,14.53,14.53,0,0,1-1.912.334c-.935.081-2.235.279-4.3.653-.645.117-1.73.263-2.411.324a16.857,16.857,0,0,0-2.269.381,8.56,8.56,0,0,1-1.629.273,5.6,5.6,0,0,0-1.12.136,17,17,0,0,1-1.935.249,4.791,4.791,0,0,0-1.629.3,21.521,21.521,0,0,1-4.015.488,2.781,2.781,0,0,1-.755-.589,3.179,3.179,0,0,0-.72-.586c-.064,0-.153-.114-.2-.254a.56.56,0,0,0-.3-.328,1.716,1.716,0,0,1-.547-.524c-.179-.248-.4-.452-.484-.454a.43.43,0,0,1-.282-.236,19.632,19.632,0,0,0-2.555-2.57c-.5-.43-1.786-1.643-2.864-2.695s-2.443-2.381-3.034-2.952c-1.1-1.066-1.765-1.456-1.954-1.148a1.81,1.81,0,0,1-.422.383c-.177.121-.264.22-.192.22a1.133,1.133,0,0,0,.421-.2c.474-.332.675-.176,3.777,2.918,1.63,1.626,3.2,3.131,3.484,3.345s1.694,1.565,3.128,3,2.753,2.706,2.931,2.819c.256.162.292.242.173.385s.031.174,1,.139c.9-.033,1.14-.08,1.088-.217-.08-.21.8-.4,2.366-.514a17.519,17.519,0,0,0,1.955-.268,9.555,9.555,0,0,1,1.366-.2,7.393,7.393,0,0,0,1.238-.195,13.941,13.941,0,0,1,1.759-.266,21.531,21.531,0,0,0,2.15-.32c1.452-.3,2.549-.47,4.562-.71a17.489,17.489,0,0,0,2.216-.388A5.445,5.445,0,0,1,74.8,140a11.025,11.025,0,0,0,1.644-.187c.535-.1,1.4-.227,1.934-.277a6.547,6.547,0,0,0,1.372-.258,6.677,6.677,0,0,1,1.434-.25c2.717-.221,4.532-.727,4.089-1.14a.836.836,0,0,1-.263-.369,2.62,2.62,0,0,0-.749-.612c-.412-.268-1.365-1.011-2.118-1.65-2.349-2-2.417-2.051-3.389-2.781A19.269,19.269,0,0,1,77,131.02a4.052,4.052,0,0,0-.8-.522,2.164,2.164,0,0,1-.587-.372c-.024-.056-.66-.627-1.413-1.269s-1.473-1.273-1.6-1.4c-.286-.286-2.038-.3-4.785-.029m-34.253,10.1a1.085,1.085,0,0,0-.285.348c0,.046.147-.055.326-.223.306-.287.382-.391.285-.391a1.848,1.848,0,0,0-.326.266m-3.065.733c-.118.118-.11.535.011.61.054.033.1-.11.1-.318a3.377,3.377,0,0,0-.011-.379.6.6,0,0,0-.1.087m14.8,5.648c0,.251.027.354.06.228a1.076,1.076,0,0,0,0-.456c-.033-.125-.06-.023-.06.228m-6.373.277c.632.368,2.041.338,2.041-.043,0-.083-.1-.06-.228.057-.2.175-.311.179-.88.026-.842-.226-1.287-.245-.934-.039m4.489.34a6.511,6.511,0,0,0,1.043,0c.267-.028.016-.051-.557-.05s-.792.023-.485.051m-4.694.449c-.148.249-.167,1.3-.107,5.95.08,6.241.048,6.032.912,6.008.231-.007.272-.036.134-.1-.722-.32-.737-.366-.737-2.239,0-.968-.013-3.481-.028-5.586s0-3.855.035-3.889a8.91,8.91,0,0,1,2.624.091c.653.136.766.127.989-.075a1.284,1.284,0,0,1,.87-.223c.568,0,.581,0,.162-.081-1.4-.264-4.669-.168-4.853.142m6.6,5.516c0,1.792.019,2.543.041,1.669s.022-2.34,0-3.258-.041-.2-.041,1.589m92.236-1.232a1.033,1.033,0,0,1-.115.457c-.054.068-.019.058.077-.022a.531.531,0,0,0,.115-.457c-.058-.307-.059-.307-.077.023m-73.832,3.874c-.034.055.164.1.441.1s.434-.044.348-.1c-.2-.129-.709-.13-.789,0m-23.674,3.9c.108.04.313.126.456.192.256.118.257.117.008-.083a.849.849,0,0,0-.456-.192c-.176.009-.177.02-.008.083m94.813.564c-.046.075-.211.1-.366.059-.259-.07-.263-.065-.04.074.192.12.285.108.452-.059.115-.115.171-.21.124-.21a.271.271,0,0,0-.169.136m-75.654,4.06c0,.2.254.224.593.048l.36-.187-.477.025c-.262.014-.477.065-.477.115m27.589-.01a.583.583,0,0,1-.43.063c-.11-.042-.16-.019-.115.054.113.183.365.159.658-.063s.229-.254-.113-.054" transform="translate(-30.408 -127.233)" fill="#2d43ba" fill-rule="evenodd"/>
</svg>
