<svg xmlns="http://www.w3.org/2000/svg" width="85.148" height="46.492" viewBox="0 0 85.148 46.492">
  <g id="client3" transform="translate(-8.76 -14.32)">
    <path id="path0" d="M59.958,15.9c-.306.27-.586.512-.622.537-.2.144-1.353,1.165-1.59,1.415a1.632,1.632,0,0,1-.406.334,3.177,3.177,0,0,0-.581.5,2.224,2.224,0,0,1-.555.455.817.817,0,0,0-.329.268c-.367.429-.735.055-.407-.413a2.263,2.263,0,0,0,.061-1.189l-.042-.3H54a5.887,5.887,0,0,0-1.564.079,2.406,2.406,0,0,0,.021,1.265,7.709,7.709,0,0,1,.1,1.849v1.587l-.213.247c-.293.339-.515.544-.59.544a2.439,2.439,0,0,0-.465.388,6.551,6.551,0,0,1-.647.554,8.532,8.532,0,0,0-.807.725,3.675,3.675,0,0,1-.642.56c-.358,0-.3.5.074.692a6.437,6.437,0,0,1,1,.894c.361.356.6.447.778.289a.4.4,0,0,1,.21-.106c.051,0,.152-.088.224-.2a2.483,2.483,0,0,1,.454-.441c.178-.135.458-.374.623-.53a4.812,4.812,0,0,1,.463-.394,4.742,4.742,0,0,0,.714-.605,3.356,3.356,0,0,1,.413-.35.594.594,0,0,0,.216-.238A.985.985,0,0,1,54.7,24a5.336,5.336,0,0,0,.722-.593,2.2,2.2,0,0,1,.492-.4.4.4,0,0,0,.2-.147c.536-.642.7-.792,1.053-.963a1.158,1.158,0,0,0,.483-.441,2.029,2.029,0,0,1,.728-.545c.032,0,.124-.117.2-.26a1.754,1.754,0,0,1,.512-.5,5.981,5.981,0,0,0,.747-.623c.7-.7.813-.694,1.664.1.1.094.36.311.576.482a4.492,4.492,0,0,1,.468.409,2.416,2.416,0,0,0,.678.626,4.647,4.647,0,0,1,.671.565,1.726,1.726,0,0,0,.468.382c.085,0,.216.138.668.7a.549.549,0,0,0,.287.213.3.3,0,0,1,.2.1.272.272,0,0,0,.174.1c.217,0,.211.287-.009.491a1.167,1.167,0,0,0-.252.311c-.022.063-.07.115-.108.115-.1,0-.08.367.03.457a9.728,9.728,0,0,1,0,2.885c-.063.053-.1.2-.1.432,0,.194-.029.353-.065.353s-.066.1-.066.23a.438.438,0,0,1-.131.343c-.1.087-.122.161-.091.327a.5.5,0,0,1-.055.362,1.289,1.289,0,0,0-.14.328c-.024.1-.073.18-.109.18s-.064.042-.064.094a.306.306,0,0,1-.086.18,2.31,2.31,0,0,0-.5.79,11.384,11.384,0,0,1-2.561,2.451c-.109-.022-.191-.01-.191.027s-.081.1-.18.146a1.214,1.214,0,0,0-.311.214,1.219,1.219,0,0,1-.6.361.506.506,0,0,0-.244.1,1.013,1.013,0,0,1-.513.1.766.766,0,0,0-.483.1.407.407,0,0,1-.252.1,1.5,1.5,0,0,0-.7.326,1.338,1.338,0,0,0,.011,1.181,1.745,1.745,0,0,0,1.281.035c.146-.11.46-.132.52-.035.022.036-.042.1-.144.139l-.315.126a2.4,2.4,0,0,1-.422.093,1.09,1.09,0,0,0-.361.1,6.889,6.889,0,0,1-1.313.453,1.714,1.714,0,0,0-.405.126.872.872,0,0,1-.348.078.844.844,0,0,0-.326.064,2.452,2.452,0,0,1-.6.1,5.686,5.686,0,0,0-.809.123,12.75,12.75,0,0,1-1.647.3c-.278,0-.682.229-.51.284a14.86,14.86,0,0,0,3.958.049,14.11,14.11,0,0,0,3.145-.443c.234-.057.558-.124.721-.149a1.714,1.714,0,0,0,.438-.124.824.824,0,0,1,.328-.079,1.694,1.694,0,0,0,.446-.1,1.756,1.756,0,0,1,.465-.1,2.751,2.751,0,0,0,.754-.283c.3-.154.662-.322.8-.374a1,1,0,0,0,.319-.179.374.374,0,0,1,.251-.085.386.386,0,0,0,.262-.1.262.262,0,0,1,.146-.1c.035,0,.118-.069.184-.152a3.769,3.769,0,0,1,.6-.473A7.427,7.427,0,0,0,67.055,33.8a1.325,1.325,0,0,1,.33-.408,1.8,1.8,0,0,0,.5-.8,2.206,2.206,0,0,1,.162-.386,2.047,2.047,0,0,0,.163-.4.273.273,0,0,1,.1-.156.3.3,0,0,0,.1-.2.344.344,0,0,1,.082-.2,2.878,2.878,0,0,0,.312-1.123,2.651,2.651,0,0,1,.107-.519,2.883,2.883,0,0,0,.1-.569,6.763,6.763,0,0,1,.284-1.747.945.945,0,0,0,.113-.357c.026-.267.133-.313.312-.134a.55.55,0,0,0,.177.135.662.662,0,0,1,.194.164c.264.285.545.18,1.1-.412a3.721,3.721,0,0,1,.64-.553c.628-.353.6-.538-.21-1.233a7.92,7.92,0,0,1-.6-.555,2.7,2.7,0,0,0-.426-.352,2.82,2.82,0,0,1-.515-.468,1.684,1.684,0,0,0-.465-.385,2.349,2.349,0,0,1-.809-.725,1.654,1.654,0,0,0-.437-.37,2.459,2.459,0,0,1-.549-.488,1.331,1.331,0,0,0-.453-.388,2.289,2.289,0,0,1-.786-.7,2.2,2.2,0,0,0-.391-.35,7.072,7.072,0,0,1-.662-.567,3.264,3.264,0,0,0-.478-.409,5.206,5.206,0,0,1-.821-.706,2.6,2.6,0,0,0-.313-.263c-.048-.027-.367-.308-.709-.624s-.726-.647-.853-.733a5.765,5.765,0,0,1-.6-.521,1.856,1.856,0,0,0-.447-.364,1.045,1.045,0,0,1-.334-.262c-.337-.345-.365-.338-1.016.236m-43.61,1.236a.815.815,0,0,1-.4.1,1.259,1.259,0,0,0-.459.095c-.1.051-.3.144-.447.206s-.316.141-.381.173a2.934,2.934,0,0,0-.671.387.338.338,0,0,1-.225.059,4.237,4.237,0,0,0-1.442,1.362.31.31,0,0,1-.1.211.263.263,0,0,0-.1.156.641.641,0,0,1-.164.251.6.6,0,0,0-.164.3.535.535,0,0,1-.088.249,1.173,1.173,0,0,0-.136.325.481.481,0,0,1-.123.242,8.7,8.7,0,0,0,.042,2.637c.062.128.16.343.219.479s.132.3.162.361a.544.544,0,0,1,.056.176.9.9,0,0,0,.2.278.676.676,0,0,1,.2.4c0,.1.028.182.061.182s.08.059.1.131a.192.192,0,0,0,.166.131,1.1,1.1,0,0,1,.591.575,1.554,1.554,0,0,0,.766.538.632.632,0,0,1,.288.2.652.652,0,0,0,.278.2.271.271,0,0,1,.171.1.263.263,0,0,0,.156.1.639.639,0,0,1,.251.164.611.611,0,0,0,.331.164.547.547,0,0,1,.282.1.538.538,0,0,0,.267.1.331.331,0,0,1,.221.1.268.268,0,0,0,.164.1.267.267,0,0,1,.164.1.338.338,0,0,0,.23.1.207.207,0,0,1,.187.1.183.183,0,0,0,.163.1.307.307,0,0,1,.207.1.347.347,0,0,0,.237.1c.1,0,.156.038.156.106,0,.087.049.1.28.064a.507.507,0,0,1,.409.056.556.556,0,0,0,.261.1,1.173,1.173,0,0,1,.393.165,4.521,4.521,0,0,0,.41.225c.081.036.147.095.147.132s.068.067.151.067a.542.542,0,0,1,.279.1.539.539,0,0,0,.267.1.331.331,0,0,1,.221.1.3.3,0,0,0,.2.1c.068,0,.123.024.123.052a1,1,0,0,0,.3.244,1.571,1.571,0,0,1,.406.357,4.049,4.049,0,0,0,.287.381.8.8,0,0,1,.183.3.836.836,0,0,0,.095.271,3.04,3.04,0,0,1,0,1.515.476.476,0,0,0-.093.227.294.294,0,0,1-.1.188.307.307,0,0,0-.1.207.182.182,0,0,1-.1.163c-.054.021-.1.069-.1.106a2.011,2.011,0,0,1-.525.639,1.548,1.548,0,0,0-.349.2,1.134,1.134,0,0,1-.454.2.355.355,0,0,0-.244.1.38.38,0,0,1-.254.1.59.59,0,0,0-.3.1.642.642,0,0,1-.331.1.479.479,0,0,0-.285.082,2.813,2.813,0,0,1-1.045.082,4.148,4.148,0,0,1-1.75-.242,2.654,2.654,0,0,0-.407-.1.543.543,0,0,1-.287-.123.379.379,0,0,0-.257-.091.385.385,0,0,1-.262-.1.326.326,0,0,0-.223-.1,1.186,1.186,0,0,1-.5-.361,1.705,1.705,0,0,0-.437-.361,2.239,2.239,0,0,1-.745-.773.535.535,0,0,0-.2-.272.519.519,0,0,1-.194-.271.29.29,0,0,0-.1-.191.3.3,0,0,1-.1-.2c0-.068-.027-.123-.06-.123s-.08-.088-.1-.2a.477.477,0,0,0-.1-.233.575.575,0,0,1-.061-.321,1.654,1.654,0,0,0-.13-.569,1.6,1.6,0,0,1-.131-.534v-.249l-.432.019L11,30.567l.009,1.206c0,.663.023,1.23.041,1.26a9.809,9.809,0,0,1,.138,2.333l.039,1.851h.612l.143-.345a1.892,1.892,0,0,0,.143-.56c0-.262.166-.6.294-.6a2.36,2.36,0,0,1,.775.5.257.257,0,0,0,.2.086.54.54,0,0,1,.276.1.525.525,0,0,0,.26.1.752.752,0,0,1,.348.2.741.741,0,0,0,.339.2.21.21,0,0,1,.159.058.563.563,0,0,0,.266.1c.126.024.23.067.23.1a2.691,2.691,0,0,0,.737.092,6.419,6.419,0,0,1,.966.108,5.485,5.485,0,0,0,1.7,0,6.149,6.149,0,0,1,.95-.1,4,4,0,0,0,.927-.128,1.055,1.055,0,0,1,.307-.092A.181.181,0,0,0,21,36.956a.267.267,0,0,1,.2-.065.268.268,0,0,0,.193-.06,1.344,1.344,0,0,1,.348-.2c.171-.077.394-.183.5-.235A.881.881,0,0,1,22.5,36.3a3.472,3.472,0,0,0,1.007-.686c.149-.145.421-.4.606-.557a1.055,1.055,0,0,0,.336-.417.481.481,0,0,1,.135-.265,5.232,5.232,0,0,0,.805-1.645,1.045,1.045,0,0,1,.109-.39,4.721,4.721,0,0,0-.2-2.3,1.5,1.5,0,0,1-.12-.328,1.382,1.382,0,0,0-.242-.459,3.108,3.108,0,0,1-.342-.546A5.206,5.206,0,0,0,23.114,27.2a4.154,4.154,0,0,1-.645-.474,1.768,1.768,0,0,0-.424-.316.268.268,0,0,1-.156-.1.334.334,0,0,0-.229-.1.335.335,0,0,1-.229-.1.292.292,0,0,0-.195-.1,2.83,2.83,0,0,1-.854-.424.807.807,0,0,0-.246-.13c-.081-.025-.148-.072-.148-.106s-.127-.061-.282-.061a.834.834,0,0,1-.409-.1.5.5,0,0,0-.241-.1,2.28,2.28,0,0,1-.524-.207,9.073,9.073,0,0,0-1.022-.455,1.066,1.066,0,0,1-.314-.176.741.741,0,0,0-.391-.107.673.673,0,0,1-.341-.074,1.2,1.2,0,0,0-.405-.265,1.35,1.35,0,0,1-.2-.1,2.488,2.488,0,0,0-.229-.121,1.81,1.81,0,0,1-.348-.262,1.1,1.1,0,0,0-.262-.2c-.183,0-.666-.625-.669-.866a.558.558,0,0,0-.1-.277,1.7,1.7,0,0,1,0-1.128,1.351,1.351,0,0,0,.1-.423c0-.139.1-.288.377-.579.207-.216.445-.481.529-.591s.191-.2.238-.2a.861.861,0,0,0,.274-.1,1.025,1.025,0,0,1,.4-.1c.114,0,.219-.035.233-.076s.157-.074.347-.071a.966.966,0,0,0,.453-.088,2.032,2.032,0,0,1,1.288.013c.065.078.156.1.355.069a.586.586,0,0,1,.452.084.582.582,0,0,0,.427.088.425.425,0,0,1,.337.056,1.456,1.456,0,0,0,.274.182c.1.051.18.117.18.147a.851.851,0,0,0,.278.228,1.394,1.394,0,0,1,.331.263.215.215,0,0,0,.169.089.605.605,0,0,1,.4.383,1.7,1.7,0,0,0,.444.673,1.7,1.7,0,0,1,.473.915.374.374,0,0,0,.1.256.38.38,0,0,1,.1.254c0,.326.2.467.647.467h.4v-.419c0-.231-.029-.71-.064-1.065s-.08-1.294-.1-2.087c-.046-1.92-.055-1.96-.411-1.986-.277-.02-.278-.02-.278.209a.542.542,0,0,1-.1.327.383.383,0,0,0-.1.236.2.2,0,0,1-.1.175.242.242,0,0,0-.1.217c0,.277-.052.277-.457,0a1.573,1.573,0,0,0-.51-.258.19.19,0,0,1-.17-.1.18.18,0,0,0-.16-.1,3.334,3.334,0,0,1-.985-.47c-.012-.03-.1-.054-.2-.054a.943.943,0,0,1-.362-.1.969.969,0,0,0-.361-.1.836.836,0,0,1-.337-.1,9.022,9.022,0,0,0-2.723,0M26.915,18.4a9.414,9.414,0,0,1-.109,1.348,28.369,28.369,0,0,0-.04,3.256A1.859,1.859,0,0,0,27.208,23l.415-.033.043-.655a3.629,3.629,0,0,1,1.216-2.9,1.348,1.348,0,0,1,.459-.348.522.522,0,0,0,.249-.1.455.455,0,0,1,.372-.059.523.523,0,0,0,.411-.071,22.463,22.463,0,0,1,4.25-.036.3.3,0,0,0,.185.072.441.441,0,0,1,.251.176l.138.176-.019,7.517c-.017,6.851-.028,7.527-.126,7.638a.391.391,0,0,0-.075.332c.038.247-.191.673-.364.676a.657.657,0,0,0-.3.2.671.671,0,0,1-.279.195c-.048,0-.087.029-.087.064s-.081.082-.18.1a2.354,2.354,0,0,0-.311.092,14.784,14.784,0,0,1-1.54.282c-.156.015-.164.035-.164.441v.426l5.3.017a48.841,48.841,0,0,0,5.356-.066,1.427,1.427,0,0,0,0-.74,4.736,4.736,0,0,0-1.343-.264.8.8,0,0,1-.348-.1.261.261,0,0,0-.187-.058,4.349,4.349,0,0,1-1.158-.735c-.4-.32-.4-.407-.43-8.629-.026-8.121-.041-7.738.3-7.738a.286.286,0,0,0,.176-.069,27.006,27.006,0,0,1,4.261.013,1.016,1.016,0,0,0,.5.088c.257,0,.4.029.421.082a.149.149,0,0,0,.138.082.59.59,0,0,1,.288.18A4.607,4.607,0,0,1,46,20.377a.3.3,0,0,0,.1.2.378.378,0,0,1,.1.254.593.593,0,0,0,.1.3,1.53,1.53,0,0,1,.1.754,2.12,2.12,0,0,0,.121.888l.119.262.4-.022c.307-.017.4-.047.427-.133.029-.11-.048-2.727-.135-4.628l-.045-.983-10.162-.017-10.162-.017L26.915,18.4m47.21-.071.019.573.43-.022a2.361,2.361,0,0,1,1.938,1.381c.021.063.064.115.1.115s.113.111.183.246a1.76,1.76,0,0,0,.3.4.517.517,0,0,1,.17.271.291.291,0,0,0,.1.193.341.341,0,0,1,.1.234.259.259,0,0,0,.07.195.492.492,0,0,1,.132.184,3.147,3.147,0,0,0,.19.338c.07.108.176.291.235.406a1.141,1.141,0,0,0,.2.287.428.428,0,0,1,.094.282c0,.148.082.295.294.532a1.313,1.313,0,0,1,.293.435.169.169,0,0,0,.1.146.19.19,0,0,1,.1.171c0,.073.023.133.051.133.078,0,.305.455.295.591a.266.266,0,0,0,.085.2.266.266,0,0,1,.094.172.548.548,0,0,0,.2.26.567.567,0,0,1,.2.25.267.267,0,0,0,.1.166.311.311,0,0,1,.1.209.371.371,0,0,0,.1.226.365.365,0,0,1,.1.221.21.21,0,0,0,.059.159,1.333,1.333,0,0,1,.2.314,3.981,3.981,0,0,0,.555.788.431.431,0,0,1,.1.238.3.3,0,0,0,.1.2.307.307,0,0,1,.1.207,1.172,1.172,0,0,0,.31.568.3.3,0,0,1,.083.171.554.554,0,0,0,.147.244c.385.419.388.437.365,2.618a9.113,9.113,0,0,1-.106,2.107.633.633,0,0,0-.07.359.7.7,0,0,1-.1.414.608.608,0,0,0-.11.272c0,.247-.554.709-.851.709a.617.617,0,0,0-.371.1c-.071.071-.244.1-.618.1h-.52v1.115l4.538-.017,4.537-.017V36.726l-.551-.033c-.358-.021-.561-.062-.579-.115s-.138-.082-.288-.082a1.164,1.164,0,0,1-.976-1.139,3.575,3.575,0,0,0-.1-.6,26.446,26.446,0,0,1,0-4.714.506.506,0,0,0,.1-.252,2.75,2.75,0,0,1,.361-.672,5.542,5.542,0,0,0,.361-.59,1.388,1.388,0,0,1,.2-.291,1.152,1.152,0,0,0,.2-.309,2.651,2.651,0,0,1,.471-.862,1.867,1.867,0,0,0,.253-.36c.034-.077.087-.185.118-.239s.156-.3.279-.547a4.5,4.5,0,0,1,.419-.688c.358-.437.491-.658.491-.816a.671.671,0,0,1,.165-.347,3.294,3.294,0,0,0,.335-.518,2.757,2.757,0,0,1,.294-.463.518.518,0,0,0,.124-.184,3.446,3.446,0,0,1,.35-.741c.042-.051.126-.143.187-.2a7.441,7.441,0,0,0,.726-1.061,5.968,5.968,0,0,1,.645-.83,2.624,2.624,0,0,0,.385-.461,2.087,2.087,0,0,1,.757-.544.36.36,0,0,0,.208-.1c.074-.074.2-.1.437-.083a1.1,1.1,0,0,0,.416-.031,1.772,1.772,0,0,0,.041-.945l-.039-.147h-6.28l.019.571.019.572.682,0c.486,0,.69.025.71.084a.123.123,0,0,0,.1.082c.2,0,.414.777.24.884a.252.252,0,0,0-.066.188.536.536,0,0,1-.1.275.6.6,0,0,0-.1.306,2.074,2.074,0,0,1-.4.87c-.069.108-.146.241-.171.295a.422.422,0,0,1-.089.131,2.593,2.593,0,0,0-.523.876.342.342,0,0,1-.092.233,1.12,1.12,0,0,0-.2.3c-.059.124-.136.226-.17.226s-.063.053-.063.118a.515.515,0,0,1-.194.279.531.531,0,0,0-.2.3,2.324,2.324,0,0,1-.492.937,3.817,3.817,0,0,0-.624.949.267.267,0,0,1-.1.165.276.276,0,0,0-.1.177,3.059,3.059,0,0,1-.589.9.432.432,0,0,0-.132.276c0,.2-.253.544-.4.544-.235,0-.974-1.056-.974-1.392a2.028,2.028,0,0,0-.4-.753,3.1,3.1,0,0,1-.342-.643c-.1-.251-.211-.5-.244-.554s-.134-.25-.226-.435a1.794,1.794,0,0,0-.272-.424,3.944,3.944,0,0,1-.547-1.124.184.184,0,0,0-.062-.143,1.42,1.42,0,0,1-.213-.348,2.506,2.506,0,0,0-.3-.47.908.908,0,0,1-.185-.343.435.435,0,0,0-.1-.22.256.256,0,0,1-.06-.187A.424.424,0,0,0,81.253,21a.4.4,0,0,1-.131-.178,2.513,2.513,0,0,0-.172-.422c-.465-.983-.011-1.588,1.132-1.509.641.045.613.1.552-1.02-.006-.108-.255-.115-4.268-.115H74.107l.019.573M62.606,24.317c-.114.126-.125.252-.125,1.438a4.378,4.378,0,0,1-.082,1.382.491.491,0,0,0-.082.29.433.433,0,0,1-.1.29.383.383,0,0,0-.1.262.386.386,0,0,1-.1.262.441.441,0,0,0-.1.295.442.442,0,0,1-.1.295.287.287,0,0,0-.1.19,2.379,2.379,0,0,1-.491.6,2.276,2.276,0,0,0-.491.6.112.112,0,0,1-.12.116,1.793,1.793,0,0,0-.543.413,1.992,1.992,0,0,1-1.26.7c-.156,0-.257.035-.281.1s-.13.1-.326.1c-.159,0-.288.028-.288.061s-.065.082-.145.107a2.326,2.326,0,0,0-.772.72c0,.462,1.183,1.006,1.479.679a.41.41,0,0,1,.262-.126c.082,0,.159-.031.171-.07s.12-.072.239-.076a.646.646,0,0,0,.415-.193.725.725,0,0,1,.283-.187.268.268,0,0,0,.165-.1.3.3,0,0,1,.2-.1.3.3,0,0,0,.2-.1.27.27,0,0,1,.168-.1.615.615,0,0,0,.264-.164.626.626,0,0,1,.257-.164,7.973,7.973,0,0,0,1.145-1.09,3.458,3.458,0,0,1,.295-.417,1.753,1.753,0,0,0,.295-.479.159.159,0,0,1,.1-.134.181.181,0,0,0,.1-.161.6.6,0,0,1,.164-.3.6.6,0,0,0,.164-.3.3.3,0,0,1,.1-.2.4.4,0,0,0,.1-.272c0-.109.042-.207.1-.228.075-.029.1-.153.1-.533,0-.365.028-.526.106-.613a4.17,4.17,0,0,0,0-1.964,1.051,1.051,0,0,1-.107-.565v-.411h-.514c-.439,0-.532.02-.639.138m-2.708.437L59.673,25l0,.847c0,.615-.027.854-.087.874s-.082.108-.082.206a.553.553,0,0,1-.2.367.692.692,0,0,0-.2.264.7.7,0,0,1-.195.266.651.651,0,0,0-.2.306.115.115,0,0,1-.121.115.621.621,0,0,0-.307.2.621.621,0,0,1-.309.2.179.179,0,0,0-.159.1.208.208,0,0,1-.187.1.208.208,0,0,0-.188.1c-.023.059-.124.1-.253.1-.47,0-.725.751-.393,1.148a1.2,1.2,0,0,0,1.009.044.6.6,0,0,1,.336-.08.746.746,0,0,0,.5-.2,1.234,1.234,0,0,1,.3-.2.6.6,0,0,0,.211-.164.51.51,0,0,1,.248-.163,1.89,1.89,0,0,0,.613-.555,2.568,2.568,0,0,1,.262-.388,1.392,1.392,0,0,0,.263-.472.88.88,0,0,1,.1-.313.912.912,0,0,0,.1-.346.217.217,0,0,1,.1-.2,6.561,6.561,0,0,0,.044-2.055,1.054,1.054,0,0,1-.266-.295c-.263-.366-.42-.376-.723-.047m-3.658.666a.411.411,0,0,0-.148.26c0,.075-.029.137-.065.137-.221,0-.062.72.223,1.013.5.511,1.349.373,1.349-.22,0-.124.04-.223.1-.245a.228.228,0,0,0,0-.375.251.251,0,0,1-.1-.22c-.006-.458-.94-.7-1.357-.35m-1.68.122a5.478,5.478,0,0,1-.6.434,2.355,2.355,0,0,0-.62.527c-.074.193-.075,9.743,0,9.862.044.071.126.073.437.011a5.864,5.864,0,0,1,.678-.092l.295-.016V30.9c0-5.232-.014-5.641-.189-5.358m5.595,10.5c0,.036-.059.066-.131.066s-.131-.03-.131-.066.059-.066.131-.066.131.03.131.066m-50.072,6.11a3.949,3.949,0,0,0-.023.573l0,.491.5.033a1.549,1.549,0,0,1,.586.115.667.667,0,0,0,.364.082c.155,0,.282.025.282.055s.074.089.164.13.164.116.164.166a.274.274,0,0,0,.1.173.458.458,0,0,1,.1.305.824.824,0,0,0,.091.368c.3.477.3,14.1,0,14.575a.905.905,0,0,0-.091.4c0,.285-.082.382-.508.6a1.328,1.328,0,0,0-.315.2.328.328,0,0,1-.221.059.4.4,0,0,0-.271.1c-.07.085-.2.1-.68.082l-.593-.022v1.114l3.685.017a22.754,22.754,0,0,0,3.7-.066,2.935,2.935,0,0,0,.019-.825L17.1,60.6l-.486.045c-.393.037-.517.025-.648-.06a.7.7,0,0,0-.311-.108c-.3,0-.847-.626-.965-1.1-.038-.152-.1-.4-.146-.555-.157-.568-.115-12.921.044-12.943.095-.013.194.077.361.328a5.081,5.081,0,0,0,.311.432.293.293,0,0,1,.082.146,2.888,2.888,0,0,0,.481.709,1.914,1.914,0,0,1,.633.991c0,.072.023.131.051.131a2.064,2.064,0,0,1,.612.638,8.647,8.647,0,0,0,.955,1.369.922.922,0,0,1,.216.276.264.264,0,0,0,.1.141.333.333,0,0,1,.1.228.635.635,0,0,0,.267.369,1.569,1.569,0,0,1,.329.353,5.333,5.333,0,0,0,.546.88,2.9,2.9,0,0,1,.262.362,3.8,3.8,0,0,0,.383.488,1.268,1.268,0,0,1,.284.45,2.323,2.323,0,0,0,.49.662,2.164,2.164,0,0,1,.453.6.3.3,0,0,0,.1.2.26.26,0,0,1,.1.146.844.844,0,0,0,.166.271,6.452,6.452,0,0,1,.752,1.022,3.04,3.04,0,0,0,.634.87,1.812,1.812,0,0,1,.346.47,4.762,4.762,0,0,0,.471.7,4.148,4.148,0,0,1,.407.582,1,1,0,0,0,.107.2c.019.018.165.224.326.457a3.771,3.771,0,0,0,.46.566,1.836,1.836,0,0,1,.461.827c0,.166.141.18,1.84.18h1.633V54.008c0-5.048.025-8.066.068-8.338.037-.234.091-.587.121-.783a.723.723,0,0,1,.128-.382c.041-.014.075-.133.075-.265a.852.852,0,0,1,.874-.815.341.341,0,0,0,.3-.075c.093-.084.27-.113.768-.123l.647-.013.02-.49c.016-.4,0-.5-.094-.573-.132-.1-7.2-.123-7.349-.028-.061.039-.079.2-.065.572l.019.518.6.033a1.841,1.841,0,0,1,.685.115.569.569,0,0,0,.325.082c.361,0,.705.471.943,1.289.116.4.186,11.881.074,12.063-.089.145-.959-.8-.959-1.04a5.2,5.2,0,0,0-.732-1.006.646.646,0,0,1-.185-.336.866.866,0,0,0-.236-.4,4.416,4.416,0,0,1-.8-1.081,1.681,1.681,0,0,0-.274-.421,2,2,0,0,1-.276-.353,2.156,2.156,0,0,0-.293-.372.461.461,0,0,1-.149-.265,1.961,1.961,0,0,0-.4-.582,3.044,3.044,0,0,1-.645-.882,2.569,2.569,0,0,0-.3-.459,5.475,5.475,0,0,1-.756-1.1.307.307,0,0,0-.082-.176,2.136,2.136,0,0,1-.18-.232,5.04,5.04,0,0,0-.377-.444,1.533,1.533,0,0,1-.278-.358.33.33,0,0,0-.1-.158.368.368,0,0,1-.1-.225c0-.069-.028-.126-.063-.126a2.97,2.97,0,0,1-.593-.721c-.054-.081-.179-.261-.279-.4a1.03,1.03,0,0,1-.18-.347,1.606,1.606,0,0,0-.344-.454,1.8,1.8,0,0,1-.573-.884.942.942,0,0,0-.264-.371,5.426,5.426,0,0,1-.85-1.131.668.668,0,0,0-.136-.237l-.136-.173H13.5a20.563,20.563,0,0,0-3.422.082m23.683-.038c-.056.023-.082.2-.082.584v.551H34.2c.382,0,.537.026.6.1a.385.385,0,0,0,.307.085.378.378,0,0,1,.269.054.632.632,0,0,0,.192.147c.081.043.148.117.148.166a.272.272,0,0,0,.1.17.488.488,0,0,1,.1.323.566.566,0,0,0,.082.323c.064.064.082,1.609.082,7.283s-.018,7.218-.082,7.283a.636.636,0,0,0-.084.348.67.67,0,0,1-.117.4,2.711,2.711,0,0,1-.825.557.273.273,0,0,0-.171.1c-.065.078-.169.09-.49.057-.276-.028-.423-.018-.454.033a.782.782,0,0,1-.274.17l-.228.1.02.411.02.411,8.525.017,8.525.017.044-.606a7.564,7.564,0,0,1,.106-.869,4.894,4.894,0,0,0,.064-.829c0-.312.044-.916.1-1.343s.1-1.078.117-1.448l.022-.672h-.437c-.467,0-.514.04-.517.437a1.048,1.048,0,0,1-.111.361l-.2.392a1.2,1.2,0,0,0-.092.426,1.019,1.019,0,0,1-.13.448,3.2,3.2,0,0,0-.19.343,6.476,6.476,0,0,1-1.387,1.328c-.068,0-.123.029-.123.066s-.072.065-.161.065a.272.272,0,0,0-.22.107c-.048.086-.162.1-.593.1a1.5,1.5,0,0,0-.681.082,19.747,19.747,0,0,1-3.86-.006,1.162,1.162,0,0,0-.565-.082c-.7,0-1.652-.669-1.652-1.163a.308.308,0,0,0-.069-.19c-.174-.174-.221-.972-.224-3.78l0-2.873L41,52.049c1.129-.025,1.333-.015,1.42.072a.662.662,0,0,0,.426.1c.229,0,.337.029.363.1a.25.25,0,0,0,.22.1.609.609,0,0,1,.31.1.5.5,0,0,0,.25.1c.126,0,.31.144.311.241a1.653,1.653,0,0,0,.2.349,1.248,1.248,0,0,1,.2.4.3.3,0,0,0,.079.181,2.816,2.816,0,0,1,.3,1.061l.047.36.409.02.409.019V47.7l-.409.02-.409.019-.039.459a3.4,3.4,0,0,1-.124.688,2.037,2.037,0,0,1-.467.892.656.656,0,0,0-.189.256c0,.1-.281.36-.386.36a.331.331,0,0,0-.181.1.41.41,0,0,1-.254.1.263.263,0,0,0-.2.066.859.859,0,0,1-.42.065,1.664,1.664,0,0,0-.569.091,6.589,6.589,0,0,1-2.519.037c-.124-.124-.128-.239-.128-3.338,0-3.422.02-3.674.315-3.951a22.986,22.986,0,0,1,5.37-.022.948.948,0,0,0,.533.089.785.785,0,0,1,.436.057.818.818,0,0,0,.292.092.3.3,0,0,1,.2.1.3.3,0,0,0,.2.1.294.294,0,0,1,.2.1.266.266,0,0,0,.161.1c.044,0,.113.074.154.164s.115.164.165.164c.227,0,.764.744.764,1.058a1.107,1.107,0,0,0,.089.341,6.1,6.1,0,0,1,.284.974c.051.261.166.323.556.3l.349-.02.01-1.376a25.242,25.242,0,0,0-.205-3.634c-.043-.069-15.573-.093-15.743-.024m17.914,0a1.7,1.7,0,0,0-.042.49v.447h.418c.292,0,.442.03.5.1a.458.458,0,0,0,.3.1c.138,0,.238.038.261.1s.123.1.265.1c.244,0,.9.576,1.13.986a2.428,2.428,0,0,0,.269.37,3.631,3.631,0,0,1,.317.429c.083.135.192.246.242.246s.126.066.169.146a1.214,1.214,0,0,0,.166.234.346.346,0,0,1,.088.212,1.35,1.35,0,0,0,.361.475,1.859,1.859,0,0,1,.36.421.263.263,0,0,0,.1.15.348.348,0,0,1,.1.238c0,.086.03.156.068.156a.747.747,0,0,1,.259.213,3.661,3.661,0,0,1,.589.725,8.622,8.622,0,0,0,.944,1.22.537.537,0,0,1,.171.242,2.2,2.2,0,0,0,.633.853,1.949,1.949,0,0,1,.415.524,2.7,2.7,0,0,0,.393.553c.343.349.42.506.315.637a1.325,1.325,0,0,1-.352.342c-.073,0-.208.172-.257.326-.064.2-.113.263-.63.78a3.036,3.036,0,0,0-.477.565,3.316,3.316,0,0,1-.467.583,3.115,3.115,0,0,0-.466.59.787.787,0,0,1-.182.27c-.076.073-.246.265-.377.426s-.36.424-.508.583a1.293,1.293,0,0,0-.269.364,1.887,1.887,0,0,1-.352.443,4.258,4.258,0,0,0-.4.455,2.848,2.848,0,0,1-.678.82,2.349,2.349,0,0,0-.475.563.983.983,0,0,1-.524.506.632.632,0,0,0-.295.2.624.624,0,0,1-.3.2.17.17,0,0,0-.149.1c-.024.062-.124.1-.272.1a.841.841,0,0,0-.391.1,1.151,1.151,0,0,1-.669.082l-.512-.021-.019.475-.019.475h7.612l-.019-.475-.019-.475-.628.022c-.507.018-.648,0-.732-.082a.421.421,0,0,0-.26-.1c-.665,0-.716-.851-.1-1.605a5.59,5.59,0,0,0,.374-.524,1.971,1.971,0,0,1,.67-.729c.1-.051.18-.138.18-.193a1.974,1.974,0,0,1,.655-.823c.272-.184.453-.384.456-.5s.33-.536.422-.536c.042,0,.128-.087.191-.194a2.068,2.068,0,0,1,.195-.28,2.057,2.057,0,0,0,.209-.338.8.8,0,0,1,.277-.32.37.37,0,0,0,.182-.176c.158-.5.82-.679.82-.224,0,.11.088.244.264.4a2.64,2.64,0,0,1,.655.95,1.454,1.454,0,0,0,.295.4,2.035,2.035,0,0,1,.293.361,1.809,1.809,0,0,0,.262.34,1.136,1.136,0,0,1,.262.4,2.163,2.163,0,0,0,.571.8,1.572,1.572,0,0,1,.412.7.949.949,0,0,0,.236.311,1.8,1.8,0,0,1,.3.37c.033.074.133.264.223.423.275.487.065,1.04-.371.978a.361.361,0,0,0-.275.1c-.106.106-.187.115-.672.074l-.551-.046v1l4.636-.017,4.636-.017v-.917l-.367.022c-.27.016-.394-.006-.47-.082a.387.387,0,0,0-.235-.1.376.376,0,0,1-.229-.1.367.367,0,0,0-.221-.1.318.318,0,0,1-.2-.073,2.746,2.746,0,0,0-.594-.357,3.133,3.133,0,0,1-.866-.914.72.72,0,0,0-.2-.265,2.771,2.771,0,0,1-.359-.434A3.36,3.36,0,0,0,69,57.99a.693.693,0,0,1-.2-.306,2.618,2.618,0,0,0-.588-.818c-.269-.28-.329-.373-.329-.5a.636.636,0,0,0-.213-.318,4.6,4.6,0,0,1-.788-1.006,7.155,7.155,0,0,0-.85-1.141.878.878,0,0,1-.246-.412c0-.083-.023-.151-.051-.151s-.107-.1-.175-.213A2.091,2.091,0,0,0,65.2,52.7a1.991,1.991,0,0,1-.388-.491,2.676,2.676,0,0,0-.288-.443c-.079-.09-.244-.309-.367-.486l-.223-.322.194-.169a2.335,2.335,0,0,0,.577-.771,1.9,1.9,0,0,1,.354-.459A22.965,22.965,0,0,0,66.9,47.225a2.882,2.882,0,0,1,.426-.5,1.678,1.678,0,0,0,.563-.664,2.267,2.267,0,0,1,.459-.589,2.467,2.467,0,0,0,.459-.575,1.42,1.42,0,0,1,.311-.432c.171-.185.439-.49.6-.678a1.048,1.048,0,0,1,.4-.341.3.3,0,0,0,.2-.1.442.442,0,0,1,.295-.1.441.441,0,0,0,.295-.1c.062-.074.23-.1.7-.1h.614V42.6c0-.583.363-.531-3.739-.531H64.941l-.038.152a2.067,2.067,0,0,0-.018.475l.021.323.6.033a1.849,1.849,0,0,1,.685.115.354.354,0,0,0,.219.082c.207,0,.557.393.557.626a3.456,3.456,0,0,1-1,1.81.427.427,0,0,0-.115.173,3.343,3.343,0,0,1-.661.8,2.357,2.357,0,0,0-.407.526,1.276,1.276,0,0,1-.317.393c-.313.243-.515.476-.515.6a1.693,1.693,0,0,1-.628.714c-.051,0-.093.027-.093.061a1.078,1.078,0,0,1-.226.3c-.226.24-.364.255-.364.041a1.426,1.426,0,0,0-.349-.471,1.861,1.861,0,0,1-.568-.885.541.541,0,0,0-.189-.242,2.2,2.2,0,0,1-.356-.423,4.4,4.4,0,0,0-.4-.518,1.012,1.012,0,0,1-.234-.338,1.934,1.934,0,0,0-.472-.725,1.374,1.374,0,0,1-.445-.788.4.4,0,0,0-.1-.272c-.07-.058-.1-.211-.1-.523,0-.7.314-.972,1.212-1.045l.458-.037v-.423c0-.4-.011-.426-.164-.469-.205-.058-9.205-.07-9.262-.013m22.268.036a21.706,21.706,0,0,0-.229,2.867c-.029.811-.075,1.706-.1,1.988-.057.6-.034.63.445.631.351,0,.348.005.4-.687a3.419,3.419,0,0,1,.358-1.408.711.711,0,0,0,.142-.295.163.163,0,0,1,.1-.141.2.2,0,0,0,.1-.178c0-.365,1.453-1.4,1.846-1.317a.449.449,0,0,0,.369-.077,12.7,12.7,0,0,1,3.707,0,.408.408,0,0,0,.284.081c.115-.044.333.16.48.448.273.536.11,14.629-.174,15.091a.743.743,0,0,0-.089.331.678.678,0,0,1-.536.6c-.108,0-.206.042-.227.1a.208.208,0,0,1-.188.1.212.212,0,0,0-.191.107c-.031.081-.1.1-.264.071a.314.314,0,0,0-.343.1c-.111.124-.169.131-.756.091l-.635-.043-.04.216a3.046,3.046,0,0,0-.02.576l.021.361,5.261.017,5.261.017-.019-.574-.019-.574-.576.024c-.487.02-.6,0-.708-.1a.488.488,0,0,0-.381-.1c-.178.013-.261-.011-.289-.085a.158.158,0,0,0-.126-.1c-.679,0-1.143-.729-1.293-2.031-.119-1.03-.079-14.072.044-14.34.141-.306.12-.287.317-.308a.61.61,0,0,0,.274-.106,15.578,15.578,0,0,1,3.763.03.7.7,0,0,0,.4.1c1.09-.073,2.473,1.609,2.473,3.007,0,.864.089,1,.653,1,.287,0,.391-.025.421-.1a7.74,7.74,0,0,0-.036-1.882,11.131,11.131,0,0,1-.115-1.847l-.039-1.7-9.847-.017c-7.844-.013-9.853,0-9.876.066" transform="translate(-0.975 -1.108)" fill="#2d43ba" fill-rule="evenodd"/>
    <path id="path1" d="M35.229,19.975c.036.094.011.1-.182.056a36.448,36.448,0,0,0-3.828.041c-.036.013,4.475.038,10.025.056l10.091.033.047,1.049c.092,2.063.161,4.5.132,4.658-.041.215.214.225.272.01a3.273,3.273,0,0,0-.057-1.383c-.083-.083-.1-.416-.1-2.168v-2.07l-.164-.075c-.09-.041-.164-.092-.164-.113a12.663,12.663,0,0,0-1.392-.054c-.766-.009-1.839-.034-2.384-.057A4.426,4.426,0,0,0,46.29,20c-.182.06-.257.062-.291.006s-.306-.065-.926-.041c-1,.038-6.616.042-6.892.005-.1-.014-.18,0-.18.035s-.111.059-.246.057l-.246,0,.164-.094c.146-.083.021-.094-1.161-.1-1.207,0-1.321.007-1.283.107M20.209,20c-.024.038-.028.086-.008.1.047.047.175-.036.175-.113s-.113-.078-.167.008m2.772.028a2.467,2.467,0,0,0,.459.137,1.1,1.1,0,0,1,.31.093,1.2,1.2,0,0,0,.328.1.757.757,0,0,1,.295.1,3.94,3.94,0,0,0,.986.464.292.292,0,0,1,.194.1.278.278,0,0,0,.179.1,1.26,1.26,0,0,1,.393.2.979.979,0,0,0,.322.173c.065-.064-.068-.242-.18-.242a.114.114,0,0,1-.124-.1c0-.069-.069-.1-.229-.1-.126,0-.229-.029-.229-.064s-.074-.083-.164-.105-.164-.067-.164-.1-.052-.058-.116-.058a.532.532,0,0,1-.246-.089,1.124,1.124,0,0,0-.309-.132c-.1-.024-.18-.073-.18-.108s-.07-.064-.156-.064a.347.347,0,0,1-.237-.1.5.5,0,0,0-.338-.1c-.167,0-.269-.034-.294-.1s-.134-.1-.375-.1l-.337,0,.214.093m4.384.079c.3.058.409.751.405,2.492,0,.477.033,1.246.076,1.71a10.566,10.566,0,0,1,.055,1.181c-.017.239,0,.338.059.338a10.5,10.5,0,0,0-.014-2.854c-.077-.1-.1-.391-.1-1.456l0-1.328-.168-.064a.9.9,0,0,0-.311-.055l-.143.009.143.028m59.341,1.2c.006.52.021.59.124.59s.117-.067.117-.59-.012-.59-.124-.59-.123.052-.117.59m12.026-.016c.025.61.046.692.143.538a1.7,1.7,0,0,0-.031-1.018c-.138-.138-.138-.141-.113.48m-77.513.347-.155.134.455-.024c.284-.015.464-.054.481-.1s.053-.059.1-.019c.115.094.388.117.416.035.015-.044-.112-.089-.322-.114-.6-.072-.814-.051-.978.092m-.829.163c-.072.082-.056.1.108.1.11,0,.208-.042.23-.1.05-.131-.222-.129-.338,0m14.057-.03c-.337.2-.012.248.376.06l.262-.127h-.262a.96.96,0,0,0-.376.067m1.639-.024a.718.718,0,0,0,.262,0c.063-.016,0-.029-.148-.029s-.2.014-.114.03m7.325.054c-.122.092-.119.1.054.1a.454.454,0,0,0,.279-.1c.137-.137-.152-.135-.333,0m2.764-.054a.951.951,0,0,0,.295,0c.081-.016.015-.029-.147-.029s-.229.013-.148.029m1.261.085c0,.036.044.066.1.066s.1-.03.1-.066-.044-.066-.1-.066-.1.03-.1.066m-27.684.131a.21.21,0,0,1-.163.066.486.486,0,0,0-.275.2c-.084.11-.322.375-.529.591-.28.291-.377.44-.377.579a1.351,1.351,0,0,1-.1.423,1.7,1.7,0,0,0,0,1.128.558.558,0,0,1,.1.277c0,.241.486.865.669.866a1.1,1.1,0,0,1,.262.2,1.81,1.81,0,0,0,.348.262,4.8,4.8,0,0,1,.475.259,1.5,1.5,0,0,0,.23.106c.063.021.115.064.115.1s.077.058.172.058c.145,0,.159-.015.09-.1a.345.345,0,0,0-.237-.1c-.086,0-.156-.03-.156-.067s-.067-.1-.148-.131a1.159,1.159,0,0,1-.462-.31.234.234,0,0,0-.18-.082.117.117,0,0,1-.128-.1.1.1,0,0,0-.1-.1,1.833,1.833,0,0,1-.711-.707c-.025-.08-.073-.145-.107-.145a5.143,5.143,0,0,1,.037-1.858.176.176,0,0,0,.1-.155.787.787,0,0,1,.262-.346A1.225,1.225,0,0,0,19.2,22.6a1.229,1.229,0,0,1,.618-.51.214.214,0,0,0,.193-.1c.043-.112-.186-.142-.253-.033m13.826,0a.223.223,0,0,1-.171.066,2.887,2.887,0,0,0-.927.839,3.517,3.517,0,0,0-.672,1.586,4.9,4.9,0,0,0-.082,1.53.547.547,0,0,0,.05-.289c0-.186.027-.258.1-.258s.1-.116.1-.655a1.9,1.9,0,0,1,.058-.655c.032,0,.077-.1.1-.229s.071-.23.106-.23.063-.07.063-.156a.348.348,0,0,1,.1-.238.272.272,0,0,0,.1-.172.091.091,0,0,1,.091-.09c.05,0,.11-.074.132-.164s.07-.164.105-.164.064-.044.064-.1a.1.1,0,0,1,.1-.1.1.1,0,0,0,.1-.1.113.113,0,0,1,.124-.1.179.179,0,0,0,.16-.094.282.282,0,0,1,.215-.115c.1-.012.191-.058.206-.1.032-.1-.155-.112-.213-.017m9.483.014c-.1.123-.076,14.856.027,15.449a1.228,1.228,0,0,0,.344.772,4.349,4.349,0,0,0,1.158.735.262.262,0,0,1,.185.054,4.4,4.4,0,0,0,.858.177c.936.14.938.142.865.758-.034.289-.025.322.09.322s.128-.047.128-.455c0-.7-.1-.781-.947-.768-.463.007-.656-.013-.675-.071s-.145-.081-.316-.081c-.214,0-.29-.026-.29-.1a.109.109,0,0,0-.116-.1.746.746,0,0,1-.332-.2,1.278,1.278,0,0,0-.249-.2c-.124,0-.417-.408-.417-.581a.32.32,0,0,0-.1-.253c-.086-.048-.1-1.006-.115-7.811-.014-6.257-.033-7.737-.1-7.656m42.214.018c-.491.216-.586.7-.269,1.367a2.513,2.513,0,0,1,.172.422.4.4,0,0,0,.131.178.424.424,0,0,1,.131.269.256.256,0,0,0,.06.187.435.435,0,0,1,.1.22.908.908,0,0,0,.185.343,2.506,2.506,0,0,1,.3.47,1.42,1.42,0,0,0,.213.348.184.184,0,0,1,.062.143,3.944,3.944,0,0,0,.547,1.124,1.794,1.794,0,0,1,.272.424c.092.186.193.382.226.435s.142.3.244.554a3.1,3.1,0,0,0,.342.643,2.147,2.147,0,0,1,.4.738,3.714,3.714,0,0,0,.8,1.341c.1,0,.06-.2-.043-.239a.216.216,0,0,1-.1-.194c0-.1-.038-.157-.1-.157s-.1-.062-.1-.166a.226.226,0,0,0-.1-.2.15.15,0,0,1-.1-.121.269.269,0,0,0-.1-.165.461.461,0,0,1-.1-.306c0-.228-.024-.271-.344-.617a.661.661,0,0,1-.18-.326.188.188,0,0,0-.1-.169.206.206,0,0,1-.1-.187.338.338,0,0,0-.1-.23.457.457,0,0,1-.1-.3c0-.153-.03-.221-.1-.221a.116.116,0,0,1-.1-.127.7.7,0,0,0-.189-.334,1.908,1.908,0,0,1-.27-.381c-.045-.1-.107-.218-.139-.272a2.668,2.668,0,0,1-.12-.24.482.482,0,0,0-.131-.184.388.388,0,0,1-.069-.262c0-.134-.038-.233-.1-.256a.226.226,0,0,1-.1-.2c0-.1-.037-.166-.091-.166a.162.162,0,0,1-.129-.115.991.991,0,0,0-.288-.429.274.274,0,0,1-.082-.209,1.386,1.386,0,0,0-.164-.465,1.617,1.617,0,0,1-.164-.389.264.264,0,0,0-.1-.162.351.351,0,0,1-.1-.24.217.217,0,0,0-.1-.2c-.06-.023-.1-.122-.1-.252a.444.444,0,0,1,.1-.3.264.264,0,0,0,.1-.16c0-.043.14-.141.312-.218s.252-.139.18-.138a1.081,1.081,0,0,0-.328.089m12.516-.032a.221.221,0,0,1-.17.066,1.946,1.946,0,0,0-.781.544,2.624,2.624,0,0,1-.385.461,5.968,5.968,0,0,0-.645.83,7.441,7.441,0,0,1-.726,1.061,1.732,1.732,0,0,0-.47.812.676.676,0,0,1-.155.269,3.566,3.566,0,0,0-.329.518,2.761,2.761,0,0,1-.3.464.9.9,0,0,0-.171.353,2.136,2.136,0,0,1-.523.859,4.5,4.5,0,0,0-.419.688c-.122.247-.248.493-.279.547s-.084.162-.118.239a1.867,1.867,0,0,1-.253.36,2.651,2.651,0,0,0-.471.862,1.152,1.152,0,0,1-.2.309,1.388,1.388,0,0,0-.2.291,5.542,5.542,0,0,1-.361.59,2.75,2.75,0,0,0-.361.672.506.506,0,0,1-.1.252,26.446,26.446,0,0,0,0,4.714,3.575,3.575,0,0,1,.1.6c0,.426.578,1.262.748,1.092.077-.077.041-.136-.107-.174a.743.743,0,0,1-.377-.669c0-.156-.03-.224-.1-.224-.086,0-.1-.353-.1-2.785a24.361,24.361,0,0,1,.064-2.785c.035,0,.084-.081.108-.18a.77.77,0,0,1,.19-.318A.81.81,0,0,0,91.1,32c.025-.078.072-.141.106-.141s.061-.041.061-.09a.273.273,0,0,1,.1-.172.3.3,0,0,0,.1-.2.113.113,0,0,1,.1-.123c.065,0,.1-.065.1-.19,0-.108.042-.206.1-.227a.22.22,0,0,0,.1-.2c0-.088.022-.17.05-.182a2.434,2.434,0,0,0,.474-.63c0-.036.044-.082.1-.1s.1-.123.1-.266a.4.4,0,0,1,.082-.281.993.993,0,0,0,.287-.425.262.262,0,0,1,.129-.145.182.182,0,0,0,.092-.163.918.918,0,0,1,.262-.392c.207-.21.262-.314.262-.5,0-.148.036-.248.1-.272a.157.157,0,0,0,.1-.131.665.665,0,0,1,.2-.286.635.635,0,0,0,.2-.319.184.184,0,0,1,.1-.164.156.156,0,0,0,.1-.131.157.157,0,0,1,.1-.131.226.226,0,0,0,.1-.2c0-.091.03-.166.066-.166s.066-.057.066-.126a.369.369,0,0,1,.1-.225.344.344,0,0,0,.1-.2.1.1,0,0,1,.1-.1.1.1,0,0,0,.1-.1.1.1,0,0,1,.091-.1.169.169,0,0,0,.133-.115c.082-.223.243-.475.3-.475.034,0,.062-.06.062-.134a.481.481,0,0,1,.152-.278,1.126,1.126,0,0,0,.2-.243,3.264,3.264,0,0,1,.827-.974,3.737,3.737,0,0,1,.719-.6c.149,0,.394-.194.249-.194a.189.189,0,0,0-.147.065M21.247,27.056c-.142.048-.017.2.262.311.514.211.668.28,1.079.485a2.009,2.009,0,0,0,.56.2.37.37,0,0,1,.227.078c.089.089.18.032.115-.073a.275.275,0,0,0-.205-.07.222.222,0,0,1-.2-.1c-.023-.061-.123-.1-.26-.1-.154,0-.222-.03-.222-.1s-.061-.1-.157-.1a.216.216,0,0,1-.195-.1c-.021-.056-.119-.1-.229-.1a.239.239,0,0,1-.232-.106.129.129,0,0,0-.171-.072.2.2,0,0,1-.212-.081c-.045-.063-.117-.1-.16-.088m2.8,1.263a.55.55,0,0,0,.218.131.356.356,0,0,1,.17.092,2.784,2.784,0,0,0,.854.432.3.3,0,0,1,.186.077c.089.089.18.032.115-.073a.26.26,0,0,0-.2-.07.211.211,0,0,1-.191-.1.226.226,0,0,0-.2-.1c-.091,0-.166-.026-.166-.058s-.052-.077-.115-.1c-.223-.082-.475-.243-.475-.3,0-.034-.078-.062-.174-.062h-.174l.151.131m1.769.883c.09.052.223.123.295.158a3.079,3.079,0,0,1,.449.352,3.813,3.813,0,0,0,.613.447,5.212,5.212,0,0,1,1.474,1.513,3.108,3.108,0,0,0,.342.546,1.382,1.382,0,0,1,.242.459,1.5,1.5,0,0,0,.12.328,4.721,4.721,0,0,1,.2,2.3,1.045,1.045,0,0,0-.109.39,5.607,5.607,0,0,1-.767,1.61.81.81,0,0,0-.143.277,1.4,1.4,0,0,1-.371.443c-.182.159-.453.407-.6.553a4.23,4.23,0,0,1-1.438.882,2.147,2.147,0,0,0-.669.333.268.268,0,0,1-.193.06.269.269,0,0,0-.192.058.518.518,0,0,1-.25.1c-.3.06-.535.236-.308.233a.568.568,0,0,0,.287-.1.54.54,0,0,1,.275-.1,1.4,1.4,0,0,0,.456-.164,1.429,1.429,0,0,1,.429-.164.112.112,0,0,0,.121-.1c0-.066.066-.1.2-.1.116,0,.214-.041.236-.1a.218.218,0,0,1,.2-.1.218.218,0,0,0,.2-.1.216.216,0,0,1,.195-.1c.1,0,.157-.038.157-.1s.033-.1.073-.1a1.028,1.028,0,0,0,.32-.262,1.03,1.03,0,0,1,.32-.262c.04,0,.073-.044.073-.1s.062-.1.164-.1.164-.037.164-.1a.1.1,0,0,1,.1-.1c.065,0,.1-.065.1-.189a.4.4,0,0,1,.1-.27.264.264,0,0,0,.1-.141.775.775,0,0,1,.2-.252.635.635,0,0,0,.2-.319.183.183,0,0,1,.1-.164.226.226,0,0,0,.1-.2c0-.091.026-.166.057-.166s.076-.118.1-.262.071-.262.107-.262a5.289,5.289,0,0,0,.065-1.278,5.289,5.289,0,0,0-.065-1.278c-.035,0-.084-.119-.107-.264a.655.655,0,0,0-.1-.3.22.22,0,0,1-.057-.165.187.187,0,0,0-.1-.167.15.15,0,0,1-.1-.122.151.151,0,0,0-.1-.122.192.192,0,0,1-.1-.173.193.193,0,0,0-.1-.173.2.2,0,0,1-.1-.178.522.522,0,0,0-.164-.295.576.576,0,0,1-.163-.213.068.068,0,0,0-.074-.059,1.632,1.632,0,0,1-.516-.512c0-.025-.089-.1-.2-.176s-.2-.153-.2-.18-.057-.049-.127-.049a.839.839,0,0,1-.37-.229,1.126,1.126,0,0,0-.3-.23c-.032,0-.091-.074-.133-.164a.246.246,0,0,0-.228-.164c-.092,0-.153-.039-.153-.1s-.07-.1-.246-.1H25.65l.164.094m-9.976,4.272c.045.018.083.141.083.273a1.589,1.589,0,0,0,.131.526,1.654,1.654,0,0,1,.13.569.575.575,0,0,0,.061.321.477.477,0,0,1,.1.233c.024.108.07.2.1.2s.06.055.06.123a.3.3,0,0,0,.1.2.29.29,0,0,1,.1.191.519.519,0,0,0,.194.271.535.535,0,0,1,.2.272,2.239,2.239,0,0,0,.745.773,1.705,1.705,0,0,1,.437.361,1.4,1.4,0,0,0,.473.361.557.557,0,0,1,.245.079c.137.085.24.04.169-.075a.331.331,0,0,0-.236-.07c-.106,0-.193-.03-.193-.068s-.051-.087-.114-.111a1.4,1.4,0,0,1-.476-.491c0-.028-.055-.051-.123-.051a.3.3,0,0,1-.2-.1.272.272,0,0,0-.172-.1.1.1,0,0,1-.09-.1.1.1,0,0,0-.1-.1c-.061,0-.1-.062-.1-.164s-.037-.164-.1-.164a.113.113,0,0,1-.1-.123.3.3,0,0,0-.1-.2.272.272,0,0,1-.1-.172.094.094,0,0,0-.1-.09c-.06,0-.1-.061-.1-.157a.215.215,0,0,0-.1-.195.218.218,0,0,1-.1-.2.218.218,0,0,0-.1-.2.226.226,0,0,1-.1-.2c0-.091-.029-.166-.065-.166s-.066-.219-.066-.526c0-.407-.022-.535-.1-.564-.056-.021-.1-.119-.1-.227,0-.154-.027-.189-.147-.184-.081,0-.111.02-.066.038m3.686,4.805c-.162.025-.247.05-.188.056a.314.314,0,0,1,.183.1.559.559,0,0,0,.287.126,5.217,5.217,0,0,1,.571.149c.417.133,1.484.207,1.148.08-.177-.067-.183-.079-.066-.126.072-.029-.125-.038-.438-.021-.45.025-.588.011-.667-.068a.571.571,0,0,0-.341-.1c-.209,0-.237-.018-.207-.131a.442.442,0,0,0,.024-.121c-.006.005-.143.03-.305.056m2.925.408c.017.029-.036.079-.12.112-.121.048-.081.06.194.056.321,0,.476-.072.382-.166-.06-.06-.493-.062-.456,0m-6.188.212a1.129,1.129,0,0,0-.079.391,1.907,1.907,0,0,1-.163.587c-.131.3-.144.369-.065.369.054,0,.1-.03.1-.066s.044-.066.1-.066c.077,0,.1-.091.1-.426s.021-.426.1-.426c.1,0,.125-.2.042-.416-.043-.108-.056-.1-.127.052m19.591.216c.019.1.082.111.414.091.432-.026.457-.034.394-.136-.081-.13-.835-.088-.809.045m55.878.409a.527.527,0,0,0,.289.129c.134,0,.133-.005-.017-.131-.224-.187-.486-.185-.271,0m1.1.144a1.921,1.921,0,0,1,0,1.088c-.088.088-.005.107.172.039.083-.032.1-.148.1-.583s-.021-.551-.1-.583c-.177-.068-.26-.049-.172.039m-69.725.62c-.082.081-.044.153.079.153a.3.3,0,0,0,.2-.1c.085-.1-.184-.155-.284-.055" transform="translate(-5.031 -4.069)" fill="#2d43ba" fill-rule="evenodd"/>
  </g>
</svg>
