<svg xmlns="http://www.w3.org/2000/svg" width="54.08" height="56.21" viewBox="0 0 54.08 56.21">
  <g id="client8" transform="translate(-23.803 -10.105)">
    <path id="path0" d="M47.723,10.179c-.018.047-.148.074-.368.074a.764.764,0,0,0-.376.059.347.347,0,0,1-.232.059c-.108,0-.2.026-.2.059s-.1.059-.225.059a.415.415,0,0,0-.26.059.231.231,0,0,1-.173.059.874.874,0,0,0-.341.118.877.877,0,0,1-.344.118c-.078,0-.141.027-.141.059s-.036.059-.081.059a2.21,2.21,0,0,0-.471.216c-.214.118-.554.3-.754.41a3.273,3.273,0,0,0-.461.285.327.327,0,0,1-.164.091c-.037,0-.067.022-.067.049s-.071.087-.157.133a11.9,11.9,0,0,0-2.39,2.321,3.089,3.089,0,0,1-.319.373.081.081,0,0,0-.044.068,2.691,2.691,0,0,1-.23.422c-.126.206-.28.483-.342.617a1.218,1.218,0,0,1-.2.316.278.278,0,0,0-.086.184c0,.061-.026.111-.057.111s-.058.06-.058.133a.575.575,0,0,1-.113.28.577.577,0,0,0-.113.28c0,.073-.027.133-.058.133s-.057.078-.057.173a.31.31,0,0,1-.057.21.25.25,0,0,0-.057.18c0,.079-.026.144-.057.144s-.057.093-.057.206-.026.206-.057.206-.057.12-.057.267c0,.164-.028.278-.074.3s-.066.1-.051.233,0,.214-.054.234-.073.149-.059.522,0,.511-.071.584a3.609,3.609,0,0,0,0,1.674,2.082,2.082,0,0,1,.013,1.047c-.016.065-.018.083,0,.041.052-.158.158-.023.158.2a.424.424,0,0,0,.071.278.44.44,0,0,1,.071.285c0,.319-.082.28-.4-.189a10.324,10.324,0,0,0-1.383-1.527.75.75,0,0,1-.231-.173,1.787,1.787,0,0,0-.325-.249,2.051,2.051,0,0,1-.3-.2,3.622,3.622,0,0,0-.525-.311,1.991,1.991,0,0,1-.408-.242.092.092,0,0,0-.11-.026.18.18,0,0,1-.165-.061.369.369,0,0,0-.232-.092.241.241,0,0,1-.179-.059.227.227,0,0,0-.171-.059.227.227,0,0,1-.171-.059.349.349,0,0,0-.232-.059c-.108,0-.2-.027-.2-.059s-.161-.059-.368-.059c-.232,0-.385-.027-.414-.074s-.3-.074-.987-.074-.954.02-.987.074-.176.074-.385.074c-.188,0-.34.026-.34.059s-.09.059-.2.059a.838.838,0,0,0-.314.059l-.227.118a.585.585,0,0,1-.214.061.42.42,0,0,0-.206.084.225.225,0,0,1-.185.051c-.044-.017-.08,0-.08.033a.072.072,0,0,1-.078.065.853.853,0,0,0-.288.147.95.95,0,0,1-.268.147,9.1,9.1,0,0,0-2.018,1.637l-.274.316a.894.894,0,0,0-.157.218,1.076,1.076,0,0,1-.168.24,2.867,2.867,0,0,0-.294.456c-.07.14-.148.254-.175.254s-.048.053-.048.118-.026.118-.057.118-.057.034-.057.077c0,.108-.134.394-.186.394-.023,0-.043.052-.043.115a.2.2,0,0,1-.057.151.309.309,0,0,0-.057.21c0,.1-.026.173-.057.173s-.057.066-.057.147-.026.147-.057.147-.057.1-.057.231-.031.241-.068.254-.063.129-.053.321a.621.621,0,0,1-.06.379,8.47,8.47,0,0,0,0,2.384c.057.046.071.15.051.365s-.007.309.049.331.077.118.077.238.026.208.057.208.057.065.057.144a.251.251,0,0,0,.057.18.2.2,0,0,1,.057.152.558.558,0,0,0,.053.217c.029.056.087.188.128.294s.094.191.118.191.043.036.043.079a1.141,1.141,0,0,0,.226.479,1.2,1.2,0,0,1,.17.273,8.613,8.613,0,0,0,2.558,2.585.352.352,0,0,1,.156.118.344.344,0,0,0,.209.118c.058,0,.105.026.105.059a.068.068,0,0,0,.074.059c.125,0,.382.143.382.213,0,.037.059.054.137.039a.183.183,0,0,1,.175.038.218.218,0,0,0,.168.064.3.3,0,0,1,.169.04,1.553,1.553,0,0,0,.589.194.339.339,0,0,1,.21.089.264.264,0,0,0,.259.052c.266-.055.594.024.554.134-.028.074,0,.081.152.041a6.365,6.365,0,0,1,1.48-.009c.165.031.2.023.181-.041-.055-.147.438-.189.73-.062.069.03.092.012.086-.066s.035-.108.216-.111c.124,0,.235-.035.247-.074s.083-.07.157-.07a.226.226,0,0,0,.17-.059A.188.188,0,0,1,34.4,36.4a.515.515,0,0,0,.211-.055c.055-.03.183-.09.285-.132s.185-.1.185-.122.036-.045.08-.045a2.05,2.05,0,0,0,.687-.368.376.376,0,0,1,.177-.1.337.337,0,0,0,.169-.118.356.356,0,0,1,.153-.118,7.341,7.341,0,0,0,1.471-1.414,1.787,1.787,0,0,1,.243-.284.105.105,0,0,0,.045-.092.394.394,0,0,1,.1-.187,4.155,4.155,0,0,0,.471-.788.238.238,0,0,1,.086-.121.277.277,0,0,0,.086-.184c0-.061.023-.11.05-.11.053,0,.126-.186.15-.38a.175.175,0,0,1,.078-.137c.035-.012.064-.086.064-.165a.706.706,0,0,1,.057-.26l.114-.234a1.024,1.024,0,0,0,.057-.353c0-.13.026-.236.057-.236s.057-.187.057-.444c0-.3.023-.453.071-.472s.071-.224.071-.734-.02-.713-.071-.734-.071-.163-.071-.431a1.051,1.051,0,0,0-.069-.473c-.053-.055-.044-.07.043-.069s.206.157.423.515c.172.283.333.541.358.573s.142.191.259.352a14.841,14.841,0,0,0,1.687,1.779,4.017,4.017,0,0,1,.4.327.618.618,0,0,0,.231.162c.035,0,.1.053.147.118a.273.273,0,0,0,.184.118c.056,0,.1.027.1.059a.069.069,0,0,0,.075.059.412.412,0,0,1,.2.118.41.41,0,0,0,.211.118c.048,0,.088.027.088.059s.051.059.114.059.114.022.114.049c0,.048.109.11.4.229.078.032.254.115.391.185a1.161,1.161,0,0,0,.358.126.156.156,0,0,1,.141.082.112.112,0,0,0,.141.052.244.244,0,0,1,.2.045.552.552,0,0,0,.264.089.331.331,0,0,1,.217.081.107.107,0,0,0,.128.032.175.175,0,0,1,.17.05.582.582,0,0,0,.33.088.453.453,0,0,1,.29.074c.026.044.114.058.234.037.23-.04.652.032.639.11a5.638,5.638,0,0,0,1.184.055,3.744,3.744,0,0,0,1.194-.066c0-.08.419-.145.64-.1a.324.324,0,0,0,.243-.039.568.568,0,0,1,.3-.071.54.54,0,0,0,.31-.086.24.24,0,0,1,.171-.071.394.394,0,0,0,.21-.06.31.31,0,0,1,.218-.042.185.185,0,0,0,.175-.059.224.224,0,0,1,.193-.065.178.178,0,0,0,.17-.054.248.248,0,0,1,.17-.082.177.177,0,0,0,.139-.059.187.187,0,0,1,.146-.059c.061,0,.111-.026.111-.059s.036-.059.079-.059a6.7,6.7,0,0,0,1.164-.6,1.666,1.666,0,0,1,.268-.169,1.726,1.726,0,0,0,.257-.157c.047-.039.266-.206.486-.371a20.062,20.062,0,0,0,1.912-1.883c0-.018.192-.3.428-.621a3.652,3.652,0,0,0,.428-.678.276.276,0,0,1,.114-.175.285.285,0,0,0,.114-.19c0-.058.026-.1.057-.1s.057-.061.057-.136a.467.467,0,0,1,.114-.263.432.432,0,0,0,.114-.214.16.16,0,0,1,.057-.124.251.251,0,0,0,.057-.18c0-.079.026-.144.057-.144s.057-.04.057-.089c0-.086.024-.149.162-.425A.749.749,0,0,0,59.62,25c0-.082.035-.164.077-.18s.067-.087.051-.174,0-.156.063-.179.081-.083.058-.2a.543.543,0,0,1,.041-.3.892.892,0,0,0,.059-.382.445.445,0,0,1,.079-.339.217.217,0,0,0,.056-.217c-.057-.185.026-.587.121-.587.061,0,.071-.041.041-.162a7.686,7.686,0,0,1,0-1.594q.044-.255-.015-.217c-.092.059-.185-.27-.147-.518.025-.164.009-.249-.059-.32s-.085-.165-.064-.361,0-.29-.056-.352a.324.324,0,0,1-.061-.256.285.285,0,0,0-.052-.233.257.257,0,0,1-.076-.172.188.188,0,0,0-.057-.143.3.3,0,0,1-.057-.206.3.3,0,0,0-.057-.206.2.2,0,0,1-.057-.149.927.927,0,0,0-.114-.322.952.952,0,0,1-.114-.295,1.86,1.86,0,0,0-.291-.586.276.276,0,0,1-.052-.162c0-.058-.026-.106-.057-.106s-.057-.05-.057-.111a.278.278,0,0,0-.087-.185,1.03,1.03,0,0,1-.182-.287,2.361,2.361,0,0,0-.23-.389c-.074-.1-.247-.336-.383-.53A13.355,13.355,0,0,0,55.275,12c-.354-.2-.564-.353-.564-.407,0-.033-.038-.044-.084-.026a.1.1,0,0,1-.12-.028,2.4,2.4,0,0,0-.473-.276A2.445,2.445,0,0,1,53.58,11c-.01-.025-.081-.045-.157-.045s-.138-.027-.138-.059-.077-.059-.171-.059-.171-.026-.171-.059-.05-.059-.111-.059a.187.187,0,0,1-.146-.059.281.281,0,0,0-.2-.059.281.281,0,0,1-.2-.059.415.415,0,0,0-.26-.059c-.124,0-.225-.026-.225-.059s-.075-.059-.168-.059a.287.287,0,0,1-.2-.059.764.764,0,0,0-.376-.059c-.22,0-.351-.026-.368-.074S50.315,10.1,49.2,10.1s-1.461.017-1.481.074m2.542,3.975a.458.458,0,0,0,.321.053.543.543,0,0,1,.318.044.369.369,0,0,0,.224.065.712.712,0,0,1,.274.059l.227.118a.542.542,0,0,0,.2.059.136.136,0,0,1,.119.082.107.107,0,0,0,.129.055.353.353,0,0,1,.25.118c.083.08.163.133.177.118a1.943,1.943,0,0,1,.648.368.9.9,0,0,0,.221.141,8.173,8.173,0,0,1,1,.9c.078.093.251.293.384.444a1.324,1.324,0,0,1,.242.339.365.365,0,0,0,.116.171.35.35,0,0,1,.114.175.4.4,0,0,0,.1.182,2.166,2.166,0,0,1,.357.709c0,.046.026.083.057.083s.057.051.057.114a.2.2,0,0,0,.057.151.244.244,0,0,1,.057.177.243.243,0,0,0,.063.18c.034.022.052.13.04.239-.016.143,0,.2.058.2s.073.051.056.174,0,.185.057.207.077.125.059.444,0,.411.051.411.073.177.073.736-.018.736-.071.736-.066.111-.052.412c.012.268,0,.412-.043.412s-.062.093-.062.206-.026.206-.057.206-.057.091-.057.2a.377.377,0,0,1-.057.239.19.19,0,0,0-.057.145,1.673,1.673,0,0,1-.171.444,1.842,1.842,0,0,0-.171.418c0,.045-.023.082-.05.082s-.065.046-.082.1a2.179,2.179,0,0,1-.271.486c-.018.016-.111.149-.208.295a7.846,7.846,0,0,1-1.491,1.531.326.326,0,0,0-.145.109,1.613,1.613,0,0,1-.366.25,2.648,2.648,0,0,0-.3.17.825.825,0,0,1-.37.177c-.048,0-.086.026-.086.059s-.038.059-.084.059a.887.887,0,0,0-.287.118.865.865,0,0,1-.318.118.557.557,0,0,0-.252.093A.322.322,0,0,1,51,28.6a.2.2,0,0,0-.211.058.228.228,0,0,1-.23.061.226.226,0,0,0-.219.049,7.11,7.11,0,0,1-2.3,0,.328.328,0,0,0-.245-.049c-.122.04-.3-.07-.249-.153.016-.027-.048-.022-.144.013a.284.284,0,0,1-.314-.032.563.563,0,0,0-.254-.094.865.865,0,0,1-.318-.118.887.887,0,0,0-.287-.118c-.046,0-.084-.026-.084-.059s-.041-.059-.091-.059a.574.574,0,0,1-.243-.107,2.976,2.976,0,0,0-.366-.209,1.461,1.461,0,0,1-.354-.246.558.558,0,0,0-.185-.145,7.233,7.233,0,0,1-1.76-1.952c-.018-.06-.054-.109-.079-.109a4.418,4.418,0,0,1-.518-1.079c0-.054-.026-.1-.057-.1s-.057-.065-.057-.144a.25.25,0,0,0-.057-.18.25.25,0,0,1-.057-.18c0-.079-.026-.144-.057-.144s-.057-.118-.057-.261a.507.507,0,0,0-.064-.3c-.042-.027-.055-.189-.037-.472.02-.327.008-.438-.05-.461a2.013,2.013,0,0,1,0-1.127c.054-.021.068-.135.05-.415a.877.877,0,0,1,.04-.452.545.545,0,0,0,.064-.29.975.975,0,0,1,.057-.342l.114-.234a.635.635,0,0,0,.057-.232.2.2,0,0,1,.057-.152.241.241,0,0,0,.057-.175c0-.076.019-.148.043-.159a1.822,1.822,0,0,0,.3-.614c0-.046.021-.083.047-.083s.084-.073.128-.162a5.51,5.51,0,0,1,.739-1,1.163,1.163,0,0,0,.224-.28c.044-.084.107-.153.142-.153s.126-.08.2-.177.171-.177.207-.177a.121.121,0,0,0,.1-.081,3.238,3.238,0,0,1,.957-.652c.028.018.052.007.052-.025s.071-.095.157-.14.208-.11.271-.145.191-.1.285-.135.216-.1.27-.125a.548.548,0,0,1,.214-.052c.063,0,.115-.027.115-.059s.088-.059.2-.059a.339.339,0,0,0,.236-.066c.024-.04.155-.056.343-.039.219.019.312,0,.333-.052a7.077,7.077,0,0,1,2.149,0m-1.375,2.01c0,.09-.538.186-.7.123a.106.106,0,0,0-.126.021,1.11,1.11,0,0,1-.363.157,4.941,4.941,0,0,0-1.528.754c-.04.039-.193.174-.34.3a5.966,5.966,0,0,0-1.019,1.286c-.086.154-.183.28-.215.28s-.044.024-.026.054a.433.433,0,0,1-.063.25c-.177.364-.19.4-.19.52,0,.065-.024.119-.053.119s-.052.111-.05.246a.471.471,0,0,1-.075.309,5.618,5.618,0,0,0,.009,1.767.649.649,0,0,1,.055.31c0,.139.022.253.048.253s.083.113.125.25a1.9,1.9,0,0,0,.152.366.486.486,0,0,1,.075.214.263.263,0,0,0,.087.172,1.032,1.032,0,0,1,.182.287,2.27,2.27,0,0,0,.232.389,4.281,4.281,0,0,0,.651.736,1.281,1.281,0,0,1,.289.236,1.058,1.058,0,0,0,.307.236.226.226,0,0,1,.135.087,1.037,1.037,0,0,0,.495.266.07.07,0,0,1,.077.059c0,.032.051.059.114.059s.114.027.114.059.077.059.171.059.171.031.171.075.069.068.222.053c.122-.012.239.007.26.043a.463.463,0,0,0,.288.064.538.538,0,0,1,.335.088c.1.107.814.126.848.022.012-.036.156-.08.32-.1a.75.75,0,0,0,.329-.081.43.43,0,0,1,.252-.051.407.407,0,0,0,.257-.059.185.185,0,0,1,.144-.059.865.865,0,0,0,.312-.118.886.886,0,0,1,.287-.118c.046,0,.084-.026.084-.059s.046-.059.1-.059a.273.273,0,0,0,.184-.118.264.264,0,0,1,.155-.118.832.832,0,0,0,.287-.21,2.714,2.714,0,0,1,.36-.3,1.119,1.119,0,0,0,.271-.276c.069-.1.2-.276.3-.385a.928.928,0,0,0,.171-.246.265.265,0,0,1,.072-.124,3.271,3.271,0,0,0,.263-.49c.105-.227.214-.458.242-.514a.674.674,0,0,0,.051-.25c0-.081.026-.148.057-.148s.057-.091.057-.2a.365.365,0,0,1,.071-.25c.052-.034.071-.294.071-.96s-.019-.926-.071-.96a.3.3,0,0,1-.071-.217.3.3,0,0,0-.057-.207.3.3,0,0,1-.057-.206.3.3,0,0,0-.057-.206.251.251,0,0,1-.057-.18c0-.079-.026-.144-.057-.144a.058.058,0,0,1-.057-.058,4.972,4.972,0,0,0-.635-1.049A.885.885,0,0,1,53,17.992a4.662,4.662,0,0,0-1.132-.968c-.036,0-.066-.022-.066-.049a.8.8,0,0,0-.3-.183c-.165-.074-.344-.158-.4-.187a.538.538,0,0,0-.211-.052.189.189,0,0,1-.147-.059.236.236,0,0,0-.176-.059.192.192,0,0,1-.175-.091c-.026-.069-.09-.083-.269-.059-.283.038-.641-.039-.621-.135q.014-.069-.3-.069c-.229,0-.314.022-.314.082M32.729,23.81a.39.39,0,0,0,.262.055c.106-.009.21.011.23.046a.189.189,0,0,0,.148.063c.061,0,.111.026.111.059s.05.059.111.059a.187.187,0,0,1,.146.059.172.172,0,0,0,.135.059.414.414,0,0,1,.223.118.411.411,0,0,0,.21.118c.048,0,.088.025.088.055s.053.072.119.094a6.488,6.488,0,0,1,1.348,1.435c.056.133.121.242.145.242s.044.053.044.118.026.118.057.118.057.053.057.118.026.118.057.118.057.065.057.144a.249.249,0,0,0,.063.184c.034.022.052.115.039.207s.005.179.052.2.075.109.075.2a.314.314,0,0,0,.057.211,3.227,3.227,0,0,1,.057.857,2.545,2.545,0,0,1-.057.821c-.031,0-.057.106-.057.236s-.026.236-.057.236-.057.078-.057.173a.309.309,0,0,1-.057.21.176.176,0,0,0-.057.135,3.764,3.764,0,0,1-.488,1.015.234.234,0,0,0-.083.141,6.728,6.728,0,0,1-1.068,1.093.347.347,0,0,0-.159.118.344.344,0,0,1-.208.118c-.058,0-.105.027-.105.059a.059.059,0,0,1-.058.059,1.039,1.039,0,0,0-.279.144c-.121.079-.234.13-.251.113s-.093.012-.169.063a.305.305,0,0,1-.224.061.153.153,0,0,0-.157.057.192.192,0,0,1-.2.058.192.192,0,0,0-.2.059,4.007,4.007,0,0,1-1.8,0,.2.2,0,0,0-.2-.057.2.2,0,0,1-.2-.059c-.05-.052-.12-.076-.154-.054-.067.043-.118.023-.637-.239a1,1,0,0,1-.328-.215c0-.027-.051-.049-.114-.049s-.114-.022-.114-.049-.07-.086-.156-.133a2.258,2.258,0,0,1-.385-.309,3.929,3.929,0,0,0-.358-.316c-.071-.05-.128-.116-.128-.148a.593.593,0,0,0-.157-.215,1.813,1.813,0,0,1-.4-.611c-.018-.057-.054-.1-.082-.1s-.05-.04-.05-.089a.584.584,0,0,0-.057-.206l-.114-.234a.723.723,0,0,1-.057-.265c0-.082-.026-.148-.057-.148s-.057-.061-.057-.135a.342.342,0,0,0-.068-.206,2.333,2.333,0,0,1-.016-.958,2.317,2.317,0,0,0-.028-.534c-.048-.4-.044-.514.026-.659a.889.889,0,0,0,.085-.311.233.233,0,0,1,.057-.171.229.229,0,0,0,.057-.168.355.355,0,0,1,.047-.188,1.375,1.375,0,0,0,.123-.306c.042-.138.1-.25.124-.25s.048-.04.048-.088.026-.088.057-.088.057-.034.057-.076a.784.784,0,0,1,.169-.28,1.15,1.15,0,0,0,.171-.244,3.476,3.476,0,0,1,.621-.637.714.714,0,0,0,.209-.177.673.673,0,0,1,.214-.177,1.229,1.229,0,0,0,.289-.164,3.2,3.2,0,0,1,.7-.366c.079-.032.2-.089.281-.125a.628.628,0,0,1,.312-.04c.111.017.184,0,.2-.052a6.019,6.019,0,0,1,1.963-.006m-1.816,1.812c0,.032-.045.06-.1.061a.418.418,0,0,0-.205.084.225.225,0,0,1-.185.051c-.044-.017-.08,0-.08.034s-.05.065-.111.065a.2.2,0,0,0-.157.077,1.173,1.173,0,0,1-.245.218,1.149,1.149,0,0,0-.248.223,1.2,1.2,0,0,1-.186.205.4.4,0,0,0-.137.2c0,.043-.026.078-.057.078s-.057.035-.057.077a.432.432,0,0,1-.114.2.431.431,0,0,0-.114.214.161.161,0,0,1-.057.124.284.284,0,0,0-.057.2.389.389,0,0,1-.062.225,4.523,4.523,0,0,0-.009,1.577c.039.015.071.107.071.2a.313.313,0,0,0,.057.211.183.183,0,0,1,.057.14.437.437,0,0,0,.114.23.458.458,0,0,1,.114.181,4.567,4.567,0,0,0,.925.952.335.335,0,0,1,.188.118.364.364,0,0,0,.234.118.219.219,0,0,1,.166.059.261.261,0,0,0,.189.06c.2,0,.323.084.268.175-.033.055-.015.056.075.007a2.4,2.4,0,0,1,1.066-.006c.108.042.139.04.11-.006-.049-.082.077-.168.247-.169a.635.635,0,0,0,.243-.06,3.017,3.017,0,0,0,1.063-.735,3.793,3.793,0,0,0,.454-.6,1.412,1.412,0,0,1,.206-.306c.025-.011.045-.069.045-.129a.191.191,0,0,1,.057-.146.443.443,0,0,0,.057-.266.421.421,0,0,1,.071-.276c.048-.032.071-.212.071-.548s-.023-.516-.071-.548a.358.358,0,0,1-.071-.247.369.369,0,0,0-.057-.236.241.241,0,0,1-.057-.175c0-.076-.02-.148-.045-.159a1.259,1.259,0,0,1-.195-.286,3.467,3.467,0,0,0-1.45-1.294c-.044,0-.08-.026-.08-.059s-.063-.059-.139-.059a.234.234,0,0,1-.175-.059,2.941,2.941,0,0,0-.831-.059,2.323,2.323,0,0,0-.8.059M66.546,38.307c-2.2,2.277-4.044,4.157-4.1,4.177a21.747,21.747,0,0,1-2.485-2.435l-2.393-2.472-5.326.015-5.326.015-.015,7.052-.015,7.052h6.849V46.621c0-3.851-.016-5.095-.067-5.112-.356-.122.153-.163,2.03-.163h2.013l2.344,2.419,2.344,2.419,2.341-2.419,2.341-2.419h2.019a10.584,10.584,0,0,1,2.088.071c.053.054.068,1.848.068,7.715v7.644h6.62V34.161l-3.667,0-3.667,0-4,4.14m-33.294-.642c0,.065-.065.089-.249.089a2.922,2.922,0,0,0-1.23.563,2.861,2.861,0,0,0-.843,1.042c-.018.057-.054.1-.082.1s-.05.052-.05.115a.294.294,0,0,1-.073.186.375.375,0,0,0-.05.271c.018.163,0,.206-.093.232s-.108.055-.062.192c.033.1.048,1.792.038,4.286a30.56,30.56,0,0,0,.061,4.2.36.36,0,0,1,.054.271c-.014.125,0,.208.052.226a.187.187,0,0,1,.075.164.58.58,0,0,0,.113.282.562.562,0,0,1,.113.221.069.069,0,0,0,.058.074.067.067,0,0,1,.057.074,2.412,2.412,0,0,0,.661.724c.123.095.237.186.253.2a.9.9,0,0,0,.171.095c.079.036.254.122.391.191a1.175,1.175,0,0,0,.419.126c.12,0,.18.033.2.112.024.1.055.1.208.059.1-.03,2.652-.053,5.873-.053H45.01V43.349l-4.066-.015-4.066-.015-.016-.986-.016-.986h8.166L45,39.476l-.015-1.87-5.864-.015c-5.189-.013-5.864,0-5.864.074m-9.36,5.454c0,1.876,0,1.891.117,1.86a.638.638,0,0,1,.285.018c.125.037.169.03.169-.027,0-.1.314-.151.621-.109a.421.421,0,0,0,.329-.049.921.921,0,0,1,.471-.083,1.428,1.428,0,0,0,.509-.078.55.55,0,0,1,.357-.037c.14.024.224.016.224-.021,0-.094.49-.147.743-.081.177.046.227.043.227-.016,0-.1.131-.147.433-.147h.252V43.172c0-1.019-.012-1.178-.087-1.178a.134.134,0,0,1-.117-.079c-.022-.06-.13-.073-.446-.052s-.435.007-.494-.058-.158-.078-.35-.059-.281.006-.305-.061-.112-.082-.418-.059-.405.008-.475-.063-.162-.084-.405-.058c-.364.039-.617-.01-.6-.115.008-.04-.024-.061-.072-.046a1.288,1.288,0,0,1-.815-.021.343.343,0,0,0-.123-.093c-.018,0-.033.851-.033,1.891m1.971,9.4a.146.146,0,0,1-.132.074c-.31,0-1.383.756-1.383.975a.351.351,0,0,1-.114.174.361.361,0,0,0-.114.215c0,.06-.024.109-.054.109s-.062.1-.071.216c-.019.233-.131.328-.182.155-.017-.058-.014-.027.006.07s.039.972.041,1.943a7.4,7.4,0,0,0,.075,1.814.3.3,0,0,1,.071.215c0,.326.716,1.357.943,1.357a.336.336,0,0,1,.17.118.344.344,0,0,0,.209.118c.058,0,.105.027.105.059s.09.059.2.059.2.026.2.059a1.624,1.624,0,0,0,.653.059,2.155,2.155,0,0,0,.688-.059.224.224,0,0,1,.169-.059c.148,0,.6-.23.6-.305,0-.026.033-.048.073-.048a2.674,2.674,0,0,0,.954-1.285.493.493,0,0,1,.083-.224c.193-.284.066-.382-.475-.363l-.492.017.018.175a.3.3,0,0,1-.058.236.706.706,0,0,0-.145.223c-.038.089-.1.162-.128.162s-.058.039-.058.086a.206.206,0,0,1-.11.147,1.029,1.029,0,0,0-.185.135.668.668,0,0,1-.618.192c-.177-.031-.255-.021-.291.038s-.049.061-.05.006-.081-.064-.315-.036c-.218.026-.314.018-.314-.029s-.04-.067-.089-.067a1.99,1.99,0,0,1-.71-.763.2.2,0,0,0-.065-.154c-.043-.028-.054-.182-.033-.47.025-.338.014-.436-.049-.461a5.716,5.716,0,0,1,0-2.015c.064-.025.074-.124.049-.469-.023-.308-.013-.437.033-.437s.065-.065.065-.143a1.556,1.556,0,0,1,.774-.8c.076,0,.139-.022.139-.048a1.574,1.574,0,0,1,.542-.048,1.575,1.575,0,0,1,.542.048c0,.027.058.048.129.048.165,0,.669.448.669.6,0,.061.025.111.056.111.085,0,.238.343.219.489-.017.124,0,.13.475.146.555.019.658-.075.483-.439-.044-.092-.121-.259-.171-.373a2.3,2.3,0,0,0-.948-1.162,2.841,2.841,0,0,1-.344-.2.811.811,0,0,0-.314-.122c-.093-.011-.165-.046-.16-.079a2.926,2.926,0,0,0-1.263.015m4.592,3.931v3.916h.856V52.535h-.856v3.916m2.568,0v3.916h1.027V57.511c0-1.571.019-2.855.043-2.854a8.206,8.206,0,0,1,.792,1.17c.217.343.3.47.521.8a1.565,1.565,0,0,1,.185.323.241.241,0,0,0,.087.123.988.988,0,0,1,.178.272c.05.109.114.2.142.2s.05.047.05.1a.285.285,0,0,0,.114.19.281.281,0,0,1,.114.185c0,.055.021.109.046.12a2.579,2.579,0,0,1,.41.621c0,.027.051.088.114.135a.271.271,0,0,1,.114.161.642.642,0,0,0,.152.251,3.534,3.534,0,0,1,.3.426c.412.7.333.633.762.633h.385V52.535H37.7V55.3a23.54,23.54,0,0,1-.061,2.8c-.069.044-.338-.193-.338-.3a.35.35,0,0,0-.114-.175.348.348,0,0,1-.114-.186c0-.044-.023-.079-.051-.079s-.093-.092-.144-.2a1.341,1.341,0,0,0-.166-.28,18.688,18.688,0,0,1-1.049-1.637.368.368,0,0,0-.075-.118,7.283,7.283,0,0,1-.627-1,.056.056,0,0,0-.047-.061c-.026,0-.084-.073-.128-.162a1.092,1.092,0,0,0-.113-.191,3.515,3.515,0,0,1-.4-.635.365.365,0,0,0-.114-.16.359.359,0,0,1-.114-.164c0-.138-.216-.215-.614-.216l-.414,0v3.916m7.226-3.823c-.045.121-.044,7.433,0,7.607l.034.133H45.01v-1l-1.859-.016-1.859-.015L41.3,58.1c0-.679.021-1.248.038-1.266s.691-.027,1.5-.021c1.7.013,1.617.038,1.595-.459l-.017-.377-1.541-.029-1.541-.03-.015-1.251L41.3,53.418H45.01v-.883H42.647c-2.1,0-2.366.01-2.4.093m6.681-.054c-.048.049-.051,7.572,0,7.7.029.079.162.093.885.093h.85V58.453c0-2.026.011-2.095.254-1.6.085.17.266.495.4.721s.3.525.364.663l.114.25h.6c.564,0,.6-.008.6-.118,0-.065.026-.118.057-.118s.057-.042.057-.092a1.03,1.03,0,0,1,.159-.339,5.916,5.916,0,0,0,.294-.526.749.749,0,0,1,.183-.28c.026,0,.048-.041.048-.09,0-.128.174-.386.235-.347s.065.32-.006.32a10.021,10.021,0,0,0-.056,1.693,7.52,7.52,0,0,0,.057,1.6c.047-.074.062-.066.091.044.035.13.051.133.913.133h.878l0-.427c0-.794.007-7.139,0-7.273s-.012-.133-.859-.133c-.915,0-1.017.033-1.118.364-.018.059-.058.107-.09.107s-.042.024-.025.054c.036.06-.144.417-.211.417-.023,0-.043.053-.043.118s-.026.118-.057.118-.057.034-.057.077c0,.108-.134.394-.186.394-.023,0-.043.053-.043.118s-.026.118-.057.118-.057.034-.057.077c0,.108-.134.394-.186.394-.023,0-.043.054-.043.118s-.026.118-.057.118-.057.053-.057.118-.02.118-.044.118-.086.1-.138.221c-.189.442-.246.478-.36.231-.055-.119-.122-.217-.15-.217s-.051-.046-.052-.1a1.718,1.718,0,0,0-.162-.427l-.291-.589c-.072-.146-.158-.318-.192-.383s-.192-.383-.352-.707c-.467-.948-.329-.854-1.26-.854a4.959,4.959,0,0,0-.842.039m10.52.069c0,.133-.163.48-.225.48-.025,0-.033.066-.018.146.018.1,0,.158-.059.181s-.074.079-.055.157a.193.193,0,0,1-.049.188.225.225,0,0,0-.084.124,1.969,1.969,0,0,1-.143.514.483.483,0,0,0-.054.18,1.394,1.394,0,0,1-.124.339,1.59,1.59,0,0,0-.134.376.166.166,0,0,1-.076.137c-.036.012-.066.1-.066.191a.3.3,0,0,1-.057.2.244.244,0,0,0-.057.177.244.244,0,0,1-.057.177.2.2,0,0,0-.057.151c0,.063-.026.114-.057.114s-.057.08-.057.177-.026.177-.057.177-.057.08-.057.177-.026.177-.057.177-.057.051-.057.114a.2.2,0,0,1-.057.151.244.244,0,0,0-.057.177.244.244,0,0,1-.057.177.244.244,0,0,0-.057.177.243.243,0,0,1-.057.177.2.2,0,0,0-.057.151c0,.063-.026.114-.057.114s-.057.08-.057.177c0,.113-.029.177-.08.177s-.07.041-.051.117a.817.817,0,0,1-.091.382,1.421,1.421,0,0,0-.121.35.158.158,0,0,1-.057.122.3.3,0,0,0-.057.206.3.3,0,0,1-.057.206c-.245.156-.039.206.856.206H56.6v-.144a.251.251,0,0,1,.057-.18.251.251,0,0,0,.057-.181.648.648,0,0,1,.052-.247c.029-.056.094-.2.145-.323L57,59.072h1.16c1.208,0,1.355.03,1.27.259a.092.092,0,0,0,.051.117.2.2,0,0,1,.082.178.253.253,0,0,0,.057.182.31.31,0,0,1,.057.21c0,.1.026.173.057.173s.057.04.057.088c0,.075.133.088.856.088H61.5v-.2a.375.375,0,0,0-.057-.239.2.2,0,0,1-.057-.149.93.93,0,0,0-.114-.322.926.926,0,0,1-.114-.322.2.2,0,0,0-.057-.149.2.2,0,0,1-.057-.152c0-.111-.021-.168-.162-.451a.745.745,0,0,1-.066-.28c0-.081-.026-.148-.057-.148s-.057-.08-.057-.177-.026-.177-.057-.177-.057-.051-.057-.114a.2.2,0,0,0-.057-.151.237.237,0,0,1-.057-.173.318.318,0,0,0-.09-.214.237.237,0,0,1-.066-.21c.015-.081-.008-.146-.059-.166s-.074-.085-.057-.177,0-.156-.056-.176A.092.092,0,0,1,60.1,56.1a.091.091,0,0,0-.051-.116c-.046-.018-.082-.11-.082-.207a.313.313,0,0,0-.057-.212.2.2,0,0,1-.057-.149.927.927,0,0,0-.114-.322.929.929,0,0,1-.114-.322.2.2,0,0,0-.057-.149.2.2,0,0,1-.057-.149.927.927,0,0,0-.114-.322.944.944,0,0,1-.114-.352.247.247,0,0,0-.057-.178.25.25,0,0,1-.057-.18c0-.079-.026-.144-.057-.144s-.057-.065-.057-.144a.25.25,0,0,0-.057-.18.214.214,0,0,1-.057-.159c0-.226-.157-.279-.842-.281-.587,0-.642.007-.642.107m5.06-.069c-.021.022-.038,1.784-.038,3.916v3.877h1.712V58.4c0-1.08.016-1.98.036-2,.056-.058.249.071.249.167,0,.047.019.086.043.086s.075.074.114.166a1.264,1.264,0,0,0,.185.292.432.432,0,0,1,.114.217c0,.05.023.091.05.091s.082.08.121.177.087.177.107.177.068.074.107.166a1.273,1.273,0,0,0,.171.28,1.578,1.578,0,0,1,.185.291,1.581,1.581,0,0,0,.185.291.4.4,0,0,1,.1.192c0,.042.019.078.043.079a1.342,1.342,0,0,1,.314.536.038.038,0,0,0,.037.052,1.31,1.31,0,0,1,.271.353l.22.353h1.453l-.013-3.9-.013-3.9-.842-.016-.842-.016v1.935c0,1.064-.016,1.951-.035,1.971-.059.061-.251-.1-.251-.207,0-.057-.021-.1-.047-.1s-.084-.073-.128-.162a1.579,1.579,0,0,0-.181-.276.4.4,0,0,1-.1-.184.247.247,0,0,0-.088-.146,1.172,1.172,0,0,1-.2-.321,1.175,1.175,0,0,0-.2-.322.247.247,0,0,1-.088-.126,6.712,6.712,0,0,0-.428-.7c-.235-.356-.428-.664-.428-.683a3.21,3.21,0,0,0-.424-.63,6.782,6.782,0,0,0-1.478-.006M58.3,55.55a.335.335,0,0,1,.069.2.229.229,0,0,0,.057.168.3.3,0,0,1,.057.206.3.3,0,0,0,.057.206.376.376,0,0,1,.057.239c0,.112.026.2.057.2s.057.078.057.173a.309.309,0,0,0,.057.21.243.243,0,0,1,.057.177c0,.138-.009.14-.635.158-.676.019-.771-.019-.629-.254a.509.509,0,0,0,.066-.221.269.269,0,0,1,.08-.18.19.19,0,0,0,.053-.175.236.236,0,0,1,.06-.2c.048-.049.072-.106.054-.125s.008-.1.06-.182a.661.661,0,0,0,.093-.3c0-.082.028-.149.063-.149s.049-.037.032-.083c-.055-.147.063-.2.178-.082M23.893,61.6V61.9l22.187-.015,22.187-.015.017-.28.017-.28H23.893V61.6m33.253,1.246a1.214,1.214,0,0,1-.469.038c-.268-.018-.371,0-.393.055a.094.094,0,0,1-.1.061c-.08-.019-.311.2-.426.412-.214.384.143,1.252.507,1.234.217-.011.335.023.335.1s.063.074.256.051a.427.427,0,0,1,.367.726,1.485,1.485,0,0,1-1.09.04c-.118-.1-.273-.059-.447.133-.093.1-.109.147-.052.147a.524.524,0,0,1,.224.117.6.6,0,0,0,.314.117c.208,0,.342.082.289.171-.027.045.047.064.235.061.151,0,.242-.018.2-.034-.135-.056-.071-.132.143-.172a.946.946,0,0,0,.549-.268.407.407,0,0,1,.164-.11c.027,0,.034-.027.014-.059-.055-.092.027-.294.118-.294.053,0,.082-.063.082-.177s-.029-.177-.086-.177a.078.078,0,0,1-.086-.065.754.754,0,0,0-.667-.642.183.183,0,0,1-.166-.081c-.022-.058-.1-.072-.281-.052A.435.435,0,0,1,56.4,63.4c.152-.1.684-.126.739-.033.067.112.361.065.455-.074s-.038-.339-.229-.339a.106.106,0,0,1-.094-.085c-.014-.065-.043-.07-.124-.023m-33.181.033a5.616,5.616,0,0,0-.071,1.611V66.08h.4l.007-.339c.006-.309.022-.589.042-.756.005-.042.161-.055.464-.037.395.023.457.014.457-.069,0-.065.05-.1.153-.1.732,0,.839-1.521.126-1.778-.091-.033-.165-.078-.165-.1a7.57,7.57,0,0,0-1.412-.023m3.481,0-.3.018V66.08H27.6v-.555c0-.724.008-.741.338-.741h.268l.185.4c.1.219.224.464.271.545a1.51,1.51,0,0,1,.118.25c.026.084.1.1.382.1.192,0,.321-.02.286-.044a6.365,6.365,0,0,1-.674-1.316.116.116,0,0,1,.089-.052.219.219,0,0,0,.125-.076c.34-.386.342-.391.348-.733a1.192,1.192,0,0,0-.038-.4c-.3-.4-.366-.478-.421-.459a.168.168,0,0,1-.142-.056,3.352,3.352,0,0,0-1.291-.057m3.662.023a1.916,1.916,0,0,0-.537.557.127.127,0,0,1-.071.112,5,5,0,0,0,.074,1.975.647.647,0,0,1,.111.226.062.062,0,0,0,.059.065.426.426,0,0,1,.182.118.431.431,0,0,0,.24.119c.161,0,.283.09.236.169-.027.044.025.061.158.051.109-.008.184-.038.167-.066-.04-.066.1-.153.241-.155.221,0,.656-.5.656-.744a.077.077,0,0,1,.071-.082c.053,0,.071-.193.071-.766s-.018-.766-.071-.766a.082.082,0,0,1-.071-.089.922.922,0,0,0-.511-.648,1.9,1.9,0,0,0-1.006-.077m3.158-.026-.5.02V66.08h.857c.979,0,1.138-.057,1.337-.48a.664.664,0,0,1,.141-.227,7.383,7.383,0,0,0-.038-1.784.167.167,0,0,1-.071-.121c0-.1-.342-.428-.5-.477-.071-.022-.128-.065-.128-.095s-.135-.05-.3-.043l-.8.032m3.162,0-.134.021.02,1.318.02,1.318.254.267c.168.177.3.268.4.268.215,0,.343.1.231.175-.064.044-.033.058.127.059s.2-.019.181-.084.029-.1.187-.125c.262-.048.7-.367.7-.512,0-.057.028-.1.059-.1a5.991,5.991,0,0,0,.057-1.3V62.9h-.638l.017,1.266c.02,1.49.031,1.461-.523,1.476-.587.016-.625-.079-.625-1.549,0-1.287.007-1.26-.334-1.206m3.986.023c0,.022-.058.059-.128.082-.159.052-.443.323-.443.422a.067.067,0,0,1-.057.074,8.153,8.153,0,0,0,.014,2.076,1.118,1.118,0,0,0,.61.516c.185,0,.315.084.264.169-.025.042.021.065.134.065.128,0,.164-.022.141-.086s.019-.1.13-.123a.764.764,0,0,0,.516-.252c.408-.41.43-.776.046-.776-.228,0-.257.015-.259.133,0,.261-.2.417-.543.429-.359.013-.539-.1-.539-.343,0-.083-.032-.161-.071-.175a2.139,2.139,0,0,1,.008-1.159c.049-.031.068-.109.05-.207-.038-.2.249-.445.527-.445.208,0,.571.245.571.386,0,.062.071.085.257.085.28,0,.312-.054.184-.307a1.268,1.268,0,0,0-.5-.49c-.059-.019-.108-.053-.108-.076a2.008,2.008,0,0,0-.8,0m2.811-.023-.471.017v.407h.8V66.08h.569l.015-1.369.015-1.369.385-.017.385-.017v-.2c0-.189-.013-.2-.185-.209-.644-.02-1.1-.022-1.512-.007m5.222.011a1.716,1.716,0,0,1-.251.189.9.9,0,0,0-.419.676.2.2,0,0,1-.086.174c-.067.027-.086.147-.086.56s.018.533.086.559.086.11.086.234.026.2.057.2.057.039.057.088c0,.137.411.5.571.5.183,0,.311.087.261.171-.025.042.02.065.129.065s.176-.034.2-.118a.153.153,0,0,1,.15-.118c.217,0,.451-.175.662-.5a5.088,5.088,0,0,0,.063-2.056,1.5,1.5,0,0,0-.519-.552,2.14,2.14,0,0,0-.958-.076m4.735-.01-.159.019.007.972a9.12,9.12,0,0,1-.022,1,1.9,1.9,0,0,1-.424-.565.728.728,0,0,0-.122-.182,3.245,3.245,0,0,1-.261-.384c-.094-.158-.23-.381-.3-.5s-.145-.242-.163-.283-.139-.074-.284-.074H52.2v3.18h.571l.008-.78c0-.429,0-.88,0-1-.017-.292,0-.282.262.132a1.511,1.511,0,0,0,.263.353c.023,0,.043.054.043.118s.026.118.057.118.057.035.057.077a.432.432,0,0,0,.114.2.544.544,0,0,1,.118.173.839.839,0,0,0,.671.594l.3.018V62.913l-.157-.021a1.5,1.5,0,0,0-.316,0m8.7,0c-.034.011-.061.11-.061.221v.2h.369c.5,0,.487-.028.487,1.5v1.27h.576l-.009-1.369-.009-1.369.392-.03.392-.029.018-.191c.014-.149,0-.194-.086-.2-.184-.02-2.006-.019-2.069,0m3.72-.005-.528.019V66.08h.8c.675,0,.818-.016.923-.1.245-.2.39-.387.39-.495,0-.06.032-.109.071-.109a5.815,5.815,0,0,0-.017-1.734.248.248,0,0,1-.054-.15c0-.132-.339-.455-.528-.5-.086-.022-.157-.063-.157-.092s-.083-.047-.185-.04-.423.021-.713.032M47.064,64.49v1.59h.514V62.9h-.514v1.59m12.955,0v1.59H61.96v-.409l-.728-.017-.728-.017-.015-1.369L60.474,62.9H60.02v1.59M25.253,63.4c.626.322.276,1.027-.511,1.027-.4,0-.45-.064-.45-.581s.42-.724.96-.446m3.177-.033a.154.154,0,0,0,.122.059c.153,0,.231.142.235.429.005.363-.094.421-.7.411l-.457-.008-.017-.356c-.025-.518.032-.594.444-.594a.749.749,0,0,1,.372.059m3.544.141.194.2v.8a2.437,2.437,0,0,1-.057.8c-.031,0-.057.037-.057.081,0,.278-.706.349-.942.095-.141-.152-.147-.181-.1-.537a2.6,2.6,0,0,0,0-.918c-.037-.317-.029-.38.065-.471.327-.322.624-.339.9-.053m3.133-.141a.159.159,0,0,0,.125.059c.265,0,.335.227.333,1.087l0,.815L35.4,65.5c-.154.161-.186.17-.571.153l-.408-.017-.016-1.088c-.009-.6,0-1.122.012-1.163.034-.091.635-.105.688-.017m14.981,0a.07.07,0,0,0,.077.059.335.335,0,0,1,.248.359.241.241,0,0,0,.05.212,1.123,1.123,0,0,1,0,.864c-.062.064-.077.154-.051.318.032.2.019.239-.126.337-.329.223-.934.112-.934-.171,0-.051-.026-.094-.057-.094a2.084,2.084,0,0,1-.057-.736c0-.608.015-.736.084-.736.052,0,.071-.034.05-.09-.054-.147.258-.381.508-.381.118,0,.214.026.214.059m17.157.026a.089.089,0,0,0,.117.051c.194-.077.366.243.329.614-.025.249-.018.317.027.252s.061-.039.062.136c0,.154-.02.211-.064.183s-.055.053-.027.312c.064.586-.468.928-1.073.688a7.283,7.283,0,0,1-.022-2.249c.1-.1.612-.092.652.014" fill="#2d43ba" fill-rule="evenodd"/>
  </g>
</svg>
