<svg xmlns="http://www.w3.org/2000/svg" width="30.353" height="20.489" viewBox="0 0 30.353 20.489">
  <path id="email" d="M.072,22.742V5.883q0-.029.088-.556l9.923,8.488L.189,23.328a2.481,2.481,0,0,1-.117-.585ZM1.389,4.156a1.261,1.261,0,0,1,.5-.088H28.61a1.657,1.657,0,0,1,.527.088l-9.952,8.518-1.317,1.054-2.605,2.137-2.605-2.137-1.317-1.054Zm.029,20.313L11.4,14.9l3.864,3.132L19.127,14.9l9.981,9.571a1.405,1.405,0,0,1-.5.088H1.887a1.326,1.326,0,0,1-.468-.088ZM20.444,13.815l9.893-8.488a1.747,1.747,0,0,1,.088.556v16.86a2.244,2.244,0,0,1-.088.585Z" transform="translate(-0.072 -4.068)" fill="#fff"/>
</svg>
