<svg id="ios" xmlns="http://www.w3.org/2000/svg" width="45.549" height="55.724" viewBox="0 0 45.549 55.724">
  <g id="Group_301" data-name="Group 301" transform="translate(0 13.321)">
    <g id="Group_300" data-name="Group 300">
      <path id="Path_1199" data-name="Path 1199" d="M91.4,148.533a11.1,11.1,0,0,1-6.014-7.93.816.816,0,0,0-1.608.283,12.723,12.723,0,0,0,6.877,9.1,29.356,29.356,0,0,1-3.423,6.8c-2,2.924-4.266,6.238-7.631,6.3s-4.6-2.152-8.926-2.152-5.7,2.092-8.906,2.219c-3.015.115-5.433-3.01-7.85-6.5-4.465-6.458-8.005-18.422-3.4-26.421a12.542,12.542,0,0,1,8.754-6.222.816.816,0,0,0-.27-1.61,14.169,14.169,0,0,0-9.9,7.017c-4.926,8.55-1.376,21.158,3.469,28.165,1.993,2.881,4.988,7.21,9.038,7.21,3.652,0,5.023-2.222,9.06-2.222,3.936,0,5.093,2.224,8.956,2.152,4.207-.08,6.836-3.924,8.948-7.012a31.031,31.031,0,0,0,3.622-7.205A1.625,1.625,0,0,0,91.4,148.533Z" transform="translate(-46.744 -122.392)" fill="#080927"/>
    </g>
  </g>
  <g id="Group_303" data-name="Group 303" transform="translate(21.909 0)">
    <g id="Group_302" data-name="Group 302">
      <path id="Path_1200" data-name="Path 1200" d="M260.654,1.579a1.621,1.621,0,0,0-1.869-1.56c-6.344.969-10.932,7.1-10.73,12.485a1.615,1.615,0,0,0,1.608,1.551h.046C255.645,13.887,260.784,7.719,260.654,1.579ZM249.685,12.422a10.911,10.911,0,0,1,2.741-7.049,11.7,11.7,0,0,1,6.6-3.74C259.12,6.826,254.758,12.26,249.685,12.422Z" transform="translate(-248.048 0)" fill="#2d43ba"/>
    </g>
  </g>
  <g id="Group_305" data-name="Group 305" transform="translate(15.394 12.984)">
    <g id="Group_304" data-name="Group 304">
      <path id="Path_1201" data-name="Path 1201" d="M216.429,124.327a13.457,13.457,0,0,0-9.995-5c-4.637-.343-8.589,2.488-10.415,2.488-1.494,0-4.068-1.58-6.85-2.146a.816.816,0,0,0-.325,1.6c2.723.554,5.2,2.178,7.176,2.178,2.38,0,6.026-2.809,10.294-2.493a11.845,11.845,0,0,1,8.819,4.36,13.168,13.168,0,0,0-5.4,8.757.816.816,0,0,0,.7.916.831.831,0,0,0,.107.007.817.817,0,0,0,.808-.71,11.526,11.526,0,0,1,4.741-7.649A1.62,1.62,0,0,0,216.429,124.327Z" transform="translate(-188.19 -119.303)" fill="#2d43ba"/>
    </g>
  </g>
</svg>
