<svg id="IOT" xmlns="http://www.w3.org/2000/svg" width="38.31" height="52.241" viewBox="0 0 38.31 52.241">
  <path id="Path_1202" data-name="Path 1202" d="M38.81,15.672a6.973,6.973,0,0,0-6.965-6.965H29.193a9.578,9.578,0,0,0-19.077,0H7.465a6.965,6.965,0,1,0,0,13.931h9.577V20.9H7.465a5.224,5.224,0,1,1,0-10.448h4.353V9.577a7.836,7.836,0,0,1,15.672,0v.871h4.353a5.224,5.224,0,1,1,0,10.448H22.267v1.741h9.577A6.973,6.973,0,0,0,38.81,15.672Zm0,0" transform="translate(-0.5)" fill="#2d43ba"/>
  <path id="Path_1203" data-name="Path 1203" d="M35.327,153.616v-14.8a2.615,2.615,0,0,0-2.612-2.612H30.974v-1.9a2.606,2.606,0,1,0-3.322-3.322H20.526V120.02l2,2,1.231-1.231-4.1-4.1-4.1,4.1,1.231,1.231,2-2v10.958H11.659A2.606,2.606,0,1,0,8.336,134.3v2.773H3.112A2.615,2.615,0,0,0,.5,139.685v10.448a2.615,2.615,0,0,0,2.612,2.612H8.336v1.741H5.724v1.741h6.965v-1.741H10.077v-1.741H15.3a2.615,2.615,0,0,0,2.612-2.612V139.685a2.615,2.615,0,0,0-2.612-2.612H10.077V134.3a2.61,2.61,0,0,0,1.581-1.581H27.651a2.608,2.608,0,0,0,1.581,1.581v1.9H24.008a2.615,2.615,0,0,0-2.612,2.612v14.8a2.615,2.615,0,0,0,2.612,2.612h8.707a2.615,2.615,0,0,0,2.612-2.612Zm-19.155-3.483A.871.871,0,0,1,15.3,151H3.112a.871.871,0,0,1-.871-.871v-1.741H16.172ZM15.3,138.815a.871.871,0,0,1,.871.871v6.965H2.241v-6.965a.871.871,0,0,1,.871-.871ZM9.207,132.72a.871.871,0,1,1,.871-.871A.871.871,0,0,1,9.207,132.72Zm20.9-1.741a.871.871,0,1,1-.871.871A.871.871,0,0,1,30.1,130.978Zm-6.965,7.836a.871.871,0,0,1,.871-.871h8.707a.871.871,0,0,1,.871.871v11.319H23.138Zm0,14.8v-1.741H33.586v1.741a.871.871,0,0,1-.871.871H24.008A.871.871,0,0,1,23.138,153.616Zm0,0" transform="translate(-0.5 -103.987)" fill="#080927"/>
</svg>
