<svg xmlns="http://www.w3.org/2000/svg" width="28.662" height="28.661" viewBox="0 0 28.662 28.661">
  <path id="messenger" d="M6.754,29.162a2.178,2.178,0,0,1-2.176-2.109l-.071-2.317A13.628,13.628,0,0,1,0,14.436,13.69,13.69,0,0,1,4.157,4.46,14.543,14.543,0,0,1,14.331.5,14.543,14.543,0,0,1,24.5,4.46a13.691,13.691,0,0,1,4.158,9.976A13.69,13.69,0,0,1,24.5,24.411a14.543,14.543,0,0,1-10.173,3.96,15.505,15.505,0,0,1-4.1-.541l-2.6,1.148a2.185,2.185,0,0,1-.878.184ZM14.331,2.74c-6.894,0-12.092,5.028-12.092,11.7a11.419,11.419,0,0,0,3.776,8.645,2.171,2.171,0,0,1,.729,1.546v.007l.069,2.258,2.536-1.119a2.185,2.185,0,0,1,1.451-.109,13.269,13.269,0,0,0,3.531.468c6.894,0,12.092-5.028,12.092-11.7s-5.2-11.7-12.092-11.7ZM7.285,19.01l4.184-3.226a.8.8,0,0,1,.957,0l3.1,2.407A2,2,0,0,0,18.4,17.66l3.892-6.171a.628.628,0,0,0-.912-.833L17.2,13.824a.8.8,0,0,1-.957,0l-3.1-2.351A2,2,0,0,0,10.267,12L6.373,18.176a.628.628,0,0,0,.912.833Zm0,0" transform="translate(0 -0.501)" fill="#fff"/>
</svg>
