<svg id="ser1" xmlns="http://www.w3.org/2000/svg" width="50" height="50" viewBox="0 0 50 50">
  <rect id="Rectangle_11" data-name="Rectangle 11" width="50" height="50" rx="11" fill="#2d43ba"/>
  <path id="found" d="M5.361,9.062a.81.81,0,0,1,0-1.1l.039-.04a.807.807,0,0,1,1.1-.014l0,0c.222.212.6.56.842.778l.211.189,2.582-2.711a.747.747,0,0,1,.119-.1A.784.784,0,0,1,10.394,6a.834.834,0,0,1,.149-.048.882.882,0,0,1,.155-.019h0a.854.854,0,0,1,.307.054.768.768,0,0,1,.138.07.753.753,0,0,1,.121.095l.019.017a.881.881,0,0,1,.1.116.763.763,0,0,1,.074.135.725.725,0,0,1,.048.149.849.849,0,0,1,.019.157v.026a.83.83,0,0,1-.012.138.92.92,0,0,1-.04.146.768.768,0,0,1-.07.138.727.727,0,0,1-.1.123L8.185,10.567a.808.808,0,0,1-.253.18.874.874,0,0,1-.147.051.849.849,0,0,1-.155.022H7.616a.728.728,0,0,1-.143-.009l-.012,0a.782.782,0,0,1-.138-.036.731.731,0,0,1-.141-.067l-.008,0a.825.825,0,0,1-.118-.087l-.008-.006c-.181-.167-.378-.34-.577-.512C6.127,9.8,5.648,9.366,5.361,9.062ZM8.315,0a8.315,8.315,0,0,1,6.958,12.865l3.6,3.922-2.481,2.269L12.92,15.237A8.315,8.315,0,1,1,8.315,0Zm5.223,3.091A7.39,7.39,0,1,0,15.7,8.315a7.363,7.363,0,0,0-2.162-5.224Z" transform="translate(15.565 15.472)" fill="#fff" fill-rule="evenodd"/>
</svg>
