<svg xmlns="http://www.w3.org/2000/svg" width="50" height="50" viewBox="0 0 50 50">
  <g id="ser3" transform="translate(-0.263)">
    <rect id="Rectangle_11" data-name="Rectangle 11" width="50" height="50" rx="11" transform="translate(0.263)" fill="#2d43ba"/>
    <g id="web-service" transform="translate(14.569 15.112)">
      <path id="Path_220" data-name="Path 220" d="M17.617,1.22l.444.584a.352.352,0,0,1-.067.492l-.471.358a2.747,2.747,0,0,1,.163.72l.536.074a.352.352,0,0,1,.3.4l-.1.728a.35.35,0,0,1-.4.3l-.586-.081a2.733,2.733,0,0,1-.4.624l.329.432a.352.352,0,0,1-.069.492l-.584.444a.353.353,0,0,1-.492-.067l-.358-.471a2.76,2.76,0,0,1-.722.163l-.074.536a.352.352,0,0,1-.4.3l-.728-.1a.352.352,0,0,1-.3-.4l.081-.586a2.825,2.825,0,0,1-.624-.394l-.432.327a.352.352,0,0,1-.492-.067l-.444-.584a.352.352,0,0,1,.067-.492l.471-.358a2.763,2.763,0,0,1-.163-.72L11.579,3.8a.35.35,0,0,1-.3-.4l.1-.728a.353.353,0,0,1,.4-.3l.586.081a2.825,2.825,0,0,1,.394-.624L12.427,1.4a.35.35,0,0,1,.067-.49l.584-.444a.352.352,0,0,1,.492.067l.358.471a2.747,2.747,0,0,1,.72-.163l.074-.536a.353.353,0,0,1,.4-.3l.728.1a.35.35,0,0,1,.3.4l-.081.586a2.781,2.781,0,0,1,.626.4l.432-.327a.352.352,0,0,1,.494.065ZM5.241,9.615H15.685a.725.725,0,0,1,.512.214h0l0,0,0,0h0a.723.723,0,0,1,.213.512v8.7a.731.731,0,0,1-.728.728H5.241a.724.724,0,0,1-.514-.214l0,0h0l0,0a.723.723,0,0,1-.213-.512V10.341a.74.74,0,0,1,.214-.514c.009-.007.015-.015.024-.022a.742.742,0,0,1,.492-.19ZM6.42,17.862a.3.3,0,0,1,0-.6H9.582a.3.3,0,0,1,0,.6H6.42v0Zm4.465,0a.3.3,0,0,1,0-.6H14.3a.3.3,0,0,1,0,.6H10.885v0Zm-4.669-4.88h8.323v3.258H6.216V12.983Zm9.541-.759a.485.485,0,0,1-.07.005H5.241a.468.468,0,0,1-.07-.005v6.825a.084.084,0,0,0,.019.05h0l0,0a.069.069,0,0,0,.05.019H15.685a.069.069,0,0,0,.05-.021.078.078,0,0,0,.022-.05V12.223ZM9.368,10.554a.473.473,0,1,1-.473.473.474.474,0,0,1,.473-.473Zm-1.654,0a.473.473,0,1,1-.473.473.473.473,0,0,1,.473-.473Zm-1.652,0a.473.473,0,1,1-.473.473.473.473,0,0,1,.473-.473Zm4.312-8.588a5.432,5.432,0,0,0-.944.01A5.169,5.169,0,0,0,6.752,3.021,5.024,5.024,0,0,0,4.913,6.13l-.082.43L4.4,6.636a5.9,5.9,0,0,0-1.124.3,3.76,3.76,0,0,0-.852.456,2.825,2.825,0,0,0-.516.48,2.91,2.91,0,0,0-.655,1.9,3.44,3.44,0,0,0,.65,1.976,3.229,3.229,0,0,0,.542.583,2.718,2.718,0,0,0,.708.425,3.345,3.345,0,0,0,.475.154V14.2a4.634,4.634,0,0,1-.953-.276A3.97,3.97,0,0,1,1.64,13.3a4.426,4.426,0,0,1-.754-.809A4.714,4.714,0,0,1,0,9.781,4.163,4.163,0,0,1,.946,7.064a4.049,4.049,0,0,1,.744-.692,5.015,5.015,0,0,1,1.138-.608,6.885,6.885,0,0,1,.943-.288A6.2,6.2,0,0,1,5.984,2.024,6.434,6.434,0,0,1,9.313.723,6.792,6.792,0,0,1,11.2.807a1.439,1.439,0,0,0-.033.171l0,.01a1.691,1.691,0,0,0-.012.295,1.488,1.488,0,0,0-.367.207l-.005,0a1.534,1.534,0,0,0-.411.471Zm9.068,3.291c.1.087.189.178.279.276a5,5,0,0,1,.519.668,5.647,5.647,0,0,1,.818,3.071,5.043,5.043,0,0,1-.9,2.95,4.7,4.7,0,0,1-1.486,1.272,7.025,7.025,0,0,1-1.373.574V12.739a5.546,5.546,0,0,0,.754-.343,3.434,3.434,0,0,0,1.1-.927A3.789,3.789,0,0,0,19.8,9.263a4.365,4.365,0,0,0-.615-2.375,3.557,3.557,0,0,0-.386-.5c-.053-.057-.106-.11-.161-.161a1.649,1.649,0,0,0,.007-.261,1.488,1.488,0,0,0,.367-.207l.005,0a1.556,1.556,0,0,0,.428-.5ZM15.1,2.2a1.445,1.445,0,1,1-1.627,1.236A1.443,1.443,0,0,1,15.1,2.2Z" transform="translate(0.001 -0.002)" fill="#fff" fill-rule="evenodd"/>
    </g>
  </g>
</svg>
