<svg xmlns="http://www.w3.org/2000/svg" width="50" height="50" viewBox="0 0 50 50">
  <g id="ser4" transform="translate(0.22)">
    <rect id="Rectangle_11" data-name="Rectangle 11" width="50" height="50" rx="11" transform="translate(-0.22)" fill="#2d43ba"/>
    <g id="Group_189" data-name="Group 189" transform="translate(14.982 15.122)">
      <g id="Group_167" data-name="Group 167" transform="translate(0)">
        <path id="Path_569" data-name="Path 569" d="M19.621,1.752a.9.9,0,0,0-.691-.258l-.363.023a11.757,11.757,0,0,0-8.353,4.309L9.36,6.877,7.125,6.812H7.114A6.593,6.593,0,0,0,2.421,8.755L.132,11.044a.39.39,0,0,0,.256.665l4.846.249-.2.243a.39.39,0,0,0-.04.432q.114.209.238.412L4.085,14.409a.39.39,0,0,0-.054.418,5.074,5.074,0,0,0,2.436,2.436.39.39,0,0,0,.412-.05c.248-.2.533-.439.809-.669.2-.164.4-.332.586-.487q.168.1.341.2a.39.39,0,0,0,.425-.034l.266-.206.25,4.866a.39.39,0,0,0,.665.256l2.289-2.289a6.593,6.593,0,0,0,1.944-4.692V12.018l.9-.7a11.711,11.711,0,0,0,4.522-8.689l.009-.19A.9.9,0,0,0,19.621,1.752ZM1.3,10.976,2.972,9.306A5.819,5.819,0,0,1,7.108,7.591l1.633.048-2.9,3.57Zm5.886,4.97c-.2.17-.412.344-.605.5a4.281,4.281,0,0,1-1.736-1.735l.841-1a9.034,9.034,0,0,0,.834.967h0a9.034,9.034,0,0,0,1.073.922Zm6.486-1.793a5.818,5.818,0,0,1-1.715,4.141L10.29,19.964l-.233-4.533,3.618-2.807v1.53ZM19.1,2.59A10.932,10.932,0,0,1,14.879,10.7L8.768,15.444A8.251,8.251,0,0,1,7.356,14.4l2.06-2.06a.39.39,0,0,0-.551-.551L6.807,13.849a8.25,8.25,0,0,1-1-1.363l5.011-6.169a10.975,10.975,0,0,1,7.8-4.022l.363-.023a.123.123,0,0,1,.131.129Z" transform="translate(-0.018 -1.492)" fill="#fff"/>
      </g>
    </g>
  </g>
</svg>
