<svg xmlns="http://www.w3.org/2000/svg" width="36.992" height="36.848" viewBox="0 0 36.992 36.848">
  <g id="web-development" transform="translate(0 -1)">
    <path id="Path_1204" data-name="Path 1204" d="M33.741,1H3.251A3.255,3.255,0,0,0,0,4.251V34.6a3.255,3.255,0,0,0,3.251,3.251h30.49A3.255,3.255,0,0,0,36.992,34.6V4.251A3.255,3.255,0,0,0,33.741,1ZM3.251,3.168h30.49a1.085,1.085,0,0,1,1.084,1.084V9.67H2.168V4.251A1.085,1.085,0,0,1,3.251,3.168ZM33.741,35.68H3.251A1.085,1.085,0,0,1,2.168,34.6V11.838H34.825V34.6A1.085,1.085,0,0,1,33.741,35.68Z" fill="#080927"/>
    <path id="Path_1205" data-name="Path 1205" d="M204.01,196.084a1.084,1.084,0,0,0-1.423.569l-6.5,15.173a1.084,1.084,0,0,0,1.992.854l6.5-15.173A1.084,1.084,0,0,0,204.01,196.084Z" transform="translate(-181.835 -180.908)" fill="#2d43ba"/>
    <path id="Path_1206" data-name="Path 1206" d="M83.352,241.406a1.084,1.084,0,0,0-1.523-.169l-5.419,4.335a1.084,1.084,0,0,0,0,1.693l5.419,4.335a1.084,1.084,0,1,0,1.354-1.692l-4.361-3.489,4.361-3.489A1.084,1.084,0,0,0,83.352,241.406Z" transform="translate(-70.513 -222.659)" fill="#2d43ba"/>
    <path id="Path_1207" data-name="Path 1207" d="M338.179,245.571l-5.419-4.335a1.084,1.084,0,1,0-1.354,1.692l4.361,3.489-4.361,3.489a1.084,1.084,0,1,0,1.354,1.692l5.419-4.335A1.084,1.084,0,0,0,338.179,245.571Z" transform="translate(-307.085 -222.659)" fill="#2d43ba"/>
    <ellipse id="Ellipse_2" data-name="Ellipse 2" cx="1.18" cy="1.011" rx="1.18" ry="1.011" transform="translate(4.383 5.383)" fill="#080927"/>
    <circle id="Ellipse_3" data-name="Ellipse 3" cx="1.011" cy="1.011" r="1.011" transform="translate(8.766 5.383)" fill="#2d43ba"/>
    <circle id="Ellipse_4" data-name="Ellipse 4" cx="1.011" cy="1.011" r="1.011" transform="translate(13.149 5.383)" fill="#080927"/>
    <path id="Path_1208" data-name="Path 1208" d="M332.084,63.168h6.5a1.084,1.084,0,0,0,0-2.168h-6.5a1.084,1.084,0,0,0,0,2.168Z" transform="translate(-307.085 -55.665)" fill="#2d43ba"/>
  </g>
</svg>
