<svg xmlns="http://www.w3.org/2000/svg" width="30.113" height="30.113" viewBox="0 0 30.113 30.113">
  <path id="whatsapp" d="M25.6,6.626A14.927,14.927,0,0,0,2.117,24.633L0,32.363l7.911-2.077A14.877,14.877,0,0,0,15.043,32.1h.007A15.065,15.065,0,0,0,30.113,17.179,14.981,14.981,0,0,0,25.6,6.626ZM15.05,29.587a12.381,12.381,0,0,1-6.318-1.727l-.45-.269L3.589,28.82l1.25-4.577-.3-.471a12.427,12.427,0,1,1,23.048-6.594A12.541,12.541,0,0,1,15.05,29.587Zm6.8-9.289c-.37-.188-2.2-1.089-2.547-1.21s-.591-.188-.84.188-.961,1.21-1.183,1.465-.437.282-.807.094A10.149,10.149,0,0,1,11.4,16.4c-.383-.659.383-.612,1.1-2.037a.691.691,0,0,0-.034-.652c-.094-.188-.84-2.023-1.149-2.769-.3-.726-.612-.625-.84-.639s-.464-.013-.712-.013a1.381,1.381,0,0,0-.995.464,4.19,4.19,0,0,0-1.3,3.112A7.3,7.3,0,0,0,8.98,17.723a16.661,16.661,0,0,0,6.372,5.633c2.366,1.022,3.294,1.109,4.477.934a3.819,3.819,0,0,0,2.514-1.774,3.118,3.118,0,0,0,.215-1.774C22.47,20.573,22.222,20.479,21.852,20.3Z" transform="translate(0 -2.25)" fill="#fff"/>
</svg>
